<?xml version="1.0" encoding="utf-8"?>
<!-- Generator: Adobe Illustrator 24.0.0, SVG Export Plug-In . SVG Version: 6.00 Build 0)  -->
<svg version="1.1" id="Livello_1" xmlns="http://www.w3.org/2000/svg" xmlns:xlink="http://www.w3.org/1999/xlink" x="0px" y="0px"
	 viewBox="0 0 456.5 128.5" style="enable-background:new 0 0 456.5 128.5;" xml:space="preserve">
<style type="text/css">
	.st0{fill:url(#SVGID_1_);}
	.st1{opacity:0.2;}
	.st2{fill:#FFFFFF;}
</style>
<g>
	<g>
		<linearGradient id="SVGID_1_" gradientUnits="userSpaceOnUse" x1="4.1386" y1="27.8236" x2="109.1034" y2="139.7475">
			<stop  offset="0" style="stop-color:#64A1FF"/>
			<stop  offset="1" style="stop-color:#8BFCFE"/>
		</linearGradient>
		<path class="st0" d="M119.4,121.8l-17-89.7c-0.5-2.7-2.8-4.6-5.5-4.6h-9.5C87.3,12.4,74.9,0,59.7,0S32.1,12.4,32.1,27.6h-9.5
			c-2.7,0-5,1.9-5.5,4.6l-17,89.7c-0.7,3.5,2,6.7,5.5,6.7h108.2C117.4,128.5,120,125.3,119.4,121.8z M59.7,8.2
			c10.7,0,19.3,8.7,19.3,19.3H40.4C40.4,16.9,49.1,8.2,59.7,8.2z M93.8,80.6c-2.7,16.3-17,28.8-34.1,28.8S28.4,96.9,25.7,80.6
			c-0.5-3,1.8-5.7,4.9-5.7h0.4c2.4,0,4.5,1.7,4.9,4.1c1.9,11.4,11.9,20.1,23.9,20.1S81.7,90.4,83.6,79c0.4-2.4,2.5-4.1,4.9-4.1h0.4
			C92,74.9,94.3,77.6,93.8,80.6z"/>
		<g class="st1">
			<path class="st2" d="M119.4,121.8l-17-89.7c-0.4-2-1.8-3.6-3.7-4.3C93.4,58.1,72.7,83,45,94.1c4.1,3.2,9.2,5,14.8,5
				c12,0,21.9-8.7,23.9-20.1c0.4-2.4,2.5-4.1,4.9-4.1h0.4c3,0,5.4,2.7,4.9,5.7c-2.7,16.3-17,28.8-34.1,28.8
				c-10.3,0-19.6-4.5-25.9-11.7c-6.8,1.7-13.9,2.6-21.2,2.6c-2.8,0-5.6-0.1-8.3-0.4l-4.2,21.9c-0.7,3.5,2,6.7,5.5,6.7h108.2
				C117.4,128.5,120,125.3,119.4,121.8z"/>
		</g>
	</g>
	<g>
		<path d="M170.8,42.8c2.2-1.2,4.7-1.8,7.6-1.8c3.4,0,6.5,0.9,9.2,2.6c2.8,1.7,4.9,4.2,6.5,7.4c1.6,3.2,2.4,6.9,2.4,11.2
			c0,4.2-0.8,8-2.4,11.2c-1.6,3.2-3.8,5.7-6.5,7.5c-2.8,1.7-5.8,2.6-9.2,2.6c-2.9,0-5.4-0.6-7.6-1.8c-2.2-1.2-3.9-2.7-5.1-4.6v25.4
			H153V41.6h12.6v5.8C166.9,45.6,168.6,44,170.8,42.8z M181.1,54.8c-1.7-1.8-3.9-2.7-6.5-2.7c-2.5,0-4.6,0.9-6.4,2.7
			c-1.7,1.8-2.6,4.3-2.6,7.5c0,3.2,0.9,5.6,2.6,7.5c1.7,1.8,3.9,2.7,6.4,2.7c2.5,0,4.7-0.9,6.4-2.8c1.8-1.8,2.7-4.3,2.7-7.5
			C183.7,59,182.8,56.6,181.1,54.8z"/>
		<path d="M221.3,43.2c2.2-1.3,4.7-2,7.4-2v13.4h-3.5c-3.2,0-5.5,0.7-7.1,2c-1.6,1.4-2.4,3.7-2.4,7.1v19.1h-12.6V41.6h12.6v6.9
			C217.3,46.2,219.1,44.5,221.3,43.2z"/>
		<path d="M273.4,65.3h-28.6c0.2,2.6,1,4.5,2.5,5.9c1.5,1.4,3.2,2,5.4,2c3.1,0,5.3-1.3,6.6-4h13.4c-0.7,2.7-1.9,5.1-3.7,7.3
			c-1.8,2.2-4.1,3.9-6.8,5.1c-2.7,1.2-5.7,1.8-9.1,1.8c-4,0-7.6-0.9-10.8-2.6c-3.2-1.7-5.6-4.2-7.4-7.4c-1.8-3.2-2.7-6.9-2.7-11.2
			s0.9-8,2.6-11.2c1.7-3.2,4.2-5.7,7.3-7.4c3.1-1.7,6.8-2.6,10.9-2.6c4,0,7.5,0.8,10.6,2.5c3.1,1.7,5.5,4.1,7.3,7.2
			c1.7,3.1,2.6,6.7,2.6,10.9C273.6,62.8,273.5,64,273.4,65.3z M260.7,58.3c0-2.2-0.7-3.9-2.2-5.2c-1.5-1.3-3.3-1.9-5.5-1.9
			c-2.1,0-3.9,0.6-5.4,1.8c-1.5,1.2-2.4,3-2.7,5.2H260.7z"/>
		<path d="M287.4,81.6c-2.8-1.2-5-2.9-6.6-5.1c-1.6-2.1-2.5-4.5-2.7-7.2h12.5c0.1,1.4,0.8,2.6,2,3.5c1.2,0.9,2.6,1.3,4.4,1.3
			c1.6,0,2.8-0.3,3.7-0.9c0.9-0.6,1.3-1.4,1.3-2.4c0-1.2-0.6-2.1-1.8-2.6c-1.2-0.6-3.2-1.2-6-1.9c-3-0.7-5.4-1.4-7.4-2.2
			c-2-0.8-3.7-2-5.1-3.6c-1.4-1.6-2.1-3.9-2.1-6.7c0-2.4,0.7-4.5,2-6.5c1.3-1.9,3.2-3.5,5.8-4.6c2.5-1.1,5.5-1.7,9-1.7
			c5.2,0,9.2,1.3,12.2,3.8c3,2.6,4.7,6,5.1,10.2h-11.7c-0.2-1.4-0.8-2.6-1.9-3.4c-1.1-0.8-2.4-1.3-4.2-1.3c-1.5,0-2.6,0.3-3.4,0.8
			c-0.8,0.6-1.2,1.3-1.2,2.3c0,1.2,0.6,2.1,1.9,2.7c1.3,0.6,3.2,1.2,5.9,1.8c3.1,0.8,5.5,1.6,7.5,2.3c1.9,0.8,3.6,2,5.1,3.7
			c1.5,1.7,2.2,4,2.3,6.8c0,2.4-0.7,4.6-2,6.5c-1.4,1.9-3.3,3.4-5.8,4.5c-2.5,1.1-5.5,1.6-8.8,1.6C293.4,83.4,290.2,82.8,287.4,81.6
			z"/>
		<path d="M344.4,72.1v10.7H338c-4.6,0-8.1-1.1-10.7-3.4c-2.6-2.2-3.8-5.9-3.8-11V52.1h-5V41.6h5v-10h12.6v10h8.3v10.5h-8.3v16.5
			c0,1.2,0.3,2.1,0.9,2.7c0.6,0.5,1.6,0.8,3,0.8H344.4z"/>
		<path d="M359.3,80.9c-3.2-1.7-5.8-4.2-7.6-7.4c-1.8-3.2-2.8-6.9-2.8-11.2c0-4.2,0.9-8,2.8-11.2c1.9-3.2,4.4-5.7,7.7-7.4
			c3.2-1.7,6.9-2.6,10.9-2.6c4,0,7.7,0.9,10.9,2.6c3.2,1.7,5.8,4.2,7.7,7.4c1.9,3.2,2.8,7,2.8,11.2c0,4.2-0.9,8-2.8,11.2
			c-1.9,3.2-4.5,5.7-7.8,7.4c-3.3,1.7-6.9,2.6-11,2.6C366.2,83.4,362.5,82.6,359.3,80.9z M376.4,69.9c1.7-1.8,2.5-4.3,2.5-7.6
			c0-3.3-0.8-5.8-2.5-7.6c-1.6-1.8-3.7-2.7-6.1-2.7c-2.5,0-4.5,0.9-6.1,2.6c-1.6,1.7-2.4,4.3-2.4,7.6c0,3.3,0.8,5.8,2.4,7.6
			c1.6,1.8,3.6,2.7,6,2.7C372.6,72.5,374.7,71.6,376.4,69.9z"/>
		<path d="M399,81.8c-1-1-1.6-2.3-1.6-3.8c0-1.5,0.5-2.8,1.6-3.8c1-1,2.3-1.6,3.8-1.6c1.5,0,2.7,0.5,3.8,1.6c1,1,1.6,2.3,1.6,3.8
			c0,1.5-0.5,2.8-1.6,3.8c-1,1-2.3,1.6-3.8,1.6C401.3,83.4,400,82.9,399,81.8z"/>
		<path d="M417.7,35.2c-1-1-1.6-2.3-1.6-3.8c0-1.5,0.5-2.8,1.6-3.8c1-1,2.3-1.6,3.8-1.6c1.5,0,2.7,0.5,3.8,1.6c1,1,1.6,2.3,1.6,3.8
			c0,1.5-0.5,2.8-1.6,3.8c-1,1-2.3,1.6-3.8,1.6C420,36.8,418.7,36.3,417.7,35.2z M425.7,42.2v40.7h-8.4V42.2H425.7z"/>
		<path d="M446.6,49v22.5c0,1.5,0.4,2.6,1.1,3.3c0.7,0.7,1.9,1,3.7,1h5.2v7h-6.6c-3.8,0-6.7-0.9-8.7-2.7c-2-1.8-3-4.7-3-8.6V49h-4.8
			v-6.9h4.8V32h8.5v10.1h9.9V49H446.6z"/>
	</g>
</g>
</svg>
