<?xml version="1.0" encoding="utf-8"?>
<!-- Generator: Adobe Illustrator 24.0.0, SVG Export Plug-In . SVG Version: 6.00 Build 0)  -->
<svg version="1.1" id="Livello_1" xmlns="http://www.w3.org/2000/svg" xmlns:xlink="http://www.w3.org/1999/xlink" x="0px" y="0px"
	 viewBox="0 0 196.4 196.4" style="enable-background:new 0 0 196.4 196.4;" xml:space="preserve">
<style type="text/css">
	.st0{fill:url(#SVGID_1_);}
	.st1{fill:#FFFFFF;}
</style>
<g>
	
		<linearGradient id="SVGID_1_" gradientUnits="userSpaceOnUse" x1="21.3173" y1="186.0586" x2="170.4323" y2="18.7589" gradientTransform="matrix(1 0 0 -1 0 198)">
		<stop  offset="0" style="stop-color:#64A1FF"/>
		<stop  offset="1" style="stop-color:#8BFCFE"/>
	</linearGradient>
	<circle class="st0" cx="98.2" cy="98.2" r="98.2"/>
	<path class="st1" d="M152.8,144.4l-15.6-82.1c-0.5-2.4-2.6-4.2-5-4.2h-8.7c0-13.9-11.3-25.2-25.2-25.2S73,44.3,73,58.2h-8.7
		c-2.5,0-4.6,1.8-5,4.2l-15.6,82.1c-0.6,3.2,1.8,6.1,5,6.1h99C150.9,150.5,153.4,147.6,152.8,144.4z M98.2,40.5
		c9.8,0,17.7,7.9,17.7,17.7H80.5C80.5,48.4,88.4,40.5,98.2,40.5z M129.4,106.7c-2.5,15-15.5,26.4-31.2,26.4S69.5,121.7,67,106.7
		c-0.5-2.7,1.7-5.2,4.4-5.2h0.4c2.2,0,4.1,1.6,4.5,3.7c1.8,10.5,10.9,18.4,21.9,18.4s20.1-8,21.9-18.4c0.4-2.2,2.3-3.7,4.5-3.7h0.4
		C127.7,101.5,129.8,104,129.4,106.7z"/>
</g>
</svg>
