<?xml version="1.0" encoding="utf-8"?>
<!-- Generator: Adobe Illustrator 24.0.0, SVG Export Plug-In . SVG Version: 6.00 Build 0)  -->
<svg version="1.1" id="Livello_1" xmlns="http://www.w3.org/2000/svg" xmlns:xlink="http://www.w3.org/1999/xlink" x="0px" y="0px"
	 viewBox="0 0 119.5 128.5" style="enable-background:new 0 0 119.5 128.5;" xml:space="preserve">
<style type="text/css">
	.st0{fill:url(#SVGID_1_);}
	.st1{opacity:0.2;}
	.st2{fill:#FFFFFF;}
</style>
<g>
	<g>
		<linearGradient id="SVGID_1_" gradientUnits="userSpaceOnUse" x1="4.1386" y1="27.8236" x2="109.1034" y2="139.7475">
			<stop  offset="0" style="stop-color:#64A1FF"/>
			<stop  offset="1" style="stop-color:#8BFCFE"/>
		</linearGradient>
		<path class="st0" d="M119.4,121.8l-17-89.7c-0.5-2.7-2.8-4.6-5.5-4.6h-9.5C87.3,12.4,74.9,0,59.7,0S32.1,12.4,32.1,27.6h-9.5
			c-2.7,0-5,1.9-5.5,4.6l-17,89.7c-0.7,3.5,2,6.7,5.5,6.7h108.2C117.4,128.5,120,125.3,119.4,121.8z M59.7,8.2
			c10.7,0,19.3,8.7,19.3,19.3H40.4C40.4,16.9,49.1,8.2,59.7,8.2z M93.8,80.6c-2.7,16.3-17,28.8-34.1,28.8S28.4,96.9,25.7,80.6
			c-0.5-3,1.8-5.7,4.9-5.7h0.4c2.4,0,4.5,1.7,4.9,4.1c1.9,11.4,11.9,20.1,23.9,20.1S81.7,90.4,83.6,79c0.4-2.4,2.5-4.1,4.9-4.1h0.4
			C92,74.9,94.3,77.6,93.8,80.6z"/>
		<g class="st1">
			<path class="st2" d="M119.4,121.8l-17-89.7c-0.4-2-1.8-3.6-3.7-4.3C93.4,58.1,72.7,83,45,94.1c4.1,3.2,9.2,5,14.8,5
				c12,0,21.9-8.7,23.9-20.1c0.4-2.4,2.5-4.1,4.9-4.1h0.4c3,0,5.4,2.7,4.9,5.7c-2.7,16.3-17,28.8-34.1,28.8
				c-10.3,0-19.6-4.5-25.9-11.7c-6.8,1.7-13.9,2.6-21.2,2.6c-2.8,0-5.6-0.1-8.3-0.4l-4.2,21.9c-0.7,3.5,2,6.7,5.5,6.7h108.2
				C117.4,128.5,120,125.3,119.4,121.8z"/>
		</g>
	</g>
</g>
</svg>
