<?xml version="1.0" encoding="utf-8"?>
<!-- Generator: Adobe Illustrator 24.0.0, SVG Export Plug-In . SVG Version: 6.00 Build 0)  -->
<svg version="1.1" id="Livello_1" xmlns="http://www.w3.org/2000/svg" xmlns:xlink="http://www.w3.org/1999/xlink" x="0px" y="0px"
	 viewBox="0 0 2884.5 2868.5" style="enable-background:new 0 0 2884.5 2868.5;" xml:space="preserve">
<style type="text/css">
	.st0{fill:none;}
	.st1{fill:none;stroke:#1C1C1B;stroke-width:2.88;}
	.st2{fill:#6EB2EC;}
	.st3{fill:#E5F1FD;}
	.st4{fill:#BADEFC;}
	.st5{fill:none;stroke:#A3A3A3;stroke-width:9.7437;stroke-miterlimit:10;}
	.st6{fill:none;stroke:#6EB2EC;stroke-width:7.6834;stroke-miterlimit:10;}
	.st7{fill:#111B47;}
	.st8{fill:#FFFFFF;}
	.st9{fill:#D278F2;}
	.st10{opacity:0.9091;fill:url(#SVGID_1_);}
	.st11{fill:#FBB22C;}
	.st12{fill:#FFCE71;}
	.st13{fill:#74A0DD;}
	.st14{fill:#B8F0FF;}
	.st15{opacity:0.9091;fill:url(#SVGID_2_);}
	.st16{fill:#FBCFA8;}
	.st17{fill:#64A1FF;}
	.st18{fill:none;stroke:#FFAB95;stroke-width:3.6529;stroke-linecap:round;stroke-linejoin:round;stroke-miterlimit:10;}
	.st19{fill:none;stroke:#FFAB95;stroke-width:4.158;stroke-linecap:round;stroke-linejoin:round;stroke-miterlimit:10;}
	.st20{fill:none;stroke:#FFFFFF;stroke-width:6.611;stroke-linecap:round;stroke-linejoin:round;stroke-miterlimit:10;}
	.st21{fill:#00B087;}
	.st22{fill:#2FC6A5;}
	.st23{fill:#000100;}
	.st24{fill:none;stroke:#FFAB95;stroke-width:3.944;stroke-linecap:round;stroke-linejoin:round;stroke-miterlimit:10;}
	.st25{opacity:0.3;fill:#FFAB95;}
	.st26{fill:none;stroke:#000100;stroke-width:4.5143;stroke-linecap:round;stroke-linejoin:round;stroke-miterlimit:10;}
	.st27{fill:#FCC989;}
	.st28{fill:none;stroke:#FFAB95;stroke-width:3.8304;stroke-linecap:round;stroke-linejoin:round;stroke-miterlimit:10;}
	.st29{fill:none;stroke:#FFFFFF;stroke-width:7.9243;stroke-linecap:round;stroke-linejoin:round;stroke-miterlimit:10;}
	.st30{fill:none;stroke:#FFAB95;stroke-width:3.9622;stroke-linecap:round;stroke-linejoin:round;stroke-miterlimit:10;}
	.st31{opacity:0.85;fill:url(#SVGID_3_);}
</style>
<pattern  y="2971.9" width="72" height="72" patternUnits="userSpaceOnUse" id="_x31_0_lpi_40_x25_" viewBox="72.3 -72 72 72" style="overflow:visible;">
	<g>
		<rect x="72.3" y="-72" class="st0" width="72" height="72"/>
		<g>
			<line class="st1" x1="144" y1="-3.6" x2="216.5" y2="-3.6"/>
			<line class="st1" x1="144" y1="-18" x2="216.5" y2="-18"/>
			<line class="st1" x1="144" y1="-32.4" x2="216.5" y2="-32.4"/>
			<line class="st1" x1="144" y1="-46.8" x2="216.5" y2="-46.8"/>
			<line class="st1" x1="144" y1="-61.2" x2="216.5" y2="-61.2"/>
			<line class="st1" x1="144" y1="-10.8" x2="216.5" y2="-10.8"/>
			<line class="st1" x1="144" y1="-25.2" x2="216.5" y2="-25.2"/>
			<line class="st1" x1="144" y1="-39.6" x2="216.5" y2="-39.6"/>
			<line class="st1" x1="144" y1="-54" x2="216.5" y2="-54"/>
			<line class="st1" x1="144" y1="-68.4" x2="216.5" y2="-68.4"/>
		</g>
		<g>
			<line class="st1" x1="72" y1="-3.6" x2="144.5" y2="-3.6"/>
			<line class="st1" x1="72" y1="-18" x2="144.5" y2="-18"/>
			<line class="st1" x1="72" y1="-32.4" x2="144.5" y2="-32.4"/>
			<line class="st1" x1="72" y1="-46.8" x2="144.5" y2="-46.8"/>
			<line class="st1" x1="72" y1="-61.2" x2="144.5" y2="-61.2"/>
			<line class="st1" x1="72" y1="-10.8" x2="144.5" y2="-10.8"/>
			<line class="st1" x1="72" y1="-25.2" x2="144.5" y2="-25.2"/>
			<line class="st1" x1="72" y1="-39.6" x2="144.5" y2="-39.6"/>
			<line class="st1" x1="72" y1="-54" x2="144.5" y2="-54"/>
			<line class="st1" x1="72" y1="-68.4" x2="144.5" y2="-68.4"/>
		</g>
		<g>
			<line class="st1" x1="0" y1="-3.6" x2="72.5" y2="-3.6"/>
			<line class="st1" x1="0" y1="-18" x2="72.5" y2="-18"/>
			<line class="st1" x1="0" y1="-32.4" x2="72.5" y2="-32.4"/>
			<line class="st1" x1="0" y1="-46.8" x2="72.5" y2="-46.8"/>
			<line class="st1" x1="0" y1="-61.2" x2="72.5" y2="-61.2"/>
			<line class="st1" x1="0" y1="-10.8" x2="72.5" y2="-10.8"/>
			<line class="st1" x1="0" y1="-25.2" x2="72.5" y2="-25.2"/>
			<line class="st1" x1="0" y1="-39.6" x2="72.5" y2="-39.6"/>
			<line class="st1" x1="0" y1="-54" x2="72.5" y2="-54"/>
			<line class="st1" x1="0" y1="-68.4" x2="72.5" y2="-68.4"/>
		</g>
	</g>
</pattern>
<g>
	<g>
		<g>
			<path class="st2" d="M1018.1,1714.8h-67.3v-215.3c0-18.6,15.1-33.7,33.7-33.7l0,0c18.6,0,33.7,15.1,33.7,33.7V1714.8z"/>
			<path class="st2" d="M1167.4,1714.8h-67.3v-307.3c0-18.6,15.1-33.7,33.7-33.7l0,0c18.6,0,33.7,15.1,33.7,33.7V1714.8z"/>
			<path class="st2" d="M1310.6,1714.8h-67.3v-427.5c0-18.6,15.1-33.7,33.7-33.7l0,0c18.6,0,33.7,15.1,33.7,33.7V1714.8z"/>
			<path class="st2" d="M1453.7,1714.8h-67.3v-198.5c0-18.6,15.1-33.7,33.7-33.7l0,0c18.6,0,33.7,15.1,33.7,33.7V1714.8z"/>
			<path class="st2" d="M1590.8,1714.8h-67.3v-599.6c0-18.6,15.1-33.7,33.7-33.7l0,0c18.6,0,33.7,15.1,33.7,33.7V1714.8z"/>
			<path class="st2" d="M1740.1,1714.8h-67.3V928.4c0-18.6,15.1-33.7,33.7-33.7l0,0c18.6,0,33.7,15.1,33.7,33.7V1714.8z"/>
			<path class="st3" d="M2096.1,1716.7h67.3v435.4c0,18.6-15.1,33.7-33.7,33.7l0,0c-18.6,0-33.7-15.1-33.7-33.7V1716.7z"/>
			<path class="st3" d="M1952.9,1716.7h67.3v270.4c0,18.6-15.1,33.7-33.7,33.7l0,0c-18.6,0-33.7-15.1-33.7-33.7V1716.7z"/>
			<path class="st3" d="M1815.8,1716.7h67.3v107c0,18.6-15.1,33.7-33.7,33.7l0,0c-18.6,0-33.7-15.1-33.7-33.7V1716.7z"/>
			<path class="st4" d="M2312.8,1714.8h-67.3V1318c0-18.6,15.1-33.7,33.7-33.7l0,0c18.6,0,33.7,15.1,33.7,33.7V1714.8z"/>
			<path class="st4" d="M2456,1714.8h-67.3v-338.2c0-18.6,15.1-33.7,33.7-33.7l0,0c18.6,0,33.7,15.1,33.7,33.7V1714.8z"/>
			<path class="st4" d="M2599.2,1714.8h-67.3v-179.8c0-18.6,15.1-33.7,33.7-33.7l0,0c18.6,0,33.7,15.1,33.7,33.7V1714.8z"/>
			<line class="st5" x1="851.3" y1="1716.5" x2="2884.5" y2="1716.5"/>
			<g>
				<g>
					<path class="st2" d="M2265.1,2118.1v13.9h-42.6v-11l19.2-17.8c3.6-3.4,4.2-5.5,4.2-7.3c0-2.6-1.7-4.2-5.2-4.2
						c-3.2,0-6.2,1.7-7.8,4.9l-13.5-6.8c3.9-7.3,11.5-12.3,23-12.3c12.6,0,21.5,6.5,21.5,16.6c0,5.2-1.4,9.9-9.1,16.9l-7.6,6.9
						H2265.1z"/>
					<path class="st2" d="M2312.2,2114.5c0,9.5-7.3,18.7-24.3,18.7c-7.3,0-15.3-1.6-21-4.8l6.1-13.2c4.6,2.7,9.7,3.9,14.2,3.9
						c4,0,7-1.4,7-4.2c0-2.3-1.6-3.8-8-3.8h-15.4l2.7-32.3h35.3v13.5h-20.6l-0.4,5.2h2.7C2306.2,2097.6,2312.2,2105.1,2312.2,2114.5
						z"/>
					<path class="st2" d="M2314,2092.9c0-9.4,6.1-14.8,14.1-14.8c8,0,14.1,5.4,14.1,14.8c0,9.5-6.1,14.8-14.1,14.8
						C2320.1,2107.7,2314,2102.4,2314,2092.9z M2359.3,2078.8h12.8l-36.3,53.1h-12.8L2359.3,2078.8z M2331.5,2092.9
						c0-5.1-1.7-6.6-3.3-6.6c-1.7,0-3.3,1.5-3.3,6.6s1.7,6.6,3.3,6.6C2329.8,2099.5,2331.5,2097.9,2331.5,2092.9z M2353,2117.9
						c0-9.4,6.1-14.8,14.1-14.8c8,0,14.1,5.4,14.1,14.8c0,9.5-6.1,14.8-14.1,14.8C2359,2132.7,2353,2127.4,2353,2117.9z
						 M2370.4,2117.9c0-5.1-1.7-6.6-3.3-6.6c-1.7,0-3.3,1.5-3.3,6.6c0,5.1,1.7,6.6,3.3,6.6C2368.8,2124.5,2370.4,2123,2370.4,2117.9
						z"/>
				</g>
			</g>
			<g>
				<g>
					<path class="st2" d="M2265.2,1211.8h-7.1v9.1h-17.4v-9.1h-27.6v-11.4l22.6-32.6h18.4l-20,30.1h7.2v-8.1h16.9v8.1h7.1V1211.8z"
						/>
					<path class="st2" d="M2267.7,1194.4c0-17.6,10-27.8,24.1-27.8c14,0,24.1,10.2,24.1,27.8s-10,27.8-24.1,27.8
						C2277.8,1222.2,2267.7,1212,2267.7,1194.4z M2297.9,1194.4c0-10.3-2.6-13.4-6.1-13.4c-3.5,0-6.1,3.2-6.1,13.4
						s2.6,13.4,6.1,13.4C2295.3,1207.8,2297.9,1204.6,2297.9,1194.4z"/>
					<path class="st2" d="M2319.3,1181.8c0-9.4,6.1-14.8,14.1-14.8c8,0,14.1,5.4,14.1,14.8c0,9.5-6.1,14.8-14.1,14.8
						C2325.4,1196.6,2319.3,1191.3,2319.3,1181.8z M2364.6,1167.8h12.8l-36.3,53.1h-12.8L2364.6,1167.8z M2336.8,1181.8
						c0-5.1-1.7-6.6-3.3-6.6c-1.7,0-3.3,1.5-3.3,6.6c0,5.1,1.7,6.6,3.3,6.6C2335.1,1188.4,2336.8,1186.9,2336.8,1181.8z
						 M2358.2,1206.9c0-9.4,6.1-14.8,14.1-14.8c8,0,14.1,5.4,14.1,14.8c0,9.5-6.1,14.8-14.1,14.8
						C2364.3,1221.7,2358.2,1216.4,2358.2,1206.9z M2375.7,1206.9c0-5.1-1.7-6.6-3.3-6.6c-1.7,0-3.3,1.5-3.3,6.6
						c0,5.1,1.7,6.6,3.3,6.6C2374,1213.5,2375.7,1212,2375.7,1206.9z"/>
				</g>
			</g>
			<g>
				<g>
					<path class="st2" d="M1688.5,787.8v11l-17.7,42.1h-19.6l16.9-39.3h-10.3v7.7H1643v-21.6H1688.5z"/>
					<path class="st2" d="M1691.1,814.4c0-17.6,10-27.8,24.1-27.8c14,0,24.1,10.2,24.1,27.8s-10,27.8-24.1,27.8
						C1701.1,842.2,1691.1,832,1691.1,814.4z M1721.3,814.4c0-10.3-2.6-13.4-6.1-13.4c-3.5,0-6.1,3.2-6.1,13.4s2.6,13.4,6.1,13.4
						C1718.7,827.8,1721.3,824.6,1721.3,814.4z"/>
					<path class="st2" d="M1742.7,801.8c0-9.4,6.1-14.8,14.1-14.8c8,0,14.1,5.4,14.1,14.8c0,9.5-6.1,14.8-14.1,14.8
						C1748.7,816.6,1742.7,811.3,1742.7,801.8z M1788,787.8h12.8l-36.3,53.1h-12.8L1788,787.8z M1760.1,801.8c0-5.1-1.7-6.6-3.3-6.6
						c-1.7,0-3.3,1.5-3.3,6.6c0,5.1,1.7,6.6,3.3,6.6C1758.5,808.4,1760.1,806.9,1760.1,801.8z M1781.6,826.9
						c0-9.4,6.1-14.8,14.1-14.8c8,0,14.1,5.4,14.1,14.8c0,9.5-6.1,14.8-14.1,14.8C1787.7,841.7,1781.6,836.4,1781.6,826.9z
						 M1799.1,826.9c0-5.1-1.7-6.6-3.3-6.6c-1.7,0-3.3,1.5-3.3,6.6c0,5.1,1.7,6.6,3.3,6.6C1797.4,833.5,1799.1,832,1799.1,826.9z"/>
				</g>
			</g>
			<polyline class="st6" points="1618.6,897.2 1538.3,1016.5 1019.4,1016.5 			"/>
			<polyline class="st6" points="2042.5,2085.9 1962.1,2205.3 1163.1,2205.3 			"/>
			<polyline class="st6" points="2205.7,1472.1 2159.4,1384.4 1857.4,1384.4 			"/>
		</g>
	</g>
	<g>
		<path class="st7" d="M1677.1,1168.7V1883c0,42.9-34.8,77.7-77.7,77.7H365.9c-43,0-77.8-34.8-77.8-77.7v-714.2
			c0-42.9,34.8-77.7,77.8-77.7h1233.5c12.4,0,24.1,2.9,34.5,8.1C1659.5,1111.8,1677.1,1138.3,1677.1,1168.7z"/>
		<g>
			<g>
				
					<rect x="557.9" y="1557.7" transform="matrix(-1 -1.224647e-16 1.224647e-16 -1 1188.8835 3379.4556)" class="st8" width="73" height="264"/>
			</g>
			<polygon class="st8" points="463.1,1666.2 594.7,1448.6 726.2,1666.2 654.9,1666.2 594.7,1566.6 534.5,1666.2 			"/>
		</g>
	</g>
	<g>
		<g>
			<g>
				<g>
					<path class="st8" d="M985.9,1586.8h-15.6v15.3h-11.6v-15.3h-15.5v-11h15.5v-15.3h11.6v15.3h15.6V1586.8z"/>
					<path class="st8" d="M1039.5,1593.5c0,10.6-8.2,20.3-26,20.3c-8.8,0-17.9-2.4-24-6.7l5.7-11.1c4.8,3.6,11.4,5.7,18,5.7
						c7.3,0,11.8-3,11.8-8.1c0-4.8-3.5-7.7-11.8-7.7h-6.6v-9.6l12.9-14.6h-26.8v-11.7h44v9.4l-14.2,16.2
						C1033.8,1577.2,1039.5,1584.2,1039.5,1593.5z"/>
					<path class="st8" d="M1092.8,1600.9v11.9h-47.5v-9.4l24.2-22.9c5.6-5.3,6.6-8.5,6.6-11.6c0-4.9-3.4-7.8-10.1-7.8
						c-5.4,0-10,2.1-13,6.3l-10.6-6.8c4.9-7.1,13.7-11.7,25-11.7c14,0,23.4,7.2,23.4,18.6c0,6.1-1.7,11.7-10.5,19.8l-14.5,13.7
						H1092.8z"/>
					<path class="st8" d="M1147.9,1549.8v9.4l-23.4,53.4h-15.8l22.5-51h-20.8v10.2h-12.9v-22.1H1147.9z"/>
					<path class="st8" d="M1205.4,1594.5c0,11.9-10.6,19.3-26.6,19.3c-15.9,0-26.4-7.5-26.4-19.3c0-6.7,3.5-11.8,9.5-14.8
						c-4.7-2.9-7.3-7.3-7.3-12.9c0-11,9.9-18,24.2-18c14.5,0,24.3,6.9,24.3,18c0,5.7-2.7,10.1-7.4,12.9
						C1201.9,1582.7,1205.4,1587.7,1205.4,1594.5z M1190.7,1594c0-5.6-4.6-9-11.9-9c-7.2,0-11.7,3.4-11.7,9c0,5.6,4.5,9.1,11.7,9.1
						C1186.1,1603.1,1190.7,1599.6,1190.7,1594z M1169.2,1567.4c0,4.8,3.8,7.7,9.7,7.7c6,0,9.9-3,9.9-7.7c0-4.9-4-7.9-9.9-7.9
						C1173,1559.5,1169.2,1562.4,1169.2,1567.4z"/>
					<path class="st8" d="M1261.3,1549.8v9.4l-23.4,53.4h-15.8l22.5-51h-20.8v10.2h-12.9v-22.1H1261.3z"/>
					<path class="st8" d="M1313.6,1593.5c0,10.6-8.2,20.3-26,20.3c-8.8,0-17.9-2.4-24-6.7l5.7-11.1c4.8,3.6,11.4,5.7,18,5.7
						c7.3,0,11.8-3,11.8-8.1c0-4.8-3.5-7.7-11.8-7.7h-6.6v-9.6l12.9-14.6h-26.8v-11.7h44v9.4l-14.2,16.2
						C1307.8,1577.2,1313.6,1584.2,1313.6,1593.5z"/>
					<path class="st8" d="M1319.9,1604.6c0-5.2,3.9-8.6,8.7-8.6c4.8,0,8.7,3.4,8.7,8.6c0,5.1-3.9,8.8-8.7,8.8
						C1323.7,1613.4,1319.9,1609.7,1319.9,1604.6z"/>
					<path class="st8" d="M1391.4,1593c0,11.1-8.2,20.8-26.1,20.8c-8.7,0-17.9-2.4-24-6.7l5.7-11.1c4.8,3.6,11.3,5.7,17.9,5.7
						c7.3,0,11.8-3.1,11.8-8.2c0-4.9-3.2-8.2-14.6-8.2h-16.1l3.2-35.4h38.4v11.7h-26.2l-1,11.9h5.1
						C1384,1573.5,1391.4,1581.8,1391.4,1593z"/>
					<path class="st8" d="M1445.4,1549.8v9.4l-23.4,53.4h-15.8l22.5-51H1408v10.2H1395v-22.1H1445.4z"/>
					<path class="st8" d="M1502,1592.9c0,12.8-10.5,20.9-23.8,20.9c-17.3,0-28.1-10.9-28.1-31.2c0-21.7,13.1-33.9,32.1-33.9
						c6.6,0,13.1,1.5,17.5,4.3l-5.4,10.7c-3.5-2.3-7.5-3.1-11.8-3.1c-10.5,0-17.2,6.2-17.7,18.2c3.7-3.7,9-5.6,15.5-5.6
						C1492.5,1573.3,1502,1581,1502,1592.9z M1487.9,1593.6c0-5.7-4.2-9.4-10.7-9.4c-6.4,0-10.9,4-10.9,9.4c0,5.4,4,9.3,11,9.3
						C1483.6,1602.9,1487.9,1599.3,1487.9,1593.6z"/>
					<path class="st8" d="M1507.3,1581.3c0-20.7,11.5-32.5,26.9-32.5c15.5,0,26.9,11.8,26.9,32.5s-11.4,32.5-26.9,32.5
						C1518.8,1613.8,1507.3,1602,1507.3,1581.3z M1546.6,1581.3c0-14.3-5-20.2-12.3-20.2c-7.2,0-12.2,5.9-12.2,20.2
						s5,20.2,12.2,20.2C1541.5,1601.5,1546.6,1595.6,1546.6,1581.3z"/>
				</g>
			</g>
			<g>
				<g>
					<path class="st8" d="M1338.2,1727.3h-15.6v15.3H1311v-15.3h-15.5v-11h15.5v-15.3h11.6v15.3h15.6V1727.3z"/>
					<path class="st8" d="M1395.5,1690.4v9.4l-23.4,53.4h-15.8l22.5-51H1358v10.2h-12.9v-22.1H1395.5z"/>
					<path class="st8" d="M1447.9,1733.5c0,11.1-8.2,20.8-26.1,20.8c-8.7,0-17.9-2.4-24-6.7l5.7-11.1c4.8,3.6,11.3,5.7,17.9,5.7
						c7.3,0,11.8-3.1,11.8-8.2c0-4.9-3.2-8.2-14.6-8.2h-16.1l3.2-35.4h38.4v11.7h-26.2l-1,11.9h5.1
						C1440.6,1714,1447.9,1722.4,1447.9,1733.5z"/>
					<path class="st8" d="M1511.4,1740.1h-10.2v13.2H1487v-13.2h-33.9v-9.8l29.6-39.9h15.3l-27.5,37.8h16.9v-11.8h13.7v11.8h10.2
						V1740.1z"/>
					<path class="st8" d="M1561.6,1734.1c0,10.6-8.2,20.3-26,20.3c-8.8,0-17.9-2.4-24-6.7l5.7-11.1c4.8,3.6,11.4,5.7,18,5.7
						c7.3,0,11.8-3,11.8-8.1c0-4.8-3.5-7.7-11.8-7.7h-6.6v-9.6l12.9-14.6h-26.8v-11.7h44v9.4l-14.2,16.2
						C1555.8,1717.8,1561.6,1724.8,1561.6,1734.1z"/>
				</g>
			</g>
			<g>
				<rect x="1018.9" y="1221.1" class="st8" width="545.9" height="73"/>
			</g>
		</g>
	</g>
	<g>
		<path class="st9" d="M1631.4,2317.6h-340.2c-26.1,0-47.2-21.1-47.2-47.2v-340.2c0-26.1,21.1-47.2,47.2-47.2h340.2
			c26.1,0,47.2,21.1,47.2,47.2v340.2C1678.7,2296.5,1657.5,2317.6,1631.4,2317.6z"/>
		<g>
			<g>
				<rect x="1346.8" y="2072" class="st8" width="59" height="118"/>
				<path class="st8" d="M1421.2,2072c0,0,26.5-33.1,61.1-108.3c5.2-11.2,31.8-1.6,18.1,46c-10.6,36.7-14.6,43.2-14.6,43.2h74.9
					c4.8,0,9,3.2,10.1,7.9c5.4,23.5,16.6,93.4-31.9,127.2c-1.8,1.3-4.1,1.9-6.3,1.9h-111.4V2072z"/>
			</g>
		</g>
	</g>
	<g>
		<g>
			
				<radialGradient id="SVGID_1_" cx="307.9501" cy="2264.0647" r="419.9116" gradientTransform="matrix(1 0 0 0.2855 0 2070.9709)" gradientUnits="userSpaceOnUse">
				<stop  offset="0" style="stop-color:#000000;stop-opacity:0.7"/>
				<stop  offset="3.563071e-02" style="stop-color:#202020;stop-opacity:0.7168"/>
				<stop  offset="9.941667e-02" style="stop-color:#545454;stop-opacity:0.747"/>
				<stop  offset="0.166" style="stop-color:#828282;stop-opacity:0.7784"/>
				<stop  offset="0.2343" style="stop-color:#A8A8A8;stop-opacity:0.8106"/>
				<stop  offset="0.3044" style="stop-color:#C8C8C8;stop-opacity:0.8438"/>
				<stop  offset="0.3771" style="stop-color:#E0E0E0;stop-opacity:0.8781"/>
				<stop  offset="0.4535" style="stop-color:#F1F1F1;stop-opacity:0.9142"/>
				<stop  offset="0.5358" style="stop-color:#FCFCFC;stop-opacity:0.9531"/>
				<stop  offset="0.6352" style="stop-color:#FFFFFF"/>
				<stop  offset="0.6721" style="stop-color:#FFFFFF"/>
				<stop  offset="1" style="stop-color:#FFFFFF"/>
			</radialGradient>
			<ellipse class="st10" cx="308" cy="2717.4" rx="308" ry="63.4"/>
			<ellipse class="st3" cx="308" cy="2717.4" rx="308" ry="63.4"/>
		</g>
		<g>
			<path class="st11" d="M561.1,2703.2c0,33.3-90.7,60.2-202.6,60.2s-202.5-26.9-202.7-60.2v-54.8H561v53.7
				C561.1,2702.5,561.1,2702.9,561.1,2703.2z"/>
			<ellipse class="st12" cx="358.5" cy="2649.4" rx="202.7" ry="60.2"/>
			<g>
				<g>
					<g>
						<path class="st13" d="M387,2658.7c0-2.2-2.2-3.9-6.6-5.2c-4.4-1.3-12.1-2.5-23.1-3.7c-25.9-2.2-45-4.6-57.2-7.1
							c-12.2-2.5-18.3-6.1-18.3-10.8c0-4.3,6.2-7.8,18.7-10.6s29.2-4.4,50.2-4.9v-8.2h28.9v8.3c19.9,0.7,35.7,2.6,47.4,5.8
							c11.7,3.1,17.5,7.2,17.5,12.1h-56.9c0-3-2.3-5.3-7-7c-4.7-1.6-10.8-2.4-18.4-2.4c-7.9,0-13.8,0.6-17.6,1.9
							c-3.9,1.3-5.8,3-5.8,5c0,2,2.2,3.6,6.5,4.8s12.2,2.5,23.6,3.8c25.7,2.3,44.6,4.8,56.8,7.3c12.2,2.5,18.3,6.1,18.3,10.7
							c0,4.4-6.1,8-18.4,10.7c-12.3,2.7-28.9,4.3-49.7,4.8v7.7h-29.1v-7.7c-21.5-0.5-39.3-2.3-53.3-5.2c-14-3-21-7.3-21-13.1h56.9
							c0,3.5,2.9,6,8.8,7.5c5.9,1.5,13.6,2.3,23.1,2.3c8.4,0,14.8-0.6,19.2-1.9C384.8,2662.4,387,2660.8,387,2658.7z"/>
					</g>
					<g>
						<g>
							<g>
								<g>
									<path class="st14" d="M387,2656.4c0-2.2-2.2-3.9-6.6-5.2c-4.4-1.3-12.1-2.5-23.1-3.7c-25.9-2.2-45-4.6-57.2-7.1
										c-12.2-2.5-18.3-6.1-18.3-10.8c0-4.3,6.2-7.8,18.7-10.6s29.2-4.4,50.2-4.9v-8.2h28.9v8.3c19.9,0.7,35.7,2.6,47.4,5.8
										c11.7,3.1,17.5,7.2,17.5,12.1h-56.9c0-3-2.3-5.3-7-7c-4.7-1.6-10.8-2.4-18.4-2.4c-7.9,0-13.8,0.6-17.6,1.9s-5.8,3-5.8,5
										c0,2,2.2,3.6,6.5,4.8c4.3,1.3,12.2,2.5,23.6,3.8c25.7,2.3,44.6,4.8,56.8,7.3c12.2,2.5,18.3,6.1,18.3,10.7
										c0,4.4-6.1,8-18.4,10.7c-12.3,2.7-28.9,4.3-49.7,4.8v7.7h-29.1v-7.7c-21.5-0.5-39.3-2.3-53.3-5.2c-14-3-21-7.3-21-13.1
										h56.9c0,3.5,2.9,6,8.8,7.5c5.9,1.5,13.6,2.3,23.1,2.3c8.4,0,14.8-0.6,19.2-1.9C384.8,2660.1,387,2658.5,387,2656.4z"/>
								</g>
							</g>
						</g>
					</g>
				</g>
			</g>
		</g>
		<g>
			<path class="st11" d="M524.6,2626.5c0,33.3-90.7,60.2-202.6,60.2c-111.9,0-202.5-26.9-202.7-60.2v-54.8h405.2v53.7
				C524.6,2625.8,524.6,2626.2,524.6,2626.5z"/>
			<ellipse class="st12" cx="322" cy="2572.7" rx="202.7" ry="60.2"/>
			<g>
				<g>
					<g>
						<path class="st13" d="M350.5,2582c0-2.2-2.2-3.9-6.6-5.2c-4.4-1.3-12.1-2.5-23.1-3.7c-25.9-2.2-45-4.6-57.2-7.1
							c-12.2-2.5-18.3-6.1-18.3-10.8c0-4.3,6.2-7.8,18.7-10.6c12.5-2.8,29.2-4.4,50.2-4.9v-8.2h28.9v8.3c19.9,0.7,35.7,2.6,47.4,5.8
							c11.7,3.1,17.5,7.2,17.5,12.1h-56.9c0-3-2.3-5.3-7-7c-4.7-1.6-10.8-2.4-18.4-2.4c-7.9,0-13.8,0.6-17.6,1.9
							c-3.9,1.3-5.8,3-5.8,5c0,2,2.2,3.6,6.5,4.8c4.3,1.3,12.2,2.5,23.6,3.8c25.7,2.3,44.6,4.8,56.8,7.3
							c12.2,2.5,18.3,6.1,18.3,10.7c0,4.4-6.1,8-18.4,10.7c-12.3,2.7-28.9,4.3-49.7,4.8v7.7h-29.1v-7.7c-21.5-0.5-39.3-2.3-53.3-5.2
							c-14-3-21-7.3-21-13.1h56.9c0,3.5,2.9,6,8.8,7.5c5.9,1.5,13.6,2.3,23.1,2.3c8.4,0,14.8-0.6,19.2-1.9
							C348.3,2585.7,350.5,2584.1,350.5,2582z"/>
					</g>
					<g>
						<g>
							<g>
								<g>
									<path class="st14" d="M350.5,2579.7c0-2.2-2.2-3.9-6.6-5.2c-4.4-1.3-12.1-2.5-23.1-3.7c-25.9-2.2-45-4.6-57.2-7.1
										c-12.2-2.5-18.3-6.1-18.3-10.8c0-4.3,6.2-7.8,18.7-10.6c12.5-2.8,29.2-4.4,50.2-4.9v-8.2h28.9v8.3
										c19.9,0.7,35.7,2.6,47.4,5.8c11.7,3.1,17.5,7.2,17.5,12.1h-56.9c0-3-2.3-5.3-7-7c-4.7-1.6-10.8-2.4-18.4-2.4
										c-7.9,0-13.8,0.6-17.6,1.9c-3.9,1.3-5.8,3-5.8,5c0,2,2.2,3.6,6.5,4.8c4.3,1.3,12.2,2.5,23.6,3.8
										c25.7,2.3,44.6,4.8,56.8,7.3c12.2,2.5,18.3,6.1,18.3,10.7c0,4.4-6.1,8-18.4,10.7c-12.3,2.7-28.9,4.3-49.7,4.8v7.7h-29.1
										v-7.7c-21.5-0.5-39.3-2.3-53.3-5.2c-14-3-21-7.3-21-13.1h56.9c0,3.5,2.9,6,8.8,7.5c5.9,1.5,13.6,2.3,23.1,2.3
										c8.4,0,14.8-0.6,19.2-1.9S350.5,2581.8,350.5,2579.7z"/>
								</g>
							</g>
						</g>
					</g>
				</g>
			</g>
		</g>
		<g>
			<path class="st11" d="M597.6,2562.6c0,33.3-90.7,60.2-202.6,60.2s-202.5-26.9-202.7-60.2v-54.8h405.2v53.7
				C597.6,2561.9,597.6,2562.3,597.6,2562.6z"/>
			<ellipse class="st12" cx="395" cy="2508.8" rx="202.7" ry="60.2"/>
			<g>
				<g>
					<g>
						<path class="st13" d="M423.5,2518.1c0-2.2-2.2-3.9-6.6-5.2c-4.4-1.3-12.1-2.5-23.1-3.7c-25.9-2.2-45-4.6-57.2-7.1
							c-12.2-2.5-18.3-6.1-18.3-10.8c0-4.3,6.2-7.8,18.7-10.6c12.5-2.8,29.2-4.4,50.2-4.9v-8.2h28.9v8.3c19.9,0.7,35.7,2.6,47.4,5.8
							c11.7,3.1,17.5,7.2,17.5,12.1h-56.9c0-3-2.3-5.3-7-7c-4.7-1.6-10.8-2.4-18.4-2.4c-7.9,0-13.8,0.6-17.6,1.9s-5.8,3-5.8,5
							c0,2,2.2,3.6,6.5,4.8c4.3,1.3,12.2,2.5,23.6,3.8c25.7,2.3,44.6,4.8,56.8,7.3c12.2,2.5,18.3,6.1,18.3,10.7
							c0,4.4-6.1,8-18.4,10.7c-12.3,2.7-28.9,4.3-49.7,4.8v7.7h-29.1v-7.7c-21.5-0.5-39.3-2.3-53.3-5.2c-14-3-21-7.3-21-13.1h56.9
							c0,3.5,2.9,6,8.8,7.5c5.9,1.5,13.6,2.3,23.1,2.3c8.4,0,14.8-0.6,19.2-1.9C421.3,2521.8,423.5,2520.2,423.5,2518.1z"/>
					</g>
					<g>
						<g>
							<g>
								<g>
									<path class="st14" d="M423.5,2515.8c0-2.2-2.2-3.9-6.6-5.2c-4.4-1.3-12.1-2.5-23.1-3.7c-25.9-2.2-45-4.6-57.2-7.1
										c-12.2-2.5-18.3-6.1-18.3-10.8c0-4.3,6.2-7.8,18.7-10.6c12.5-2.8,29.2-4.4,50.2-4.9v-8.2h28.9v8.3
										c19.9,0.7,35.7,2.6,47.4,5.8c11.7,3.1,17.5,7.2,17.5,12.1h-56.9c0-3-2.3-5.3-7-7c-4.7-1.6-10.8-2.4-18.4-2.4
										c-7.9,0-13.8,0.6-17.6,1.9c-3.9,1.3-5.8,3-5.8,5c0,2,2.2,3.6,6.5,4.8s12.2,2.5,23.6,3.8c25.7,2.3,44.6,4.8,56.8,7.3
										c12.2,2.5,18.3,6.1,18.3,10.7c0,4.4-6.1,8-18.4,10.7c-12.3,2.7-28.9,4.3-49.7,4.8v7.7h-29.1v-7.7
										c-21.5-0.5-39.3-2.3-53.3-5.2c-14-3-21-7.3-21-13.1h56.9c0,3.5,2.9,6,8.8,7.5c5.9,1.5,13.6,2.3,23.1,2.3
										c8.4,0,14.8-0.6,19.2-1.9C421.3,2519.5,423.5,2517.9,423.5,2515.8z"/>
								</g>
							</g>
						</g>
					</g>
				</g>
			</g>
		</g>
		<g>
			<path class="st11" d="M552,2491.4c0,33.3-90.7,60.2-202.6,60.2s-202.5-26.9-202.7-60.2v-54.8h405.2v53.7
				C552,2490.7,552,2491.1,552,2491.4z"/>
			<ellipse class="st12" cx="349.3" cy="2437.6" rx="202.7" ry="60.2"/>
			<g>
				<g>
					<g>
						<path class="st13" d="M377.9,2446.9c0-2.2-2.2-3.9-6.6-5.2c-4.4-1.3-12.1-2.5-23.1-3.7c-25.9-2.2-45-4.6-57.2-7.1
							c-12.2-2.5-18.3-6.1-18.3-10.8c0-4.3,6.2-7.8,18.7-10.6c12.5-2.8,29.2-4.4,50.2-4.9v-8.2h28.9v8.3c19.9,0.7,35.7,2.6,47.4,5.8
							c11.7,3.1,17.5,7.2,17.5,12.1h-56.9c0-3-2.3-5.3-7-7c-4.7-1.6-10.8-2.4-18.4-2.4c-7.9,0-13.8,0.6-17.6,1.9s-5.8,3-5.8,5
							c0,2,2.2,3.6,6.5,4.8c4.3,1.3,12.2,2.5,23.6,3.8c25.7,2.3,44.6,4.8,56.8,7.3c12.2,2.5,18.3,6.1,18.3,10.7
							c0,4.4-6.1,8-18.4,10.7c-12.3,2.7-28.9,4.3-49.7,4.8v7.7h-29.1v-7.7c-21.5-0.5-39.3-2.3-53.3-5.2c-14-3-21-7.3-21-13.1h56.9
							c0,3.5,2.9,6,8.8,7.5c5.9,1.5,13.6,2.3,23.1,2.3c8.4,0,14.8-0.6,19.2-1.9C375.7,2450.6,377.9,2449,377.9,2446.9z"/>
					</g>
					<g>
						<g>
							<g>
								<g>
									<path class="st14" d="M377.9,2444.6c0-2.2-2.2-3.9-6.6-5.2c-4.4-1.3-12.1-2.5-23.1-3.7c-25.9-2.2-45-4.6-57.2-7.1
										c-12.2-2.5-18.3-6.1-18.3-10.8c0-4.3,6.2-7.8,18.7-10.6c12.5-2.8,29.2-4.4,50.2-4.9v-8.2h28.9v8.3
										c19.9,0.7,35.7,2.6,47.4,5.8c11.7,3.1,17.5,7.2,17.5,12.1h-56.9c0-3-2.3-5.3-7-7s-10.8-2.4-18.4-2.4
										c-7.9,0-13.8,0.6-17.6,1.9s-5.8,3-5.8,5c0,2,2.2,3.6,6.5,4.8c4.3,1.3,12.2,2.5,23.6,3.8c25.7,2.3,44.6,4.8,56.8,7.3
										c12.2,2.5,18.3,6.1,18.3,10.7c0,4.4-6.1,8-18.4,10.7c-12.3,2.7-28.9,4.3-49.7,4.8v7.7h-29.1v-7.7
										c-21.5-0.5-39.3-2.3-53.3-5.2c-14-3-21-7.3-21-13.1h56.9c0,3.5,2.9,6,8.8,7.5c5.9,1.5,13.6,2.3,23.1,2.3
										c8.4,0,14.8-0.6,19.2-1.9C375.7,2448.3,377.9,2446.7,377.9,2444.6z"/>
								</g>
							</g>
						</g>
					</g>
				</g>
			</g>
		</g>
		<g>
			<path class="st11" d="M547.9,2414.7c0,33.3-90.7,60.2-202.6,60.2s-202.5-26.9-202.7-60.2V2360h405.2v53.7
				C547.9,2414,547.9,2414.4,547.9,2414.7z"/>
			<ellipse class="st12" cx="345.2" cy="2360.9" rx="202.7" ry="60.2"/>
			<g>
				<g>
					<g>
						<g>
							<path class="st11" d="M373.8,2370.2c0-2.2-2.2-3.9-6.6-5.2c-4.4-1.3-12.1-2.5-23.1-3.7c-25.9-2.2-45-4.6-57.2-7.1
								c-12.2-2.5-18.3-6.1-18.3-10.8c0-4.3,6.2-7.8,18.7-10.6c12.5-2.8,29.2-4.4,50.2-4.9v-8.2h28.9v8.3
								c19.9,0.7,35.7,2.6,47.4,5.8c11.7,3.1,17.5,7.2,17.5,12.1h-56.9c0-3-2.3-5.3-7-7c-4.7-1.6-10.8-2.4-18.4-2.4
								c-7.9,0-13.8,0.6-17.6,1.9c-3.9,1.3-5.8,3-5.8,5c0,2,2.2,3.6,6.5,4.8c4.3,1.3,12.2,2.5,23.6,3.8c25.7,2.3,44.6,4.8,56.8,7.3
								c12.2,2.5,18.3,6.1,18.3,10.7c0,4.4-6.1,8-18.4,10.7c-12.3,2.7-28.9,4.3-49.7,4.8v7.7h-29.1v-7.7
								c-21.5-0.5-39.3-2.3-53.3-5.2c-14-3-21-7.3-21-13.1h56.9c0,3.5,2.9,6,8.8,7.5c5.9,1.5,13.6,2.3,23.1,2.3
								c8.4,0,14.8-0.6,19.2-1.9C371.6,2373.9,373.8,2372.3,373.8,2370.2z"/>
						</g>
					</g>
					<g>
						<g>
							<g>
								<g>
									<path class="st12" d="M373.8,2368c0-2.2-2.2-3.9-6.6-5.2c-4.4-1.3-12.1-2.5-23.1-3.7c-25.9-2.2-45-4.6-57.2-7.1
										c-12.2-2.5-18.3-6.1-18.3-10.8c0-4.3,6.2-7.8,18.7-10.6c12.5-2.8,29.2-4.4,50.2-4.9v-8.2h28.9v8.3
										c19.9,0.7,35.7,2.6,47.4,5.8c11.7,3.1,17.5,7.2,17.5,12.1h-56.9c0-3-2.3-5.3-7-7c-4.7-1.6-10.8-2.4-18.4-2.4
										c-7.9,0-13.8,0.6-17.6,1.9c-3.9,1.3-5.8,3-5.8,5c0,2,2.2,3.6,6.5,4.8c4.3,1.3,12.2,2.5,23.6,3.8
										c25.7,2.3,44.6,4.8,56.8,7.3c12.2,2.5,18.3,6.1,18.3,10.7c0,4.4-6.1,8-18.4,10.7c-12.3,2.7-28.9,4.3-49.7,4.8v7.7h-29.1
										v-7.7c-21.5-0.5-39.3-2.3-53.3-5.2c-14-3-21-7.3-21-13.1h56.9c0,3.5,2.9,6,8.8,7.5c5.9,1.5,13.6,2.3,23.1,2.3
										c8.4,0,14.8-0.6,19.2-1.9C371.6,2371.7,373.8,2370,373.8,2368z"/>
								</g>
							</g>
						</g>
					</g>
				</g>
			</g>
		</g>
	</g>
	<g>
		<g>
			
				<radialGradient id="SVGID_2_" cx="776.2552" cy="2310.1042" r="419.9116" gradientTransform="matrix(1 0 0 0.2855 0 2145.4617)" gradientUnits="userSpaceOnUse">
				<stop  offset="0" style="stop-color:#000000;stop-opacity:0.7"/>
				<stop  offset="3.563071e-02" style="stop-color:#202020;stop-opacity:0.7168"/>
				<stop  offset="9.941667e-02" style="stop-color:#545454;stop-opacity:0.747"/>
				<stop  offset="0.166" style="stop-color:#828282;stop-opacity:0.7784"/>
				<stop  offset="0.2343" style="stop-color:#A8A8A8;stop-opacity:0.8106"/>
				<stop  offset="0.3044" style="stop-color:#C8C8C8;stop-opacity:0.8438"/>
				<stop  offset="0.3771" style="stop-color:#E0E0E0;stop-opacity:0.8781"/>
				<stop  offset="0.4535" style="stop-color:#F1F1F1;stop-opacity:0.9142"/>
				<stop  offset="0.5358" style="stop-color:#FCFCFC;stop-opacity:0.9531"/>
				<stop  offset="0.6352" style="stop-color:#FFFFFF"/>
				<stop  offset="0.6721" style="stop-color:#FFFFFF"/>
				<stop  offset="1" style="stop-color:#FFFFFF"/>
			</radialGradient>
			<ellipse class="st15" cx="776.3" cy="2805.1" rx="308" ry="63.4"/>
			<ellipse class="st3" cx="776.3" cy="2805.1" rx="308" ry="63.4"/>
		</g>
		<g>
			<path class="st11" d="M1029.4,2790.8c0,33.3-90.7,60.2-202.6,60.2s-202.5-26.9-202.7-60.2v-54.8h405.2v53.7
				C1029.4,2790.1,1029.4,2790.5,1029.4,2790.8z"/>
			<ellipse class="st12" cx="826.8" cy="2737" rx="202.7" ry="60.2"/>
			<g>
				<g>
					<g>
						<path class="st13" d="M855.3,2746.4c0-2.2-2.2-3.9-6.6-5.2c-4.4-1.3-12.1-2.5-23.1-3.7c-25.9-2.2-45-4.6-57.2-7.1
							c-12.2-2.5-18.3-6.1-18.3-10.8c0-4.3,6.2-7.8,18.7-10.6c12.5-2.8,29.2-4.4,50.2-4.9v-8.2h28.9v8.3c19.9,0.7,35.7,2.6,47.4,5.8
							c11.7,3.1,17.5,7.2,17.5,12.1h-56.9c0-3-2.3-5.3-7-7c-4.7-1.6-10.8-2.4-18.4-2.4c-7.9,0-13.8,0.6-17.6,1.9s-5.8,3-5.8,5
							c0,2,2.2,3.6,6.5,4.8c4.3,1.3,12.2,2.5,23.6,3.8c25.7,2.3,44.6,4.8,56.8,7.3c12.2,2.5,18.3,6.1,18.3,10.7
							c0,4.4-6.1,8-18.4,10.7c-12.3,2.7-28.9,4.3-49.7,4.8v7.7H815v-7.7c-21.5-0.5-39.3-2.3-53.3-5.2c-14-3-21-7.3-21-13.1h56.9
							c0,3.5,2.9,6,8.8,7.5c5.9,1.5,13.6,2.3,23.1,2.3c8.4,0,14.8-0.6,19.2-1.9C853.1,2750,855.3,2748.4,855.3,2746.4z"/>
					</g>
					<g>
						<g>
							<g>
								<g>
									<path class="st14" d="M855.3,2744.1c0-2.2-2.2-3.9-6.6-5.2c-4.4-1.3-12.1-2.5-23.1-3.7c-25.9-2.2-45-4.6-57.2-7.1
										c-12.2-2.5-18.3-6.1-18.3-10.8c0-4.3,6.2-7.8,18.7-10.6c12.5-2.8,29.2-4.4,50.2-4.9v-8.2h28.9v8.3
										c19.9,0.7,35.7,2.6,47.4,5.8c11.7,3.1,17.5,7.2,17.5,12.1h-56.9c0-3-2.3-5.3-7-7c-4.7-1.6-10.8-2.4-18.4-2.4
										c-7.9,0-13.8,0.6-17.6,1.9s-5.8,3-5.8,5c0,2,2.2,3.6,6.5,4.8c4.3,1.3,12.2,2.5,23.6,3.8c25.7,2.3,44.6,4.8,56.8,7.3
										c12.2,2.5,18.3,6.1,18.3,10.7c0,4.4-6.1,8-18.4,10.7c-12.3,2.7-28.9,4.3-49.7,4.8v7.7H815v-7.7
										c-21.5-0.5-39.3-2.3-53.3-5.2c-14-3-21-7.3-21-13.1h56.9c0,3.5,2.9,6,8.8,7.5c5.9,1.5,13.6,2.3,23.1,2.3
										c8.4,0,14.8-0.6,19.2-1.9C853.1,2747.8,855.3,2746.1,855.3,2744.1z"/>
								</g>
							</g>
						</g>
					</g>
				</g>
			</g>
		</g>
		<g>
			<path class="st11" d="M992.9,2714.1c0,33.3-90.7,60.2-202.6,60.2s-202.5-26.9-202.7-60.2v-54.8h405.2v53.7
				C992.9,2713.4,992.9,2713.8,992.9,2714.1z"/>
			<ellipse class="st12" cx="790.3" cy="2660.3" rx="202.7" ry="60.2"/>
			<g>
				<g>
					<g>
						<path class="st13" d="M818.8,2669.7c0-2.2-2.2-3.9-6.6-5.2c-4.4-1.3-12.1-2.5-23.1-3.7c-25.9-2.2-45-4.6-57.2-7.1
							c-12.2-2.5-18.3-6.1-18.3-10.8c0-4.3,6.2-7.8,18.7-10.6c12.5-2.8,29.2-4.4,50.2-4.9v-8.2h28.9v8.3c19.9,0.7,35.7,2.6,47.4,5.8
							c11.7,3.1,17.5,7.2,17.5,12.1h-56.9c0-3-2.3-5.3-7-7c-4.7-1.6-10.8-2.4-18.4-2.4c-7.9,0-13.8,0.6-17.6,1.9
							c-3.9,1.3-5.8,3-5.8,5c0,2,2.2,3.6,6.5,4.8c4.3,1.3,12.2,2.5,23.6,3.8c25.7,2.3,44.6,4.8,56.8,7.3
							c12.2,2.5,18.3,6.1,18.3,10.7c0,4.4-6.1,8-18.4,10.7c-12.3,2.7-28.9,4.3-49.7,4.8v7.7h-29.1v-7.7c-21.5-0.5-39.3-2.3-53.3-5.2
							c-14-3-21-7.3-21-13.1h56.9c0,3.5,2.9,6,8.8,7.5c5.9,1.5,13.6,2.3,23.1,2.3c8.4,0,14.8-0.6,19.2-1.9
							C816.6,2673.4,818.8,2671.7,818.8,2669.7z"/>
					</g>
					<g>
						<g>
							<g>
								<g>
									<path class="st14" d="M818.8,2667.4c0-2.2-2.2-3.9-6.6-5.2c-4.4-1.3-12.1-2.5-23.1-3.7c-25.9-2.2-45-4.6-57.2-7.1
										c-12.2-2.5-18.3-6.1-18.3-10.8c0-4.3,6.2-7.8,18.7-10.6c12.5-2.8,29.2-4.4,50.2-4.9v-8.2h28.9v8.3
										c19.9,0.7,35.7,2.6,47.4,5.8c11.7,3.1,17.5,7.2,17.5,12.1h-56.9c0-3-2.3-5.3-7-7c-4.7-1.6-10.8-2.4-18.4-2.4
										c-7.9,0-13.8,0.6-17.6,1.9c-3.9,1.3-5.8,3-5.8,5c0,2,2.2,3.6,6.5,4.8c4.3,1.3,12.2,2.5,23.6,3.8
										c25.7,2.3,44.6,4.8,56.8,7.3c12.2,2.5,18.3,6.1,18.3,10.7c0,4.4-6.1,8-18.4,10.7c-12.3,2.7-28.9,4.3-49.7,4.8v7.7h-29.1
										v-7.7c-21.5-0.5-39.3-2.3-53.3-5.2c-14-3-21-7.3-21-13.1h56.9c0,3.5,2.9,6,8.8,7.5c5.9,1.5,13.6,2.3,23.1,2.3
										c8.4,0,14.8-0.6,19.2-1.9C816.6,2671.1,818.8,2669.4,818.8,2667.4z"/>
								</g>
							</g>
						</g>
					</g>
				</g>
			</g>
		</g>
		<g>
			<path class="st11" d="M1034.1,2650.2c0,33.3-90.7,60.2-202.6,60.2s-202.5-26.9-202.7-60.2v-54.8h405.2v53.7
				C1034.1,2649.5,1034.1,2649.9,1034.1,2650.2z"/>
			<ellipse class="st12" cx="831.5" cy="2596.4" rx="202.7" ry="60.2"/>
			<g>
				<g>
					<g>
						<path class="st13" d="M860.1,2605.8c0-2.2-2.2-3.9-6.6-5.2c-4.4-1.3-12.1-2.5-23.1-3.7c-25.9-2.2-45-4.6-57.2-7.1
							c-12.2-2.5-18.3-6.1-18.3-10.8c0-4.3,6.2-7.8,18.7-10.6c12.5-2.8,29.2-4.4,50.2-4.9v-8.2h28.9v8.3c19.9,0.7,35.7,2.6,47.4,5.8
							c11.7,3.1,17.5,7.2,17.5,12.1h-56.9c0-3-2.3-5.3-7-7c-4.7-1.6-10.8-2.4-18.4-2.4c-7.9,0-13.8,0.6-17.6,1.9
							c-3.9,1.3-5.8,3-5.8,5c0,2,2.2,3.6,6.5,4.8c4.3,1.3,12.2,2.5,23.6,3.8c25.7,2.3,44.6,4.8,56.8,7.3
							c12.2,2.5,18.3,6.1,18.3,10.7c0,4.4-6.1,8-18.4,10.7c-12.3,2.7-28.9,4.3-49.7,4.8v7.7h-29.1v-7.7c-21.5-0.5-39.3-2.3-53.3-5.2
							c-14-3-21-7.3-21-13.1h56.9c0,3.5,2.9,6,8.8,7.5c5.9,1.5,13.6,2.3,23.1,2.3c8.4,0,14.8-0.6,19.2-1.9
							C857.8,2609.5,860.1,2607.8,860.1,2605.8z"/>
					</g>
					<g>
						<g>
							<g>
								<g>
									<path class="st14" d="M860.1,2603.5c0-2.2-2.2-3.9-6.6-5.2c-4.4-1.3-12.1-2.5-23.1-3.7c-25.9-2.2-45-4.6-57.2-7.1
										c-12.2-2.5-18.3-6.1-18.3-10.8c0-4.3,6.2-7.8,18.7-10.6c12.5-2.8,29.2-4.4,50.2-4.9v-8.2h28.9v8.3
										c19.9,0.7,35.7,2.6,47.4,5.8c11.7,3.1,17.5,7.2,17.5,12.1h-56.9c0-3-2.3-5.3-7-7c-4.7-1.6-10.8-2.4-18.4-2.4
										c-7.9,0-13.8,0.6-17.6,1.9c-3.9,1.3-5.8,3-5.8,5c0,2,2.2,3.6,6.5,4.8c4.3,1.3,12.2,2.5,23.6,3.8
										c25.7,2.3,44.6,4.8,56.8,7.3c12.2,2.5,18.3,6.1,18.3,10.7c0,4.4-6.1,8-18.4,10.7c-12.3,2.7-28.9,4.3-49.7,4.8v7.7h-29.1
										v-7.7c-21.5-0.5-39.3-2.3-53.3-5.2c-14-3-21-7.3-21-13.1h56.9c0,3.5,2.9,6,8.8,7.5c5.9,1.5,13.6,2.3,23.1,2.3
										c8.4,0,14.8-0.6,19.2-1.9C857.8,2607.2,860.1,2605.5,860.1,2603.5z"/>
								</g>
							</g>
						</g>
					</g>
				</g>
			</g>
		</g>
		<g>
			<path class="st11" d="M1034.1,2579c0,33.3-90.7,60.2-202.6,60.2s-202.5-26.9-202.7-60.2v-54.8h405.2v53.7
				C1034.1,2578.3,1034.1,2578.7,1034.1,2579z"/>
			<ellipse class="st12" cx="831.5" cy="2525.2" rx="202.7" ry="60.2"/>
			<g>
				<g>
					<g>
						<path class="st13" d="M860.1,2534.6c0-2.2-2.2-3.9-6.6-5.2c-4.4-1.3-12.1-2.5-23.1-3.7c-25.9-2.2-45-4.6-57.2-7.1
							c-12.2-2.5-18.3-6.1-18.3-10.8c0-4.3,6.2-7.8,18.7-10.6c12.5-2.8,29.2-4.4,50.2-4.9v-8.2h28.9v8.3c19.9,0.7,35.7,2.6,47.4,5.8
							c11.7,3.1,17.5,7.2,17.5,12.1h-56.9c0-3-2.3-5.3-7-7c-4.7-1.6-10.8-2.4-18.4-2.4c-7.9,0-13.8,0.6-17.6,1.9
							c-3.9,1.3-5.8,3-5.8,5c0,2,2.2,3.6,6.5,4.8c4.3,1.3,12.2,2.5,23.6,3.8c25.7,2.3,44.6,4.8,56.8,7.3
							c12.2,2.5,18.3,6.1,18.3,10.7c0,4.4-6.1,8-18.4,10.7c-12.3,2.7-28.9,4.3-49.7,4.8v7.7h-29.1v-7.7c-21.5-0.5-39.3-2.3-53.3-5.2
							c-14-3-21-7.3-21-13.1h56.9c0,3.5,2.9,6,8.8,7.5c5.9,1.5,13.6,2.3,23.1,2.3c8.4,0,14.8-0.6,19.2-1.9
							C857.8,2538.3,860.1,2536.6,860.1,2534.6z"/>
					</g>
					<g>
						<g>
							<g>
								<g>
									<path class="st14" d="M860.1,2532.3c0-2.2-2.2-3.9-6.6-5.2c-4.4-1.3-12.1-2.5-23.1-3.7c-25.9-2.2-45-4.6-57.2-7.1
										c-12.2-2.5-18.3-6.1-18.3-10.8c0-4.3,6.2-7.8,18.7-10.6c12.5-2.8,29.2-4.4,50.2-4.9v-8.2h28.9v8.3
										c19.9,0.7,35.7,2.6,47.4,5.8c11.7,3.1,17.5,7.2,17.5,12.1h-56.9c0-3-2.3-5.3-7-7c-4.7-1.6-10.8-2.4-18.4-2.4
										c-7.9,0-13.8,0.6-17.6,1.9c-3.9,1.3-5.8,3-5.8,5c0,2,2.2,3.6,6.5,4.8c4.3,1.3,12.2,2.5,23.6,3.8
										c25.7,2.3,44.6,4.8,56.8,7.3c12.2,2.5,18.3,6.1,18.3,10.7c0,4.4-6.1,8-18.4,10.7c-12.3,2.7-28.9,4.3-49.7,4.8v7.7h-29.1
										v-7.7c-21.5-0.5-39.3-2.3-53.3-5.2c-14-3-21-7.3-21-13.1h56.9c0,3.5,2.9,6,8.8,7.5c5.9,1.5,13.6,2.3,23.1,2.3
										c8.4,0,14.8-0.6,19.2-1.9C857.8,2536,860.1,2534.3,860.1,2532.3z"/>
								</g>
							</g>
						</g>
					</g>
				</g>
			</g>
		</g>
		<g>
			<path class="st11" d="M1034.1,2502.3c0,33.3-90.7,60.2-202.6,60.2s-202.5-26.9-202.7-60.2v-54.8h405.2v53.7
				C1034.1,2501.6,1034.1,2502,1034.1,2502.3z"/>
			<ellipse class="st12" cx="831.5" cy="2448.6" rx="202.7" ry="60.2"/>
			<g>
				<g>
					<g>
						<path class="st13" d="M860.1,2457.9c0-2.2-2.2-3.9-6.6-5.2c-4.4-1.3-12.1-2.5-23.1-3.7c-25.9-2.2-45-4.6-57.2-7.1
							c-12.2-2.5-18.3-6.1-18.3-10.8c0-4.3,6.2-7.8,18.7-10.6c12.5-2.8,29.2-4.4,50.2-4.9v-8.2h28.9v8.3c19.9,0.7,35.7,2.6,47.4,5.8
							c11.7,3.1,17.5,7.2,17.5,12.1h-56.9c0-3-2.3-5.3-7-7c-4.7-1.6-10.8-2.4-18.4-2.4c-7.9,0-13.8,0.6-17.6,1.9
							c-3.9,1.3-5.8,3-5.8,5c0,2,2.2,3.6,6.5,4.8c4.3,1.3,12.2,2.5,23.6,3.8c25.7,2.3,44.6,4.8,56.8,7.3
							c12.2,2.5,18.3,6.1,18.3,10.7c0,4.4-6.1,8-18.4,10.7c-12.3,2.7-28.9,4.3-49.7,4.8v7.7h-29.1v-7.7c-21.5-0.5-39.3-2.3-53.3-5.2
							c-14-3-21-7.3-21-13.1h56.9c0,3.5,2.9,6,8.8,7.5c5.9,1.5,13.6,2.3,23.1,2.3c8.4,0,14.8-0.6,19.2-1.9
							C857.8,2461.6,860.1,2459.9,860.1,2457.9z"/>
					</g>
					<g>
						<g>
							<g>
								<g>
									<path class="st14" d="M860.1,2455.6c0-2.2-2.2-3.9-6.6-5.2c-4.4-1.3-12.1-2.5-23.1-3.7c-25.9-2.2-45-4.6-57.2-7.1
										c-12.2-2.5-18.3-6.1-18.3-10.8c0-4.3,6.2-7.8,18.7-10.6c12.5-2.8,29.2-4.4,50.2-4.9v-8.2h28.9v8.3
										c19.9,0.7,35.7,2.6,47.4,5.8c11.7,3.1,17.5,7.2,17.5,12.1h-56.9c0-3-2.3-5.3-7-7c-4.7-1.6-10.8-2.4-18.4-2.4
										c-7.9,0-13.8,0.6-17.6,1.9c-3.9,1.3-5.8,3-5.8,5c0,2,2.2,3.6,6.5,4.8c4.3,1.3,12.2,2.5,23.6,3.8
										c25.7,2.3,44.6,4.8,56.8,7.3c12.2,2.5,18.3,6.1,18.3,10.7c0,4.4-6.1,8-18.4,10.7c-12.3,2.7-28.9,4.3-49.7,4.8v7.7h-29.1
										v-7.7c-21.5-0.5-39.3-2.3-53.3-5.2c-14-3-21-7.3-21-13.1h56.9c0,3.5,2.9,6,8.8,7.5c5.9,1.5,13.6,2.3,23.1,2.3
										c8.4,0,14.8-0.6,19.2-1.9C857.8,2459.3,860.1,2457.6,860.1,2455.6z"/>
								</g>
							</g>
						</g>
					</g>
				</g>
			</g>
		</g>
		<g>
			<path class="st11" d="M1019.1,2424.3c0,33.3-90.7,60.2-202.6,60.2s-202.5-26.9-202.7-60.2v-54.8H1019v53.7
				C1019.1,2423.6,1019.1,2424,1019.1,2424.3z"/>
			<ellipse class="st12" cx="816.4" cy="2370.5" rx="202.7" ry="60.2"/>
			<g>
				<g>
					<g>
						<path class="st13" d="M845,2379.8c0-2.2-2.2-3.9-6.6-5.2c-4.4-1.3-12.1-2.5-23.1-3.7c-25.9-2.2-45-4.6-57.2-7.1
							c-12.2-2.5-18.3-6.1-18.3-10.8c0-4.3,6.2-7.8,18.7-10.6c12.5-2.8,29.2-4.4,50.2-4.9v-8.2h28.9v8.3c19.9,0.7,35.7,2.6,47.4,5.8
							c11.7,3.1,17.5,7.2,17.5,12.1h-56.9c0-3-2.3-5.3-7-7c-4.7-1.6-10.8-2.4-18.4-2.4c-7.9,0-13.8,0.6-17.6,1.9s-5.8,3-5.8,5
							c0,2,2.2,3.6,6.5,4.8c4.3,1.3,12.2,2.5,23.6,3.8c25.7,2.3,44.6,4.8,56.8,7.3c12.2,2.5,18.3,6.1,18.3,10.7
							c0,4.4-6.1,8-18.4,10.7c-12.3,2.7-28.9,4.3-49.7,4.8v7.7h-29.1v-7.7c-21.5-0.5-39.3-2.3-53.3-5.2c-14-3-21-7.3-21-13.1h56.9
							c0,3.5,2.9,6,8.8,7.5c5.9,1.5,13.6,2.3,23.1,2.3c8.4,0,14.8-0.6,19.2-1.9C842.8,2383.5,845,2381.9,845,2379.8z"/>
					</g>
					<g>
						<g>
							<g>
								<g>
									<path class="st14" d="M845,2377.5c0-2.2-2.2-3.9-6.6-5.2c-4.4-1.3-12.1-2.5-23.1-3.7c-25.9-2.2-45-4.6-57.2-7.1
										c-12.2-2.5-18.3-6.1-18.3-10.8c0-4.3,6.2-7.8,18.7-10.6c12.5-2.8,29.2-4.4,50.2-4.9v-8.2h28.9v8.3
										c19.9,0.7,35.7,2.6,47.4,5.8c11.7,3.1,17.5,7.2,17.5,12.1h-56.9c0-3-2.3-5.3-7-7c-4.7-1.6-10.8-2.4-18.4-2.4
										c-7.9,0-13.8,0.6-17.6,1.9s-5.8,3-5.8,5c0,2,2.2,3.6,6.5,4.8s12.2,2.5,23.6,3.8c25.7,2.3,44.6,4.8,56.8,7.3
										c12.2,2.5,18.3,6.1,18.3,10.7c0,4.4-6.1,8-18.4,10.7c-12.3,2.7-28.9,4.3-49.7,4.8v7.7h-29.1v-7.7
										c-21.5-0.5-39.3-2.3-53.3-5.2c-14-3-21-7.3-21-13.1h56.9c0,3.5,2.9,6,8.8,7.5c5.9,1.5,13.6,2.3,23.1,2.3
										c8.4,0,14.8-0.6,19.2-1.9C842.8,2381.2,845,2379.6,845,2377.5z"/>
								</g>
							</g>
						</g>
					</g>
				</g>
			</g>
		</g>
		<g>
			<path class="st11" d="M1058.8,2347.6c0,33.3-90.7,60.2-202.6,60.2s-202.5-26.9-202.7-60.2v-54.8h405.2v53.7
				C1058.8,2346.9,1058.8,2347.3,1058.8,2347.6z"/>
			<ellipse class="st12" cx="856.1" cy="2293.8" rx="202.7" ry="60.2"/>
			<g>
				<g>
					<g>
						<g>
							<path class="st11" d="M884.7,2303.1c0-2.2-2.2-3.9-6.6-5.2c-4.4-1.3-12.1-2.5-23.1-3.7c-25.9-2.2-45-4.6-57.2-7.1
								c-12.2-2.5-18.3-6.1-18.3-10.8c0-4.3,6.2-7.8,18.7-10.6c12.5-2.8,29.2-4.4,50.2-4.9v-8.2h28.9v8.3
								c19.9,0.7,35.7,2.6,47.4,5.8c11.7,3.1,17.5,7.2,17.5,12.1h-56.9c0-3-2.3-5.3-7-7c-4.7-1.6-10.8-2.4-18.4-2.4
								c-7.9,0-13.8,0.6-17.6,1.9c-3.9,1.3-5.8,3-5.8,5c0,2,2.2,3.6,6.5,4.8c4.3,1.3,12.2,2.5,23.6,3.8c25.7,2.3,44.6,4.8,56.8,7.3
								c12.2,2.5,18.3,6.1,18.3,10.7c0,4.4-6.1,8-18.4,10.7c-12.3,2.7-28.9,4.3-49.7,4.8v7.7h-29.1v-7.7
								c-21.5-0.5-39.3-2.3-53.3-5.2c-14-3-21-7.3-21-13.1H827c0,3.5,2.9,6,8.8,7.5c5.9,1.5,13.6,2.3,23.1,2.3
								c8.4,0,14.8-0.6,19.2-1.9C882.5,2306.8,884.7,2305.2,884.7,2303.1z"/>
						</g>
					</g>
					<g>
						<g>
							<g>
								<g>
									<path class="st12" d="M884.7,2300.9c0-2.2-2.2-3.9-6.6-5.2c-4.4-1.3-12.1-2.5-23.1-3.7c-25.9-2.2-45-4.6-57.2-7.1
										c-12.2-2.5-18.3-6.1-18.3-10.8c0-4.3,6.2-7.8,18.7-10.6c12.5-2.8,29.2-4.4,50.2-4.9v-8.2h28.9v8.3
										c19.9,0.7,35.7,2.6,47.4,5.8c11.7,3.1,17.5,7.2,17.5,12.1h-56.9c0-3-2.3-5.3-7-7s-10.8-2.4-18.4-2.4
										c-7.9,0-13.8,0.6-17.6,1.9c-3.9,1.3-5.8,3-5.8,5c0,2,2.2,3.6,6.5,4.8c4.3,1.3,12.2,2.5,23.6,3.8
										c25.7,2.3,44.6,4.8,56.8,7.3c12.2,2.5,18.3,6.1,18.3,10.7c0,4.4-6.1,8-18.4,10.7c-12.3,2.7-28.9,4.3-49.7,4.8v7.7h-29.1
										v-7.7c-21.5-0.5-39.3-2.3-53.3-5.2c-14-3-21-7.3-21-13.1H827c0,3.5,2.9,6,8.8,7.5c5.9,1.5,13.6,2.3,23.1,2.3
										c8.4,0,14.8-0.6,19.2-1.9C882.5,2304.6,884.7,2302.9,884.7,2300.9z"/>
								</g>
							</g>
						</g>
					</g>
				</g>
			</g>
		</g>
		<g>
			<path class="st11" d="M998.5,2261.3c0,33.3-90.7,60.2-202.6,60.2s-202.5-26.9-202.7-60.2v-54.8h405.2v53.7
				C998.5,2260.6,998.5,2261,998.5,2261.3z"/>
			<ellipse class="st12" cx="795.9" cy="2207.6" rx="202.7" ry="60.2"/>
			<g>
				<g>
					<g>
						<path class="st13" d="M824.5,2216.9c0-2.2-2.2-3.9-6.6-5.2c-4.4-1.3-12.1-2.5-23.1-3.7c-25.9-2.2-45-4.6-57.2-7.1
							c-12.2-2.5-18.3-6.1-18.3-10.8c0-4.3,6.2-7.8,18.7-10.6c12.5-2.8,29.2-4.4,50.2-4.9v-8.2H817v8.3c19.9,0.7,35.7,2.6,47.4,5.8
							c11.7,3.1,17.5,7.2,17.5,12.1h-56.9c0-3-2.3-5.3-7-7c-4.7-1.6-10.8-2.4-18.4-2.4c-7.9,0-13.8,0.6-17.6,1.9
							c-3.9,1.3-5.8,3-5.8,5c0,2,2.2,3.6,6.5,4.8c4.3,1.3,12.2,2.5,23.6,3.8c25.7,2.3,44.6,4.8,56.8,7.3
							c12.2,2.5,18.3,6.1,18.3,10.7c0,4.4-6.1,8-18.4,10.7c-12.3,2.7-28.9,4.3-49.7,4.8v7.7h-29.1v-7.7c-21.5-0.5-39.3-2.3-53.3-5.2
							c-14-3-21-7.3-21-13.1h56.9c0,3.5,2.9,6,8.8,7.5c5.9,1.5,13.6,2.3,23.1,2.3c8.4,0,14.8-0.6,19.2-1.9
							C822.2,2220.6,824.5,2218.9,824.5,2216.9z"/>
					</g>
					<g>
						<g>
							<g>
								<g>
									<path class="st14" d="M824.5,2214.6c0-2.2-2.2-3.9-6.6-5.2c-4.4-1.3-12.1-2.5-23.1-3.7c-25.9-2.2-45-4.6-57.2-7.1
										c-12.2-2.5-18.3-6.1-18.3-10.8c0-4.3,6.2-7.8,18.7-10.6c12.5-2.8,29.2-4.4,50.2-4.9v-8.2H817v8.3
										c19.9,0.7,35.7,2.6,47.4,5.8c11.7,3.1,17.5,7.2,17.5,12.1h-56.9c0-3-2.3-5.3-7-7c-4.7-1.6-10.8-2.4-18.4-2.4
										c-7.9,0-13.8,0.6-17.6,1.9c-3.9,1.3-5.8,3-5.8,5c0,2,2.2,3.6,6.5,4.8c4.3,1.3,12.2,2.5,23.6,3.8
										c25.7,2.3,44.6,4.8,56.8,7.3c12.2,2.5,18.3,6.1,18.3,10.7c0,4.4-6.1,8-18.4,10.7c-12.3,2.7-28.9,4.3-49.7,4.8v7.7h-29.1
										v-7.7c-21.5-0.5-39.3-2.3-53.3-5.2c-14-3-21-7.3-21-13.1h56.9c0,3.5,2.9,6,8.8,7.5c5.9,1.5,13.6,2.3,23.1,2.3
										c8.4,0,14.8-0.6,19.2-1.9C822.2,2218.3,824.5,2216.6,824.5,2214.6z"/>
								</g>
							</g>
						</g>
					</g>
				</g>
			</g>
		</g>
		<g>
			<path class="st11" d="M1060.2,2191.5c0,33.3-90.7,60.2-202.6,60.2s-202.5-26.9-202.7-60.2v-54.8h405.2v53.7
				C1060.2,2190.8,1060.2,2191.2,1060.2,2191.5z"/>
			<ellipse class="st12" cx="857.5" cy="2137.7" rx="202.7" ry="60.2"/>
			<g>
				<g>
					<g>
						<path class="st13" d="M886.1,2147c0-2.2-2.2-3.9-6.6-5.2c-4.4-1.3-12.1-2.5-23.1-3.7c-25.9-2.2-45-4.6-57.2-7.1
							c-12.2-2.5-18.3-6.1-18.3-10.8c0-4.3,6.2-7.8,18.7-10.6c12.5-2.8,29.2-4.4,50.2-4.9v-8.2h28.9v8.3c19.9,0.7,35.7,2.6,47.4,5.8
							c11.7,3.1,17.5,7.2,17.5,12.1h-56.9c0-3-2.3-5.3-7-7c-4.7-1.6-10.8-2.4-18.4-2.4c-7.9,0-13.8,0.6-17.6,1.9s-5.8,3-5.8,5
							c0,2,2.2,3.6,6.5,4.8c4.3,1.3,12.2,2.5,23.6,3.8c25.7,2.3,44.6,4.8,56.8,7.3c12.2,2.5,18.3,6.1,18.3,10.7
							c0,4.4-6.1,8-18.4,10.7c-12.3,2.7-28.9,4.3-49.7,4.8v7.7h-29.1v-7.7c-21.5-0.5-39.3-2.3-53.3-5.2c-14-3-21-7.3-21-13.1h56.9
							c0,3.5,2.9,6,8.8,7.5c5.9,1.5,13.6,2.3,23.1,2.3c8.4,0,14.8-0.6,19.2-1.9C883.9,2150.7,886.1,2149.1,886.1,2147z"/>
					</g>
					<g>
						<g>
							<g>
								<g>
									<path class="st14" d="M886.1,2144.8c0-2.2-2.2-3.9-6.6-5.2c-4.4-1.3-12.1-2.5-23.1-3.7c-25.9-2.2-45-4.6-57.2-7.1
										c-12.2-2.5-18.3-6.1-18.3-10.8c0-4.3,6.2-7.8,18.7-10.6c12.5-2.8,29.2-4.4,50.2-4.9v-8.2h28.9v8.3
										c19.9,0.7,35.7,2.6,47.4,5.8c11.7,3.1,17.5,7.2,17.5,12.1h-56.9c0-3-2.3-5.3-7-7c-4.7-1.6-10.8-2.4-18.4-2.4
										c-7.9,0-13.8,0.6-17.6,1.9s-5.8,3-5.8,5c0,2,2.2,3.6,6.5,4.8c4.3,1.3,12.2,2.5,23.6,3.8c25.7,2.3,44.6,4.8,56.8,7.3
										c12.2,2.5,18.3,6.1,18.3,10.7c0,4.4-6.1,8-18.4,10.7c-12.3,2.7-28.9,4.3-49.7,4.8v7.7h-29.1v-7.7
										c-21.5-0.5-39.3-2.3-53.3-5.2c-14-3-21-7.3-21-13.1h56.9c0,3.5,2.9,6,8.8,7.5c5.9,1.5,13.6,2.3,23.1,2.3
										c8.4,0,14.8-0.6,19.2-1.9C883.9,2148.5,886.1,2146.8,886.1,2144.8z"/>
								</g>
							</g>
						</g>
					</g>
				</g>
			</g>
		</g>
		<g>
			<path class="st11" d="M1035.5,2121.7c0,33.3-90.7,60.2-202.6,60.2s-202.5-26.9-202.7-60.2V2067h405.2v53.7
				C1035.5,2121,1035.5,2121.4,1035.5,2121.7z"/>
			<ellipse class="st12" cx="832.9" cy="2067.9" rx="202.7" ry="60.2"/>
			<g>
				<g>
					<g>
						<g>
							<g>
								<path class="st11" d="M861.4,2077.2c0-2.2-2.2-3.9-6.6-5.2c-4.4-1.3-12.1-2.5-23.1-3.7c-25.9-2.2-45-4.6-57.2-7.1
									c-12.2-2.5-18.3-6.1-18.3-10.8c0-4.3,6.2-7.8,18.7-10.6c12.5-2.8,29.2-4.4,50.2-4.9v-8.2H854v8.3
									c19.9,0.7,35.7,2.6,47.4,5.8c11.7,3.1,17.5,7.2,17.5,12.1H862c0-3-2.3-5.3-7-7c-4.7-1.6-10.8-2.4-18.4-2.4
									c-7.9,0-13.8,0.6-17.6,1.9s-5.8,3-5.8,5c0,2,2.2,3.6,6.5,4.8c4.3,1.3,12.2,2.5,23.6,3.8c25.7,2.3,44.6,4.8,56.8,7.3
									c12.2,2.5,18.3,6.1,18.3,10.7c0,4.4-6.1,8-18.4,10.7c-12.3,2.7-28.9,4.3-49.7,4.8v7.7h-29.1v-7.7
									c-21.5-0.5-39.3-2.3-53.3-5.2c-14-3-21-7.3-21-13.1h56.9c0,3.5,2.9,6,8.8,7.5c5.9,1.5,13.6,2.3,23.1,2.3
									c8.4,0,14.8-0.6,19.2-1.9C859.2,2080.9,861.4,2079.3,861.4,2077.2z"/>
							</g>
						</g>
					</g>
					<g>
						<g>
							<g>
								<g>
									<path class="st12" d="M861.4,2074.9c0-2.2-2.2-3.9-6.6-5.2c-4.4-1.3-12.1-2.5-23.1-3.7c-25.9-2.2-45-4.6-57.2-7.1
										c-12.2-2.5-18.3-6.1-18.3-10.8c0-4.3,6.2-7.8,18.7-10.6c12.5-2.8,29.2-4.4,50.2-4.9v-8.2H854v8.3
										c19.9,0.7,35.7,2.6,47.4,5.8c11.7,3.1,17.5,7.2,17.5,12.1H862c0-3-2.3-5.3-7-7c-4.7-1.6-10.8-2.4-18.4-2.4
										c-7.9,0-13.8,0.6-17.6,1.9c-3.9,1.3-5.8,3-5.8,5c0,2,2.2,3.6,6.5,4.8c4.3,1.3,12.2,2.5,23.6,3.8
										c25.7,2.3,44.6,4.8,56.8,7.3c12.2,2.5,18.3,6.1,18.3,10.7c0,4.4-6.1,8-18.4,10.7c-12.3,2.7-28.9,4.3-49.7,4.8v7.7h-29.1
										v-7.7c-21.5-0.5-39.3-2.3-53.3-5.2c-14-3-21-7.3-21-13.1h56.9c0,3.5,2.9,6,8.8,7.5c5.9,1.5,13.6,2.3,23.1,2.3
										c8.4,0,14.8-0.6,19.2-1.9C859.2,2078.6,861.4,2077,861.4,2074.9z"/>
								</g>
							</g>
						</g>
					</g>
				</g>
			</g>
		</g>
	</g>
	<g>
		<g>
			<path class="st16" d="M638.8,1811.8l-30.3,111.3c-14.6,53.6-69.9,85.1-123.4,70.3l-97.3-26.9l-1.6-67.3l97.1,22.3
				c18,2,35-9.1,40.2-26.5l39.2-130.8L638.8,1811.8z"/>
			<path class="st17" d="M691.3,1831.8c0,0-0.8-102.1-74-148.5c-30.7-19.5-72-6.8-85.4,27c-7.5,19-12.7,46.4-12.5,86L691.3,1831.8z"
				/>
			<path class="st18" d="M577.9,1952c-4.4,9.1-13.4,15.9-23.4,17.4"/>
			<g>
				<path class="st16" d="M255.3,1885.8c-1.7,2.1-3.2,4.5-3.5,7.2c-0.3,2,0.2,4.1,1.3,5.8c-1.9,0.8-3.7,1.7-5.3,2.8
					c-4.3,2.9-7.9,7.4-8.4,12.5c-0.5,5.1,2.6,10.7,7.6,11.9c-2.1,1-4,2.3-5.6,3.9c-3.9,4.1-5.3,10.9-1.8,15.4
					c2.2,2.9,5.8,4.3,9.4,4.5c1,0.1,1.9-0.1,2.9-0.2c-1.7,3.5-1.8,7.8,1,10.5c2.6,2.5,6.5,2.8,10,3.1c14.8,0.9,29.5,1.8,44.3,2.7
					c13.5,0.8,26.9,1.6,40.4,2.4c13.2,0.8,26.6,1.6,39.5-1.1c5.9-1.2,11.8-3.1,17.8-3.8c6-0.7,12.5,0.1,17.4,3.7
					c4.2,3.1,6.8,8.1,11.1,10.9c6.3,4,14.9,2.6,21.1-1.6c6.2-4.1,10.5-10.5,14.6-16.7c3.9-6,8-13.2,5.6-20c-2.2-6.2-8.8-9.4-14.8-12
					c-16.2-7.1-32.4-14.1-48.7-21.2c-6.2-12-16.6-27.5-24.4-36.5c-0.1-0.1-0.1-0.1-0.2-0.2l-0.1-0.1c-1.8-2.1-3.6-4.1-5.5-6
					c-0.3-0.4-0.7-0.7-1.1-1.1l-0.1-0.2l0,0c-1.4-1.3-2.8-2.6-4.5-3.4c0,0-0.1,0-0.1,0c-0.8-0.4-1.6-0.6-2.5-0.7
					c-0.2,0-0.5-0.1-0.8-0.1c-1.3-0.1-2.7,0.2-3.8,0.8c-3.1,1.9-3.8,6.1-3.6,9.7c0.3,6.3,2.1,12.6,5.2,18.2c0,0,0,0,0,0
					c-23.6-9.4-48.9-14.4-74.2-14.6c-7.3-0.1-14.7,0.3-21.7,2.2C266.7,1876.6,260,1880.2,255.3,1885.8z M266.7,1899.7l-0.5-0.4
					c0.1-0.1,0.3-0.1,0.4-0.2C266.6,1899.3,266.7,1899.5,266.7,1899.7z M377,1892.8l2.5,0.9c-2.9-1-5.8-1.9-8.8-2.7l1.5-0.1v0
					c0,0.1,0.1,0.1,0.1,0.2l4.5,1.6C376.8,1892.8,376.9,1892.8,377,1892.8z M389.5,1897.4l0.5,0.3c-1.4-0.6-2.8-1.1-4.3-1.7l3.6,1.3
					C389.4,1897.4,389.5,1897.4,389.5,1897.4z"/>
				<path class="st19" d="M262.3,1898.2c17.3-3.3,35.6-1.7,52.1,4.8"/>
				<path class="st19" d="M257.2,1923.7c17.1-2.3,34.6-1.2,51.3,3.2"/>
				<path class="st19" d="M258.6,1946c16.4-3.4,33.3-4.2,49.9-2.4"/>
			</g>
		</g>
		<g>
			<polygon class="st16" points="649.9,2535.5 673,2618.7 794.7,2631.6 760.8,2529 			"/>
			<g>
				<path class="st13" d="M571.8,2668.2c0.1,0,0.4,0.2,0.5,0.2h255.4c-0.9-5.6-1.9-11.1-3.3-16.5c-3.2-12.8-8.1-24.8-16.3-35.6
					c-4.6-6-11.2-11-18.8-11.1c-39.3,15-85.1,12.6-122.6-6.6c-21.1,3.4-42.6,6.9-60.7,18.2c-13.4,8.3-24.7,20.7-30.5,35.1
					C573.5,2657.1,572.2,2662.6,571.8,2668.2z"/>
				<path class="st17" d="M571.8,2668.2c0.1,0,0.4,0.2,0.5,0.2h255.4c-0.9-5.6-1.9-11.1-3.3-16.5H575.6
					C573.5,2657.1,572.2,2662.6,571.8,2668.2z"/>
				<g>
					<line class="st20" x1="672.7" y1="2612.6" x2="658.4" y2="2604.3"/>
					<line class="st20" x1="655.4" y1="2615.2" x2="641.1" y2="2606.9"/>
					<line class="st20" x1="638" y1="2618.7" x2="623.6" y2="2610.4"/>
				</g>
			</g>
		</g>
		<g>
			<polygon class="st16" points="317.8,2535.5 322.3,2618.7 443.9,2631.6 428.7,2529 			"/>
			<g>
				<path class="st13" d="M221.1,2668.2c0.1,0,0.4,0.2,0.5,0.2h255.4c-0.9-5.6-1.9-11.1-3.3-16.5c-3.2-12.8-8.1-24.8-16.3-35.6
					c-4.6-6-11.2-11-18.8-11.1c-39.3,15-85.1,12.6-122.6-6.6c-21.1,3.4-42.6,6.9-60.7,18.2c-13.4,8.3-24.7,20.7-30.5,35.1
					C222.8,2657.1,221.5,2662.6,221.1,2668.2z"/>
				<path class="st17" d="M221.1,2668.2c0.1,0,0.4,0.2,0.5,0.2h255.4c-0.9-5.6-1.9-11.1-3.3-16.5H224.8
					C222.8,2657.1,221.5,2662.6,221.1,2668.2z"/>
				<g>
					<line class="st20" x1="322" y1="2612.6" x2="307.7" y2="2604.3"/>
					<line class="st20" x1="304.7" y1="2615.2" x2="290.4" y2="2606.9"/>
					<line class="st20" x1="287.3" y1="2618.7" x2="272.9" y2="2610.4"/>
				</g>
			</g>
		</g>
		<path class="st21" d="M815.5,1920.5l-7.8,193.2l-203.9-5.9l-133,146.6l-29.1,317.2H305.9l6.7-336.9
			c19.2-116.3,288.3-295.8,288.3-295.8L815.5,1920.5z"/>
		<path class="st22" d="M815.5,1920.5l-316.7,185.3c-69,28.7-96.3,96.5-61,152l205.4,300.1l155.6-4.7l-210.6-353.9l208.8-75.9
			c34.4-7.4,56.1-34.7,49.8-62.8L815.5,1920.5z"/>
		
			<ellipse transform="matrix(0.9735 -0.2286 0.2286 0.9735 -326.9429 178.4929)" class="st2" cx="606.9" cy="1500.3" rx="87.6" ry="87.6"/>
		<path class="st16" d="M691.4,1640.2l-34.2-67.7c-11.6-8.9-23.2-17.8-34.8-26.6c8-0.9,16-3.8,21.8-9.4c6.7-6.5,8.9-15.8,6.3-24.7
			c-5-17.4-25.8-28.2-41.6-16.8c-7.5,5.4-11.5,14.7-14.5,23.1c0,0-32-26.1-43.9-57.4c0,0-25.2-3.9-33.8,38.8c0,0-0.3,13.8-14.6,19.7
			c0,0-9.1,5.5,5.7,13.4c0,0-7.7,38.9,16.8,55.7c0,0,20.4,18.2,51.8,8.7l31.3,77l97.9,0.8L691.4,1640.2z"/>
		<ellipse class="st23" cx="535.6" cy="1508.9" rx="3.2" ry="7.2"/>
		<path class="st18" d="M508.4,1546.9c3.9,2.7,8.7,4.1,13.4,4c4.7-0.1,9.4-1.7,13.2-4.6"/>
		<path class="st18" d="M524.9,1497.6c2.7-2.9,7-4.4,10.9-3.7c3.9,0.7,7.4,3.6,8.9,7.3"/>
		<path class="st17" d="M689.9,1636.5c0,0-13.6,47.1-89.7,20.1c0,0-46,18.2-34.1,98.9l30.5,188.1l254.8,42.4
			C851.3,1985.9,840.3,1669.8,689.9,1636.5z"/>
		<path class="st17" d="M689.9,1636.5c0,0-13.6,47.1-89.7,20.1c0,0-46,18.2-34.1,98.9l30.5,188.1l254.8,42.4
			C851.3,1985.9,840.3,1669.8,689.9,1636.5z"/>
		<g>
			<g>
				<g>
					<path class="st16" d="M834.8,1761.2l53.9,136.1c17.6,44.5-4.3,94.9-48.9,112.3L718,2057.2l-41.3-45.3l94.6-55.4
						c16.9-9.9,24.3-30.5,17.6-48.9l-50.8-138.4L834.8,1761.2z"/>
				</g>
			</g>
			<path class="st24" d="M869.5,1941.2c2.1,4.7,1.8,10.5-0.8,14.9c-2.6,4.5-7.4,7.6-12.6,8.1"/>
			<g>
				<path class="st16" d="M602.8,2107.2c0.7,2.5,1.8,4.9,3.7,6.7c1.4,1.3,3.3,2.1,5.2,2.1c-0.4,1.9-0.7,3.8-0.7,5.7
					c-0.1,4.9,1.4,10.1,5.1,13.4c3.7,3.2,9.8,3.8,13.4,0.5c-0.3,2.2-0.4,4.4,0,6.5c1.1,5.2,5.6,10,11,9.8c3.4-0.1,6.5-2.2,8.6-4.9
					c0.6-0.7,1-1.5,1.4-2.3c1.8,3.3,5.1,5.6,8.7,4.9c3.3-0.6,5.7-3.5,7.8-6.1c8.7-11,17.5-22,26.2-33c8-10,15.9-20,23.9-30
					c7.8-9.8,15.7-19.8,20.7-31.3c2.3-5.3,4-10.8,6.7-15.9c2.8-5,6.9-9.7,12.3-11.5c4.7-1.5,9.9-0.9,14.5-2.7
					c6.5-2.7,10.1-10.1,10.2-17.2c0.2-7.1-2.4-13.9-5.1-20.4c-2.5-6.3-6-13.4-12.5-15.3c-6-1.7-12.1,1.7-17.4,4.9
					c-14.3,8.8-28.6,17.5-42.9,26.3c-12.7-1.7-30.4-2-41.6-0.9c-0.1,0-0.2,0-0.2,0l-0.1,0c-2.6,0.2-5.1,0.6-7.7,1
					c-0.5,0.1-0.9,0.2-1.4,0.2l-0.2,0l0,0c-1.8,0.3-3.5,0.8-5.1,1.7c0,0-0.1,0-0.1,0.1c-0.7,0.4-1.4,0.9-1.9,1.5
					c-0.2,0.2-0.3,0.4-0.5,0.6c-0.8,1-1.3,2.1-1.4,3.4c-0.2,3.4,2.7,6.2,5.6,8.1c5.1,3.2,10.9,5.2,16.9,5.9c0,0,0,0,0,0
					c-20.1,13.2-37.7,30.1-51.7,49.7c-4,5.6-7.8,11.6-10.1,18.1C601.8,2093.3,600.9,2100.5,602.8,2107.2z M619.8,2105.9l-0.6,0.1
					c0-0.1,0-0.3,0.1-0.4C619.4,2105.8,619.6,2105.8,619.8,2105.9z M674.4,2016.5l2.1-1.4c-2.4,1.7-4.6,3.5-6.9,5.4l0.7-1.2l0,0
					c0.1,0,0.2,0,0.3,0l3.7-2.6C674.3,2016.6,674.4,2016.5,674.4,2016.5z M684.8,2009.2l0.5-0.2c-1.2,0.8-2.4,1.6-3.6,2.4l3-2.1
					C684.7,2009.3,684.8,2009.3,684.8,2009.2z"/>
				<path class="st25" d="M650.9,2005c3.2,0.4,6.5-0.9,8.6-3.3c1.3-1.5,2-3.3,2.6-5.2c-0.1,0-0.2,0-0.2,0l-0.1,0
					c-2.6,0.2-5.1,0.6-7.7,1c-0.5,0.1-0.9,0.2-1.4,0.2l-0.2,0l0,0c-1.8,0.3-3.5,0.8-5.1,1.7c0,0-0.1,0-0.1,0.1
					c-0.7,0.4-1.4,0.9-1.9,1.5c-0.2,0.2-0.3,0.4-0.5,0.6C646.3,2003.4,648.6,2004.7,650.9,2005z"/>
				<path class="st24" d="M616.2,2108.5c6.9-15.3,18.1-28.6,32-37.9"/>
				<path class="st24" d="M633.2,2126.3c7.5-14.5,17.9-27.6,30.4-38.1"/>
				<path class="st24" d="M651.3,2137.4c6.3-14.6,14.8-28.1,25.3-40"/>
			</g>
		</g>
		<path class="st17" d="M865,1784.6c0,0-31.9-97-115.9-118.8c-35.2-9.2-70.6,15.5-73.1,51.8c-1.4,20.4,2.1,48.1,14.4,85.7
			L865,1784.6z"/>
		<path class="st26" d="M701.6,1696.1c1.1,35.4,12.2,70.5,31.5,100.2c1.3,2.1,2.9,4.2,5.2,4.9c2,0.6,4.2,0,6.2-0.5
			c28.3-8,57.6-12.2,87-12.4"/>
		<path class="st26" d="M491.2,2130.6c-13.9,12.4-26,26.9-35.8,42.8c-5.5,9-10.4,18.9-11.1,29.5c-0.9,15.2,6.8,29.4,14.4,42.7"/>
		<g>
			<g>
				<g>
					<path class="st2" d="M718.8,1556.8c0,18.6-15.1,33.7-33.7,33.7c-18.6,0-33.7-15.1-33.7-33.7c0-18.6,15.1-33.7,33.7-33.7
						C703.7,1523.1,718.8,1538.2,718.8,1556.8z"/>
				</g>
			</g>
		</g>
	</g>
	<g>
		<path class="st27" d="M2288,2748.9h-340.2c-26.1,0-47.2-21.1-47.2-47.2v-340.2c0-26.1,21.1-47.2,47.2-47.2H2288
			c26.1,0,47.2,21.1,47.2,47.2v340.2C2335.2,2727.7,2314.1,2748.9,2288,2748.9z"/>
		<g>
			<g>
				<path class="st8" d="M2130.3,2632.1v34h-30.4V2633c-30.1-1.8-58.9-11.2-75.6-24.3l16.7-37c15.2,11.2,37,19.4,58.9,21.6v-50.7
					c-33.7-8.2-71.4-19.4-71.4-62.9c0-32.2,23.4-59.8,71.4-65.3v-33.7h30.4v33.1c22.8,1.8,44.9,7.9,61.6,18.5l-15.2,37.3
					c-15.5-8.8-31.3-14-46.5-15.8v51.6c33.7,7.9,70.8,19.1,70.8,61.9C2201,2599,2178,2626.3,2130.3,2632.1z M2099.9,2497.9v-43.1
					c-16.1,3.6-22.5,12.4-22.5,22.5C2077.5,2487.9,2086.6,2493.6,2099.9,2497.9z M2152.2,2571.1c0-10.6-8.8-16.4-21.9-21v41.9
					C2145.5,2588.7,2152.2,2580.8,2152.2,2571.1z"/>
			</g>
		</g>
	</g>
	<g>
		<g>
			<g>
				<g>
					<path class="st16" d="M1778.8,439.1l86.9,112.5c28.4,36.8,81.3,43.5,118,14.9l100.2-78.1l-17.4-56.9l-93.2,51.6
						c-16.7,9.2-37.5,5.2-49.5-9.6l-90.4-111L1778.8,439.1z"/>
				</g>
				<path class="st28" d="M1912,557.4c2.9,4.1,7.9,6.7,12.9,6.7c5,0,10-2.5,13-6.5"/>
				<g>
					<path class="st16" d="M2165.1,407.9c-6.6-1.3-13.4-1.1-20.1-0.5c-23.3,2-46.2,8.3-67.2,18.5c0,0,0,0,0,0
						c2.4-5.3,3.7-11.2,3.5-17.1c-0.1-3.3-1-7.2-4-8.7c-1.1-0.5-2.3-0.7-3.5-0.5c-0.2,0-0.5,0.1-0.7,0.1c-0.8,0.2-1.5,0.5-2.2,0.8
						c0,0-0.1,0-0.1,0.1c-1.5,0.8-2.8,2.1-3.9,3.4l0,0l-0.1,0.2c-0.3,0.4-0.6,0.7-0.9,1c-1.6,1.9-3.2,3.9-4.6,5.9l-0.1,0.1
						c-0.1,0.1-0.1,0.1-0.1,0.2c-6.5,8.9-15,23.8-19.9,35.2c-14.4,7.6-28.8,15.2-43.2,22.8c-5.3,2.8-11.2,6.2-12.7,12.1
						c-1.7,6.4,2.5,12.8,6.5,18c4.2,5.4,8.6,11,14.6,14.3c6,3.4,14,4.1,19.4,0c3.8-2.9,5.9-7.6,9.5-10.8c4.2-3.7,10.1-4.8,15.7-4.6
						c5.6,0.2,11.1,1.6,16.6,2.3c12.1,1.5,24.3-0.1,36.4-1.8c12.3-1.7,24.6-3.4,36.9-5c13.5-1.8,27-3.7,40.5-5.5
						c3.3-0.4,6.8-1,9-3.5c2.4-2.7,2-6.6,0.2-9.7c0.9,0,1.8,0.1,2.6-0.1c3.3-0.5,6.6-2,8.4-4.8c2.8-4.4,1.1-10.6-2.8-14
						c-1.6-1.4-3.5-2.4-5.4-3.2c4.5-1.4,7-6.8,6.2-11.4c-0.9-4.7-4.4-8.6-8.6-10.9c-1.6-0.9-3.3-1.6-5.1-2.2
						c0.9-1.6,1.2-3.6,0.8-5.4c-0.5-2.4-2-4.6-3.8-6.4C2178.2,412.1,2171.7,409.2,2165.1,407.9z M2173.4,429.9
						c0.1,0,0.2,0.1,0.4,0.1l-0.4,0.4C2173.4,430.3,2173.4,430.1,2173.4,429.9z M2071.7,431.7l4-1.8c0.1-0.1,0.1-0.1,0.1-0.2l0,0
						h1.4c-2.7,1-5.3,2-7.9,3.1l2.2-1C2071.6,431.8,2071.7,431.8,2071.7,431.7z M2060.5,436.8l3.2-1.5c-1.3,0.6-2.5,1.2-3.8,1.8
						l0.4-0.3C2060.4,436.9,2060.4,436.8,2060.5,436.8z"/>
					<path class="st28" d="M2177.3,428.8c-16.2-1.9-32.8,0.9-47.5,8"/>
					<path class="st28" d="M2183.7,451.8c-15.8-1-31.9,1.3-46.9,6.5"/>
					<path class="st28" d="M2184,472.4c-15.3-2-30.8-1.5-46,1.3"/>
				</g>
			</g>
			<g>
				<g>
					<g>
						<path class="st4" d="M1759,511.5c0,0-51.9-97.8-6-179.9c19.3-34.4,65.1-43.7,95.4-18.3c17,14.2,36,37.7,56.3,75.6L1759,511.5z
							"/>
					</g>
				</g>
			</g>
		</g>
		<g>
			<g>
				<rect x="2014.1" y="540.9" class="st9" width="456.4" height="788.7"/>
				<polygon class="st9" points="2242.3,107.6 1855.2,648.9 2629.4,648.9 2242.3,107.6 1855.2,648.9 2629.4,648.9 				"/>
			</g>
			<g>
				<g>
					<path class="st8" d="M2181.6,1231.9c0,18.2-14.4,28.7-42,28.7h-54.3v-105.1h51.3c26.3,0,39.8,11,39.8,27.3
						c0,10.5-5.4,18.6-14,23.1C2174.1,1209.6,2181.6,1218.6,2181.6,1231.9z M2109.4,1173.8v24.8h24.2c11.9,0,18.3-4.2,18.3-12.5
						s-6.5-12.3-18.3-12.3H2109.4z M2157.1,1229.3c0-8.9-6.8-13.1-19.4-13.1h-28.4v26h28.4
						C2150.4,1242.2,2157.1,1238.3,2157.1,1229.3z"/>
					<path class="st8" d="M2199.2,1214.3v-58.8h24.3v57.9c0,20,8.7,28.2,23.4,28.2c14.9,0,23.4-8.3,23.4-28.2v-57.9h24v58.8
						c0,30.9-17.7,48-47.6,48S2199.2,1245.2,2199.2,1214.3z"/>
					<path class="st8" d="M2367.3,1223.3v37.2h-24.3V1223l-40.7-67.5h25.8l28.1,46.7l28.1-46.7h23.9L2367.3,1223.3z"/>
				</g>
			</g>
		</g>
		<g>
			<polygon class="st16" points="1556.9,1252.6 1529.2,1352.2 1383.4,1367.7 1424,1244.8 			"/>
			<g>
				<path class="st13" d="M1650.5,1411.6c-0.2,0-0.5,0.2-0.6,0.2h-306.2c1-6.7,2.3-13.3,4-19.7c3.8-15.3,9.7-29.7,19.6-42.6
					c5.5-7.2,13.5-13.2,22.6-13.3c47.1,18,102,15.1,146.9-7.9c25.3,4.1,51,8.3,72.7,21.8c16,10,29.6,24.8,36.5,42.1
					C1648.5,1398.3,1650.1,1404.8,1650.5,1411.6z"/>
				<path class="st7" d="M1650.5,1411.6c-0.2,0-0.5,0.2-0.6,0.2h-306.2c1-6.7,2.3-13.3,4-19.7H1646
					C1648.5,1398.3,1650.1,1404.8,1650.5,1411.6z"/>
				<g>
					<line class="st29" x1="1529.5" y1="1344.9" x2="1546.7" y2="1335"/>
					<line class="st29" x1="1550.3" y1="1348.1" x2="1567.5" y2="1338.2"/>
					<line class="st29" x1="1571.2" y1="1352.3" x2="1588.4" y2="1342.4"/>
				</g>
			</g>
		</g>
		<g>
			<polygon class="st16" points="1852.3,1254.7 1870.6,1355.3 1714.5,1367.7 1718.4,1269.7 			"/>
			<g>
				<path class="st13" d="M1981.6,1411.6c-0.2,0-0.5,0.2-0.6,0.2h-306.2c1-6.7,2.3-13.3,4-19.7c3.8-15.3,9.7-29.7,19.6-42.6
					c5.5-7.2,13.5-13.2,22.6-13.3c47.1,18,102,15.1,146.9-7.9c25.3,4.1,51,8.3,72.7,21.8c16,10,29.6,24.8,36.5,42.1
					C1979.6,1398.3,1981.1,1404.8,1981.6,1411.6z"/>
				<path class="st7" d="M1981.6,1411.6c-0.2,0-0.5,0.2-0.6,0.2h-306.2c1-6.7,2.3-13.3,4-19.7h298.4
					C1979.6,1398.3,1981.1,1404.8,1981.6,1411.6z"/>
				<g>
					<line class="st29" x1="1860.6" y1="1344.9" x2="1877.8" y2="1335"/>
					<line class="st29" x1="1881.3" y1="1348.1" x2="1898.5" y2="1338.2"/>
					<line class="st29" x1="1902.3" y1="1352.3" x2="1919.5" y2="1342.4"/>
				</g>
			</g>
		</g>
		<path class="st7" d="M1713.7,728.6c-4-29.1-1.9-57.5,2.2-85.8c0.6-39.3,3-78.3,6.7-117.2l-200.2,82.2l-158.7,679.6l220.1,5.9
			l131.2-566.3l2.7,3.3c-1.7-29.3-2.2-58.5-1.7-87.5C1711.8,671,1709.7,699.5,1713.7,728.6z"/>
		<path class="st7" d="M1795.5,575.8l-185.7-0.2l83.1,737.7l213.6-12.2C1906.5,1301.1,1803.8,614,1795.5,575.8z"/>
		<circle class="st7" cx="1783.9" cy="95" r="95"/>
		<path class="st16" d="M1692.2,246.8l37.1-73.5c0,0,38-29,38-29c-1.9,1.5-11.7-2.8-13.5-3.5c-7.2-2.9-13.7-7.5-16.6-15
			c-1.8-4.8-2.1-10-1.2-15c1.8-10.2,8.5-19.7,18-24c8.8-4,19.8-3.1,27.7,2.6c8.1,5.8,12.5,16,15.8,25.1c0,0,34.7-28.3,47.6-62.3
			c0,0,27.3-4.2,36.7,42.1c0,0,0.3,15,15.8,21.4c0,0,9.8,5.9-6.1,14.6c0,0,8.4,42.1-18.3,60.4c0,0-22.1,19.8-56.1,9.4l-34,83.5
			l-106.2,0.9L1692.2,246.8z"/>
		<ellipse class="st7" cx="1861.1" cy="104.3" rx="3.5" ry="7.8"/>
		<path class="st30" d="M1890.7,145.6c-4.2,2.9-9.4,4.5-14.5,4.3c-5.1-0.1-10.2-1.9-14.3-5"/>
		<path class="st14" d="M1828.2,371.8l-15.4,94.6l-17.7,109.3l-14.9,2.5l-23.8,3.9l-31.4,5.2l-25.4,4.2l-30.3,5l-25.3,4.2
			l-125.3,20.9c0,0,9.4-267.9,124.2-355c2.7-2.1,5.5-4.1,8.4-5.9c6-3.9,12.3-7.3,18.8-10.2c2.9-1.3,5.8-2.5,8.9-3.6
			c4.8-1.6,9.7-3.1,14.7-4.2c0,0,14.7,51.1,97.3,21.8c0,0,10.9,4.3,21.2,17.9c2.1,2.8,4.2,6,6.2,9.7c4.1,7.5,7.6,16.9,9.7,28.5
			C1830.7,334.3,1831.2,351.1,1828.2,371.8z"/>
		<path class="st4" d="M1828.2,371.8l-15.4,94.6l-17.7,109.3l-14.9,2.5l-23.8,3.9l-31.4,5.2l-25.4,4.2l-30.3,5l-25.3,4.2
			l-125.3,20.9c0,0,9.4-267.9,124.2-355c2.7-2.1,5.5-4.1,8.4-5.9c6-3.9,12.3-7.3,18.8-10.2c2.9-1.3,5.8-2.5,8.9-3.6
			c4.8-1.6,9.7-3.1,14.7-4.2c0,0,14.7,51.1,97.3,21.8c0,0,10.9,4.3,21.2,17.9c2.1,2.8,4.2,6,6.2,9.7c4.1,7.5,7.6,16.9,9.7,28.5
			C1830.7,334.3,1831.2,351.1,1828.2,371.8z"/>
		<pattern  id="SVGID_3_" xlink:href="#_x31_0_lpi_40_x25_" patternTransform="matrix(7.6834 0 0 7.6834 44031.7969 64462.7031)">
		</pattern>
		<path class="st31" d="M1828.2,371.8l-15.4,94.6l-17.7,109.3l-14.9,2.5l-23.8,3.9l-31.4,5.2l-25.4,4.2l-30.3,5l-25.3,4.2
			l-125.3,20.9c0,0,9.4-267.9,124.2-355c2.7-2.1,5.5-4.1,8.4-5.9c6-3.9,12.3-7.3,18.8-10.2c2.9-1.3,5.8-2.5,8.9-3.6
			c4.8-1.6,9.7-3.1,14.7-4.2c0,0,14.7,51.1,97.3,21.8c0,0,10.9,4.3,21.2,17.9c2.1,2.8,4.2,6,6.2,9.7c4.1,7.5,7.6,16.9,9.7,28.5
			C1830.7,334.3,1831.2,351.1,1828.2,371.8z"/>
		<path class="st30" d="M1751.5,99.7c1.7-1.9,4.1-3,6.6-3.6c5.7-1.4,11.9-0.4,16.9,2.7c5,3.1,8.7,8.2,10,13.9"/>
		<path class="st30" d="M1872.8,92.1c-2.9-3.2-7.6-4.7-11.9-4c-4.3,0.8-8.1,3.9-9.7,7.9"/>
		<path class="st30" d="M2003.7,478.5c4.3,5.7,11.5,9.2,18.7,9.1c7.2-0.1,14.2-3.9,18.3-9.8"/>
		<g>
			<g>
				<g>
					<g>
						<path class="st16" d="M1676.8,422.1l86.9,112.5c28.4,36.8,81.3,43.5,118,14.9l100.2-78.1l-17.4-56.9l-93.2,51.6
							c-16.7,9.2-37.5,5.2-49.5-9.6l-90.4-111L1676.8,422.1z"/>
					</g>
				</g>
				<path class="st28" d="M1810,540.4c2.9,4.1,7.9,6.7,12.9,6.7c5,0,10-2.5,13-6.5"/>
				<g>
					<path class="st16" d="M2063.1,390.9c-6.6-1.3-13.4-1.1-20.1-0.5c-23.3,2-46.2,8.3-67.2,18.5c0,0,0,0,0,0
						c2.4-5.3,3.7-11.2,3.5-17.1c-0.1-3.3-1-7.2-4-8.7c-1.1-0.5-2.3-0.7-3.5-0.5c-0.2,0-0.5,0.1-0.7,0.1c-0.8,0.2-1.5,0.5-2.2,0.8
						c0,0-0.1,0-0.1,0.1c-1.5,0.8-2.8,2.1-3.9,3.4l0,0l-0.1,0.2c-0.3,0.4-0.6,0.7-0.9,1.1c-1.6,1.9-3.2,3.9-4.6,5.9l-0.1,0.1
						c-0.1,0.1-0.1,0.1-0.1,0.2c-6.5,8.9-15,23.8-19.9,35.2c-14.4,7.6-28.8,15.2-43.2,22.8c-5.3,2.8-11.2,6.2-12.7,12.1
						c-1.7,6.4,2.5,12.8,6.5,18c4.2,5.4,8.6,11,14.6,14.3c6,3.4,14,4.1,19.4,0c3.8-2.9,5.9-7.6,9.5-10.8c4.2-3.7,10.1-4.8,15.7-4.6
						c5.6,0.2,11.1,1.6,16.6,2.3c12.1,1.5,24.3-0.1,36.4-1.8c12.3-1.7,24.6-3.4,36.9-5c13.5-1.8,27-3.7,40.5-5.5
						c3.3-0.4,6.8-1,9-3.5c2.4-2.7,2-6.6,0.2-9.7c0.9,0,1.8,0.1,2.6-0.1c3.3-0.5,6.6-2,8.4-4.8c2.8-4.4,1.1-10.6-2.8-14
						c-1.6-1.4-3.5-2.4-5.4-3.2c4.5-1.4,7-6.8,6.2-11.4c-0.9-4.7-4.4-8.6-8.6-10.9c-1.6-0.9-3.3-1.6-5.1-2.2
						c0.9-1.6,1.2-3.6,0.8-5.4c-0.5-2.4-2-4.6-3.8-6.4C2076.2,395.1,2069.7,392.2,2063.1,390.9z M2071.4,412.9
						c0.1,0,0.2,0.1,0.4,0.1l-0.4,0.4C2071.4,413.3,2071.4,413.1,2071.4,412.9z M1969.7,414.7l4-1.8c0.1-0.1,0.1-0.1,0.1-0.2l0,0
						l1.4,0c-2.7,1-5.3,2-7.9,3.1l2.2-1C1969.6,414.8,1969.7,414.8,1969.7,414.7z M1958.5,419.8l3.2-1.5c-1.3,0.6-2.5,1.2-3.8,1.8
						l0.4-0.3C1958.4,419.9,1958.4,419.8,1958.5,419.8z"/>
					<path class="st28" d="M2075.2,411.8c-16.2-1.9-32.8,0.9-47.5,8"/>
					<path class="st28" d="M2081.7,434.8c-15.8-1-31.9,1.3-46.9,6.5"/>
					<path class="st28" d="M2082,455.4c-15.3-2-30.8-1.5-46,1.3"/>
				</g>
			</g>
			<g>
				<g>
					<g>
						<path class="st4" d="M1680.4,492.2c0,0-88.3-66.8-81.3-160.6c3-39.3,40.7-67.1,78.8-56.8c21.4,5.7,48.6,19,83,44.8
							L1680.4,492.2z"/>
					</g>
				</g>
			</g>
		</g>
		<path class="st7" d="M1602.9,90.1c-15.2,7.3-31,16.2-37.9,31.5c-5.4,12-4.2,26.5,2.1,38c6.3,11.6,17.2,20.3,29.4,25.1
			c12.8,5,28.1,6.7,37,17.2c8.8,10.5,7.9,25.8,13,38.5c6.9,17.1,26,28.5,44.4,26.3c22.2-2.6,39.2-23,44.5-44.8
			c5.2-21.8,1-44.6-4.4-66.4c-5.5-21.7-12.3-43.5-12.2-65.9c0.1-26.9-8.5-40.2-35.3-31.4C1655.9,67.4,1629,77.6,1602.9,90.1z"/>
	</g>
</g>
</svg>
