<?xml version="1.0" encoding="utf-8"?>
<!-- Generator: Adobe Illustrator 24.0.0, SVG Export Plug-In . SVG Version: 6.00 Build 0)  -->
<svg version="1.1" id="Livello_1" xmlns="http://www.w3.org/2000/svg" xmlns:xlink="http://www.w3.org/1999/xlink" x="0px" y="0px"
	 viewBox="0 0 400 460" style="enable-background:new 0 0 400 460;" xml:space="preserve">
<style type="text/css">
	.st0{fill:#FCC989;}
	.st1{fill:#F2ECD8;}
	.st2{fill:#4E4059;}
	.st3{fill:#FFFFFF;}
	.st4{fill:#E26949;}
	.st5{fill:#FCF8EB;}
	.st6{fill:#D06A47;}
	.st7{fill:#DDC1A4;}
	.st8{fill:#00001E;}
	.st9{fill:#A0734A;}
	.st10{fill:#002217;}
	.st11{fill:#64A1FF;}
	.st12{fill:#B29072;}
	.st13{fill:#FFBE91;}
	.st14{fill:#EA907E;}
</style>
<g>
	<g>
		<path class="st0" d="M253.6,220.2c0.6,0.1,16.5-13.8,6.9-17.3c-9.7-3.5-20.2,13.7-17.7,17.5C245.3,224.2,253.6,220.2,253.6,220.2z
			"/>
	</g>
	<g>
		<path class="st0" d="M227.4,231.2c0.3,0.2,13.9-4.5,8.7-9.2c-5.2-4.7-16.2,3.5-15.6,6.6S227.4,231.2,227.4,231.2z"/>
	</g>
	<g>
		<path class="st0" d="M208.3,232.3c0.1,0.1,5.8-1.9,3.7-3.9c-2.2-2-6.8,1.5-6.5,2.8C205.7,232.5,208.3,232.3,208.3,232.3z"/>
	</g>
	<g>
		<g>
			<path class="st0" d="M93.5,179.7c0,0-44.6-14.2-44.7-65.9c0-51.7,18-81.7,85.2-91c67.2-9.3,132.7-2.2,165,28.9
				s31.3,142.7-61.7,148.1C144.2,205.3,93.5,179.7,93.5,179.7z"/>
		</g>
		<g>
			<g>
				<g>
					<g>
						<polygon class="st1" points="96.2,78.4 96.2,154.7 150.2,154.7 165.9,76.9 						"/>
					</g>
					<g>
						<polygon class="st2" points="97.8,71 177.9,71 164.3,82.3 90.6,82.3 						"/>
					</g>
					<g>
						<g>
							<g>
								<rect x="101.7" y="89" class="st3" width="15.4" height="20"/>
							</g>
							<g>
								<path class="st2" d="M115.5,107.4h-12.2V90.6h12.2V107.4z"/>
							</g>
						</g>
						<g>
							<g>
								<rect x="139.9" y="89" class="st3" width="15.4" height="20"/>
							</g>
							<g>
								<path class="st2" d="M153.7,107.4h-12.2V90.6h12.2V107.4z"/>
							</g>
						</g>
					</g>
					<g>
						<rect x="120" y="123.1" class="st2" width="17.1" height="31.7"/>
					</g>
					<g>
						<rect x="120" y="116.9" class="st3" width="17.1" height="3.4"/>
					</g>
				</g>
				<g>
					<polygon class="st3" points="243.9,154.7 150.2,154.7 150.2,75.9 197,37.3 243.9,75.9 					"/>
				</g>
				<g>
					<g>
						<g>
							<rect x="162.2" y="78" class="st1" width="20.1" height="26"/>
						</g>
						<g>
							<path class="st2" d="M180.1,101.9h-15.8V80.1h15.8V101.9z"/>
						</g>
					</g>
					<g>
						<g>
							<rect x="211.8" y="78" class="st1" width="20.1" height="26"/>
						</g>
						<g>
							<path class="st2" d="M229.7,101.9h-15.8V80.1h15.8V101.9z"/>
						</g>
					</g>
					<g>
						<g>
							<rect x="162.2" y="114.1" class="st1" width="20.1" height="26"/>
						</g>
						<g>
							<path class="st2" d="M180.1,137.9h-15.8v-21.8h15.8V137.9z"/>
						</g>
					</g>
					<g>
						<g>
							<rect x="211.8" y="114.1" class="st1" width="20.1" height="26"/>
						</g>
						<g>
							<path class="st2" d="M229.7,137.9h-15.8v-21.8h15.8V137.9z"/>
						</g>
					</g>
				</g>
				<g>
					<g>
						<polygon class="st2" points="244.2,79.6 197,40.6 149.8,79.6 146.6,75.6 197,34 247.5,75.6 						"/>
					</g>
				</g>
			</g>
			<g>
				<g>
					<g>
						<path class="st2" d="M248.9,161.3l1.7,0.6l27.3-2.3c0,0,2.3-6.6,1-8.7c-1.4-2.1-4.9-8.5-9-9.1c-4.1-0.6-15.3-1.5-17.9,0.3
							S246.1,158.6,248.9,161.3z"/>
					</g>
					<g>
						<path class="st2" d="M160.5,159.9l27.7,1.3c0,0,2.7-10.6,1.3-12.9c-1.4-2.4-5.8-7.1-9.6-7.4c-3.8-0.3-8.1-1.1-12.2,0.6
							C163.6,143.1,158.8,152.5,160.5,159.9z"/>
					</g>
					<g>
						<path class="st4" d="M161.4,159.7c0,0.7-0.7,1.3-1.5,1.1c-2.6-0.6-8-2.1-7.9-3.6c0.2-2,0.9-2.3,0.8-3.4s-0.5-6.2,0.2-7.4
							c0.7-1.2,1.7-1.9,1.8-2.6c0.1-0.7,1.5-4.5,3.1-5.8c3-2.5,8.5-4.7,12-5.6c5.4-1.3,11.9-2.4,11.9-2.4s13.3-12.1,27.6-16.3
							c14.2-4.2,43.5-0.7,45.7-0.1c5.2,1.5,12.1,9.1,13.4,10.5c1.4,1.4,7.1,8.7,8.3,9.3c1.2,0.5,3.1,8,4.2,8.6s1.5,2.3,2,5.5
							c0.5,3.1-1,9-1.6,10.5c-0.6,1.5-3.5,1.5-3.5,1.5s0.8-8.7-4.4-12.5c-5.2-3.8-11.8-4.7-18,0.3c-6.2,5-4.9,14.5-4.9,14.5
							l-62.9-0.7c0,0,0.2-10.1-5.2-14.3c-5.4-4.2-12.8-3.9-17-0.7C162.2,148.8,161.5,156.5,161.4,159.7z"/>
					</g>
					<g>
						<path class="st5" d="M160.7,136.6c0,0,0.6-0.4,1.2,0.5c0.6,0.9-3.1,6.2-4.8,6.6c-1.7,0.4-1.2-1.4-0.7-2.7
							C157,139.8,158.7,137.6,160.7,136.6z"/>
					</g>
					<g>
						<path class="st5" d="M157.9,146.8c0,0,1.2-1.7-0.3-2c-1.5-0.3-3.1,0.6-3.4,2.2c-0.3,1.6,0.8,2.2,1.7,1.7
							C156.8,148.3,157.9,146.8,157.9,146.8z"/>
					</g>
					<g>
						<g>
							<path class="st2" d="M270.3,148.4c-2.4-1.4-6.8-2.7-11.2-0.1c-4.5,2.6-5.9,6.3-6,9.2c-0.1,2.9,1.1,9.5,8.1,11.5
								c6.9,2,12.1-2.2,13.4-4.6C276.3,161,276.7,152.2,270.3,148.4z"/>
						</g>
						<g>
							
								<ellipse transform="matrix(0.9447 -0.3279 0.3279 0.9447 -37.3784 95.5962)" class="st5" cx="264.7" cy="158.6" rx="6.8" ry="6.8"/>
						</g>
						<g>
							<g>
								<path class="st2" d="M267.1,155.6c0.5-0.5,0.9-1.4,0.5-1.9c-0.5-0.6-3.4-1.1-4.4-0.4c-0.7,0.4-0.4,1.3,0,1.8
									c0.5-0.2,1-0.3,1.6-0.4C265.6,154.8,266.5,155.1,267.1,155.6z"/>
							</g>
							<g>
								<path class="st2" d="M270,157.9c-0.3-0.7-1-0.6-1.6-0.5c0.1,0.4,0.2,0.7,0.2,1.1c0,1.2-0.5,2.3-1.4,3.1
									c0.4,0.5,1,0.8,1.5,0.5C269.4,161.8,270.5,159.1,270,157.9z"/>
							</g>
							<g>
								<path class="st2" d="M261.7,161c-0.6,0.4-1,1.2-0.7,1.7c0.4,0.7,3.1,1.6,4.3,1.1c0.6-0.3,0.6-0.9,0.4-1.5
									c-0.3,0.1-0.7,0.1-1,0.2C263.6,162.5,262.5,161.9,261.7,161z"/>
							</g>
							<g>
								<path class="st2" d="M261.9,156c-0.5-0.6-1.5-1-2-0.5c-0.6,0.5-1.1,3.4-0.3,4.4c0.4,0.6,1.1,0.4,1.6,0.1
									c-0.2-0.4-0.3-0.9-0.3-1.4C260.9,157.7,261.3,156.7,261.9,156z"/>
							</g>
						</g>
					</g>
					<g>
						<g>
							<path class="st2" d="M180.3,148.9c-2.4-1.4-6.8-2.7-11.2-0.1c-4.5,2.6-5.9,6.3-6,9.2c-0.1,2.9,1.1,9.5,8.1,11.5
								c6.9,2,12.1-2.2,13.4-4.6C186.4,161.5,186.8,152.6,180.3,148.9z"/>
						</g>
						<g>
							
								<ellipse transform="matrix(0.5934 -0.8049 0.8049 0.5934 -56.9623 205.4068)" class="st5" cx="174.8" cy="159.1" rx="7.1" ry="7.1"/>
						</g>
						<g>
							<g>
								<path class="st2" d="M177.3,155.9c0.5-0.5,0.9-1.5,0.5-2c-0.5-0.6-3.5-1.2-4.6-0.4c-0.7,0.5-0.4,1.3,0,1.9
									c0.5-0.2,1-0.4,1.6-0.4C175.7,155.1,176.6,155.4,177.3,155.9z"/>
							</g>
							<g>
								<path class="st2" d="M180.3,158.3c-0.3-0.7-1.1-0.7-1.7-0.5c0.1,0.4,0.2,0.8,0.2,1.2c0,1.3-0.6,2.4-1.5,3.2
									c0.4,0.5,1.1,0.8,1.6,0.6C179.6,162.4,180.8,159.6,180.3,158.3z"/>
							</g>
							<g>
								<path class="st2" d="M171.7,161.6c-0.6,0.5-1,1.3-0.7,1.8c0.4,0.7,3.3,1.7,4.5,1.1c0.6-0.3,0.6-1,0.4-1.6
									c-0.3,0.1-0.7,0.2-1.1,0.2C173.6,163.1,172.4,162.5,171.7,161.6z"/>
							</g>
							<g>
								<path class="st2" d="M171.9,156.4c-0.5-0.6-1.6-1-2.1-0.6c-0.6,0.6-1.1,3.5-0.3,4.6c0.4,0.6,1.1,0.4,1.7,0.1
									c-0.2-0.4-0.3-0.9-0.3-1.4C170.8,158.1,171.2,157.1,171.9,156.4z"/>
							</g>
						</g>
					</g>
					<g>
						<path class="st0" d="M277.5,133.8c0,0-3.8-1.5-4.8-0.8c-1,0.8,4.1,6.5,4.9,7.5c0.9,1,1.8,1.4,2.9,1
							C281.6,141.1,279.7,134.5,277.5,133.8z"/>
					</g>
					<g>
						<path class="st2" d="M255.8,122.9c-2-2.5-7.2-6.5-11.6-7.8c-4.4-1.3-18-0.9-23.9-0.7c-5.8,0.2-8.9,1.1-17.2,4.7
							c-7.2,3.1-15,9.3-16.9,11c-0.3,0.3-0.6,0.6-0.7,1c-0.4,1.3,39,4.5,40.3-2.3c0,0,4.1-0.2,4.4-0.2c1.6,0,28.4-0.2,28.2-1.2
							C258.2,126.5,257.8,125.4,255.8,122.9z"/>
					</g>
					<g>
						<polygon class="st6" points="227.7,113.4 225.6,131 230.8,130.7 231.1,113.4 						"/>
					</g>
					<g>
						<path class="st2" d="M258.1,147.3c-0.2,0-0.3-0.1-0.4-0.3c-0.6-1.8,0-3.5,0.6-5.3c0.4-1.3,0.9-2.7,0.9-4.3
							c0.1-2.8-0.7-7.1-1-8.9c-0.1-0.5-0.5-0.9-1-1c-0.2,0-0.4-0.3-0.3-0.5c0-0.2,0.3-0.4,0.5-0.3c0.8,0.2,1.5,0.8,1.6,1.6
							c0.4,2.2,1.1,6.3,1,9.1c-0.1,1.7-0.5,3.2-1,4.5c-0.6,1.7-1.1,3.2-0.6,4.8c0.1,0.2,0,0.4-0.2,0.5
							C258.2,147.3,258.2,147.3,258.1,147.3z"/>
					</g>
					<g>
						<path class="st2" d="M248,132.5c0,0,9-0.9,9.4-0.5c0.4,0.4,0.6,1.6,0,1.9c-0.6,0.2-9.3,0.6-9.4,0.4
							C247.9,134.1,248,132.5,248,132.5z"/>
					</g>
					<g>
						<path class="st4" d="M188.7,127.2l-0.1,1.8c-0.1,2,1.6,2,3.6,1.9l35.7-1.6l1.2,27.5l-24,2.5l-13.7-2.1c0,0-5-9-5.3-10.1
							c-0.4-1.1-2.2-14.4-2.2-14.4L188.7,127.2z"/>
					</g>
					<g>
						<path class="st2" d="M214.9,133.8c0,0,9-0.9,9.4-0.5c0.4,0.4,0.6,1.6,0,1.9c-0.6,0.2-9.3,0.6-9.4,0.4
							C214.8,135.4,214.9,133.8,214.9,133.8z"/>
					</g>
					<g>
						<path class="st2" d="M184,152.2c-0.2,0-0.4-0.2-0.4-0.4c-0.2-2.4-0.6-12.9-0.4-15.3c0.2-2.6,1.6-5.1,3.7-6.7
							c1.5-1.2,2.9-2.2,4.1-3c0.2-0.1,0.4-0.1,0.5,0.1c0.1,0.2,0.1,0.4-0.1,0.5c-1.2,0.8-2.6,1.8-4.1,2.9c-1.9,1.5-3.2,3.7-3.4,6.2
							c-0.2,2.4,0.2,12.8,0.4,15.2C184.4,152,184.2,152.2,184,152.2C184,152.2,184,152.2,184,152.2z"/>
					</g>
				</g>
				<g>
					<path class="st2" d="M227.1,160.4C227.1,160.4,227.1,160.4,227.1,160.4c-0.2,0-0.4-0.2-0.4-0.4l1.2-30.2c0-0.2,0.2-0.4,0.4-0.4
						c0.2,0,0.4,0.2,0.4,0.4l-1.2,30.2C227.5,160.3,227.3,160.4,227.1,160.4z"/>
				</g>
			</g>
		</g>
	</g>
	<g>
		<g>
			<path class="st7" d="M110.9,431.7c2.7,12.1,147.1,9.4,147.1,9.4s25.7,11.5,38.7,8.6c13-2.9,27.3-1,28.5-4.9
				c1.2-4-59.8-10.7-59.8-10.7s-15.3-6.4-42.4-8C196,424.6,108.2,419.6,110.9,431.7z"/>
		</g>
		<g>
			<g>
				<path class="st8" d="M160.7,199.7c0,0,36-17.6,49.8-7.4c13.8,10.1-23.9,49.1-23.9,49.1L166,224.1l11.5-11.8l-14.2,3.7
					L160.7,199.7z"/>
			</g>
			<g>
				<path class="st5" d="M296,437.3c3.7,1.1,8.8,1.7,9.8,1.4s-5.4-2.4-2.1-3.7c1.8-0.8,4.7-1.4,6.9-1.8c-0.3-0.2-0.6-0.5-1-0.8
					c-4.4-3.7-7.7-12.4-7.7-12.4c-3.3-0.2-12.9,3.1-12.9,3.1s2.5,7.4,2.8,10.8c0.1,1.4,0.1,2.2,0.1,2.9
					C292.7,436.7,294,436.7,296,437.3z"/>
			</g>
			<g>
				<path class="st2" d="M321.7,299.1c0,0,4.8-1.7,8.4-2.1c4.3-0.4,10.8-0.8,15.6,1c4,1.5,5.2,2.9,5.4,4.5c0.4,2.6-4,5.9-9.3,7.2
					c-3.8,0.9-6.6,1.2-10.8,0.1C326.9,308.7,316.7,300.8,321.7,299.1z"/>
			</g>
			<g>
				<path class="st9" d="M317,301.2c0,0,2.3-1.9,5.8-2.6c1.6-0.3,7.9-1.4,13-1.3c6.4,0.1,13.5,2.2,13.9,5.2
					c0.5,3.3-7.8,7.3-10.9,7.9c-3.1,0.7-15,1.7-17.7,2C318.3,312.7,314.5,306.2,317,301.2z"/>
			</g>
			<g>
				<path class="st5" d="M315.1,300c0,0,9.6-0.3,11.2,1.2c1.6,1.5,1,6.6,0.6,8.1c-0.3,1.5-12.8,2.2-12.8,2.2L315.1,300z"/>
			</g>
			<g>
				<g>
					<path class="st2" d="M180.1,348.6v16.5c0,2.1,1.4,3.9,3.3,4.5c1.8,0.6,4.4,1,8.1,1c3.6,0,6.3-0.5,8.1-1.1
						c2-0.6,3.4-2.5,3.4-4.6v-16.5H180.1z"/>
				</g>
				<g>
					<path class="st2" d="M101.5,249.4c0,0-1.2,2.4-7.4-0.8c-6.2-3.2-6.5-14.2,0-18.3c4.9-3,43.3-8.4,62.1-10.9
						c6-0.8,11.8,2.6,14.1,8.2l33.8,84.1c0,0,38.5-0.8,46.5,4.1c8,4.9,15.8,13.7,15.1,15.9c-0.9,2.9-32.9,25.6-38.8,27
						c-5.8,1.4-77.9-6.7-80.7-8.2C143.5,349.1,101.5,249.4,101.5,249.4z"/>
				</g>
				<g>
					<path class="st2" d="M195.8,407.8c0,1.1-0.7,3.6-1.7,4c-0.7,0.3-1.6,0.5-2.6,0.5c-1,0-1.9-0.2-2.6-0.5c-1-0.4-1.7-2.9-1.7-4
						v-44.3h8.7V407.8z"/>
				</g>
				<g>
					<path class="st2" d="M243.5,419.6c-5.3-5.2-47.3-12.7-47.3-12.7h-1.1h-7.2h-1.1c0,0-42,7.5-47.3,12.7c-5.3,5.2-3.1,9.2,1,10
						c2.2,0.4,4.1-1.2,5.4-2.8c1.5-1.9,3.6-3.3,6-3.9l35.9-9.1v9.5c0,1.2,0.9,2.1,2.1,2.1h0.1h3h0.1c1.2,0,2.1-0.9,2.1-2.1v-9.5
						l35.9,9.1c2.4,0.6,4.5,2,6,3.9c1.3,1.6,3.2,3.2,5.4,2.8C246.6,428.8,248.9,424.8,243.5,419.6z"/>
				</g>
				<g>
					
						<ellipse transform="matrix(0.5257 -0.8507 0.8507 0.5257 -297.8248 327.0172)" class="st2" cx="144.4" cy="430.6" rx="5.8" ry="5.8"/>
				</g>
				<g>
					
						<ellipse transform="matrix(0.8507 -0.5257 0.5257 0.8507 -190.6585 190.0515)" class="st2" cx="239.2" cy="430.6" rx="5.8" ry="5.8"/>
				</g>
				<g>
					<path class="st2" d="M193.6,423.5h-2.1c-1.6,0-3,1.3-3,3v7c0,1.6,1.3,3,3,3h2.1c1.6,0,3-1.3,3-3v-7
						C196.5,424.8,195.2,423.5,193.6,423.5z"/>
				</g>
			</g>
			<g>
				<path class="st10" d="M193,234.3c-5.4-2.7-13.1-5.4-13.1-5.4l3.2,9.5l3.6,3C186.6,241.4,189.3,238.6,193,234.3z"/>
			</g>
			<g>
				<path class="st11" d="M286.5,318.7c-13.1-8.8-75.9-22.3-75.9-22.3s-31.1,13.2-50.2,19l7.3,14.2l21.1-2.3l72.4,17.7l26.4,85.4
					c0,0,8,0.4,10.7,0c3-0.5,11.5-3.7,11.5-3.7S299.5,327.6,286.5,318.7z"/>
			</g>
			<g>
				<path class="st11" d="M204.7,311.1c0,0,27-18.9,40.2-19.9c6.3-0.5,72.1,5.1,72.1,5.1s3.3,12.4,0.3,20.6l-62.5,4.8
					c0,0-23.3,23.6-39.7,25.2c-17.9,1.7-28.9-6-47.6-17l-6.6-12.8L204.7,311.1z"/>
			</g>
			<g>
				<path class="st8" d="M142.3,202.3c0,0-31-3.4-53.8-1.3c-8.3,0.8-14.2,6.9-15.3,11.6c-4.8,21.7,50.1,43,50.1,43l14.5-29.2
					l-26.6-7.9l33.1-1c0,0,4.4,0.2,5.3-4.9C151.2,202.9,142.3,202.3,142.3,202.3z"/>
			</g>
			<g>
				<path class="st8" d="M197.8,271.6c-4.8-8.6-8.6-45.7-28.6-48.6c-20-2.9-43.2,4.3-47,10.1c-8.7,13.2,7.2,41,16.4,59.5
					c6,12,25.5,52.7,25.5,52.7c9.6-2.9,24.9-10.2,37.7-29c2.1-3.1-5.7-11.7-4.8-12.4c0.6-0.6,10.3,5.6,10.9,5
					c10.2-9.5,11.1-10.5,11.1-10.5S202.6,280.3,197.8,271.6z"/>
			</g>
			<g>
				<path class="st9" d="M329,301c0,0-6.3-1.7-7.2-1.1c-0.9,0.7-1.1,11.1,0.5,11.1c1.6,0,6.7-0.8,7.3-1.7
					C330.1,308.5,329,301,329,301z"/>
			</g>
			<g>
				<g>
					<path class="st3" d="M156.5,223.9c-1.8,0.2-5.3,1.7-7.3,4.5c-2.5,3.5,27.4,49.8,29.7,51.1C181.2,280.7,164.2,223.1,156.5,223.9
						z"/>
				</g>
				<g>
					<path class="st2" d="M157.8,228.4c0,0,1.6,0.7,1.1,1.7c-0.5,0.9-2.1,2.4-3.1,1.9c-1-0.5-2.2-1.9-1.7-2.3
						C154.7,229.3,157.1,227.9,157.8,228.4z"/>
				</g>
				<g>
					<path class="st2" d="M155.9,230.8l2.2-0.9c0,0,11,20.6,16.6,32.2c3.1,10,5,17.9,4.1,17.4c-0.9-0.5-5.9-7.7-11.5-16.5
						C163.5,252.3,155.9,230.8,155.9,230.8z"/>
				</g>
			</g>
			<g>
				<g>
					<path class="st12" d="M159.3,191.7c0,0,0.3-3.2-4.4-3.3c-4.7-0.1-5.7,1.2-5.7,1.2s-3.7-1.4-6,0.4c-2.3,1.9-2.4,2.8-2.4,2.8
						s-2.4,0-4,3.1c-1.6,3.1,2.2,7.5,2.2,7.5s-1.2,0.5-0.1,3.3c1.1,2.8,2.8,12.3,9,7.6C154,209.4,161.3,193.9,159.3,191.7z"/>
				</g>
				<g>
					<g>
						<path class="st13" d="M156,194.7c-6.3,0.7-10.9,6.3-10.4,12.6c0.3,4,1,7.2,1.8,8.4c2.3,3.2,11.7,4.6,15.4,2.9
							c2.2-1,2.4-3.4,2.2-7.2c-0.1-2.5-0.8-4.5-0.9-5.6c-0.3-2.6-0.3-11.6-5.4-11.3C157.8,194.5,156.9,194.6,156,194.7z"/>
					</g>
					<g>
						<path class="st12" d="M149.4,201.9c-1.2,1.4-0.4,5.2-1.3,6.7c-0.9,1.5-3.9,1.8-5,1.1c-2.7-1.8-0.3-9.7,7.2-11.7
							C153.4,197.1,150.8,200.2,149.4,201.9z"/>
					</g>
					<g>
						<path class="st13" d="M147.1,211.4c0,0,0.4,4.2,0.5,8.1c0.1,3.1-0.3,6.1,0.5,7c0.8,0.8,9.1,1.3,10.3,0.1
							c1.2-1.2-1.8-11.4-1.8-11.4L147.1,211.4z"/>
					</g>
					<g>
						<path class="st12" d="M147.8,207.3c1,0,0.7,1.5,1.1,2.6c0.4,1.1,2.5,1.7,4.4,1.6s4.1-2.3,7.3-2.6c2.2-0.2,3.5,0,4.1,0.2
							c0.7,0.5,0.7,2.1,0.9,2.8c1,3.7,0.4,6.7-1.8,7.8c-3.2,1.5-13,1.2-15.6-3.1C147.2,215.2,146.8,207.3,147.8,207.3z"/>
					</g>
					<g>
						<path class="st3" d="M158.1,211.2c0,0,3.5-0.7,6-1c0,0,0.4,2.3-1.9,2.7C159.9,213.3,158.1,211.2,158.1,211.2z"/>
					</g>
					<g>
						<path class="st14" d="M159.1,205.8c0-0.2,0.3-0.3,0.4-0.1c0.4,0.4,1.1,1,2.1,1.5c1.6,0.7,1.6,1.8-0.4,1.8
							c-2,0-2.1-0.1-2.2-1.1C159,207.4,159.1,206.4,159.1,205.8z"/>
					</g>
					<g>
						<g>
							<path class="st2" d="M154.5,205.7c-0.6,0-1.2,0-1.2,0c-0.1,0-0.2-0.1-0.2-0.2c0-0.1,0.1-0.2,0.2-0.2c0,0,1.3,0,2,0
								c0.6,0,0.8-0.4,0.8-0.4c0.1-0.1,0.2-0.1,0.3-0.1c0.1,0.1,0.1,0.2,0.1,0.3c0,0-0.3,0.6-1.2,0.6
								C155.2,205.7,154.9,205.7,154.5,205.7z"/>
						</g>
						<g>
							<path class="st2" d="M162.5,204.7c-0.6,0-1.3-0.2-1.6-0.2c-0.1,0-0.2-0.1-0.2-0.3c0-0.1,0.1-0.2,0.3-0.2
								c0.9,0.2,1.8,0.3,2,0.2c0-0.1,0.1-0.2,0.2-0.2c0.1,0,0.2,0.1,0.2,0.2c0,0.1-0.1,0.2-0.2,0.3
								C163.1,204.7,162.8,204.7,162.5,204.7z"/>
						</g>
					</g>
					<g>
						<path class="st13" d="M146.5,207.7c-0.5-0.6-1.2-1.1-1.9-1.2c-0.8-0.1-1.8,0.1-2.2,1.6c-0.7,2.9,4.4,6.4,5.4,4.1
							C148.4,210.7,147.2,208.7,146.5,207.7z"/>
					</g>
					<g>
						<path class="st14" d="M146.5,212.1C146.5,212.1,146.5,212.1,146.5,212.1c-0.2,0-0.4-0.2-0.3-0.4c0-0.2,0.1-0.7-0.1-0.8
							c-0.1-0.1-0.4,0-0.6,0c-0.4,0.1-0.8,0.2-1.1-0.1c-0.4-0.4-0.9-1.2-1-2.1c0-1,0.7-1.3,0.8-1.3c0.2-0.1,0.4,0,0.4,0.2
							c0.1,0.2,0,0.4-0.2,0.4c0,0-0.4,0.2-0.4,0.7c0,0.7,0.5,1.4,0.8,1.7c0.1,0.1,0.3,0,0.5,0c0.3-0.1,0.7-0.2,1.1,0
							c0.6,0.3,0.6,1.1,0.5,1.5C146.8,212,146.7,212.1,146.5,212.1z"/>
					</g>
					<g>
						<path class="st2" d="M152.6,203.5c-0.1,0-0.2-0.1-0.2-0.1c0-0.1,0-0.2,0.1-0.3c2.2-0.9,4.4-1.1,4.5-1.1c0.1,0,0.2,0.1,0.2,0.2
							c0,0.1-0.1,0.2-0.2,0.2C157,202.5,154.8,202.6,152.6,203.5C152.6,203.5,152.6,203.5,152.6,203.5z"/>
					</g>
					<g>
						<path class="st2" d="M163.3,201.9C163.3,201.9,163.3,201.9,163.3,201.9l-2.5,0c-0.1,0-0.2-0.1-0.2-0.2c0-0.1,0.1-0.2,0.2-0.2
							c0,0,0,0,0,0l2.5,0c0.1,0,0.2,0.1,0.2,0.2C163.5,201.8,163.4,201.9,163.3,201.9z"/>
					</g>
					<g>
						<path class="st12" d="M148.8,196c0,0-0.8-1.8,3.1-3.5c1.6-0.7,4.3,0.2,4.3,0.2s3.7-3.8,7-2.2c3.2,1.5,5,6.7,0.8,7.8
							c-4.2,1-10,0.1-10,0.1s-4.5,4.4-6.6,3.4C145.1,200.8,144.7,197.6,148.8,196z"/>
					</g>
				</g>
				<g>
					<path class="st3" d="M155.2,225l3.2-2.4l1.9,2.1l1.7,4.2c0,0-5.9-0.5-6.2-0.4c-0.3,0.1-4.2,3.3-5.1,3.4c-0.8,0-4.9-2.2-4.7-3.1
						c0.2-1,0.9-5.5,0.9-5.5L155.2,225z"/>
				</g>
			</g>
			<g>
				<g>
					<path class="st9" d="M334.4,438.4c-0.6-5.9-19.9-2.3-23.9-5.3c-2.2,0.4-5.1,1-6.9,1.8c-3.2,1.4,3.1,3.5,2.1,3.7
						c-0.9,0.2-6.1-0.4-9.8-1.4c-2-0.6-3.2-0.5-4-0.4c0,1-0.1,1.6,0,3.2c0.1,2.8,2,6.2,2,6.2l0.4,1.1c2.2-0.4,7.3-1.2,9.6-1.6
						C306.8,445.3,318,444,334.4,438.4z"/>
				</g>
				<g>
					<path class="st2" d="M304,445.8c-2.3,0.4-7.5,1.3-9.6,1.6l1.2,3l8.2-1.2l-0.5-2.2c0,0,2.2,1.3,6,1c2-0.2,25.1-7.2,25.1-9.3
						c0-0.1,0-0.2,0-0.3C318,444,306.8,445.3,304,445.8z"/>
				</g>
			</g>
			<g>
				<path class="st10" d="M196.9,304.5c-0.2,0-0.3-0.1-0.5-0.2c-5.8-5.7-16.5-23-16.9-23.7c-0.2-0.3-0.1-0.7,0.2-0.9
					c0.3-0.2,0.7-0.1,0.9,0.2c0.1,0.2,11,17.8,16.7,23.5c0.3,0.3,0.3,0.7,0,0.9C197.3,304.5,197.1,304.5,196.9,304.5z"/>
			</g>
			<g>
				<path class="st10" d="M163.1,312.9c-0.4,0-0.7-0.3-0.7-0.7c0-0.4,0-0.5,6.6-6.7c3.2-3,6.4-6,6.4-6c0.3-0.2,0.7-0.2,0.9,0
					c0.2,0.3,0.2,0.7,0,0.9c-4.6,4.3-12.1,11.2-12.7,12C163.6,312.8,163.4,312.9,163.1,312.9z M163.8,312.3L163.8,312.3L163.8,312.3
					z"/>
			</g>
			<g>
				<path class="st10" d="M192,289.8c-0.3,0-0.6-0.2-0.7-0.5c-0.1-0.4,0.2-0.7,0.5-0.8l11-1.9c0.4-0.1,0.7,0.2,0.8,0.5
					c0.1,0.4-0.2,0.7-0.5,0.8l-11,1.9C192.1,289.8,192,289.8,192,289.8z"/>
			</g>
			<g>
				<path class="st10" d="M121.6,255.3c-0.3,0-0.5-0.2-0.6-0.4c-2.7-7.9-7.8-19.4-7.8-19.5c-0.1-0.3,0-0.7,0.3-0.9
					c0.3-0.1,0.7,0,0.9,0.3c0.1,0.1,5.2,11.6,7.9,19.6c0.1,0.3-0.1,0.7-0.4,0.8C121.7,255.3,121.7,255.3,121.6,255.3z"/>
			</g>
			<g>
				<path class="st10" d="M177.5,213c-0.2,0-0.3-0.1-0.4-0.2c-0.3-0.2-0.3-0.7,0-0.9c0.3-0.4,8.6-9.3,17.1-11.6
					c0.4-0.1,0.7,0.1,0.8,0.5c0.1,0.4-0.1,0.7-0.5,0.8c-8.1,2.2-16.4,11.1-16.5,11.2C177.9,212.9,177.7,213,177.5,213z"/>
			</g>
			<g>
				<path class="st10" d="M111.3,219c-0.1,0-0.1,0-0.2,0c-0.1,0-13-3.5-22.6-3.1c-0.4,0-0.7-0.3-0.7-0.6c0-0.4,0.3-0.7,0.6-0.7
					c9.8-0.4,22.9,3.1,23,3.1c0.4,0.1,0.6,0.5,0.5,0.8C111.8,218.8,111.6,219,111.3,219z"/>
			</g>
			<g>
				<path class="st10" d="M107.2,218c-0.1,0-0.3,0-0.4-0.1l-8.5-6c-0.3-0.2-0.4-0.6-0.2-0.9c0.2-0.3,0.6-0.4,0.9-0.2l8.5,6
					c0.3,0.2,0.4,0.6,0.2,0.9C107.7,217.9,107.5,218,107.2,218z"/>
			</g>
			<g>
				<path class="st2" d="M234.3,339.5c-0.3,0-0.5-0.1-0.7-0.3c-0.3-0.4-0.3-0.9,0.1-1.2l20.8-17.2l0.3,0c0.3,0,25.2-1.1,31.4-2.8
					c0.5-0.1,1,0.2,1.1,0.6c0.1,0.5-0.2,1-0.6,1.1c-6.1,1.7-28.5,2.7-31.5,2.9l-20.4,16.8C234.7,339.4,234.5,339.5,234.3,339.5z"/>
			</g>
			<g>
				<path class="st2" d="M214,306.6c-0.3,0-0.6-0.2-0.8-0.4c-0.3-0.4-0.1-1,0.3-1.2l9.7-5.9c0.4-0.3,1-0.1,1.2,0.3
					c0.3,0.4,0.1,1-0.3,1.2l-9.7,5.9C214.3,306.5,214.1,306.6,214,306.6z"/>
			</g>
		</g>
	</g>
</g>
</svg>
