<?xml version="1.0" encoding="utf-8"?>
<!-- Generator: Adobe Illustrator 24.0.0, SVG Export Plug-In . SVG Version: 6.00 Build 0)  -->
<svg version="1.1" id="Livello_1" xmlns="http://www.w3.org/2000/svg" xmlns:xlink="http://www.w3.org/1999/xlink" x="0px" y="0px"
	 viewBox="0 0 400 460" style="enable-background:new 0 0 400 460;" xml:space="preserve">
<style type="text/css">
	.st0{fill:#E0E0E0;}
	.st1{fill:#263238;}
	.st2{fill:#D278F2;}
	.st3{opacity:0.4;}
	.st4{fill:#455A64;}
	.st5{fill:#FFFFFF;}
	.st6{opacity:0.5;}
	.st7{fill:#EBEBEB;}
	.st8{fill:#FAFAFA;}
	.st9{clip-path:url(#SVGID_2_);}
	.st10{opacity:0.2;}
	.st11{fill:#FCC989;}
	.st12{fill:#B78876;}
	.st13{fill:#64A1FF;}
	.st14{opacity:0.3;}
	.st15{fill:#995037;}
	.st16{fill:#00001E;}
</style>
<g>
	<g>
		<g>
			<g>
				<g>
					<path class="st0" d="M364,351.6c0,0,0-0.1-0.1-0.2c-0.1-0.2-0.2-0.4-0.3-0.6c-0.3-0.5-0.7-1.3-1.4-2.2
						c-1.3-1.8-3.4-4.4-6.9-6.5c-1.7-1-3.8-1.9-6.2-2.3c-2.4-0.3-5-0.2-7.5,0.8c-2.5,0.9-4.9,2.7-6.4,5.2c-1.5,2.6-1.9,5.6-2.8,8.5
						c-0.4,1.4-1,2.8-1.8,4c-0.8,1.2-1.9,2.2-3,3c-1.1,0.8-2.3,1.6-3.4,2.5c-1.1,0.9-2,1.9-2.8,3c-1.5,2.2-2.4,4.7-2.9,7
						c-0.5,2.3-0.5,4.6-0.4,6.6c0.3,4,1.1,7.2,1.7,9.3c0.3,1.1,0.5,1.9,0.7,2.5c0.2,0.6,0.3,0.9,0.3,0.9c0,0,0-0.3-0.2-0.9
						c-0.1-0.6-0.3-1.5-0.6-2.5c-0.5-2.2-1.3-5.3-1.5-9.3c-0.1-2,0-4.2,0.4-6.4c0.5-2.3,1.3-4.7,2.8-6.8c0.7-1.1,1.7-2.1,2.7-2.9
						c1.1-0.9,2.3-1.6,3.4-2.5c1.2-0.9,2.3-1.8,3.2-3.1c0.8-1.3,1.4-2.7,1.9-4.2c0.9-2.9,1.3-5.9,2.8-8.4c1.4-2.5,3.7-4.1,6.1-5.1
						c2.4-0.9,5-1.1,7.3-0.8c2.3,0.3,4.3,1.2,6,2.2c3.4,2,5.6,4.5,6.9,6.3c0.7,0.9,1.1,1.6,1.5,2.1C363.8,351.3,364,351.6,364,351.6
						z"/>
				</g>
			</g>
			<g>
				<path class="st0" d="M326.3,362.2c0.8-0.7,1.2-0.2,2.2,0c1.1,0.2,2,0.8,2.9,1.4c3.7,2.9,5.3,8.2,3.9,12.7
					c-3.4,0.2-6.8-1.6-8.6-4.5c-1.8-2.9-1.8-6.8-0.1-9.7"/>
			</g>
			<g>
				<path class="st0" d="M358.9,347.3c0.4-1,1-0.7,2-1c1-0.3,2.2-0.2,3.2,0.1c4.6,1.1,8.4,5.1,9,9.8c-3,1.6-6.9,1.5-9.7-0.4
					c-2.9-1.9-4.6-5.3-4.3-8.7"/>
			</g>
			<g>
				<path class="st0" d="M319.1,382.3c2.2-2.5,5.5-3.9,8.8-3.8c3.3,0.2,6.5,1.9,8.4,4.6c-2.4,2.2-5.7,3.5-8.9,3.5s-6.5-1.5-9-3.6"/>
			</g>
			<g>
				<path class="st0" d="M321.8,367.2c-3.3,0.1-6.6-1.4-8.8-3.9c-2.1-2.5-3.1-6.1-2.4-9.3c3.5-0.8,7.3,0.4,9.7,3.1
					c2.4,2.7,3.1,6.7,1.9,10"/>
			</g>
			<g>
				<path class="st0" d="M333.3,349.6c-3.1,1.2-6.7,0.9-9.6-0.8c-2.9-1.7-4.9-4.7-5.4-8c3-1.9,7.1-2,10.2-0.3
					c3.1,1.7,5.1,5.2,5.1,8.8"/>
			</g>
			<g>
				<path class="st0" d="M337.1,343.8c3.1-1.2,6.7-0.9,9.6,0.8c2.9,1.7,4.9,4.7,5.4,8c-3,1.9-7.1,2-10.2,0.3
					c-3.1-1.7-5.1-5.2-5.1-8.8"/>
			</g>
			<g>
				<path class="st0" d="M341.7,340.7c-3.1-1.1-5.7-3.6-6.9-6.7c-1.1-3.1-0.8-6.7,1-9.6c3.5,0.5,6.7,3,8,6.3c1.3,3.3,0.6,7.3-1.7,10
					"/>
			</g>
			<g>
				<path class="st0" d="M353.5,341.3c-1.1-3.1-0.8-6.7,1-9.6c1.7-2.8,4.8-4.8,8.1-5.2c1.8,3,1.9,7.1,0.1,10.2
					c-1.8,3.1-5.4,5-8.9,4.9"/>
			</g>
		</g>
		<g>
			<polyline class="st1" points="306,420.8 299.8,381.5 347.8,382.1 343.1,420.3 			"/>
		</g>
		<g>
			<g>
				<g>
					<g>
						<path class="st2" d="M326.8,374.3c2.6,1.6,5.6,1.9,8,0.7c2.4-1.2,4-3.8,4.4-6.9c-2.6-1.3-5.5-1.4-8-0.4
							c-2.4,1-4.3,3.2-5.3,5.9"/>
					</g>
					<g>
						<path class="st2" d="M348.7,382.8c2.6,1.6,5.6,1.9,8,0.7c2.4-1.2,4-3.8,4.4-6.9c-2.6-1.3-5.5-1.4-8-0.4
							c-2.4,1-4.3,3.2-5.3,5.9"/>
					</g>
					<g>
						<path class="st2" d="M336.4,363.8c1.3,2.8,3.7,4.6,6.3,4.9c2.6,0.3,5.5-1,7.4-3.4c-1.5-2.5-3.8-4.2-6.4-4.7
							c-2.6-0.5-5.4,0.3-7.7,2"/>
					</g>
					<g>
						<path class="st2" d="M344.4,373.6c-3,0-5.8,1.3-7.2,3.5c-1.4,2.2-1.5,5.3-0.2,8.2c2.9-0.3,5.5-1.7,7-3.8
							c1.5-2.1,2.1-4.9,1.5-7.8"/>
					</g>
					<g>
						<path class="st2" d="M352.2,389.1c-1.3,2.7-1.3,5.8,0.2,8s4.2,3.6,7.3,3.6c1-2.8,0.8-5.7-0.5-8c-1.3-2.3-3.5-3.4-6.4-4.1"/>
					</g>
				</g>
				<g>
					<g>
						<path class="st2" d="M364.9,390.9c0,0.1-0.5-0.7-1.9-1.2c-0.7-0.3-1.6-0.4-2.6-0.5c-1,0-2.2,0.1-3.5,0.2
							c-1.3,0.1-2.8,0.2-4.4-0.4c-1.5-0.5-2.8-1.9-3.6-3.5c-0.8-1.6-1.2-3.5-1.6-5.3c-0.4-1.9-0.8-3.8-1.9-5.5
							c-1.1-1.7-2.6-2.9-4.1-4.1c-1.5-1.2-2.9-2.4-3.9-3.9c-2-3-2.3-6.4-1.9-9c0.4-2.7,1.5-4.6,2.4-5.8c0.5-0.6,0.8-1,1.2-1.3
							c0.3-0.3,0.4-0.4,0.5-0.4c0,0-0.1,0.2-0.4,0.5c-0.3,0.3-0.6,0.7-1.1,1.3c-0.8,1.2-1.8,3.1-2.2,5.7c-0.3,2.6,0,5.9,2,8.7
							c1,1.4,2.4,2.6,3.8,3.8c1.4,1.2,3,2.5,4.2,4.2c1.1,1.8,1.5,3.8,1.9,5.6c0.4,1.9,0.7,3.7,1.5,5.2c0.7,1.5,1.9,2.8,3.3,3.3
							c1.4,0.5,2.9,0.5,4.2,0.4c1.3-0.1,2.5-0.2,3.6-0.1c1.1,0.1,2,0.3,2.7,0.6c0.7,0.3,1.2,0.7,1.4,0.9c0.1,0.1,0.2,0.3,0.3,0.3
							C364.9,390.9,364.9,390.9,364.9,390.9z"/>
					</g>
				</g>
				<g>
					<g>
						<path class="st2" d="M364.9,390.9c0,0.1-0.5-0.7-1.9-1.2c-0.7-0.3-1.6-0.4-2.6-0.5c-1,0-2.2,0.1-3.5,0.2
							c-1.3,0.1-2.8,0.2-4.4-0.4c-1.5-0.5-2.8-1.9-3.6-3.5c-0.8-1.6-1.2-3.5-1.6-5.3c-0.4-1.9-0.8-3.8-1.9-5.5
							c-1.1-1.7-2.6-2.9-4.1-4.1c-1.5-1.2-2.9-2.4-3.9-3.9c-2-3-2.3-6.4-1.9-9c0.4-2.7,1.5-4.6,2.4-5.8c0.5-0.6,0.8-1,1.2-1.3
							c0.3-0.3,0.4-0.4,0.5-0.4c0,0-0.1,0.2-0.4,0.5c-0.3,0.3-0.6,0.7-1.1,1.3c-0.8,1.2-1.8,3.1-2.2,5.7c-0.3,2.6,0,5.9,2,8.7
							c1,1.4,2.4,2.6,3.8,3.8c1.4,1.2,3,2.5,4.2,4.2c1.1,1.8,1.5,3.8,1.9,5.6c0.4,1.9,0.7,3.7,1.5,5.2c0.7,1.5,1.9,2.8,3.3,3.3
							c1.4,0.5,2.9,0.5,4.2,0.4c1.3-0.1,2.5-0.2,3.6-0.1c1.1,0.1,2,0.3,2.7,0.6c0.7,0.3,1.2,0.7,1.4,0.9c0.1,0.1,0.2,0.3,0.3,0.3
							C364.9,390.9,364.9,390.9,364.9,390.9z"/>
					</g>
				</g>
			</g>
			<g>
				<g>
					<g>
						<path class="st2" d="M273.2,395c0.2-4-1.7-8.1-5-10.4c-3.2-2.4-7.7-3-11.5-1.5c2.8,6.4,9.1,11,16,11.8"/>
					</g>
					<g>
						<path class="st2" d="M270.1,396.7c-2.3,2.6-2.2,6.7-0.5,9.8c1.7,3.1,4.6,5.2,7.5,7.2c1-3.3,0.8-6.9-0.4-10.1
							c-1.2-3.2-3.5-6-6.4-7.8"/>
					</g>
					<g>
						<path class="st2" d="M281.4,384.6c0.4,3.8,2.3,7.3,5.3,9.6c3,2.3,6.9,3.4,10.6,2.8c-0.9-3.8-2.4-7.6-5.3-10.1
							c-2.9-2.6-7.5-3.5-10.7-1.4"/>
					</g>
					<g>
						<path class="st2" d="M281.4,380.7c-0.6-3.4-4-5.9-7.5-6.3c-3.5-0.3-6.9,1.2-9.7,3.3c2.1,2.4,5.1,3.9,8.2,4.2
							c3.2,0.3,6.4-0.6,8.9-2.6"/>
					</g>
					<g>
						<path class="st2" d="M263.5,409.9c-3.3,2.8-4.1,7.8-2.8,11.9c1.4,4.1,4.6,7.4,8.2,9.8c1.4-4.1,2.3-8.5,1.5-12.7
							c-0.7-4.2-3.3-8.3-7.2-10.1"/>
					</g>
					<g>
						<path class="st2" d="M280.8,371.1c1.7-2.6,4.7-4.2,7.8-4.4c3.1-0.2,6.2,1.1,8.3,3.5c-1.3,3-4.5,5.1-7.8,5.2
							c-3.3,0.1-6.5-1.9-8-4.8"/>
					</g>
					<g>
						<path class="st2" d="M284.9,361.2c-3.6,1.1-7.6,0.6-10.7-1.4c-3.2-1.9-5.4-5.3-6.1-8.9c2.6-0.2,5.3-0.4,7.9,0.1
							c2.6,0.5,5.2,1.6,7,3.5C284.9,356.3,285.4,358.6,284.9,361.2"/>
					</g>
					<g>
						<path class="st2" d="M292.5,358.6c-2.4-2-3.9-5.1-4-8.3c0-3.2,1.5-6.3,3.9-8.3c2.4,2.9,4,6.4,4.7,10c0.3,1.4,0.4,2.8,0,4.2
							c-0.4,1.3-1.5,2.5-2.9,2.7"/>
					</g>
				</g>
				<g>
					<g>
						<g class="st3">
							<g>
								<path d="M273.2,395c0.2-4-1.7-8.1-5-10.4c-3.2-2.4-7.7-3-11.5-1.5c2.8,6.4,9.1,11,16,11.8"/>
							</g>
						</g>
						<g class="st3">
							<g>
								<path d="M270.1,396.7c-2.3,2.6-2.2,6.7-0.5,9.8c1.7,3.1,4.6,5.2,7.5,7.2c1-3.3,0.8-6.9-0.4-10.1c-1.2-3.2-3.5-6-6.4-7.8"/>
							</g>
						</g>
						<g class="st3">
							<g>
								<path d="M281.4,384.6c0.4,3.8,2.3,7.3,5.3,9.6c3,2.3,6.9,3.4,10.6,2.8c-0.9-3.8-2.4-7.6-5.3-10.1c-2.9-2.6-7.5-3.5-10.7-1.4
									"/>
							</g>
						</g>
						<g class="st3">
							<g>
								<path d="M281.4,380.7c-0.6-3.4-4-5.9-7.5-6.3c-3.5-0.3-6.9,1.2-9.7,3.3c2.1,2.4,5.1,3.9,8.2,4.2c3.2,0.3,6.4-0.6,8.9-2.6"/>
							</g>
						</g>
						<g class="st3">
							<g>
								<path d="M263.5,409.9c-3.3,2.8-4.1,7.8-2.8,11.9c1.4,4.1,4.6,7.4,8.2,9.8c1.4-4.1,2.3-8.5,1.5-12.7
									c-0.7-4.2-3.3-8.3-7.2-10.1"/>
							</g>
						</g>
						<g class="st3">
							<g>
								<path d="M280.8,371.1c1.7-2.6,4.7-4.2,7.8-4.4c3.1-0.2,6.2,1.1,8.3,3.5c-1.3,3-4.5,5.1-7.8,5.2c-3.3,0.1-6.5-1.9-8-4.8"/>
							</g>
						</g>
						<g class="st3">
							<g>
								<path d="M284.9,361.2c-3.6,1.1-7.6,0.6-10.7-1.4c-3.2-1.9-5.4-5.3-6.1-8.9c2.6-0.2,5.3-0.4,7.9,0.1c2.6,0.5,5.2,1.6,7,3.5
									C284.9,356.3,285.4,358.6,284.9,361.2"/>
							</g>
						</g>
						<g class="st3">
							<g>
								<path d="M292.5,358.6c-2.4-2-3.9-5.1-4-8.3c0-3.2,1.5-6.3,3.9-8.3c2.4,2.9,4,6.4,4.7,10c0.3,1.4,0.4,2.8,0,4.2
									c-0.4,1.3-1.5,2.5-2.9,2.7"/>
							</g>
						</g>
					</g>
					<g>
						<g>
							<g>
								<path class="st2" d="M305.7,382.7c0,0,0-0.1,0-0.3c0-0.2,0-0.5,0-0.8c0-0.7,0.1-1.7,0.1-3c0-2.6,0-6.5-1.8-10.9
									c-0.9-2.1-2.3-4.4-4.4-6.2c-2-1.8-4.9-3-8-2.9c-1.5,0-3.1,0.4-4.5,1.1c-1.4,0.7-2.6,1.9-3.5,3.3c-1.7,2.9-2.2,6.5-2,10
									c0.1,3.6,0.6,7.1,0.2,10.6c-0.2,1.7-0.6,3.4-1.3,4.9c-0.7,1.5-1.7,2.9-3,3.9c-1.3,1-2.7,1.6-4.1,2.1c-1.4,0.5-2.7,1-3.9,1.8
									c-2.3,1.4-4,3.5-5.1,5.5c-1.1,2.1-1.5,4.2-1.5,6.1c0,1.9,0.3,3.5,0.8,4.7c0.9,2.5,1.9,3.6,1.8,3.7c0,0-0.1-0.1-0.2-0.2
									c-0.1-0.1-0.3-0.3-0.5-0.6c-0.4-0.6-0.9-1.5-1.4-2.7c-0.5-1.2-0.9-2.9-0.9-4.8c0-1.9,0.4-4.1,1.4-6.2
									c1.1-2.1,2.8-4.2,5.2-5.8c2.4-1.6,5.5-2,7.9-3.9c2.4-1.9,3.7-5.1,4.1-8.4c0.4-3.4-0.1-6.9-0.3-10.5
									c-0.2-3.6,0.3-7.3,2.1-10.3c0.9-1.5,2.2-2.7,3.7-3.5c1.5-0.8,3.1-1.1,4.7-1.2c3.2-0.1,6.2,1.2,8.3,3.1
									c2.1,1.9,3.5,4.2,4.4,6.4c0.9,2.2,1.3,4.4,1.5,6.2c0.2,1.9,0.2,3.5,0.1,4.8c-0.1,1.3-0.2,2.3-0.2,3c0,0.3-0.1,0.6-0.1,0.8
									C305.7,382.6,305.7,382.7,305.7,382.7z"/>
							</g>
						</g>
						<g class="st3">
							<g>
								<path d="M305.7,382.7c0,0,0-0.1,0-0.3c0-0.2,0-0.5,0-0.8c0-0.7,0.1-1.7,0.1-3c0-2.6,0-6.5-1.8-10.9
									c-0.9-2.1-2.3-4.4-4.4-6.2c-2-1.8-4.9-3-8-2.9c-1.5,0-3.1,0.4-4.5,1.1c-1.4,0.7-2.6,1.9-3.5,3.3c-1.7,2.9-2.2,6.5-2,10
									c0.1,3.6,0.6,7.1,0.2,10.6c-0.2,1.7-0.6,3.4-1.3,4.9c-0.7,1.5-1.7,2.9-3,3.9c-1.3,1-2.7,1.6-4.1,2.1c-1.4,0.5-2.7,1-3.9,1.8
									c-2.3,1.4-4,3.5-5.1,5.5c-1.1,2.1-1.5,4.2-1.5,6.1c0,1.9,0.3,3.5,0.8,4.7c0.9,2.5,1.9,3.6,1.8,3.7c0,0-0.1-0.1-0.2-0.2
									c-0.1-0.1-0.3-0.3-0.5-0.6c-0.4-0.6-0.9-1.5-1.4-2.7c-0.5-1.2-0.9-2.9-0.9-4.8c0-1.9,0.4-4.1,1.4-6.2
									c1.1-2.1,2.8-4.2,5.2-5.8c2.4-1.6,5.5-2,7.9-3.9c2.4-1.9,3.7-5.1,4.1-8.4c0.4-3.4-0.1-6.9-0.3-10.5
									c-0.2-3.6,0.3-7.3,2.1-10.3c0.9-1.5,2.2-2.7,3.7-3.5c1.5-0.8,3.1-1.1,4.7-1.2c3.2-0.1,6.2,1.2,8.3,3.1
									c2.1,1.9,3.5,4.2,4.4,6.4c0.9,2.2,1.3,4.4,1.5,6.2c0.2,1.9,0.2,3.5,0.1,4.8c-0.1,1.3-0.2,2.3-0.2,3c0,0.3-0.1,0.6-0.1,0.8
									C305.7,382.6,305.7,382.7,305.7,382.7z"/>
							</g>
						</g>
					</g>
				</g>
			</g>
			<g>
				<g>
					<path class="st2" d="M375.6,374.2c-0.1,0,0.7-1.2,0.7-3.5c0-1.2-0.2-2.6-0.9-4.1c-0.7-1.5-2.1-2.9-3.9-3.8
						c-0.9-0.4-2-0.8-3.1-0.8c-1.1-0.1-2.3,0.1-3.5,0.4c-2.4,0.6-4.7,2-7.5,2.5c-1.4,0.3-2.9,0.3-4.3-0.1c-1.5-0.4-2.7-1.5-3.5-2.8
						c-1.7-2.6-2.1-5.9-4.2-8.3c-1-1.2-2.4-2-3.8-2.5c-1.4-0.5-3-0.6-4.4-0.4c-3,0.2-5.6,1.8-7.4,3.8c-1.8,2-3,4.4-3.7,6.8
						c-0.7,2.3-0.9,4.6-0.8,6.7c0.2,4.2,0.9,7.5,1.2,9.8c0.2,1.1,0.3,2,0.5,2.7c0,0.3,0.1,0.5,0.1,0.7c0,0.2,0,0.2,0,0.2
						c0,0,0-0.1-0.1-0.2c0-0.2-0.1-0.4-0.2-0.7c-0.1-0.6-0.3-1.5-0.6-2.6c-0.4-2.3-1.2-5.6-1.4-9.8c-0.1-2.1,0.1-4.4,0.8-6.8
						c0.7-2.4,1.8-4.9,3.7-7c0.9-1,2.1-2,3.4-2.7c1.3-0.7,2.8-1.2,4.3-1.3c1.5-0.2,3.1,0,4.6,0.5c1.5,0.5,3,1.4,4,2.6
						c2.1,2.6,2.6,5.9,4.2,8.3c0.8,1.2,1.9,2.2,3.2,2.6c1.3,0.4,2.8,0.4,4.1,0.1c2.7-0.5,5-1.8,7.4-2.5c1.2-0.3,2.4-0.5,3.6-0.4
						c1.2,0.1,2.3,0.4,3.2,0.9c1.9,0.9,3.3,2.5,4,4c0.7,1.5,0.9,3,0.9,4.2c0,1.2-0.3,2.1-0.5,2.7
						C375.8,373.9,375.6,374.2,375.6,374.2z"/>
				</g>
			</g>
			<g>
				<path class="st2" d="M347.5,356.7c2.6,1.6,6.2,1.8,8.6,0.6s4-3.8,4.4-6.9c-2.6-1.3-5.5-1.4-8-0.4c-2.4,1-4.3,3.2-5.3,5.9"/>
			</g>
			<g>
				<path class="st2" d="M356.6,365c0,3,1.7,6.2,4,7.6c2.2,1.4,5.3,1.5,8.2,0.1c-0.3-2.9-1.7-5.5-3.8-7c-2.1-1.5-5-2.1-7.8-1.4"/>
			</g>
			<g>
				<path class="st2" d="M372.4,363.2c2.7,1.3,6.4,1.1,8.6-0.4c2.2-1.4,3.6-4.2,3.6-7.3c-2.8-1-5.7-0.8-8,0.4
					c-2.3,1.3-4,3.6-4.6,6.5"/>
			</g>
			<g>
				<path class="st2" d="M334.2,351.3c-2.3-2-3.8-5.5-3.4-8.1c0.4-2.6,2.4-5,5.3-6.2c2,2.2,3,4.9,2.7,7.5c-0.2,2.6-1.7,5.1-4.1,6.8"
					/>
			</g>
			<g>
				<g>
					<g>
						<path class="st2" d="M272.6,339.9c0,0,0-0.1,0.1-0.2c0.1-0.2,0.2-0.4,0.3-0.6c0.3-0.5,0.7-1.3,1.4-2.2
							c1.3-1.8,3.4-4.4,6.9-6.5c1.7-1,3.8-1.9,6.2-2.3c2.4-0.3,5-0.2,7.5,0.8c2.5,0.9,4.9,2.7,6.4,5.2c1.5,2.6,1.9,5.6,2.8,8.5
							c0.4,1.4,1,2.8,1.8,4c0.8,1.2,1.9,2.2,3,3c1.1,0.8,2.3,1.6,3.4,2.5c1.1,0.9,2,1.9,2.8,3c1.5,2.2,2.4,4.7,2.9,7
							c0.5,2.3,0.5,4.6,0.4,6.6c-0.3,4-1.1,7.2-1.7,9.3c-0.3,1.1-0.5,1.9-0.7,2.5c-0.2,0.6-0.3,0.9-0.3,0.9c0,0,0-0.3,0.2-0.9
							c0.1-0.6,0.3-1.5,0.6-2.5c0.5-2.2,1.3-5.3,1.5-9.3c0.1-2,0-4.2-0.4-6.4c-0.5-2.3-1.3-4.7-2.8-6.8c-0.7-1.1-1.7-2.1-2.7-2.9
							c-1.1-0.9-2.3-1.6-3.4-2.5c-1.2-0.9-2.3-1.8-3.2-3.1c-0.8-1.3-1.4-2.7-1.9-4.2c-0.9-2.9-1.3-5.9-2.8-8.4
							c-1.4-2.5-3.7-4.1-6.1-5.1c-2.4-0.9-5-1.1-7.3-0.8c-2.3,0.3-4.3,1.2-6,2.2c-3.4,2-5.6,4.5-6.9,6.3c-0.7,0.9-1.1,1.6-1.5,2.1
							C272.8,339.7,272.6,340,272.6,339.9z"/>
					</g>
				</g>
				<g>
					<path class="st2" d="M310.3,350.5c-0.8-0.7-1.2-0.2-2.2,0c-1.1,0.2-2,0.8-2.9,1.4c-3.7,2.9-5.3,8.2-3.9,12.7
						c3.4,0.2,6.8-1.6,8.6-4.5c1.8-2.9,1.8-6.8,0.1-9.7"/>
				</g>
				<g>
					<path class="st2" d="M277.7,335.7c-0.4-1-1-0.7-2-1c-1-0.3-2.2-0.2-3.2,0.1c-4.6,1.1-8.4,5.1-9,9.8c3,1.6,6.9,1.5,9.7-0.4
						c2.9-1.9,4.6-5.3,4.3-8.7"/>
				</g>
				<g>
					<path class="st2" d="M317.5,370.6c-2.2-2.5-5.5-3.9-8.8-3.8c-3.3,0.2-6.5,1.9-8.4,4.6c2.4,2.2,5.7,3.5,8.9,3.5
						c3.3,0,6.5-1.5,9-3.6"/>
				</g>
				<g>
					<path class="st2" d="M314.8,355.6c3.3,0.1,6.6-1.4,8.8-3.9c2.1-2.5,3.1-6.1,2.4-9.3c-3.5-0.8-7.3,0.4-9.7,3.1
						c-2.4,2.7-3.1,6.7-1.9,10"/>
				</g>
				<g>
					<path class="st2" d="M303.3,338c3.1,1.2,6.7,0.9,9.6-0.8c2.9-1.7,4.9-4.7,5.4-8c-3-1.9-7.1-2-10.2-0.3
						c-3.1,1.7-5.1,5.2-5.1,8.8"/>
				</g>
				<g>
					<path class="st2" d="M299.5,332.2c-3.1-1.2-6.7-0.9-9.6,0.8c-2.9,1.7-4.9,4.7-5.4,8c3,1.9,7.1,2,10.2,0.3
						c3.1-1.7,5.1-5.2,5.1-8.8"/>
				</g>
				<g>
					<path class="st2" d="M294.9,329.1c3.1-1.1,5.7-3.6,6.9-6.7c1.1-3.1,0.8-6.7-1-9.6c-3.5,0.5-6.7,3-8,6.3
						c-1.3,3.3-0.6,7.3,1.7,10"/>
				</g>
				<g>
					<path class="st2" d="M283.1,329.7c1.1-3.1,0.8-6.7-1-9.6c-1.7-2.8-4.8-4.8-8.1-5.2c-1.8,3-1.9,7.1-0.1,10.2
						c1.8,3.1,5.4,5,8.9,4.9"/>
				</g>
			</g>
		</g>
	</g>
	<g>
		<polygon class="st1" points="299.2,416.3 302.8,420.8 348,420.8 351.1,416.3 		"/>
	</g>
	<g>
		<g>
			<path class="st4" d="M350.1,416.2c0,0.1-11.1,0.3-24.8,0.3c-13.7,0-24.8-0.1-24.8-0.3c0-0.1,11.1-0.3,24.8-0.3
				C339,415.9,350.1,416.1,350.1,416.2z"/>
		</g>
	</g>
	<g>
		<g>
			<path class="st4" d="M345,399c0,0-0.1,0.1-0.3,0.4c-0.2,0.2-0.5,0.6-0.9,1c-0.8,0.8-2.2,1.9-4,2.8c-1.9,0.9-4.3,1.7-7.1,1.8
				c-1.4,0.1-2.8,0-4.3-0.4c-1.5-0.3-2.9-0.8-4.4-1.5c-2.9-1.2-5.6-2.7-8.1-3.5c-2.6-0.8-5-1.1-7-0.7c-2,0.4-3.5,1.3-4.3,2
				c-0.9,0.8-1.2,1.3-1.2,1.3c0,0,0.1-0.1,0.2-0.4c0.2-0.3,0.4-0.6,0.9-1c0.8-0.8,2.3-1.8,4.4-2.2c2.1-0.5,4.6-0.3,7.3,0.6
				c2.6,0.8,5.3,2.2,8.2,3.5c1.4,0.6,2.9,1.1,4.3,1.4c1.4,0.3,2.8,0.4,4.2,0.4c2.7-0.1,5.1-0.8,6.9-1.7
				C343.4,401.1,345,398.9,345,399z"/>
		</g>
	</g>
	<g>
		<g>
			<path class="st4" d="M345.5,395.5c0,0-0.1,0.1-0.3,0.4c-0.2,0.2-0.5,0.5-1,0.9c-0.9,0.7-2.3,1.7-4.2,2.6
				c-1.9,0.8-4.3,1.6-7.1,1.7c-1.4,0.1-2.8,0-4.3-0.3c-1.5-0.3-3-0.7-4.5-1.3c-3-1.1-5.7-2.3-8.3-3.1c-2.6-0.8-5.1-1-7.1-0.6
				c-2,0.3-3.5,1.1-4.5,1.7c-0.9,0.7-1.3,1.2-1.4,1.1c0,0,0.1-0.1,0.3-0.4c0.2-0.2,0.5-0.6,1-0.9c0.9-0.7,2.5-1.6,4.5-1.9
				c2.1-0.4,4.6-0.2,7.3,0.5c2.7,0.7,5.4,2,8.4,3c1.5,0.5,2.9,1,4.4,1.3c1.4,0.3,2.9,0.4,4.2,0.3c2.7-0.1,5.1-0.8,7-1.6
				C343.7,397.4,345.4,395.4,345.5,395.5z"/>
		</g>
	</g>
</g>
<g>
	<g>
		<g>
			<g>
				<g>
					<path class="st0" d="M313.9,295.1l-159.6-28.5c-4.1-0.7-6.8-4.6-6.1-8.7l17.6-98.6c0.7-4.1,4.6-6.8,8.7-6.1l159.6,28.5
						c4.1,0.7,6.8,4.6,6.1,8.7L322.7,289C322,293.1,318,295.8,313.9,295.1z"/>
				</g>
				<g>
					<path class="st5" d="M311.2,204.8c-1.2,6.7-7.5,11.1-14.2,9.9c-6.7-1.2-11.1-7.5-9.9-14.2c1.2-6.7,7.5-11.1,14.2-9.9
						C307.9,191.8,312.4,198.1,311.2,204.8z"/>
				</g>
				<g>
					<path class="st5" d="M313.7,218c-0.8,0-1.5-0.1-2.3-0.2c-6.9-1.2-11.5-7.9-10.3-14.8c1.2-6.9,7.9-11.5,14.8-10.3
						c6.9,1.2,11.5,7.9,10.3,14.8c-0.6,3.3-2.5,6.3-5.3,8.2C318.8,217.2,316.3,218,313.7,218z M313.6,193.5c-5.6,0-10.5,4-11.5,9.7
						c-1.1,6.4,3.1,12.5,9.5,13.6c3.1,0.5,6.2-0.1,8.8-1.9c2.6-1.8,4.3-4.5,4.8-7.6l0,0c1.1-6.4-3.1-12.5-9.5-13.6
						C315,193.6,314.3,193.5,313.6,193.5z"/>
				</g>
				<g>
					<path class="st5" d="M169.6,227.2l-1.7,9.7l-1-0.2l1.6-8.8l-2.3-0.4l0.2-0.9L169.6,227.2z"/>
					<path class="st5" d="M178,237.8l-0.2,0.9l-6.8-1.2l0.1-0.7l4.7-3.2c1.3-0.9,1.6-1.5,1.7-2.2c0.2-1.1-0.5-2-1.9-2.2
						c-1.1-0.2-2.1,0-2.8,0.6l-0.6-0.7c0.9-0.8,2.2-1,3.7-0.8c2,0.4,3,1.6,2.7,3.2c-0.2,0.9-0.6,1.7-2.1,2.7l-3.9,2.6L178,237.8z"/>
					<path class="st5" d="M188.5,237.9l-1.9-0.3l-0.5,2.5l-1-0.2l0.5-2.5l-5.5-1l0.1-0.7l6.3-5.5l1.1,0.2l-6.1,5.4l4.2,0.8l0.4-2.2
						l1,0.2l-0.4,2.2l1.9,0.3L188.5,237.9z"/>
					<path class="st5" d="M203.4,240.6l-1.9-0.3l-0.5,2.5l-1-0.2l0.5-2.5l-5.5-1l0.1-0.7l6.3-5.5l1.1,0.2l-6.1,5.4l4.2,0.8l0.4-2.2
						l1,0.2l-0.4,2.2l1.9,0.3L203.4,240.6z"/>
					<path class="st5" d="M211.9,241.8c-0.3,1.6-1.7,2.7-4,2.3c-1.4-0.2-2.6-1-3.3-1.9l0.6-0.7c0.5,0.8,1.5,1.4,2.8,1.7
						c1.6,0.3,2.7-0.4,2.9-1.5c0.2-1.2-0.4-2.2-2.9-2.6l-2.1-0.4l1.4-4.8l5.3,0.9l-0.2,0.9L208,235l-0.9,3l1.2,0.2
						C211.3,238.7,212.2,240.1,211.9,241.8z"/>
					<path class="st5" d="M221.5,243.5c-0.3,1.8-2,2.7-3.8,2.4c-2.6-0.5-3.7-2.5-3.1-5.6c0.6-3.3,2.7-4.7,5.3-4.2
						c0.9,0.2,1.7,0.5,2.2,0.9l-0.5,0.7c-0.4-0.4-1.1-0.7-1.8-0.8c-2.1-0.4-3.7,0.7-4.1,3.4c0,0.2-0.1,0.5-0.1,0.8
						c0.7-1,1.9-1.4,3.3-1.1C220.6,240.3,221.8,241.7,221.5,243.5z M220.5,243.3c0.2-1.3-0.6-2.3-2.1-2.5c-1.5-0.3-2.7,0.5-2.9,1.7
						c-0.2,1.1,0.5,2.2,2.2,2.5C219.1,245.2,220.2,244.6,220.5,243.3z"/>
					<path class="st5" d="M234.7,245.9c-0.3,1.6-1.7,2.7-4,2.2c-1.4-0.2-2.7-1-3.3-1.9l0.6-0.7c0.5,0.8,1.5,1.4,2.8,1.7
						c1.6,0.3,2.6-0.3,2.8-1.5c0.2-1.2-0.5-2.1-2.3-2.4l-0.7-0.1l0.1-0.7l3.3-2.9l-5-0.9l0.2-0.9l6.2,1.1l-0.1,0.7l-3.4,3
						C234.1,243.1,235,244.4,234.7,245.9z"/>
					<path class="st5" d="M244.4,247.6c-0.3,1.8-2,2.7-3.8,2.4c-2.6-0.5-3.7-2.5-3.1-5.6c0.6-3.3,2.7-4.7,5.3-4.2
						c0.9,0.2,1.7,0.5,2.2,0.9l-0.5,0.7c-0.4-0.4-1.1-0.7-1.8-0.8c-2.1-0.4-3.7,0.7-4.1,3.4c0,0.2-0.1,0.5-0.1,0.8
						c0.7-1,1.9-1.4,3.3-1.1C243.6,244.4,244.7,245.8,244.4,247.6z M243.4,247.4c0.2-1.3-0.6-2.3-2.1-2.5c-1.5-0.3-2.7,0.5-2.9,1.7
						c-0.2,1.1,0.5,2.2,2.2,2.5C242.1,249.3,243.2,248.7,243.4,247.4z"/>
					<path class="st5" d="M254.5,242.3l-0.1,0.7l-5.7,8.3l-1.1-0.2l5.6-8.1l-5-0.9l-0.3,1.8l-1-0.2l0.5-2.7L254.5,242.3z"/>
					<path class="st5" d="M268.4,244.8l-0.1,0.7l-5.7,8.3l-1.1-0.2l5.6-8.1l-5-0.9l-0.3,1.8l-1-0.2l0.5-2.7L268.4,244.8z"/>
					<path class="st5" d="M276.7,253.5c-0.3,1.7-1.9,2.5-4.3,2.1c-2.3-0.4-3.5-1.7-3.2-3.4c0.2-1.2,1-1.9,2.3-2
						c-0.9-0.6-1.3-1.4-1.1-2.4c0.3-1.6,1.8-2.3,3.8-2c2,0.4,3.2,1.6,3,3.2c-0.2,1-0.9,1.6-1.9,1.9
						C276.3,251.4,276.9,252.4,276.7,253.5z M275.7,253.3c0.2-1.2-0.7-2.1-2.4-2.4c-1.7-0.3-2.9,0.3-3.1,1.5
						c-0.2,1.2,0.7,2.1,2.4,2.4C274.3,255.1,275.4,254.5,275.7,253.3z M273.4,250.1c1.5,0.3,2.5-0.2,2.7-1.3
						c0.2-1.1-0.6-1.9-2.1-2.2c-1.5-0.3-2.5,0.2-2.7,1.3C271.1,249,271.9,249.8,273.4,250.1z"/>
					<path class="st5" d="M286.5,253c-0.6,3.3-2.7,4.7-5.3,4.2c-0.9-0.2-1.7-0.5-2.2-0.9l0.5-0.7c0.4,0.4,1.1,0.7,1.8,0.8
						c2.1,0.4,3.7-0.7,4.1-3.4c0-0.2,0.1-0.5,0.1-0.8c-0.7,1-1.9,1.4-3.3,1.1c-1.9-0.3-3.1-1.7-2.7-3.5c0.3-1.8,2-2.7,3.8-2.4
						C285.9,247.9,287,249.9,286.5,253z M285.4,250.8c0.2-1.1-0.5-2.2-2.2-2.5c-1.4-0.2-2.5,0.4-2.7,1.7c-0.2,1.3,0.6,2.3,2.1,2.5
						C284.1,252.7,285.2,252,285.4,250.8z"/>
					<path class="st5" d="M297.1,249.9l-1.7,9.7l-1-0.2l1.6-8.8l-2.3-0.4l0.2-0.9L297.1,249.9z"/>
					<path class="st5" d="M305.5,260.5l-0.2,0.9l-6.8-1.2l0.1-0.7l4.7-3.2c1.3-0.9,1.6-1.5,1.7-2.2c0.2-1.1-0.5-2-1.9-2.2
						c-1.1-0.2-2.1,0-2.8,0.6l-0.6-0.7c0.9-0.8,2.2-1,3.7-0.8c2,0.4,3,1.6,2.7,3.2c-0.2,0.9-0.6,1.7-2.1,2.7l-3.9,2.7L305.5,260.5z"
						/>
					<path class="st5" d="M314.6,260.2c-0.3,1.6-1.7,2.7-4,2.2c-1.4-0.2-2.7-1-3.3-1.9l0.6-0.7c0.5,0.8,1.5,1.4,2.8,1.7
						c1.6,0.3,2.6-0.3,2.8-1.5c0.2-1.2-0.5-2.1-2.3-2.4l-0.7-0.1l0.1-0.7l3.3-2.9l-5-0.9l0.2-0.9l6.2,1.1l-0.1,0.7l-3.4,3
						C314,257.3,314.8,258.6,314.6,260.2z"/>
				</g>
				<g>
					
						<rect x="274.7" y="226.5" transform="matrix(0.1755 -0.9845 0.9845 0.1755 -33.5 491.7572)" class="st5" width="4.3" height="78.8"/>
				</g>
				<g>
					
						<rect x="292.1" y="257.4" transform="matrix(0.1755 -0.9845 0.9845 0.1755 -30.7394 518.5849)" class="st5" width="4.3" height="40.4"/>
				</g>
				<g class="st6">
					<path class="st7" d="M192.9,222.7l-22.8-4.1c-2.7-0.5-4.5-3.1-4-5.8l2.6-14.5c0.5-2.7,3.1-4.5,5.8-4l22.8,4.1
						c2.7,0.5,4.5,3.1,4,5.8l-2.6,14.5C198.2,221.4,195.6,223.2,192.9,222.7z"/>
				</g>
				<g>
					<path class="st0" d="M166.4,211.1l0.3-1.6l16.8,3c1.9,0.3,3.8-0.9,4.1-2.9c0.3-1.9-1-3.8-2.9-4.1l-16.8-3l0.3-1.6l16.8,3
						c2.8,0.5,4.7,3.2,4.2,6c-0.5,2.8-3.2,4.7-6,4.2L166.4,211.1z"/>
				</g>
				<g>
					
						<rect x="193.3" y="204.9" transform="matrix(0.1764 -0.9843 0.9843 0.1764 -47.6099 364.677)" class="st0" width="1.6" height="11.7"/>
				</g>
				<g>
					
						<rect x="175.7" y="181.6" transform="matrix(0.9845 0.1756 -0.1756 0.9845 35.9053 -35.4248)" class="st5" width="85" height="7.3"/>
				</g>
			</g>
		</g>
	</g>
</g>
<g>
	<g>
		<g>
			<g>
				<g>
					<g>
						<g>
							<g>
								<g>
									<g>
										<path class="st4" d="M200.7,435.2l-132.9-0.6c-16-0.1-28.9-13.1-28.8-29.1l1.4-333.1c0.1-16,13.1-28.9,29.1-28.8
											l132.9,0.6c16,0.1,28.9,13.1,28.8,29.1l-1.4,333.1C229.7,422.4,216.7,435.3,200.7,435.2z"/>
									</g>
								</g>
							</g>
							<g>
								<g>
									<g>
										<path class="st8" d="M202.2,55.8l-25.8-0.1c-3.5,0-6.3,2.9-6.3,6.5l0,4.7c0,3.6-2.8,6.5-6.3,6.5l-50.2-0.2
											c-3.5,0-6.2-3-6.2-6.6l0-4.7c0-3.6-2.8-6.6-6.2-6.6l-9.1,0l-22.5-0.1c-11.2-0.1-20.3,9-20.4,20.2l-1.4,325.1
											c0,11.2,9,20.3,20.2,20.4l132.6,0.6c11.2,0.1,20.3-9,20.4-20.2l1.4-325.1C222.4,64.9,213.4,55.8,202.2,55.8z"/>
									</g>
								</g>
							</g>
						</g>
					</g>
				</g>
			</g>
		</g>
	</g>
	<g>
		<g>
			<g>
				<path class="st1" d="M205.1,87.8c0,0.1-1.3,0.1-3.3,0.2c-2.1,0-4.9,0.1-8.2,0.1l-0.2,0l0-0.2c-0.1-0.4-0.1-0.9-0.2-1.4
					c-0.6-4-1-7.5-1.3-9.8l0.2,0.1c-1.9,0-3-0.1-3-0.2c0-0.1,1.1-0.1,3-0.2l0.1,0l0,0.1c0.4,2.3,0.9,5.8,1.5,9.8
					c0.1,0.5,0.1,0.9,0.2,1.4l-0.3-0.2c3.2,0,6.1,0,8.2,0.1C203.8,87.6,205.1,87.7,205.1,87.8z"/>
			</g>
		</g>
		<g>
			<g>
				<path class="st1" d="M193.2,85.4c0,0,0.3-0.1,0.9-0.1c0.7,0,1.5,0,2.5-0.1c2.1,0,5.1-0.1,8.5-0.1l-0.2,0.2
					c0.3-1.4,0.5-3,0.8-4.6c0.1-0.8,0.3-1.6,0.4-2.4l0.3,0.3c-4,0-7.5,0-10-0.1c-1.2,0-2.2-0.1-3-0.1c-0.7,0-1.1-0.1-1.1-0.1
					c0,0,0.4-0.1,1.1-0.1c0.8,0,1.8,0,3-0.1c2.5,0,6-0.1,10-0.1l0.3,0l-0.1,0.3c-0.1,0.8-0.3,1.6-0.4,2.4c-0.3,1.6-0.6,3.1-0.8,4.6
					l0,0.2l-0.2,0c-3.4,0-6.4,0-8.5-0.1c-1,0-1.8-0.1-2.5-0.1C193.5,85.4,193.2,85.4,193.2,85.4z"/>
			</g>
		</g>
		<g>
			<g>
				<path class="st1" d="M196.4,90.9c-0.1,0-0.1-0.4-0.6-0.8c-0.2-0.2-0.6-0.2-0.9-0.1c-0.3,0.1-0.6,0.5-0.6,0.9
					c0,0.4,0.3,0.7,0.6,0.9c0.3,0.1,0.7,0.1,0.9-0.1C196.4,91.3,196.4,90.9,196.4,90.9c0,0,0.1,0.1,0.1,0.3c0,0.2-0.1,0.5-0.4,0.8
					c-0.3,0.3-0.8,0.4-1.3,0.2c-0.5-0.2-0.9-0.7-0.9-1.3c0-0.6,0.4-1.2,0.9-1.3c0.5-0.2,1,0,1.3,0.2c0.3,0.3,0.4,0.6,0.4,0.8
					C196.5,90.8,196.5,90.9,196.4,90.9z"/>
			</g>
		</g>
		<g>
			<g>
				<path class="st1" d="M203.9,90.9c-0.1,0-0.1-0.4-0.6-0.8c-0.2-0.2-0.6-0.2-0.9-0.1c-0.3,0.1-0.6,0.5-0.6,0.9
					c0,0.4,0.3,0.7,0.6,0.9c0.3,0.1,0.7,0.1,0.9-0.1C203.8,91.3,203.8,90.9,203.9,90.9c0,0,0.1,0.1,0.1,0.3c0,0.2-0.1,0.5-0.4,0.8
					c-0.3,0.3-0.8,0.4-1.3,0.2c-0.5-0.2-0.9-0.7-0.9-1.3c0-0.6,0.4-1.2,0.9-1.3c0.5-0.2,1,0,1.3,0.2c0.3,0.3,0.4,0.6,0.4,0.8
					C203.9,90.8,203.9,90.9,203.9,90.9z"/>
			</g>
		</g>
	</g>
	<g>
		<g>
			<g>
				<path class="st1" d="M86.9,89c0,0.1-4.4,0.3-9.9,0.3c-5.5,0-9.9-0.1-9.9-0.3s4.4-0.3,9.9-0.3C82.5,88.7,86.9,88.8,86.9,89z"/>
			</g>
		</g>
		<g>
			<g>
				<path class="st1" d="M86.9,85.2c0,0.1-4.4,0.3-9.9,0.3c-5.5,0-9.9-0.1-9.9-0.3c0-0.1,4.4-0.3,9.9-0.3
					C82.5,85,86.9,85.1,86.9,85.2z"/>
			</g>
		</g>
		<g>
			<g>
				<path class="st1" d="M86.9,81.5c0,0.1-4.4,0.3-9.9,0.3c-5.5,0-9.9-0.1-9.9-0.3c0-0.1,4.4-0.3,9.9-0.3
					C82.5,81.2,86.9,81.4,86.9,81.5z"/>
			</g>
		</g>
	</g>
	<g>
		<g>
			<defs>
				<path id="SVGID_1_" d="M120,142.3c0,0-13.3-0.2-16.2,4.2s-15,31.4-15,31.4l18.9,9.8l4.1-11.6l6.6,24.3
					c-7.6,6-18.3,60.6-16.2,83.6l70.9,0.2c0,0,0.5-63.8-18.7-84.8l4.5-25.4l4.3,12.4l20-8.3L168,151c-2.6-4.6-7.4-7.5-12.7-7.5
					l-4.9,0c0,0-2.1,18.1-15.2,17.8C122.1,160.9,120,142.3,120,142.3z"/>
			</defs>
			<clipPath id="SVGID_2_">
				<use xlink:href="#SVGID_1_"  style="overflow:visible;"/>
			</clipPath>
			<g class="st9">
				<path class="st2" d="M120,142.3c0,0-13.3-0.2-16.2,4.2s-15,31.4-15,31.4l18.9,9.8l4.1-11.6l6.6,24.3c-7.6,6-18.3,60.6-16.2,83.6
					l70.9,0.2c0,0,0.5-63.8-18.7-84.8l4.5-25.4l4.3,12.4l20-8.3L168,151c-2.6-4.6-7.4-7.5-12.7-7.5l-4.9,0c0,0-2.1,18.1-15.2,17.8
					C122.1,160.9,120,142.3,120,142.3z"/>
			</g>
			<g class="st9">
				<g>
					<path class="st8" d="M188.2,228.3c0,0,0-0.1,0-0.3c0-0.2,0-0.5-0.1-0.9c0-0.4-0.1-0.9-0.2-1.5c-0.1-0.6-0.2-1.3-0.4-2
						c-0.4-1.5-1.1-3.3-2.2-5.2c-1.1-1.9-2.8-3.9-5-5.6c-2.2-1.7-5-3.1-8.3-3.7c-3.2-0.5-6.8-0.4-10.3,0.9c-1.7,0.6-3.4,1.5-5,2.7
						c-0.8,0.5-1.5,1.2-2.2,1.9c-0.7,0.7-1.4,1.4-1.9,2.3c-2.4,3.2-3.8,7.3-3.8,11.6c0,2.1,0.4,4.2,1,6.2c0.6,2,1.6,3.8,2.8,5.4
						c0.6,0.8,1.3,1.5,1.9,2.3c0.7,0.7,1.4,1.3,2.2,1.9c1.5,1.2,3.2,2.1,5,2.7c3.5,1.3,7.1,1.4,10.3,0.9c3.2-0.6,6-2,8.3-3.7
						c2.2-1.7,3.9-3.7,5-5.6c1.1-1.9,1.9-3.7,2.2-5.2c0.2-0.8,0.3-1.4,0.4-2c0.1-0.6,0.2-1.1,0.2-1.5c0-0.4,0.1-0.7,0.1-0.9
						C188.1,228.4,188.1,228.3,188.2,228.3s0,0.1,0,0.3c0,0.2,0,0.6,0,0.9c0,0.4,0,0.9-0.1,1.5c-0.1,0.6-0.2,1.3-0.4,2.1
						c-0.3,1.5-1,3.4-2.2,5.3c-1.1,1.9-2.8,4-5,5.7c-2.3,1.7-5.1,3.2-8.4,3.8c-3.3,0.6-7,0.5-10.5-0.8c-1.8-0.6-3.5-1.5-5.1-2.7
						c-0.8-0.6-1.5-1.3-2.3-1.9c-0.7-0.7-1.4-1.5-2-2.3c-1.2-1.7-2.2-3.5-2.9-5.5c-0.7-2-1-4.2-1-6.3c0-4.4,1.4-8.6,3.9-11.9
						c0.6-0.8,1.3-1.6,2-2.3c0.7-0.7,1.5-1.4,2.3-1.9c1.6-1.2,3.3-2.1,5.1-2.7c3.5-1.3,7.3-1.4,10.5-0.8c3.3,0.6,6.2,2.1,8.4,3.8
						c2.3,1.7,3.9,3.8,5,5.7c1.1,2,1.8,3.8,2.2,5.3c0.2,0.8,0.3,1.5,0.4,2.1c0.1,0.6,0.1,1.1,0.1,1.5c0,0.4,0,0.7,0,0.9
						C188.2,228.2,188.2,228.3,188.2,228.3z"/>
				</g>
			</g>
			<g class="st9">
				<g>
					<path class="st8" d="M125.7,183.8c-0.1,0,0-1.3-0.6-3.6c-0.6-2.2-2-5.4-5.3-8c-1.6-1.2-3.7-2.3-6.1-2.7c-2.4-0.4-5-0.3-7.6,0.6
						c-1.3,0.4-2.5,1.1-3.6,2c-1.1,0.8-2.2,1.9-3,3.1c-1.8,2.4-2.8,5.4-2.8,8.5c0,3.1,1,6.2,2.8,8.5c0.9,1.2,1.9,2.2,3,3.1
						c1.1,0.8,2.4,1.5,3.6,2c2.5,1,5.2,1,7.6,0.6c2.4-0.4,4.5-1.5,6.1-2.7c3.3-2.5,4.8-5.7,5.3-7.9
						C125.7,185.1,125.6,183.8,125.7,183.8c0,0,0,0.1,0,0.2c0,0.2,0,0.4,0,0.7c0,0.3,0,0.7-0.1,1.1c-0.1,0.4-0.1,1-0.3,1.5
						c-0.2,1.1-0.8,2.5-1.6,4c-0.8,1.4-2.1,3-3.7,4.2c-1.7,1.3-3.8,2.4-6.2,2.8c-2.4,0.4-5.2,0.4-7.8-0.6c-1.3-0.5-2.6-1.1-3.8-2
						c-1.2-0.9-2.3-1.9-3.2-3.2c-1.8-2.4-2.9-5.6-2.9-8.8c0-3.2,1.1-6.4,2.9-8.8c0.9-1.2,2-2.3,3.2-3.2c1.2-0.9,2.5-1.6,3.8-2
						c2.6-1,5.4-1.1,7.8-0.6c2.5,0.4,4.6,1.5,6.2,2.8c1.7,1.3,2.9,2.8,3.7,4.2c0.8,1.4,1.3,2.8,1.6,4c0.2,0.6,0.2,1.1,0.3,1.5
						c0.1,0.4,0.1,0.8,0.1,1.1c0,0.3,0,0.5,0,0.7C125.7,183.7,125.7,183.8,125.7,183.8z"/>
				</g>
			</g>
			<g class="st9">
				<g>
					<path class="st8" d="M125.7,270.1c0,0,0-0.4-0.2-1.1c-0.2-0.7-0.7-1.6-1.6-2.4c-1-0.7-2.5-1.1-4.1-0.6c-1.5,0.5-2.8,2.1-2.8,4
						c0,1.9,1.3,3.5,2.8,4c1.5,0.6,3.1,0.2,4.1-0.6c1-0.7,1.5-1.7,1.6-2.4C125.6,270.5,125.6,270.1,125.7,270.1c0,0,0,0.1,0,0.3
						c0,0.2,0,0.5-0.1,0.8c-0.1,0.7-0.6,1.8-1.6,2.6c-1,0.8-2.7,1.3-4.4,0.7c-1.7-0.6-3.2-2.3-3.1-4.4c0-2.1,1.5-3.9,3.1-4.4
						c1.7-0.6,3.4-0.1,4.4,0.7c1.1,0.8,1.5,1.9,1.6,2.6c0.1,0.4,0.1,0.6,0.1,0.8C125.7,270,125.7,270.1,125.7,270.1z"/>
				</g>
			</g>
			<g class="st9">
				<g>
					<path class="st8" d="M117.9,155c0,0,0-0.4-0.2-1.1c-0.2-0.7-0.7-1.6-1.6-2.4c-1-0.7-2.5-1.1-4.1-0.6c-1.5,0.5-2.8,2.1-2.8,4
						c0,1.9,1.3,3.5,2.8,4c1.5,0.6,3.1,0.2,4.1-0.6c1-0.7,1.5-1.7,1.6-2.4C117.9,155.4,117.9,155,117.9,155c0,0,0,0.1,0,0.3
						c0,0.2,0,0.5-0.1,0.8c-0.1,0.7-0.6,1.8-1.6,2.6c-1,0.8-2.7,1.3-4.4,0.7c-1.7-0.6-3.2-2.3-3.1-4.4c0-2.1,1.5-3.9,3.1-4.4
						c1.7-0.6,3.4-0.1,4.4,0.7c1.1,0.8,1.5,1.9,1.6,2.6c0.1,0.4,0.1,0.6,0.1,0.8C117.9,154.9,117.9,155,117.9,155z"/>
				</g>
			</g>
			<g class="st9">
				<g>
					<path class="st8" d="M132.5,248.6c0,0,0-0.2-0.1-0.4c-0.1-0.3-0.1-0.7-0.2-1.2c-0.2-1.1-0.4-2.6-0.8-4.5
						c-0.6-3.9-1.5-9.4-2.6-15.9l0.3,0.2c-6.4,1-14,2.2-22.1,3.5c0,0.1,0.4-0.6,0.2-0.3l0,0l0,0l0,0l0,0l0,0.1l0,0.2l0.1,0.4
						l0.1,0.8c0.1,0.5,0.2,1,0.2,1.5c0.2,1,0.3,2,0.5,3c0.3,1.9,0.6,3.9,0.9,5.7c0.6,3.7,1.1,7.2,1.6,10.4l-0.3-0.2
						c6.6-1,12-1.8,15.9-2.4c1.9-0.3,3.4-0.5,4.5-0.7c0.5-0.1,0.9-0.1,1.2-0.2C132.4,248.6,132.5,248.6,132.5,248.6
						c0,0-0.1,0-0.4,0.1c-0.3,0.1-0.7,0.1-1.2,0.2c-1.1,0.2-2.6,0.4-4.4,0.8c-3.9,0.6-9.4,1.6-16.1,2.6l-0.2,0l0-0.2
						c-0.5-3.2-1.1-6.7-1.7-10.4c-0.3-1.9-0.6-3.8-0.9-5.7c-0.2-1-0.3-2-0.5-3c-0.1-0.5-0.2-1-0.2-1.5l-0.1-0.8l-0.1-0.4l0-0.2
						l0-0.1l0,0l0,0l0,0l0,0c-0.2,0.3,0.3-0.4,0.2-0.3c8.1-1.3,15.6-2.4,22.1-3.4l0.2,0l0,0.2c1,6.6,1.8,12.2,2.4,16.1
						c0.3,1.9,0.5,3.4,0.6,4.5c0.1,0.5,0.1,0.9,0.2,1.2C132.5,248.5,132.6,248.6,132.5,248.6z"/>
				</g>
			</g>
			<g class="st9">
				<g>
					<path class="st8" d="M159.5,190.9c0,0,0.1-0.2,0.3-0.4c0.2-0.3,0.4-0.7,0.8-1.2c0.7-1.1,1.7-2.6,2.9-4.5c2.5-3.9,6-9.4,10.3-16
						l0.1,0.3c-6.4-4.2-14-9.1-22.1-14.3c-0.1,0,0.7-0.1,0.4-0.1l0,0l0,0l0,0l0,0l-0.1,0.1l-0.1,0.2l-0.2,0.4l-0.5,0.8
						c-0.3,0.5-0.7,1-1,1.5c-0.6,1-1.3,2-1.9,2.9c-1.3,1.9-2.5,3.8-3.7,5.7c-2.4,3.7-4.7,7.2-6.8,10.4l-0.1-0.3
						c6.5,4.3,12,7.9,15.9,10.5c1.9,1.3,3.4,2.3,4.5,3c0.5,0.3,0.9,0.6,1.2,0.8C159.4,190.7,159.5,190.8,159.5,190.9
						c0,0-0.1-0.1-0.4-0.2c-0.3-0.2-0.7-0.4-1.2-0.7c-1.1-0.7-2.6-1.6-4.5-2.9c-3.9-2.5-9.5-6.1-16.1-10.4l-0.2-0.1l0.1-0.2
						c2.1-3.2,4.3-6.7,6.8-10.4c1.2-1.9,2.4-3.8,3.7-5.7c0.6-1,1.3-2,1.9-2.9c0.3-0.5,0.6-1,1-1.5l0.5-0.8l0.2-0.4l0.1-0.2l0.1-0.1
						l0,0l0,0l0,0l0,0c-0.3,0.1,0.4-0.1,0.4-0.1c8.1,5.3,15.6,10.2,22,14.4l0.2,0.1l-0.1,0.2c-4.3,6.6-8,12.1-10.5,16
						c-1.3,1.9-2.2,3.4-3,4.4c-0.3,0.5-0.6,0.9-0.8,1.1C159.6,190.7,159.5,190.9,159.5,190.9z"/>
				</g>
			</g>
			<g class="st9">
				<g>
					<path class="st8" d="M144.6,258.2c0,0,0,0.1-0.1,0.2c-0.1,0.1-0.2,0.3-0.3,0.5c-0.2,0.4-0.6,1-1,1.7c-0.9,1.5-2.1,3.7-3.6,6.5
						c-3.1,5.5-7.5,13.2-12.8,22.3l-0.2-0.4c5.5,0,11.6,0,17.9,0c6.3,0,12.4,0,17.9,0l-0.2,0.4c-5.2-9.1-9.7-16.8-12.8-22.3
						c-1.5-2.7-2.8-4.9-3.6-6.5c-0.4-0.7-0.7-1.3-1-1.7c-0.1-0.2-0.2-0.3-0.3-0.5C144.6,258.2,144.6,258.2,144.6,258.2
						c0,0,0.1,0.2,0.3,0.5c0.2,0.4,0.6,1,1,1.7c0.9,1.5,2.2,3.7,3.8,6.4c3.3,5.5,7.8,13.3,13,22.3l0.2,0.4l-0.4,0
						c-5.5,0-11.6,0-17.9,0c-6.3,0-12.4,0-17.9,0l-0.4,0l0.2-0.4c5.2-9,9.7-16.8,13-22.3c1.6-2.7,2.9-4.9,3.8-6.4
						c0.4-0.7,0.8-1.3,1-1.7C144.5,258.3,144.6,258.1,144.6,258.2z"/>
				</g>
			</g>
			<g class="st9">
				<g>
					<path class="st8" d="M130.4,201c0,0,0.1,0.1,0.1,0.4c0.1,0.3,0.2,0.7,0.3,1.1c0.3,1,0.7,2.3,1.2,4c1,3.3,2.3,8.2,3.8,13.9
						l-0.4-0.1c2.2-2.2,4.6-4.6,7.1-7.1c2.5-2.5,4.9-4.9,7.1-7.1l0.1,0.4c-5.7-1.5-10.5-2.9-13.9-3.8c-1.7-0.5-3-0.9-4-1.2
						c-0.4-0.1-0.8-0.2-1.1-0.3C130.5,201,130.4,201,130.4,201c0,0,0.1,0,0.3,0.1c0.3,0.1,0.6,0.2,1.1,0.3c1,0.2,2.4,0.6,4,1
						c3.5,0.9,8.4,2.2,14.1,3.7l0.4,0.1l-0.3,0.3c-2.2,2.2-4.6,4.6-7.1,7.1c-2.5,2.5-4.9,4.9-7.1,7.1l-0.3,0.3l-0.1-0.4
						c-1.5-5.7-2.8-10.5-3.7-14.1c-0.4-1.7-0.7-3-1-4c-0.1-0.4-0.2-0.8-0.3-1.1C130.4,201.1,130.4,201,130.4,201z"/>
				</g>
			</g>
		</g>
		<g>
			<g>
				<path class="st1" d="M154.7,199.5c0,0.1-8,0.5-18,0.7c-9.9,0.2-18,0.3-18,0.2c0-0.1,8-0.5,18-0.7
					C146.6,199.4,154.7,199.3,154.7,199.5z"/>
			</g>
		</g>
		<g>
			<g>
				<path class="st1" d="M105.7,159.6c0.1,0,1.6,3.9,3.4,8.8c1.7,4.9,3,9,2.9,9c-0.1,0-1.6-3.9-3.4-8.8
					C106.9,163.7,105.6,159.7,105.7,159.6z"/>
			</g>
		</g>
		<g>
			<g>
				<path class="st1" d="M160.7,160.9c0.1,0,0,1.1-0.2,2.9c-0.2,1.8-0.5,4.2-0.9,6.9c-0.4,2.7-0.9,5.1-1.3,6.8
					c-0.4,1.7-0.7,2.8-0.7,2.8c-0.1,0,0.1-1.1,0.4-2.9c0.3-1.9,0.7-4.3,1.1-6.8c0.4-2.6,0.8-4.9,1.1-6.9
					C160.4,161.9,160.6,160.9,160.7,160.9z"/>
			</g>
		</g>
		<g>
			<g>
				<path class="st1" d="M122.6,212.2c-0.1,0-0.3-0.7-0.4-1.9c-0.1-1.2-0.1-2.9,0.4-4.7c0.4-1.8,1.2-3.3,1.8-4.3
					c0.7-1,1.2-1.5,1.2-1.5c0.1,0.1-1.7,2.4-2.6,5.9C122.2,209.2,122.7,212.2,122.6,212.2z"/>
			</g>
		</g>
		<g>
			<g>
				<path class="st1" d="M128,206.6c-0.1,0-0.6-1.4-0.6-3.2c0-1.8,0.5-3.3,0.7-3.2c0.1,0-0.1,1.5-0.1,3.2
					C127.9,205.1,128.1,206.6,128,206.6z"/>
			</g>
		</g>
		<g>
			<g>
				<path class="st1" d="M159,267.5c0,0-0.2-0.1-0.6-0.3c-0.4-0.2-1-0.4-1.7-0.9c-1.4-0.8-3.4-2.1-5.6-4.1c-2.2-1.9-4.5-4.6-6.5-7.8
					c-2.1-3.2-3.9-7.1-5.3-11.3c-2.7-8.5-3.3-16.6-3.7-22.3c-0.2-2.9-0.3-5.2-0.3-6.9c0-0.8,0-1.4,0-1.9c0-0.4,0-0.7,0-0.7
					c0,0,0,0.2,0.1,0.6c0,0.5,0.1,1.1,0.1,1.9c0.1,1.7,0.3,4,0.5,6.8c0.5,5.8,1.2,13.8,3.8,22.2c1.4,4.2,3.2,8,5.2,11.2
					c2,3.2,4.3,5.9,6.4,7.8c2.1,2,4,3.3,5.4,4.2C158.2,267,159,267.4,159,267.5z"/>
			</g>
		</g>
		<g class="st10">
			<g>
				<path d="M136,218.3c1.4,10.2,6.8,19.9,15,26.3c3,2.3,6.5,4.5,7.7,8.1c1,2.9,0.3,6.1-0.9,8.9c-0.5,1.1-1.2,2.3-2.4,2.6
					c-1.2,0.3-2.4-0.4-3.5-1.2c-6.6-4.9-10.8-12.5-13.2-20.4s-3-16.1-3.6-24.3"/>
			</g>
		</g>
	</g>
	<g>
		<g>
			<path class="st1" d="M175.3,323c0,0.1-16.9,0.3-37.7,0.3c-20.8,0-37.7-0.1-37.7-0.3s16.9-0.3,37.7-0.3
				C158.4,322.8,175.3,322.9,175.3,323z"/>
		</g>
	</g>
	<g>
		<g>
			<path class="st1" d="M175.3,115c0,0.1-16.9,0.3-37.7,0.3c-20.8,0-37.7-0.1-37.7-0.3c0-0.1,16.9-0.3,37.7-0.3
				C158.4,114.7,175.3,114.8,175.3,115z"/>
		</g>
	</g>
	<g>
		<g>
			<path class="st1" d="M175.3,329.2c0,0.1-16.9,0.3-37.7,0.3c-20.8,0-37.7-0.1-37.7-0.3s16.9-0.3,37.7-0.3
				C158.4,329,175.3,329.1,175.3,329.2z"/>
		</g>
	</g>
	<g>
		<g>
			<path d="M132.5,347.4v10.9H130v-8.8h-2.2v-2H132.5z"/>
			<path d="M134.4,352.8c0-3.6,2-5.6,4.7-5.6c2.7,0,4.7,2,4.7,5.6c0,3.6-2,5.6-4.7,5.6C136.4,358.4,134.4,356.4,134.4,352.8z
				 M141.2,352.8c0-2.5-0.9-3.5-2.1-3.5c-1.2,0-2.1,1-2.1,3.5c0,2.5,0.9,3.5,2.1,3.5C140.3,356.3,141.2,355.3,141.2,352.8z"/>
		</g>
		<g>
			<path class="st1" d="M150.6,349.8c0,1.5-0.9,2.4-2.3,2.4c-0.5,0-0.9-0.1-1.2-0.3l0.4-0.8c0.2,0.2,0.5,0.2,0.8,0.2
				c0.7,0,1.2-0.4,1.2-1.3c-0.3,0.3-0.6,0.4-1.1,0.4c-0.9,0-1.5-0.5-1.5-1.4c0-0.9,0.7-1.5,1.7-1.5
				C149.9,347.6,150.6,348.3,150.6,349.8z M149.5,349c0-0.4-0.3-0.7-0.8-0.7c-0.4,0-0.7,0.3-0.7,0.7s0.3,0.7,0.8,0.7
				C149.2,349.6,149.5,349.4,149.5,349z"/>
			<path class="st1" d="M154.7,349.8c0,1.5-0.9,2.4-2.3,2.4c-0.5,0-0.9-0.1-1.2-0.3l0.4-0.8c0.2,0.2,0.5,0.2,0.8,0.2
				c0.7,0,1.2-0.4,1.2-1.3c-0.3,0.3-0.6,0.4-1.1,0.4c-0.9,0-1.5-0.5-1.5-1.4c0-0.9,0.7-1.5,1.7-1.5
				C153.9,347.6,154.7,348.3,154.7,349.8z M153.5,349c0-0.4-0.3-0.7-0.8-0.7c-0.4,0-0.7,0.3-0.7,0.7s0.3,0.7,0.8,0.7
				C153.2,349.6,153.5,349.4,153.5,349z"/>
		</g>
		<g>
			<rect x="146.9" y="353.6" class="st1" width="7.8" height="1"/>
		</g>
	</g>
	<g>
		<g>
			<path class="st2" d="M159.2,315c0,0.1-9.4,0.3-20.9,0.3c-11.5,0-20.9-0.1-20.9-0.3c0-0.1,9.4-0.3,20.9-0.3
				C149.9,314.8,159.2,314.9,159.2,315z"/>
		</g>
	</g>
	<g>
		<g>
			
				<ellipse transform="matrix(0.9239 -0.3827 0.3827 0.9239 -119.9981 100.8512)" class="st2" cx="193.5" cy="352.1" rx="15.1" ry="15.1"/>
		</g>
		<g>
			<g>
				<path class="st8" d="M189.7,360.5c0,0,0.3-0.3,0.8-0.7c0.6-0.5,1.4-1.1,2.4-1.9c2-1.6,4.8-3.7,8-6c0,0.8,0,0.2,0,0.4l0,0l0,0
					l0,0l0,0l-0.1-0.1l-0.1-0.1l-0.3-0.2l-0.6-0.4c-0.4-0.3-0.8-0.6-1.1-0.8c-0.7-0.6-1.4-1.1-2.1-1.6c-1.3-1-2.5-1.9-3.6-2.7
					c-1-0.8-1.8-1.4-2.4-1.9c-0.6-0.5-0.9-0.7-0.8-0.7c0,0,0.4,0.2,1,0.6c0.7,0.5,1.5,1.1,2.5,1.7c1.1,0.8,2.3,1.7,3.6,2.6
					c0.7,0.5,1.4,1,2.1,1.6c0.4,0.3,0.7,0.6,1.1,0.8l0.6,0.4l0.3,0.2l0.1,0.1l0.1,0.1l0,0l0,0l0,0l0,0c0,0.2,0-0.4,0,0.4
					c-3.1,2.3-6,4.4-8.1,5.9c-1,0.7-1.8,1.3-2.5,1.7C190.1,360.3,189.7,360.6,189.7,360.5z"/>
			</g>
		</g>
	</g>
	<g>
		<g>
			
				<ellipse transform="matrix(0.1602 -0.9871 0.9871 0.1602 -280.8777 373.9896)" class="st11" cx="79.3" cy="352.1" rx="15.1" ry="15.1"/>
		</g>
		<g>
			<g>
				<path class="st8" d="M83.2,343.6c0,0-0.3,0.3-0.8,0.7c-0.6,0.5-1.4,1.1-2.4,1.9c-2,1.6-4.8,3.7-8,6c0-0.8,0-0.2,0-0.4l0,0l0,0
					l0,0l0,0l0.1,0.1l0.1,0.1l0.3,0.2l0.6,0.4c0.4,0.3,0.8,0.6,1.1,0.8c0.7,0.6,1.4,1.1,2.1,1.6c1.3,1,2.5,1.9,3.6,2.7
					c1,0.8,1.8,1.4,2.4,1.9c0.6,0.5,0.9,0.7,0.8,0.7c0,0-0.4-0.2-1-0.6c-0.7-0.5-1.5-1.1-2.5-1.7c-1.1-0.8-2.3-1.7-3.6-2.6
					c-0.7-0.5-1.4-1-2.1-1.6c-0.4-0.3-0.7-0.6-1.1-0.8l-0.6-0.4l-0.3-0.2l-0.1-0.1l-0.1-0.1l0,0l0,0l0,0l0,0c0-0.2,0,0.4,0-0.4
					c3.1-2.3,6-4.4,8.1-5.9c1-0.7,1.8-1.3,2.5-1.7C82.8,343.8,83.1,343.6,83.2,343.6z"/>
			</g>
		</g>
	</g>
	<g>
		<rect x="68.8" y="377.8" class="st0" width="30.1" height="30.1"/>
	</g>
	<g>
		<rect x="107" y="377.8" class="st0" width="30.1" height="30.1"/>
	</g>
	<g>
		<rect x="145.2" y="377.8" class="st0" width="30.1" height="30.1"/>
	</g>
	<g>
		<rect x="183.5" y="377.8" class="st0" width="30.1" height="30.1"/>
	</g>
	<g>
		<rect x="108.8" y="104.5" class="st2" width="56.2" height="3.2"/>
	</g>
</g>
<g>
	<g>
		<g>
			<path class="st1" d="M288.3,374.1c0,0,0-0.2-0.1-0.6c0-0.4,0-1,0-1.7c0-1.5,0-3.7-0.1-6.3c0-1.3,0-2.8,0-4.3c0-0.8,0-1.6,0-2.4
				c0-0.8,0-1.7,0.1-2.6c0.2-1.8,1.1-3.6,2.5-5c1.4-1.4,3.3-2.3,5.4-2.4c2.1-0.2,4.1,0.5,5.7,1.7c1.6,1.2,2.7,2.8,3.1,4.6
				c0.3,0.9,0.3,1.8,0.3,2.6c0,0.8,0,1.6,0,2.4c0,1.5,0,3,0,4.3c0,2.6-0.1,4.7-0.1,6.3c0,0.7,0,1.3,0,1.7c0,0.4,0,0.6-0.1,0.6
				c0,0,0-0.2-0.1-0.6c0-0.4,0-1,0-1.7c0-1.5,0-3.7-0.1-6.3c0-1.3,0-2.8,0-4.3c-0.1-1.6,0.2-3.2-0.3-4.9c-0.5-1.6-1.5-3.2-3-4.3
				c-1.5-1.1-3.4-1.7-5.4-1.6c-1.9,0.1-3.8,1-5.1,2.3c-1.3,1.3-2.1,3-2.4,4.7c-0.1,0.8-0.1,1.7-0.1,2.5c0,0.8,0,1.6,0,2.4
				c0,1.5,0,3,0,4.3c0,2.6-0.1,4.7-0.1,6.3c0,0.7,0,1.3,0,1.7C288.3,373.9,288.3,374.1,288.3,374.1z"/>
		</g>
	</g>
	<g>
		<g>
			<path class="st1" d="M298.6,374.1c0,0,0-0.2-0.1-0.6c0-0.4,0-1,0-1.7c0-1.5,0-3.7-0.1-6.3c0-1.3,0-2.8,0-4.3c0-0.8,0-1.6,0-2.4
				c0-0.8,0-1.7,0.1-2.6c0.2-1.8,1.1-3.6,2.5-5c1.4-1.4,3.3-2.3,5.4-2.4c2.1-0.2,4.1,0.5,5.7,1.7c1.6,1.2,2.7,2.8,3.1,4.6
				c0.3,0.9,0.3,1.8,0.3,2.6c0,0.8,0,1.6,0,2.4c0,1.5,0,3,0,4.3c0,2.6-0.1,4.7-0.1,6.3c0,0.7,0,1.3,0,1.7c0,0.4,0,0.6-0.1,0.6
				s0-0.2-0.1-0.6c0-0.4,0-1,0-1.7c0-1.5,0-3.7-0.1-6.3c0-1.3,0-2.8,0-4.3c-0.1-1.6,0.2-3.2-0.3-4.9c-0.5-1.6-1.5-3.2-3-4.3
				c-1.5-1.1-3.4-1.7-5.4-1.6c-1.9,0.1-3.8,1-5.1,2.3c-1.3,1.3-2.1,3-2.4,4.7c-0.1,0.8-0.1,1.7-0.1,2.5c0,0.8,0,1.6,0,2.4
				c0,1.5,0,3,0,4.3c0,2.6-0.1,4.7-0.1,6.3c0,0.7,0,1.3,0,1.7C298.6,373.9,298.6,374.1,298.6,374.1z"/>
		</g>
	</g>
	<g>
		<g>
			<polygon class="st2" points="275.8,369.7 268.8,431.1 316.5,431.1 322.6,369.7 			"/>
		</g>
		<g>
			<polygon class="st2" points="322.6,369.7 332.5,369.7 341,431.1 316.5,431.1 			"/>
		</g>
		<g class="st3">
			<polygon points="322.6,369.7 332.5,369.7 341,431.1 316.5,431.1 			"/>
		</g>
	</g>
	<g>
		<polygon class="st8" points="273.8,387 319.7,399.2 317.3,423 271.1,411.2 		"/>
	</g>
</g>
<g>
	<g>
		<g>
			<path class="st1" d="M201.5,275.5c-2.1,6-2.2,12.7-0.3,18.8c1.1,3.7,3,7.5,2.4,11.4c-0.5,3.2-2.5,5.9-2.9,9.1
				c-0.8,6.4,5.3,12.5,3.7,18.8c-0.8,2.9-3.1,5.2-5.9,6.4c-2.7,1.2-5.8,1.4-8.8,1.1c-4.4-0.4-9.1-2-11.2-6
				c-1.6-3.1-1.1-6.9-0.6-10.3c2.5-15.3,5.3-30.8,11.6-45"/>
		</g>
		<g>
			<g>
				<path class="st1" d="M203.4,322.8c0,0-0.2,0.1-0.5,0.2c-0.3,0.1-0.9,0.2-1.5,0.1c-0.7-0.1-1.5-0.2-2.4-0.7
					c-0.8-0.5-1.7-1.2-2.3-2.3c-0.5-1.1-0.8-2.5-0.4-3.9c0.2-0.7,0.5-1.4,0.9-2c0.5-0.6,1-1.2,1.7-1.6c1.3-1,2.7-1.8,4-3
					c1.2-1.2,2-2.8,2.2-4.6c0.3-1.8,0.1-3.6-0.4-5.2c-0.4-1.7-1.1-3.2-1.7-4.6c-1.3-2.9-2.6-5.5-3-7.9c-0.5-2.4-0.4-4.4,0-5.7
					c0.4-1.3,0.8-1.9,0.8-1.9c0,0-0.4,0.6-0.7,1.9c-0.3,1.3-0.4,3.3,0.1,5.6c0.5,2.3,1.7,4.9,3.1,7.8c0.7,1.4,1.3,3,1.8,4.7
					c0.4,1.7,0.6,3.5,0.4,5.3c-0.2,1.8-1,3.6-2.3,4.8c-1.3,1.2-2.8,2-4,3c-1.3,0.9-2.2,2.1-2.5,3.5c-0.3,1.3-0.1,2.7,0.4,3.7
					c0.5,1.1,1.3,1.8,2.1,2.3c0.8,0.5,1.6,0.6,2.3,0.7C202.7,323.1,203.4,322.8,203.4,322.8z"/>
			</g>
		</g>
	</g>
	<g>
		<g>
			<path class="st12" d="M142.9,421.5l-2.5,9.6l-25.8-0.2c0,0,1.9-4.5,16-4.3l1-5H142.9z"/>
		</g>
	</g>
	<g>
		<g>
			<g>
				<g>
					<path class="st4" d="M236.7,277.8c-0.2,0.5-6.8,34.1-6.8,34.1l15.4,0.7l6-28.9L236.7,277.8z"/>
				</g>
			</g>
			<g>
				<g>
					<polygon class="st1" points="229.9,311.9 228.1,311.2 234.8,278 236.9,277.9 					"/>
				</g>
			</g>
			<g>
				<g>
					<path class="st1" d="M242.9,285.2c-0.1,0.4,0.3,0.8,0.7,0.9c0.4,0.1,0.8-0.3,0.9-0.7c0.1-0.4-0.3-0.8-0.7-0.9
						C243.3,284.4,242.9,284.7,242.9,285.2z"/>
				</g>
			</g>
		</g>
		<g>
			<g>
				<path class="st12" d="M246.1,308.7l0.2-4.4l-6.6-2.7l2.6-6.1c1.3-2.8,4.7-4,7.4-2.5c0.9,0.5,1.8,1,2.6,1.4
					c1.9,1,3.2,2.8,3.7,4.9c0.9,3.6,1.6,11.1,1.5,10.7"/>
			</g>
		</g>
	</g>
	<g>
		<g>
			<g>
				<path class="st13" d="M263.7,420.7c0,0,27.1,7.5,28.2,7.9c1.6,0.6,1.4,6.6-1.2,6.5c-1.2,0-20.8,0.7-23.3,0.6
					c-2.5-0.2-9.9-3.1-9.9-3.1L263.7,420.7z"/>
			</g>
		</g>
		<g>
			<g>
				<g>
					<path class="st1" d="M275,431.1c0.1,0,0.3-1.4,1.2-2.9c0.9-1.5,2-2.4,1.9-2.5c0-0.1-1.4,0.7-2.3,2.3
						C274.8,429.5,274.8,431.1,275,431.1z"/>
				</g>
			</g>
		</g>
		<g>
			<g>
				<g>
					<path class="st1" d="M272.1,429.8c0.1,0,0.4-1.3,1.1-2.7c0.7-1.4,1.6-2.4,1.5-2.5c-0.1-0.1-1.1,0.8-1.9,2.3
						C272.1,428.4,272,429.8,272.1,429.8z"/>
				</g>
			</g>
		</g>
		<g>
			<g>
				<g>
					<path class="st1" d="M269.5,429.1c0.1,0,0-1.4,0.6-2.9c0.6-1.5,1.6-2.4,1.5-2.5c-0.1-0.1-1.3,0.7-1.9,2.4
						C269.1,427.7,269.4,429.1,269.5,429.1z"/>
				</g>
			</g>
		</g>
		<g>
			<g>
				<g>
					<path class="st1" d="M270,425.6c0,0,0.3-0.7,0.3-2c0-0.6-0.1-1.4-0.3-2.2c-0.1-0.4-0.2-0.8-0.4-1.3c-0.1-0.2-0.2-0.5-0.4-0.7
						c-0.3-0.2-0.7-0.2-0.9,0c-0.2,0.2-0.3,0.5-0.4,0.8c0,0.2,0,0.5,0,0.7c0,0.5,0.1,0.9,0.2,1.3c0.2,0.8,0.5,1.5,0.8,2.1
						c0.6,1.1,1.2,1.7,1.2,1.6c0.1,0-0.4-0.7-0.9-1.8c-0.3-0.6-0.5-1.2-0.7-2c-0.1-0.4-0.1-0.8-0.1-1.2c0-0.4,0-0.9,0.2-1.1
						c0.1-0.1,0.2-0.1,0.4,0c0.1,0.1,0.2,0.3,0.3,0.5c0.2,0.4,0.3,0.8,0.4,1.2c0.2,0.8,0.3,1.5,0.4,2.1
						C270,424.8,269.9,425.6,270,425.6z"/>
				</g>
			</g>
		</g>
		<g>
			<g>
				<g>
					<path class="st1" d="M269.9,425.3c0,0-0.6-0.3-1.7-0.3c-0.6,0-1.2,0.1-1.9,0.2c-0.4,0.1-0.7,0.2-1.1,0.4
						c-0.4,0.2-0.8,0.7-0.6,1.2c0.1,0.5,0.5,0.9,1,1c0.4,0.1,0.8,0.1,1.2,0c0.7-0.2,1.3-0.5,1.8-0.9c0.9-0.7,1.3-1.2,1.3-1.2
						c0-0.1-0.6,0.4-1.4,1c-0.4,0.3-1,0.6-1.7,0.7c-0.3,0.1-0.7,0.1-1,0c-0.3-0.1-0.6-0.3-0.7-0.6c-0.1-0.3,0.1-0.6,0.4-0.8
						c0.3-0.2,0.6-0.3,1-0.4c0.7-0.2,1.3-0.3,1.8-0.3C269.3,425.3,269.9,425.4,269.9,425.3z"/>
				</g>
			</g>
		</g>
		<g>
			<g>
				<g>
					<path class="st1" d="M279.1,431.4c0.1,0,0-1.2,0.5-2.4c0.5-1.3,1.4-2,1.3-2.1c0-0.1-1.2,0.5-1.7,1.9
						C278.6,430.2,279,431.4,279.1,431.4z"/>
				</g>
			</g>
		</g>
		<g>
			<g>
				<g>
					<path class="st1" d="M260.2,432.6c0,0,0.4,0.2,1,0.5c0.7,0.3,1.7,0.6,3,0.9c2.6,0.7,6.3,1,10.3,1c4.1,0,7.7-0.2,10.4-0.3
						c1.3-0.1,2.3-0.1,3.1-0.2c0.7,0,1.1-0.1,1.1-0.1c0,0-0.4,0-1.2-0.1c-0.8,0-1.9,0-3.1,0c-2.7,0.1-6.4,0.1-10.4,0.2
						c-4,0-7.7-0.3-10.3-0.8C261.8,433.2,260.3,432.5,260.2,432.6z"/>
				</g>
			</g>
		</g>
		<g>
			<g>
				<g>
					<path class="st1" d="M259.4,433.2c0,0.1,0.8-0.4,2-0.9c1.2-0.5,3.1-1.2,5.1-0.9c2,0.3,3.5,1.7,4.4,2.6c0.9,1,1.5,1.6,1.6,1.6
						c0,0-0.4-0.8-1.3-1.8c-0.5-0.5-1-1.1-1.8-1.7c-0.8-0.6-1.7-1-2.8-1.2c-2.2-0.3-4.1,0.4-5.3,1
						C260.1,432.7,259.4,433.2,259.4,433.2z"/>
				</g>
			</g>
		</g>
	</g>
	<g>
		<g>
			<g>
				<path class="st13" d="M234.9,413.3c0,0-25.6,16.8-26.5,17.5c-1.4,1,0.2,6,2.6,5.1c1.1-0.4,22.6-6.4,24.9-7.3
					c2.3-0.9,8.5-6,8.5-6L234.9,413.3z"/>
			</g>
		</g>
		<g>
			<g>
				<g>
					<path class="st1" d="M227.3,426.5c0.1,0-0.3-1.5-1.7-2.7c-1.4-1.3-2.9-1.6-2.9-1.5c0,0.1,1.3,0.6,2.6,1.8
						C226.6,425.3,227.2,426.6,227.3,426.5z"/>
				</g>
			</g>
		</g>
		<g>
			<g>
				<g>
					<path class="st1" d="M229.6,424.5c0.1,0-0.4-1.3-1.6-2.5c-1.2-1.2-2.4-1.7-2.5-1.6c-0.1,0.1,1.1,0.8,2.2,1.9
						C228.9,423.4,229.5,424.5,229.6,424.5z"/>
				</g>
			</g>
		</g>
		<g>
			<g>
				<g>
					<path class="st1" d="M231.9,423c0.1,0,0-1.5-1.1-2.8c-1.1-1.4-2.5-1.8-2.5-1.7c-0.1,0.1,1.2,0.7,2.2,2
						C231.5,421.7,231.8,423,231.9,423z"/>
				</g>
			</g>
		</g>
		<g>
			<g>
				<g>
					<path class="st1" d="M230.4,419.8c0.1,0-0.3-0.7-0.6-1.9c-0.1-0.6-0.3-1.3-0.3-2.1c0-0.4,0-0.8,0-1.3c0-0.2,0.1-0.4,0.1-0.5
						c0.1-0.1,0.2-0.1,0.4-0.1c0.3,0.1,0.4,0.6,0.6,1c0.1,0.4,0.2,0.8,0.3,1.2c0.1,0.8,0,1.5-0.1,2.1c-0.2,1.2-0.4,2-0.3,2
						c0,0,0.4-0.7,0.7-1.9c0.1-0.6,0.2-1.4,0.2-2.2c0-0.4-0.1-0.9-0.2-1.3c-0.1-0.2-0.1-0.4-0.3-0.7c-0.1-0.2-0.3-0.5-0.6-0.6
						c-0.3-0.1-0.7-0.1-0.9,0.2c-0.2,0.3-0.2,0.5-0.2,0.8c0,0.5,0,0.9,0,1.3c0.1,0.8,0.2,1.6,0.4,2.2
						C229.9,419.2,230.4,419.8,230.4,419.8z"/>
				</g>
			</g>
		</g>
		<g>
			<g>
				<g>
					<path class="st1" d="M230.4,419.5c0,0.1,0.6-0.2,1.7-0.5c0.5-0.1,1.1-0.2,1.8-0.3c0.3,0,0.7,0,1.1,0.1c0.3,0.1,0.6,0.3,0.6,0.6
						c0,0.3-0.2,0.6-0.4,0.8c-0.3,0.2-0.6,0.3-1,0.3c-0.7,0.1-1.3,0-1.8-0.2c-1-0.3-1.6-0.6-1.7-0.5c0,0,0.5,0.4,1.6,0.8
						c0.5,0.2,1.2,0.4,1.9,0.3c0.4,0,0.8-0.1,1.2-0.4c0.4-0.2,0.7-0.7,0.6-1.2c0-0.6-0.5-0.9-1-1c-0.4-0.1-0.8-0.1-1.2-0.1
						c-0.7,0-1.4,0.2-1.9,0.4C230.9,419.1,230.3,419.5,230.4,419.5z"/>
				</g>
			</g>
		</g>
		<g>
			<g>
				<g>
					<path class="st1" d="M214.2,435c0,0,0.4-0.3,0.6-1c0.2-0.7,0.1-1.8-0.5-2.8c-0.3-0.5-0.6-0.9-0.9-1.3c-0.3-0.4-0.6-0.7-0.9-0.9
						c-0.3-0.2-0.6-0.3-0.8-0.3c-0.2,0-0.3,0-0.3,0.1c0,0.1,0.5,0,0.9,0.5c0.2,0.2,0.5,0.6,0.7,0.9c0.3,0.4,0.5,0.8,0.8,1.3
						c0.5,0.9,0.7,1.8,0.6,2.5C214.5,434.6,214.2,434.9,214.2,435z"/>
				</g>
			</g>
		</g>
		<g>
			<g>
				<g>
					<path class="st1" d="M223.4,428.1c0.1,0,0.1-1.3-0.9-2.5c-1-1.2-2.2-1.4-2.3-1.3c0,0.1,1,0.6,1.9,1.6
						C223.1,427,223.3,428.1,223.4,428.1z"/>
				</g>
			</g>
		</g>
		<g>
			<g>
				<g>
					<path class="st1" d="M241.8,423.5c0,0-0.4,0.3-1.1,0.8c-0.7,0.5-1.8,1.2-3.2,1.9c-1.4,0.7-3.1,1.5-5,2.2
						c-1.9,0.7-4.1,1.4-6.4,2.1c-4.6,1.3-8.8,2.5-11.8,3.4c-1.4,0.4-2.6,0.8-3.6,1.1c-0.8,0.3-1.3,0.4-1.3,0.5c0,0,0.5-0.1,1.3-0.3
						c0.9-0.2,2.1-0.6,3.6-1c3-0.8,7.2-2,11.8-3.3c2.3-0.7,4.5-1.4,6.4-2.1c1.9-0.8,3.7-1.6,5-2.3c1.4-0.8,2.4-1.5,3.1-2.1
						C241.5,423.9,241.8,423.6,241.8,423.5z"/>
				</g>
			</g>
		</g>
		<g>
			<g>
				<g>
					<path class="st1" d="M242.8,423.9c0-0.1-0.8-0.3-2.2-0.6c-1.4-0.2-3.4-0.3-5.4,0.7c-1,0.5-1.8,1.2-2.3,2
						c-0.6,0.8-0.9,1.5-1.2,2.1c-0.5,1.3-0.8,2.1-0.7,2.1c0.1,0,0.4-0.8,1-2c0.6-1.2,1.6-2.9,3.4-3.9c1.8-0.9,3.8-0.9,5.1-0.7
						C241.9,423.8,242.8,423.9,242.8,423.9z"/>
				</g>
			</g>
		</g>
	</g>
	<g>
		<g>
			<g>
				<g>
					<g>
						<path class="st13" d="M173.5,313.3l21,2l8.5,2.4c3.6,1,7,2.9,9.7,5.6l27.5,26.4l5-41l13.7,1.2l-2.3,52.8
							c-2,6.4-8,10.9-15,10.9c-4.1,0-8.1-1.7-11.1-4.6l-19.6-18.4l-0.6,26.3l13.6,11l-52.4,29.2c0,0-2.8-11.2-1.5-36
							c0.2-4.6-8.1-18.4-8.8-22.5c-2.5-15.6-2.1-38.5-2.1-38.5L173.5,313.3z"/>
					</g>
				</g>
				<g>
					<g>
						<path class="st13" d="M160.6,319.7c0,0-10.6,3.9-13.2,12.3c-2.3,7.4-9.9,48.9-9.9,48.9l-7.5,44l15.8,0.6l18.2-74.9
							L160.6,319.7z"/>
					</g>
				</g>
				<g>
					<g>
						<g>
							<path class="st1" d="M159.9,368.2c0,0,0.1-0.3,0.3-0.9c0.2-0.6,0.4-1.4,0.7-2.5c0.6-2.1,1.3-5,2-8.3c0.7-3.2,1.3-6.2,1.7-8.3
								c0.2-1.1,0.3-1.9,0.4-2.5c0.1-0.6,0.1-0.9,0.1-0.9c0,0-0.1,0.3-0.3,0.9c-0.2,0.7-0.3,1.5-0.6,2.5c-0.5,2.2-1.1,5.1-1.8,8.3
								c-0.7,3.2-1.4,6.1-1.9,8.3c-0.2,1-0.4,1.8-0.6,2.5C159.9,367.9,159.8,368.2,159.9,368.2z"/>
						</g>
					</g>
				</g>
				<g>
					<g>
						<g>
							<path class="st1" d="M256.6,313.8c0.1,0,0.3-0.9,0.4-2.1c0.1-1.2,0.1-2.1,0-2.1c-0.1,0-0.3,0.9-0.4,2.1
								C256.5,312.8,256.5,313.8,256.6,313.8z"/>
						</g>
					</g>
				</g>
				<g>
					<g>
						<g>
							<path class="st1" d="M252.6,313.9c0.1,0,0.3-1,0.3-2.2c0.1-1.2,0-2.2-0.1-2.2c-0.1,0-0.3,1-0.3,2.2
								C252.4,312.9,252.5,313.9,252.6,313.9z"/>
						</g>
					</g>
				</g>
				<g>
					<g>
						<g>
							<path class="st1" d="M248.6,313.7c0.1,0,0.3-1.1,0.4-2.5c0.1-1.4,0-2.5-0.1-2.5c-0.1,0-0.3,1.1-0.4,2.5
								C248.4,312.5,248.5,313.7,248.6,313.7z"/>
						</g>
					</g>
				</g>
				<g>
					<g>
						<g>
							<path class="st1" d="M240.9,356c0.1,0,0.1-1.6-0.1-3.6c-0.2-2-0.5-3.6-0.6-3.6c-0.1,0-0.1,1.6,0.1,3.6
								C240.5,354.4,240.7,356,240.9,356z"/>
						</g>
					</g>
				</g>
				<g>
					<g>
						<g>
							<path class="st1" d="M143.1,420.8c-0.1,0-0.4,1-0.6,2.2c-0.2,1.2-0.3,2.3-0.2,2.3c0.1,0,0.4-1,0.6-2.2
								C143.2,421.9,143.3,420.9,143.1,420.8z"/>
						</g>
					</g>
				</g>
				<g>
					<g>
						<g>
							<path class="st1" d="M137.9,420.8c-0.1,0-0.4,0.9-0.6,2c-0.2,1.1-0.2,2.1-0.1,2.1c0.1,0,0.4-0.9,0.6-2
								C138,421.8,138.1,420.9,137.9,420.8z"/>
						</g>
					</g>
				</g>
				<g>
					<g>
						<g>
							<path class="st1" d="M133,420.3c-0.1,0-0.3,1-0.5,2.3c-0.2,1.3-0.4,2.3-0.2,2.3c0.1,0,0.5-1,0.7-2.2
								C133.1,421.4,133.1,420.3,133,420.3z"/>
						</g>
					</g>
				</g>
				<g>
					<g>
						<g>
							<path class="st1" d="M152,324.8c0,0.1,1.1,0,2.8,0.4c1.7,0.3,4,1.2,6,3c2,1.8,3.2,3.9,3.8,5.6c0.6,1.6,0.7,2.8,0.8,2.7
								c0,0,0-0.3,0-0.8c0-0.5-0.2-1.2-0.4-2.1c-0.5-1.7-1.7-4-3.8-5.8c-2.1-1.8-4.5-2.7-6.3-2.9c-0.9-0.1-1.6-0.2-2.1-0.2
								C152.3,324.7,152,324.8,152,324.8z"/>
						</g>
					</g>
				</g>
			</g>
			<g>
				<g>
					<path class="st1" d="M208.8,361.9c-0.1,0,0.4-1.3,0.9-3.4c0.5-2.1,0.9-5.1,0.8-8.4c-0.2-3.3-0.9-6.2-1.6-8.3
						c-0.7-2-1.3-3.3-1.3-3.3c0,0,0.2,0.3,0.5,0.8c0.3,0.5,0.7,1.3,1.1,2.4c0.8,2,1.6,5,1.8,8.4c0.2,3.4-0.3,6.4-0.9,8.5
						c-0.3,1.1-0.6,1.9-0.8,2.5C209,361.6,208.8,361.9,208.8,361.9z"/>
				</g>
			</g>
			<g>
				<g>
					<path class="st1" d="M210.1,376.4c0,0-0.3,0.1-0.9,0.1c-0.6,0-1.4,0-2.5-0.1c-2.1-0.2-5-0.6-8-1.5c-3.1-0.9-5.8-2-7.6-3
						c-0.9-0.5-1.7-0.9-2.2-1.2c-0.5-0.3-0.8-0.5-0.7-0.5c0-0.1,1.2,0.5,3.1,1.4c1.9,0.9,4.5,2,7.6,2.8c3,0.9,5.9,1.4,7.9,1.6
						C208.9,376.2,210.2,376.3,210.1,376.4z"/>
				</g>
			</g>
			<g class="st10">
				<g>
					<path d="M186.9,369.1c1.6,1.5,4.2,1.7,6.4,1.6c2.2,0,4.4-0.5,6.6-0.4c2.2,0,4.5,0.6,6,2.3c0.5,0.5,0.8,1.1,0.9,1.8
						c0,0.7-0.4,1.4-1,1.6c-0.4,0.1-0.8,0-1.3,0C198.4,374.7,191.7,373.2,186.9,369.1"/>
				</g>
			</g>
			<g class="st10">
				<g>
					<path d="M166.7,371c1.6-0.5,1.9-2.4,2.1-4.1c0.7-7-0.7-14.1-3.9-20.3c-0.8,4.6-2,9.4-3,14.1L166.7,371z"/>
				</g>
			</g>
			<g>
				<g>
					<path class="st8" d="M163.8,351.9c0,0.1-0.4-0.4-1.3-0.6c-0.9-0.2-2.4,0-3.7,1.1c-1.3,1-2.1,3-2.5,5.3
						c-0.4,2.2-0.7,4.9-2.4,7.1c-0.8,1.1-2.1,1.8-3.4,2c-1.3,0.2-2.5,0.2-3.6,0.3c-2.3,0-4.1,1-5.4,2.2c-1.2,1.2-1.8,2.5-2.1,3.4
						c-0.3,0.9-0.3,1.5-0.4,1.4c0,0,0-0.1,0-0.4c0-0.3,0.1-0.6,0.2-1.1c0.2-0.9,0.8-2.3,2-3.6c0.6-0.6,1.4-1.2,2.4-1.7
						c0.9-0.5,2.1-0.7,3.2-0.7c1.2-0.1,2.4-0.1,3.5-0.3c1.2-0.2,2.3-0.8,3.1-1.9c0.8-1,1.2-2.2,1.6-3.4c0.3-1.2,0.5-2.4,0.7-3.5
						c0.4-2.2,1.2-4.4,2.7-5.4c1.4-1.1,3-1.3,4-1c0.5,0.1,0.8,0.4,1,0.5C163.8,351.8,163.9,351.9,163.8,351.9z"/>
				</g>
			</g>
			<g>
				<g>
					<path class="st8" d="M223.2,332.5c0,0-0.3,0.8-1.3,2c-1,1.2-3,2.6-5.8,3.1c-1.4,0.2-3,0.2-4.6-0.4c-1.6-0.5-3-1.6-4.5-2.8
						c-1.4-1.2-2.8-2.5-4.6-3.3c-0.9-0.4-1.8-0.7-2.8-0.8c-1-0.1-2,0.1-3,0.4c-2,0.6-3.7,1.7-5.4,2.8c-1.7,1.1-3.3,2.2-5,3
						c-1.7,0.7-3.5,1.1-5.1,1.1c-1.7,0-3.2-0.3-4.5-0.7c-2.7-0.9-4.5-2.4-5.5-3.5c-0.5-0.6-0.9-1.1-1.1-1.4
						c-0.2-0.3-0.3-0.5-0.3-0.5c0.1,0,0.5,0.7,1.6,1.8c1.1,1.1,2.9,2.5,5.5,3.3c2.6,0.8,6,1.1,9.4-0.4c1.6-0.7,3.2-1.8,4.9-3
						c1.6-1.1,3.4-2.3,5.5-2.9c1-0.3,2.1-0.5,3.2-0.4c1.1,0.1,2.1,0.4,3,0.8c1.8,0.9,3.3,2.3,4.7,3.4c1.4,1.2,2.8,2.2,4.3,2.7
						c1.5,0.6,3,0.6,4.4,0.4c2.7-0.4,4.6-1.8,5.7-2.9C222.8,333.3,223.2,332.5,223.2,332.5z"/>
				</g>
			</g>
			<g>
				<g>
					<path class="st8" d="M249.1,372.2c0,0-0.2-0.7-0.4-1.8c-0.3-1.2-0.6-2.9-1.4-4.9c-0.4-1-1-2-1.9-2.9c-0.8-0.9-1.9-1.7-3.3-2.2
						c-1.3-0.4-2.8-0.5-4.4-0.4c-1.6,0-3.2,0.1-4.9-0.4c-1.7-0.4-3.1-1.4-4.3-2.4c-1.2-1-2.2-2.2-3.2-3.2c-1.9-2.1-4-3.8-6-4.3
						c-2.1-0.5-3.9,0-4.8,0.7c-1,0.7-1.2,1.4-1.3,1.3c0,0,0.1-0.2,0.2-0.4c0.2-0.3,0.5-0.7,1-1c1-0.8,2.8-1.4,5-0.9
						c2.2,0.5,4.4,2.2,6.3,4.3c1,1,2,2.2,3.2,3.2c1.2,1,2.5,1.9,4.1,2.3c3.1,0.8,6.4-0.1,9.3,0.8c1.4,0.5,2.6,1.3,3.4,2.3
						c0.9,1,1.5,2.1,1.9,3.1c0.8,2,1.1,3.8,1.3,5c0.1,0.6,0.1,1.1,0.2,1.4C249.1,372,249.2,372.2,249.1,372.2z"/>
				</g>
			</g>
			<g>
				<g>
					<path class="st8" d="M210.1,357c0,0-0.2,0-0.5,0.1c-0.3,0-0.8,0-1.5-0.1c-1.3-0.1-3.1-0.9-5.1-1.8c-1-0.5-2.2-1-3.5-1.3
						c-1.3-0.4-2.7-0.4-4.2-0.1c-2.9,0.6-5.8,2.4-8.3,4.8c-2.5,2.4-4.7,5-7.1,6.8c-2.4,1.9-5.1,2.9-7.4,3.3
						c-2.3,0.4-4.2,0.2-5.4-0.1c-0.6-0.1-1.1-0.3-1.4-0.4c-0.3-0.1-0.5-0.2-0.5-0.2c0,0,0.7,0.2,1.9,0.4c1.3,0.2,3.1,0.3,5.3-0.1
						c2.2-0.4,4.8-1.4,7.1-3.3c2.4-1.8,4.5-4.4,7.1-6.8c2.5-2.4,5.5-4.3,8.5-4.9c1.5-0.3,3-0.2,4.4,0.2c1.3,0.4,2.5,0.9,3.5,1.4
						c2,1,3.7,1.8,5,2C209.4,357.1,210.1,357,210.1,357z"/>
				</g>
			</g>
			<g>
				<g>
					<path class="st8" d="M200.9,374.6c0,0.1-1,0.1-2,0.8c-1,0.7-1.2,1.7-1.3,1.7c-0.1,0-0.1-0.3,0-0.7c0.1-0.4,0.4-1,1-1.4
						c0.5-0.4,1.2-0.6,1.6-0.6C200.7,374.5,200.9,374.6,200.9,374.6z"/>
				</g>
			</g>
			<g>
				<g>
					<path class="st8" d="M209.5,370.6c0.1,0-0.3,1.5-1.3,3c-1,1.5-2.2,2.5-2.3,2.3c-0.1-0.1,0.9-1.2,1.9-2.6
						C208.8,371.8,209.4,370.5,209.5,370.6z"/>
				</g>
			</g>
			<g>
				<g>
					<path class="st8" d="M174.6,384.7c-0.1,0.1-1.1-0.2-2.5-0.2c-1.3,0-2.4,0.3-2.5,0.1c-0.1-0.1,1-0.7,2.5-0.6
						C173.5,384,174.6,384.6,174.6,384.7z"/>
				</g>
			</g>
			<g>
				<g>
					<path class="st8" d="M145.9,336.1c0,0,0.2,0.1,0.7,0.2c0.4,0.1,1.1,0.1,1.8-0.2c0.7-0.3,1.5-0.9,2.1-1.7
						c0.6-0.8,1.3-1.9,2.2-2.8c1.8-1.8,4-2.8,5.7-3.1c0.8-0.2,1.5-0.2,2-0.2c0.5,0,0.7,0,0.7,0.1c0,0.1-1,0.1-2.6,0.5
						c-1.5,0.4-3.6,1.4-5.4,3.1c-0.9,0.9-1.5,1.8-2.2,2.7c-0.7,0.9-1.5,1.5-2.4,1.8c-0.8,0.3-1.6,0.2-2,0
						C146,336.4,145.8,336.2,145.9,336.1z"/>
				</g>
			</g>
			<g>
				<g>
					<path class="st8" d="M199.4,316.4c0,0-0.3,0.6-1.1,1.3c-0.8,0.7-2.1,1.5-3.7,1.9c-1.6,0.4-3.1,0.4-4.2,0.1
						c-1.1-0.2-1.7-0.5-1.6-0.6c0-0.1,0.7,0.1,1.7,0.2c1,0.1,2.5,0.1,4-0.3c1.5-0.4,2.8-1.1,3.6-1.7
						C198.8,316.8,199.3,316.4,199.4,316.4z"/>
				</g>
			</g>
			<g>
				<g>
					<path class="st8" d="M154.5,391c0,0-0.4,0-1.1,0.2c-0.7,0.2-1.7,0.6-2.8,1.4c-1.1,0.8-2.1,2-3,3.5c-0.9,1.5-1.6,3.3-2.6,5.2
						c-0.9,1.8-2.1,3.5-3.6,4.7c-1.4,1.2-3.2,1.6-4.5,1.5c-1.4-0.1-2.5-0.6-3-1.1c-0.3-0.2-0.5-0.5-0.6-0.7
						c-0.1-0.2-0.2-0.3-0.1-0.3c0,0,0.3,0.3,0.9,0.8c0.6,0.4,1.6,0.9,2.9,0.9c1.3,0,2.9-0.4,4.2-1.6c1.4-1.1,2.5-2.7,3.4-4.5
						c0.9-1.8,1.7-3.7,2.6-5.2c0.9-1.6,2-2.8,3.2-3.6c1.1-0.8,2.2-1.2,3-1.3c0.4-0.1,0.7-0.1,0.9,0C154.4,390.9,154.5,391,154.5,391
						z"/>
				</g>
			</g>
		</g>
		<g class="st14">
			<g>
				<path d="M239.8,349.1c-1.8,2.1-2.5,5.1-1.8,7.8c0.1,0.4,0.3,0.9,0.8,1.1c0.4,0.1,0.7-0.1,1-0.4c0.2-0.3,0.3-0.7,0.4-1
					c0.6-2.5,0.5-5.2-0.1-7.7"/>
			</g>
		</g>
	</g>
	<g>
		<g>
			<path class="st8" d="M258.5,326c0.1,0.1-1.3,0.9-2.5,3c-0.6,1-1.2,2.4-1.8,3.9c-0.6,1.5-1.1,3.2-1.9,5c-0.8,1.7-1.8,3.3-3.1,4.4
				c-1.3,1.1-2.8,1.7-4,1.8c-1.3,0.2-2.3-0.1-2.9-0.4c-0.3-0.2-0.6-0.3-0.7-0.4c-0.1-0.1-0.2-0.2-0.2-0.2c0,0,0.3,0.2,1,0.4
				c0.6,0.2,1.6,0.4,2.8,0.2c1.2-0.2,2.5-0.8,3.8-1.8c1.2-1,2.2-2.6,3-4.2c0.8-1.7,1.3-3.4,2-4.9c0.6-1.5,1.3-2.9,2-3.9
				c0.7-1,1.4-1.8,1.9-2.2C258.2,326.2,258.5,326,258.5,326z"/>
		</g>
	</g>
	<g>
		<g>
			<path class="st8" d="M259.4,314.9c0,0-0.6,0.7-1.8,1.5c-1.2,0.8-3,1.7-5.2,2.1c-2.2,0.4-4.2,0.3-5.6,0c-1.4-0.3-2.2-0.7-2.2-0.8
				c0-0.1,0.9,0.2,2.3,0.4c1.4,0.2,3.4,0.3,5.5-0.1c2.1-0.4,3.9-1.2,5.1-1.9C258.6,315.4,259.3,314.9,259.4,314.9z"/>
		</g>
	</g>
	<g>
		<g>
			<g>
				<path class="st1" d="M266.8,420.4c0,0-62.8-41.2-65.4-42.1c-2.6-0.9-8.8-4.9-15-3.2c-6.2,1.7-11.8,7.3-14.6,15.4
					c-2.8,8.1-3,26.4-3,26.4s4.9,14.4,14.6,17.4c0.8,0.3,1.6,0.5,2.5,0.6c11.8,2.3,23.8-3.1,30.4-13.1l1.4-2.1
					c0,0,41.1,15.1,41.8,14.9L266.8,420.4z"/>
			</g>
		</g>
		<g>
			<g>
				<path class="st1" d="M288.2,372.3c0,0,7.7,2.7,7.7,11.4c0.1,16.5-33.4,34.7-33.4,34.7L218.1,389v-3.1
					C218.1,385.9,275.3,365.3,288.2,372.3z"/>
			</g>
		</g>
		<g>
			<g>
				<g>
					<path class="st4" d="M189,409.1c0,0,0.1,0.1,0.3,0.2c0.2,0.1,0.6,0.2,1,0.4c0.9,0.4,2.3,0.9,4,1.5c3.5,1.3,8.5,3.2,14.8,5.6
						c6.3,2.3,13.8,5.1,22.3,8.2c8.5,3.1,17.8,6.4,27.8,9.8l0.2,0.1l0.1-0.2c1.6-3,3.2-6.2,4.9-9.4c0.9-1.6,1.7-3.3,2.5-4.8l0.1-0.2
						l-0.2-0.1c-18.9-12-35.8-22.7-47.9-30.4c-6.1-3.8-11-6.9-14.4-9.1c-1.7-1.1-3-1.9-3.9-2.4c-0.4-0.3-0.8-0.5-1-0.6
						c-0.2-0.1-0.4-0.2-0.4-0.2s0.1,0.1,0.3,0.2c0.2,0.2,0.6,0.4,1,0.7c0.9,0.6,2.2,1.4,3.9,2.5c3.4,2.2,8.3,5.3,14.3,9.2
						c12.2,7.8,29,18.5,47.9,30.5l-0.1-0.3c-0.8,1.5-1.6,3.1-2.5,4.8c-1.7,3.2-3.3,6.4-4.9,9.4l0.3-0.1c-10-3.4-19.4-6.7-27.8-9.8
						c-8.4-3.1-16-5.8-22.3-8.1c-6.3-2.3-11.3-4.2-14.9-5.4c-1.7-0.6-3.1-1.1-4-1.5c-0.4-0.2-0.8-0.3-1-0.4
						C189.1,409.1,189,409.1,189,409.1z"/>
				</g>
			</g>
		</g>
		<g>
			<g>
				<g>
					<path class="st4" d="M240.6,403.8c0,0,0.4-0.3,1.2-0.8c0.7-0.5,1.8-1.3,3-2.3c2.5-2,6-4.8,9.7-8c3.7-3.2,7-6.2,9.3-8.4
						c1.2-1.1,2.1-2,2.7-2.7c0.6-0.6,1-1,1-1c0,0-0.4,0.3-1.1,0.9c-0.7,0.7-1.7,1.5-2.8,2.6c-2.4,2.2-5.7,5.1-9.4,8.3
						c-3.7,3.2-7.1,6-9.6,8.1c-1.2,1-2.2,1.8-3,2.4C241,403.5,240.6,403.8,240.6,403.8z"/>
				</g>
			</g>
		</g>
		<g>
			<g>
				<g>
					<path class="st4" d="M275.6,378.5c0-0.1-2-0.3-4.3,0.4c-2.3,0.7-3.9,1.9-3.8,2c0.1,0.1,1.7-0.9,3.9-1.6
						C273.7,378.7,275.6,378.7,275.6,378.5z"/>
				</g>
			</g>
		</g>
		<g>
			<g>
				<g>
					<path class="st4" d="M271.8,375.9c0-0.1-1.5,0.5-2.6,2c-1.2,1.5-1.5,3-1.4,3c0.1,0,0.6-1.3,1.7-2.7
						C270.6,376.8,271.9,376,271.8,375.9z"/>
				</g>
			</g>
		</g>
		<g>
			<g>
				<g>
					<path class="st1" d="M290.6,428.2c0-0.1-0.5-0.2-1.1,0.3c-0.6,0.5-1.1,1.5-1.3,2.6c-0.2,1.1,0.1,2.2,0.4,2.8
						c0.3,0.7,0.7,1,0.7,1c0.1,0-0.2-0.4-0.4-1.1c-0.2-0.7-0.4-1.6-0.3-2.7c0.2-1,0.6-1.9,1.1-2.4
						C290.2,428.3,290.6,428.3,290.6,428.2z"/>
				</g>
			</g>
		</g>
	</g>
	<g>
		<g>
			<g>
				<path class="st1" d="M161.9,281c-1.2-1.2-3-1.9-4.7-1.8c-1.7,0.1-3.4,0.9-4.5,2.2c-1.3,1.5-1.8,3.6-2.1,5.6
					c-0.3,2-0.4,4-1.2,5.9c-0.7,1.9-2.2,3.6-4.2,4c-1.5,0.3-3.3-0.2-4.4,0.8c-1,0.9-1,2.5-0.3,3.6c0.7,1.1,1.9,1.8,3.1,2.3
					c0.5,0.2,1,0.5,1,1c0,0.7-0.9,0.9-1.5,1.2c-1.9,0.8-2.4,3.4-1.4,5.2c1,1.7,3.2,2.6,5.2,2.6c2,0,4-0.7,5.9-1.4
					c-0.7,0.8-0.7,2.1-0.1,2.9c0.6,0.8,1.8,1.2,2.8,1.1c1-0.1,2-0.7,2.8-1.4c1.5-1.4,2.3-3.4,2.7-5.4c0.4-2,0.4-4.1,0.4-6.2
					c0-7.4,0.6-14.7,1.6-22"/>
			</g>
			<g>
				<g>
					<g>
						<g>
							<g>
								<g>
									<g>
										<g>
											<g>
												<g>
													<g>
														<path class="st12" d="M183.1,266.8c8.1,0.4,14.5,7.1,14.5,15.2c0,6.3-0.1,13.1-0.5,17.2c-0.9,9.4-8,11.1-8,11.1
															s0.2,5.9,0.5,11.4c0.3,5.3-4,10-9.7,10.4h0c-5.6,0.5-10.4-3.4-10.8-8.6l-1.9-40.7
															C166.8,273.8,174.2,266.4,183.1,266.8L183.1,266.8z"/>
													</g>
												</g>
											</g>
										</g>
										<g>
											<g>
												<g>
													<g>
														<g>
															<path class="st1" d="M195.4,286.1c0.1,0.6-0.4,1.2-1.1,1.3c-0.7,0.1-1.2-0.4-1.3-1c-0.1-0.6,0.4-1.2,1.1-1.3
																C194.8,285.1,195.4,285.5,195.4,286.1z"/>
														</g>
													</g>
												</g>
											</g>
											<g>
												<g>
													<g>
														<g>
															<g>
																<path class="st1" d="M195.4,284.3c-0.1,0.2-1.1-0.5-2.4-0.4c-1.3,0.1-2.2,0.8-2.3,0.6c-0.1-0.1,0.1-0.4,0.5-0.7
																	c0.4-0.3,1.1-0.7,1.9-0.7c0.8,0,1.5,0.2,1.9,0.5C195.3,283.9,195.5,284.2,195.4,284.3z"/>
															</g>
														</g>
													</g>
												</g>
											</g>
										</g>
										<g>
											<g>
												<g>
													<g>
														<g>
															<path class="st1" d="M182,286.8c0.1,0.6-0.4,1.2-1.1,1.3c-0.7,0.1-1.2-0.4-1.3-1c-0.1-0.6,0.4-1.2,1.1-1.3
																C181.4,285.8,181.9,286.2,182,286.8z"/>
														</g>
													</g>
												</g>
											</g>
											<g>
												<g>
													<g>
														<g>
															<g>
																<path class="st1" d="M182,285.6c-0.1,0.2-1.1-0.5-2.4-0.4c-1.3,0.1-2.2,0.8-2.3,0.6c-0.1-0.1,0.1-0.4,0.5-0.7
																	c0.4-0.3,1.1-0.7,1.9-0.7c0.8,0,1.5,0.2,1.9,0.5C181.9,285.2,182,285.5,182,285.6z"/>
															</g>
														</g>
													</g>
												</g>
											</g>
										</g>
										<g>
											<g>
												<g>
													<g>
														<g>
															<path class="st1" d="M187.2,294.8c0-0.1,0.8-0.3,2.1-0.5c0.3-0.1,0.6-0.1,0.7-0.4c0.1-0.2-0.1-0.6-0.3-1
																c-0.4-0.8-0.7-1.6-1.1-2.5c-1.6-3.5-2.7-6.4-2.6-6.4c0.1-0.1,1.5,2.7,3.1,6.2c0.4,0.9,0.7,1.7,1.1,2.5
																c0.1,0.4,0.4,0.8,0.2,1.3c-0.1,0.3-0.3,0.4-0.5,0.5c-0.2,0.1-0.4,0.1-0.6,0.1C188.1,294.9,187.2,294.9,187.2,294.8z"
																/>
														</g>
													</g>
												</g>
											</g>
										</g>
										<g>
											<g>
												<g>
													<g>
														<path class="st15" d="M189.1,310.3c0,0-6.4,0.6-12.8-2.8c0,0,3.5,6.7,12.9,5.5L189.1,310.3z"/>
													</g>
												</g>
											</g>
										</g>
									</g>
								</g>
							</g>
						</g>
					</g>
					<g>
						<g>
							<g>
								<path class="st1" d="M177.7,282c0.2,0.2,1.1-0.2,2.3-0.4c1.2-0.3,2.2-0.3,2.2-0.6c0.1-0.3-1.1-0.7-2.4-0.3
									C178.4,280.9,177.6,281.8,177.7,282z"/>
							</g>
						</g>
					</g>
					<g>
						<g>
							<g>
								<path class="st1" d="M190.5,279.6c0.1,0.3,1.1,0.2,2.4,0.2c1.3,0,2.3,0.1,2.4-0.2c0.1-0.2-1-0.8-2.4-0.8
									C191.5,278.9,190.4,279.4,190.5,279.6z"/>
							</g>
						</g>
					</g>
				</g>
				<g>
					<g>
						<path class="st1" d="M169.6,318.6c-0.1-1.9,2.1-10.4,2.9-15.5c0.9-5.2-2.5-6-3.1-9.1c-0.5-3,1-6,1-6c4.9,1.8,6.9-1.7,9.6-3.8
							c2.9-2.2,3.5-4.9,4.7-8.4c1.2-3.4,2.5-5.6,6.1-5.9c0,0,3.5,1.8,4.8,5.5c1.1,3.2,2,15.7,2,15.7c0.5-6,5.4-8.5,4.1-17.4
							c-0.6-3.8-3.7-9-8.6-9.8c-1.4-0.2-4.1-0.4-4.1-0.4c-2.9-2.6-4.3-2.5-7.1-3.8c-6-2.7-13.3,2.1-17.3,7.3
							c-3.1,4-4.6,9.5-5.4,14.6c-0.6,3.5-0.6,7.2-0.2,10.7c0.2,2.1-0.1,4.8-2.2,6.5c-3,2.3-3.8,6.8-1.7,12.7c2.1,5.9-5.6,16-5.6,16
							s3.7-3,6.8-4.6C159.5,321.5,169.6,318.6,169.6,318.6z"/>
					</g>
				</g>
				<g>
					<g>
						<g>
							<g>
								<g>
									<path class="st15" d="M185.7,297.9c-0.4-0.5-1.1-0.7-1.8-0.6c-0.5,0.1-0.9,0.3-1.2,0.7c-0.3,0.4-0.3,0.9,0,1.3
										c0.3,0.4,0.9,0.4,1.4,0.2c0.5-0.2,0.9-0.6,1.3-0.9c0.1-0.1,0.2-0.2,0.3-0.3C185.8,298.2,185.8,298.1,185.7,297.9"/>
								</g>
							</g>
						</g>
					</g>
					<g>
						<g>
							<g>
								<g>
									<g>
										<path class="st1" d="M182.8,296.3c0.2,0,0.3,1.1,1.3,1.9c1.1,0.8,2.3,0.5,2.3,0.7c0,0.1-0.3,0.2-0.8,0.3
											c-0.5,0.1-1.3-0.1-1.9-0.5c-0.6-0.5-1-1.1-1-1.6C182.7,296.6,182.8,296.3,182.8,296.3z"/>
									</g>
								</g>
							</g>
						</g>
					</g>
				</g>
			</g>
			<g>
				<g>
					<path class="st1" d="M142.1,293.6c0,0,0,0.5,0.1,1.3c0.1,0.4,0.2,0.9,0.5,1.4c0.3,0.5,0.7,1,1.4,1.4c0.6,0.3,1.5,0.5,2.3,0.1
						c0.8-0.3,1.3-1.2,1.5-2.1c0.2-1,0.2-2,0.2-3.1c0-1.1-0.1-2.2-0.1-3.4c0-2.3,0.3-4.6,1.3-6.4c0.9-1.8,2.5-3.1,4-3.4
						c1.5-0.4,2.8-0.1,3.6,0.3c0.8,0.4,1,0.8,1,0.8c0,0-0.3-0.3-1.1-0.7c-0.8-0.3-2-0.6-3.5-0.2c-1.4,0.4-2.9,1.6-3.8,3.4
						c-0.9,1.8-1.2,4-1.2,6.3c0,1.2,0.1,2.3,0.1,3.4c0,1.1,0.1,2.2-0.2,3.2c-0.2,1-0.8,1.9-1.7,2.3c-0.9,0.4-1.8,0.2-2.5-0.2
						c-0.7-0.4-1.2-0.9-1.5-1.5c-0.3-0.5-0.4-1.1-0.5-1.5C141.9,294.1,142.1,293.6,142.1,293.6z"/>
				</g>
			</g>
		</g>
		<g>
			<g>
				<path class="st4" d="M155.8,313.9c0,0-0.2-0.1-0.5-0.5c-0.3-0.4-0.6-1-0.7-1.9c-0.1-0.9,0-2,0.5-3.1c0.5-1.1,1.5-2.2,2.6-3.3
					c1.1-1.1,2.4-2.2,3.4-3.7c1-1.5,1.3-3.5,1.2-5.5c-0.1-2-0.6-4.1-0.5-6.4c0.1-1.1,0.3-2.3,0.8-3.3c0.5-1.1,1.4-2,2.4-2.5
					c2.1-1.2,4.4-1.5,6.4-2.6c1.9-1,3.2-2.9,4.1-4.7c0.9-1.8,1.6-3.6,2.4-5.3c0.8-1.6,1.9-3,3.2-4c1.2-0.9,2.7-1.4,3.9-1.3
					c1.3,0.1,2.3,0.6,2.9,1.2c0.7,0.6,1,1.2,1.1,1.6c0.1,0.2,0.1,0.4,0.1,0.5c0,0.1,0,0.2,0,0.2c0,0,0-0.2-0.2-0.7
					c-0.2-0.4-0.5-1-1.1-1.6c-0.6-0.5-1.6-1-2.8-1.1c-1.2-0.1-2.6,0.4-3.8,1.3c-1.2,0.9-2.2,2.3-3.1,3.9c-0.8,1.6-1.5,3.4-2.4,5.3
					c-0.9,1.8-2.2,3.7-4.2,4.8c-2,1.1-4.3,1.4-6.4,2.6c-1,0.6-1.8,1.4-2.3,2.4c-0.5,1-0.7,2.1-0.8,3.2c-0.1,2.2,0.4,4.3,0.5,6.4
					c0.1,2-0.2,4.1-1.2,5.6c-1,1.5-2.4,2.6-3.5,3.7c-1.1,1.1-2,2.1-2.6,3.2c-0.6,1.1-0.7,2.2-0.6,3
					C155,313.3,155.9,313.9,155.8,313.9z"/>
			</g>
		</g>
		<g>
			<g>
				<path class="st8" d="M158.3,285.6c-0.1,0.1-0.7-1.3-0.4-3c0.4-1.7,1.5-2.8,1.5-2.6c0.1,0.1-0.7,1.2-1,2.7
					C158.1,284.2,158.5,285.5,158.3,285.6z"/>
			</g>
		</g>
	</g>
	<g>
		<path class="st1" d="M161.6,314.4c-0.7,5,0.3,10.2,2.9,14.5c0.9,1.5,2.1,3,3.6,3.9c1.5,1,3.5,1.4,5.1,0.7c1.7-0.6,2.9-2.4,2.7-4.2
			c-0.4-2.5-3.5-4.1-3.5-6.6c1.1,0.7,2.6,1.3,3.6,0.5c0.7-0.6,0.7-1.6,0.4-2.5s-1-1.5-1.5-2.2c-2.3-2.9-3.3-6.7-2.7-10.4
			c0.2-1,0.4-4.1,0.4-5.2c0-1-0.3,0-1-0.7c-0.8-0.7-1.9-0.8-2.9-0.5c-1,0.3-1.8,0.9-2.5,1.6c-2.4,2.3-3.7,5.6-3.5,8.9"/>
	</g>
</g>
<g>
	<g>
		<g>
			<g>
				<path class="st1" d="M353.3,98.4c0,0-0.1-0.2-0.2-0.6c-0.1-0.4-0.3-1.1-0.4-1.9c-0.1-0.4-0.2-0.9-0.3-1.4
					c-0.2-0.5-0.4-1-0.6-1.6c-0.2-0.6-0.4-1.2-0.7-1.9c-0.3-0.6-0.6-1.3-0.9-2.1c-1.4-2.9-3.4-6.3-6.6-9.5
					c-3.1-3.3-7.4-6.4-12.7-8.6c-0.7-0.3-1.3-0.5-2-0.8c-0.7-0.2-1.4-0.4-2.1-0.6c-1.4-0.5-2.9-0.7-4.5-0.9c-3.1-0.4-6.3-0.5-9.7,0
					c-1.7,0.1-3.3,0.6-5,1c-0.8,0.2-1.7,0.5-2.5,0.8l-1.3,0.4c-0.4,0.2-0.8,0.4-1.2,0.5c-3.3,1.3-6.4,3.4-9.3,5.8
					c-5.8,4.8-10.1,11.9-11.9,19.9c-0.9,4-1,8.2-0.5,12.4c0.5,4.2,1.8,8.4,3.8,12.2c0.3,0.5,0.5,1,0.8,1.5l0.1,0.1l0,0.1
					c-1.9,6.6-3.8,13.1-5.6,19.4l-0.4-0.3c5.3-2.9,10.5-5.7,15.5-8.4l0.1-0.1l0.1,0.1c5.1,3.8,10.9,6,16.7,6.8
					c2.9,0.4,5.7,0.4,8.5,0.2c1.4-0.1,2.7-0.3,4-0.7c0.7-0.1,1.3-0.3,2-0.4c0.6-0.1,1.3-0.4,1.9-0.6c5-1.6,9.3-4.2,12.7-7.3
					c3.4-3,6-6.5,7.9-9.8c0.4-0.9,0.9-1.7,1.3-2.5c0.3-0.8,0.7-1.7,1-2.5c0.4-0.8,0.5-1.6,0.8-2.4c0.2-0.8,0.5-1.5,0.6-2.3
					c0.6-3,0.9-5.5,0.9-7.6c0-1,0-2,0-2.8c-0.1-0.8-0.2-1.5-0.2-2c-0.1-0.5-0.1-0.9-0.1-1.2C353.3,98.5,353.3,98.4,353.3,98.4
					s0,0.1,0.1,0.4c0,0.3,0.1,0.7,0.2,1.2c0.1,0.6,0.2,1.2,0.3,2c0,0.8,0,1.7,0.1,2.8c0,2.1-0.2,4.7-0.8,7.7
					c-0.1,0.8-0.4,1.5-0.6,2.3c-0.2,0.8-0.4,1.6-0.8,2.4c-0.3,0.8-0.6,1.6-1,2.5c-0.4,0.8-0.8,1.7-1.3,2.5c-1.9,3.4-4.5,6.9-7.9,10
					c-3.5,3.1-7.8,5.7-12.8,7.4c-0.6,0.2-1.3,0.5-1.9,0.6c-0.7,0.1-1.3,0.3-2,0.4c-1.3,0.3-2.7,0.5-4.1,0.7
					c-2.8,0.3-5.7,0.2-8.6-0.1c-5.8-0.8-11.8-3.1-16.9-6.9l0.3,0c-5,2.7-10.1,5.5-15.5,8.4l-0.5,0.3l0.2-0.6
					c1.8-6.3,3.7-12.8,5.6-19.4l0,0.2c-0.3-0.5-0.6-1-0.8-1.5c-2-3.9-3.4-8.1-3.9-12.4c-0.6-4.2-0.4-8.5,0.5-12.6
					c1.8-8.1,6.2-15.3,12.1-20.2c2.9-2.5,6.1-4.5,9.4-5.9c0.4-0.2,0.8-0.4,1.2-0.5c0.4-0.1,0.8-0.3,1.3-0.4c0.8-0.3,1.7-0.6,2.5-0.8
					c1.7-0.4,3.4-0.8,5.1-1c3.4-0.5,6.7-0.3,9.8,0.1c1.5,0.3,3.1,0.5,4.5,1c0.7,0.2,1.4,0.4,2.1,0.6c0.7,0.3,1.4,0.5,2,0.8
					c5.3,2.2,9.6,5.4,12.7,8.7c3.2,3.3,5.2,6.8,6.5,9.7c0.3,0.7,0.6,1.4,0.9,2.1c0.3,0.7,0.4,1.3,0.6,1.9c0.2,0.6,0.4,1.1,0.5,1.6
					c0.2,0.5,0.2,1,0.3,1.4c0.2,0.8,0.3,1.4,0.4,1.9C353.2,98.1,353.3,98.4,353.3,98.4z"/>
			</g>
		</g>
	</g>
	<g>
		<g>
			<polygon class="st16" points="323.7,87.4 339,117.2 308.3,128.1 301.6,95.2 			"/>
		</g>
		<g>
			<g>
				<path class="st5" d="M305.7,98.9c0.1-0.1,0.8,1.2,2.6,2.4c0.9,0.6,2.1,1.2,3.5,1.4c1.4,0.2,3,0.1,4.6-0.5
					c1.6-0.5,2.9-1.4,3.9-2.4c1-1,1.5-2.3,1.8-3.3c0.5-2.1,0.2-3.5,0.3-3.5c0,0,0.1,0.3,0.2,1c0.1,0.6,0.1,1.5-0.2,2.7
					c-0.2,1.1-0.8,2.4-1.8,3.5c-1,1.1-2.5,2-4.1,2.6c-1.6,0.6-3.3,0.7-4.8,0.5c-1.5-0.3-2.7-0.9-3.6-1.6c-0.9-0.7-1.5-1.4-1.9-1.9
					C305.9,99.2,305.7,98.9,305.7,98.9z"/>
			</g>
		</g>
	</g>
</g>
</svg>
