<?xml version="1.0" encoding="utf-8"?>
<!-- Generator: Adobe Illustrator 24.0.0, SVG Export Plug-In . SVG Version: 6.00 Build 0)  -->
<svg version="1.1" id="Livello_1" xmlns="http://www.w3.org/2000/svg" xmlns:xlink="http://www.w3.org/1999/xlink" x="0px" y="0px"
	 viewBox="0 0 400 460" style="enable-background:new 0 0 400 460;" xml:space="preserve">
<style type="text/css">
	.st0{fill:#EBEBEB;}
	.st1{fill:#E0E0E0;}
	.st2{fill:#F5F5F5;}
	.st3{fill:#263238;}
	.st4{fill:#64A1FF;}
	.st5{fill:#D278F2;}
	.st6{opacity:0.3;}
	.st7{fill:#FFBF9D;}
	.st8{fill:#FF9A6C;}
	.st9{fill:#455A64;}
	.st10{opacity:0.6;}
	.st11{fill:#FFFFFF;}
	.st12{fill:#FCC989;}
</style>
<g>
	<path class="st0" d="M360.5,104.9c-2.3-7.7-9.3-13.6-17.2-15.3s-16.3,0.6-22.9,5.3c-2.9,2-5.6,4.6-9.1,5.2
		c-2.8,0.5-5.7-0.3-8.5-0.2c-7.4,0.3-13.3,7-15.2,14.2c-1.9,7.2-0.6,14.8,0.6,22.1l13.1,1.9c-2.1-2.8-0.3-7.1,2.7-8.9
		c3-1.8,6.8-1.7,10.3-1.6c6.8,0.3,13.7,0.5,20.5,0.8c6,0.2,12.4,0.4,17.7-2.6C359.5,121.9,362.7,112.7,360.5,104.9z"/>
</g>
<g>
	<path class="st0" d="M372.6,74.4c-1.8-2.6-6.4-4.4-9.5-1.9c-2.2,2.2-2.6,6.1-0.7,8.7s5.8,3.3,8.5,1.5C373.6,81,374.4,77,372.6,74.4
		z"/>
</g>
<g>
	<path class="st0" d="M283.3,79.2c-3.1-4.5-10.9-7.6-16.3-3.2c-3.8,3.9-4.4,10.6-1.2,14.9c3.3,4.4,10,5.6,14.6,2.6
		C285,90.5,286.5,83.6,283.3,79.2z"/>
</g>
<g>
	<g>
		<g>
			<g>
				<g>
					<g>
						<path class="st0" d="M331,348.7c-14.9-9.9-18.7-28.8-18.5-45.9c0-2.9-0.4-5.8,0.9-8.4c1.3-2.5,4.4-4.3,7-3.2
							c2.1,0.9,3.1,3.4,4.4,5.4c1.6,2.7,4,4.9,6.8,6.2c1.8,0.9,4.1,1.4,5.9,0.4c2.4-1.4,2.6-4.8,2.5-7.7c-0.2-5.3-0.3-10.6-0.5-15.8
							c-0.1-2.8-0.2-5.7,0.7-8.4c0.8-2.7,2.7-5.3,5.4-6.1c2.7-0.8,6,0.7,6.7,3.4c0.3,1.1,0.1,2.4,0.2,3.5c0.1,1.2,0.7,2.5,1.8,2.8
							c1.1,0.3,2.3-0.5,3.1-1.4c2.9-2.9,4.8-6.7,6.5-10.4c1.8-3.7,3.5-7.5,6.1-10.7c2.6-3.2,6.2-5.7,10.2-6.1c4.1-0.3,8.4,2.1,9.6,6
							c1.1,4-1.1,8.1-3.6,11.4c-3.6,4.9-8,9.2-12.9,12.9c-0.9,0.7-1.8,1.4-2.1,2.4c-0.6,1.9,1.3,3.7,3.1,4.3
							c2.1,0.7,4.4,0.4,6.6,0.6c2.2,0.2,4.6,1.1,5.5,3.2c1.2,2.9-1.1,6-3.5,8c-4.7,4.1-10,7.4-15.8,9.6c-2.1,0.8-4.2,1.5-5.9,3
							c-1.6,1.5-2.6,4.1-1.5,6c1.1,2,3.7,2.5,5.9,2.1c2.2-0.5,4.1-1.7,6.2-2.5c3.9-1.6,8.9-1.4,11.5,1.9c1.7,2.2,1.9,5.2,1.1,7.9
							c-0.8,2.7-2.4,5-4.1,7.1c-6.1,7.5-13.9,13.6-22.9,16.9C348.4,350.7,340.1,351.8,331,348.7"/>
					</g>
				</g>
			</g>
		</g>
	</g>
	<g>
		<g>
			<g>
				<g>
					<g>
						<g>
							<path class="st1" d="M335.2,337.9c2.3-8.7,5.6-18,9.4-27.6c1-2.4,1.9-4.8,2.8-7.1c0.9-2.3,1.9-4.6,2.9-6.8
								c2.1-4.4,4.4-8.5,6.8-12.3c2.3-3.8,4.7-7.3,6.9-10.6c2.2-3.3,4.4-6.3,6.4-9c4.1-5.4,8-9.3,10.7-11.9c1.4-1.3,2.5-2.3,3.2-2.9
								c0.4-0.3,0.6-0.6,0.9-0.7c0.2-0.2,0.3-0.2,0.3-0.2c0,0-0.1,0.1-0.3,0.3c-0.2,0.2-0.5,0.4-0.8,0.8c-0.7,0.7-1.8,1.7-3.1,3
								c-2.7,2.6-6.5,6.6-10.5,11.9c-2,2.7-4.2,5.7-6.4,9c-2.2,3.3-4.5,6.8-6.9,10.6c-2.3,3.8-4.6,7.9-6.7,12.3
								c-1,2.2-2,4.5-2.9,6.8c-0.9,2.3-1.9,4.7-2.8,7.1c-3.8,9.6-7.1,18.9-9.4,27.5"/>
						</g>
					</g>
				</g>
			</g>
		</g>
	</g>
	<g>
		<g>
			<g>
				<g>
					<g>
						<g>
							<path class="st1" d="M350.5,296.4c0,0-0.1-0.4-0.3-1.2c-0.2-0.8-0.4-1.9-0.6-3.3c-0.5-2.8-1-6.7-1.5-11
								c-0.6-4.3-1.1-8.2-1.6-11c-0.3-1.4-0.5-2.5-0.6-3.3c-0.2-0.8-0.2-1.2-0.2-1.2c0,0,0.2,0.4,0.4,1.2c0.2,0.8,0.5,1.9,0.8,3.3
								c0.6,2.8,1.2,6.7,1.8,11c0.5,4.3,1,8.1,1.4,11c0.2,1.3,0.3,2.4,0.4,3.3C350.5,295.9,350.5,296.4,350.5,296.4z"/>
						</g>
					</g>
				</g>
			</g>
		</g>
	</g>
	<g>
		<g>
			<g>
				<g>
					<g>
						<g>
							<path class="st1" d="M386.8,288.7c0,0-0.5,0.1-1.4,0.2c-0.9,0.1-2.3,0.3-3.9,0.5c-3.3,0.4-7.9,1.2-12.9,2.3
								c-5,1.1-9.5,2.2-12.7,3.2c-1.6,0.5-2.9,0.9-3.8,1.1c-0.9,0.3-1.4,0.4-1.4,0.4c0,0,0.5-0.2,1.3-0.6c0.9-0.3,2.2-0.8,3.8-1.3
								c3.2-1,7.7-2.3,12.7-3.3c5-1.1,9.6-1.8,13-2.1c1.7-0.2,3-0.3,4-0.3C386.2,288.6,386.8,288.6,386.8,288.7z"/>
						</g>
					</g>
				</g>
			</g>
		</g>
	</g>
	<g>
		<g>
			<g>
				<g>
					<g>
						<g>
							<path class="st1" d="M335.6,337.2c0,0-0.1-0.1-0.3-0.4c-0.2-0.4-0.4-0.8-0.7-1.3c-0.6-1.1-1.3-2.8-2.3-4.9
								c-1.9-4.1-4.2-9.9-6.8-16.3c-2.6-6.4-4.9-12.2-6.6-16.4c-0.9-2-1.6-3.7-2.1-4.9c-0.2-0.5-0.4-1-0.6-1.3
								c-0.1-0.3-0.2-0.5-0.2-0.5c0,0,0.1,0.1,0.3,0.4c0.2,0.4,0.4,0.8,0.7,1.3c0.6,1.1,1.3,2.8,2.3,4.9c1.9,4.1,4.2,9.9,6.8,16.3
								c2.5,6.4,4.9,12.2,6.6,16.4c0.9,2,1.6,3.7,2.1,4.9c0.2,0.5,0.4,1,0.6,1.3C335.6,337,335.6,337.2,335.6,337.2z"/>
						</g>
					</g>
				</g>
			</g>
		</g>
	</g>
	<g>
		<g>
			<g>
				<g>
					<g>
						<g>
							<path class="st1" d="M383.6,320.4c0,0-0.2,0.1-0.5,0.2c-0.4,0.1-0.8,0.3-1.4,0.5c-1.3,0.5-3,1.1-5.1,1.8
								c-4.3,1.5-10.3,3.7-16.9,6.1c-6.6,2.4-12.6,4.5-17,6c-2.2,0.7-4,1.3-5.2,1.6c-0.6,0.2-1,0.3-1.4,0.4
								c-0.3,0.1-0.5,0.1-0.5,0.1c0,0,0.2-0.1,0.5-0.2c0.4-0.1,0.8-0.3,1.4-0.5c1.3-0.5,3-1.1,5.1-1.8c4.3-1.5,10.3-3.7,16.9-6.1
								c6.6-2.4,12.6-4.5,17-6c2.2-0.7,4-1.3,5.2-1.6c0.6-0.2,1-0.3,1.4-0.4C383.5,320.5,383.6,320.4,383.6,320.4z"/>
						</g>
					</g>
				</g>
			</g>
		</g>
	</g>
</g>
<g>
	<g>
		<g>
			<path class="st0" d="M14.2,255.6c0,0-6.4,3.1,2.1,16.5c8.5,13.4,14.2,20,14.2,20s1.6,3.2-1.1,3.9c-2.7,0.8-8.9,0.4-9.8,3.9
				c-0.9,3.6,1.9,6.7,7.3,9.1c5.4,2.4,17.1,8.1,18.2,8.7c1,0.5,2.2,1.9,0.4,2.8c-1.8,0.8-15.3,3.5-13.6,9.9
				c1.7,6.3,17.9,10.6,19.7,11.1c1.8,0.5,2.2,1.2,2.2,2.1c-0.1,0.9-4.7,1.4-8.5,2.4c-3.8,0.9-8.1,2.7-6.8,6.2
				c1.3,3.6,11.3,10.4,34.1,10.5L83,362l4.9-9.4c9.3-20.8,7.1-32.7,4.4-35.4c-2.7-2.6-6.1,0.5-8.5,3.6c-2.4,3.1-4.7,7.1-5.6,6.8
				c-0.9-0.3-1.3-1.1-1-2.9c0.3-1.8,3.1-18.3-2-22.5c-5.1-4.1-13.1,7.1-14.6,8.4c-1.5,1.3-2.3-0.3-2.4-1.5c0-1.2-0.5-14.2-0.4-20.1
				c0-5.9-1.6-9.8-5.3-10.4c-3.6-0.6-5.7,5.2-7.5,7.3c-1.8,2.2-4-0.6-4-0.6s-3.6-7.8-12.4-21.1c-8.8-13.3-14.3-8.6-14.3-8.6"/>
		</g>
	</g>
	<g>
		<g>
			<g>
				<path class="st1" d="M83.7,364.4c-6.4-9.8-17.5-27.4-27.1-42.4c-9.6-15-18.3-28.6-24.6-38.5c-3.2-4.9-5.7-8.9-7.5-11.6
					c-0.9-1.4-1.6-2.4-2-3.2c-0.2-0.4-0.4-0.6-0.5-0.8c-0.1-0.2-0.2-0.3-0.2-0.3s0.1,0.1,0.2,0.3c0.1,0.2,0.3,0.5,0.6,0.8
					c0.5,0.7,1.2,1.8,2.1,3.1c1.8,2.7,4.4,6.7,7.6,11.6c6.4,9.8,15.1,23.4,24.7,38.4c9.6,15,20.6,32.6,27,42.5"/>
			</g>
		</g>
	</g>
	<g>
		<g>
			<g>
				<path class="st1" d="M28.2,300.8c0,0,0.3,0,0.8,0.1c0.5,0.1,1.2,0.3,2,0.5c1.7,0.4,4,1.1,6.6,1.9c2.5,0.8,4.8,1.5,6.5,2.1
					c0.8,0.2,1.5,0.4,2,0.6c0.5,0.1,0.7,0.2,0.7,0.3c0,0-0.3,0-0.8-0.1c-0.5-0.1-1.2-0.3-2-0.5c-1.7-0.5-4-1.2-6.6-2
					c-2.5-0.8-4.8-1.5-6.6-2c-0.8-0.2-1.5-0.4-2-0.6C28.4,300.9,28.2,300.8,28.2,300.8z"/>
			</g>
		</g>
	</g>
	<g>
		<g>
			<g>
				<path class="st1" d="M47.4,305.5c-0.1,0,1.1-4.9,2.7-10.9c1.6-6,2.9-10.8,3-10.8c0.1,0-1.1,4.9-2.7,10.9
					C48.8,300.7,47.5,305.6,47.4,305.5z"/>
			</g>
		</g>
	</g>
	<g>
		<g>
			<g>
				<path class="st1" d="M61.1,329.3c0,0,0.1-0.3,0.4-0.7c0.3-0.5,0.7-1.1,1.1-1.8c0.9-1.5,2.2-3.7,3.5-6.1c1.3-2.4,2.4-4.6,3.2-6.2
					c0.4-0.8,0.7-1.4,0.9-1.9c0.2-0.4,0.4-0.7,0.4-0.7c0,0-0.1,0.3-0.3,0.7c-0.2,0.5-0.5,1.1-0.8,2c-0.7,1.6-1.8,3.9-3.1,6.3
					c-1.3,2.4-2.6,4.5-3.6,6c-0.5,0.8-0.9,1.4-1.2,1.8C61.3,329.1,61.1,329.3,61.1,329.3z"/>
			</g>
		</g>
	</g>
	<g>
		<g>
			<g>
				<path class="st1" d="M42.7,328.8c0,0,0.3,0,0.7-0.1c0.5,0,1.2,0,2,0c1.7,0,3.9,0,6.5,0c2.5,0,4.8,0.1,6.5,0.1
					c0.8,0,1.4,0.1,2,0.1c0.5,0,0.7,0.1,0.7,0.1c0,0-0.3,0-0.7,0.1c-0.5,0-1.2,0-2,0c-1.7,0-3.9,0-6.5,0c-2.5,0-4.8-0.1-6.5-0.1
					c-0.8,0-1.4-0.1-2-0.1C43,328.9,42.7,328.9,42.7,328.8z"/>
			</g>
		</g>
	</g>
	<g>
		<g>
			<g>
				<path class="st1" d="M52.1,351.3c0,0,0.3,0,0.9-0.1c0.7,0,1.5,0,2.5,0c2.1,0,5.1,0,8.3,0c3.2,0,6.2,0,8.3,0.1c1,0,1.9,0,2.5,0.1
					c0.6,0,0.9,0,0.9,0.1c0,0-0.3,0-0.9,0.1c-0.7,0-1.5,0-2.5,0c-2.1,0-5.1,0-8.3,0c-3.2,0-6.2,0-8.3-0.1c-1,0-1.9,0-2.5-0.1
					C52.5,351.4,52.1,351.4,52.1,351.3z"/>
			</g>
		</g>
	</g>
	<g>
		<g>
			<g>
				<path class="st1" d="M75,351.3c0,0,0.1-0.3,0.4-0.9c0.3-0.6,0.8-1.4,1.3-2.4c1.1-2,2.6-4.8,4.2-7.8c1.6-3.1,2.9-5.9,3.9-8
					c0.5-1,0.8-1.8,1.1-2.4c0.3-0.6,0.4-0.9,0.5-0.9c0,0-0.1,0.3-0.3,0.9c-0.2,0.6-0.6,1.4-1,2.5c-0.9,2.1-2.2,4.9-3.8,8
					c-1.6,3.1-3.1,5.8-4.2,7.8c-0.6,1-1,1.8-1.4,2.3C75.3,351,75.1,351.3,75,351.3z"/>
			</g>
		</g>
	</g>
</g>
<g>
	<path class="st0" d="M124.4,205.9c-3.4-1.3-7-4.2-8.9-7.3c-1-1.7-1.8-3.8-1.5-5.8c0.3-2,1.9-3.9,4-4c1.4-0.1,2.7,0.7,3.7,1.7
		c0.9,1,1.6,2.3,2.2,3.5c0.3-2,1.5-4,3.3-4.8s4.3-0.2,5.4,1.5c1.2,1.8,0.8,4.3-0.2,5.9c-1,1.6-2.5,3-3.8,4.3
		C126.8,202.8,124.4,204.2,124.4,205.9"/>
</g>
<g>
	<path class="st2" d="M372.6,182.2c-2.3-0.9-4.9-2.9-6.2-5.1c-0.7-1.2-1.2-2.6-1-4c0.2-1.4,1.3-2.7,2.8-2.8c1,0,1.9,0.5,2.5,1.2
		c0.7,0.7,1.1,1.6,1.5,2.4c0.2-1.4,1-2.8,2.3-3.4c1.3-0.6,3-0.1,3.7,1.1c0.8,1.2,0.6,3-0.1,4.1c-0.7,1.1-1.7,2.1-2.7,3
		C374.3,180,372.6,181,372.6,182.2"/>
</g>
<g>
	<path class="st0" d="M218.8,160c-2.1-0.8-4.4-2.6-5.5-4.6c-0.7-1.1-1.1-2.4-0.9-3.6c0.2-1.3,1.2-2.4,2.5-2.5c0.9,0,1.7,0.4,2.3,1.1
		c0.6,0.6,1,1.4,1.4,2.2c0.2-1.3,0.9-2.5,2.1-3c1.2-0.5,2.7-0.1,3.4,1c0.7,1.1,0.5,2.7-0.1,3.7c-0.6,1-1.6,1.9-2.4,2.7
		C220.3,158.1,218.8,158.9,218.8,160"/>
</g>
<g>
	<path class="st2" d="M29.3,179.6c-3.7-1.5-7.9-4.7-9.9-8.2c-1.2-1.9-2-4.2-1.6-6.5c0.4-2.2,2.2-4.3,4.4-4.5c1.6-0.1,3,0.8,4.1,1.9
		c1.1,1.1,1.8,2.6,2.4,4c0.3-2.3,1.6-4.5,3.7-5.4s4.8-0.2,6,1.7c1.3,2,0.9,4.8-0.2,6.6c-1.1,1.8-2.8,3.4-4.3,4.8
		C32.1,176.1,29.3,177.6,29.3,179.6"/>
</g>
<g>
	<path class="st0" d="M292.7,217c-3.2-1.3-6.7-4-8.5-7c-1-1.7-1.7-3.6-1.4-5.5c0.3-1.9,1.9-3.7,3.8-3.8c1.3-0.1,2.6,0.7,3.5,1.6
		c0.9,1,1.5,2.2,2.1,3.4c0.2-1.9,1.4-3.8,3.2-4.6c1.8-0.8,4.1-0.2,5.2,1.5c1.1,1.7,0.8,4.1-0.2,5.6c-1,1.5-2.4,2.9-3.7,4.1
		C295,214,292.7,215.4,292.7,217"/>
</g>
<g>
	<g>
		<g>
			<g>
				<g>
					<g>
						<g>
							<path class="st0" d="M35.9,108.8l0.9,1.6c1,1.8,2.4,3.3,4.2,4.2l1.6,0.9l-1.6,0.9c-1.8,1-3.3,2.4-4.2,4.2l-0.9,1.6l-0.9-1.6
								c-1-1.8-2.4-3.3-4.2-4.2l-1.6-0.9l1.6-0.9c1.8-1,3.3-2.4,4.2-4.2L35.9,108.8z"/>
						</g>
					</g>
				</g>
			</g>
		</g>
	</g>
</g>
<g>
	<g>
		<g>
			<g>
				<g>
					<g>
						<g>
							<path class="st0" d="M301.7,53.3l0.9,1.6c1,1.8,2.4,3.3,4.2,4.2l1.6,0.9l-1.6,0.9c-1.8,1-3.3,2.4-4.2,4.2l-0.9,1.6l-0.9-1.6
								c-1-1.8-2.4-3.3-4.2-4.2L295,60l1.6-0.9c1.8-1,3.3-2.4,4.2-4.2L301.7,53.3z"/>
						</g>
					</g>
				</g>
			</g>
		</g>
	</g>
</g>
<g>
	<g>
		<g>
			<g>
				<g>
					<g>
						<g>
							<path class="st0" d="M78.1,118.9l1.3,2.3c1.4,2.6,3.5,4.7,6.1,6.1l2.3,1.3l-2.3,1.3c-2.6,1.4-4.7,3.5-6.1,6.1l-1.3,2.3
								l-1.3-2.3c-1.4-2.6-3.5-4.7-6.1-6.1l-2.3-1.3l2.3-1.3c2.6-1.4,4.7-3.5,6.1-6.1L78.1,118.9z"/>
						</g>
					</g>
				</g>
			</g>
		</g>
	</g>
</g>
<g>
	<g>
		<g>
			<g>
				<g>
					<g>
						<g>
							<path class="st2" d="M71.5,66l0.5,0.9c0.5,1,1.3,1.8,2.3,2.3l0.9,0.5l-0.9,0.5c-1,0.5-1.8,1.3-2.3,2.3l-0.5,0.9L71,72.4
								c-0.5-1-1.3-1.8-2.3-2.3l-0.9-0.5l0.9-0.5c1-0.5,1.8-1.3,2.3-2.3L71.5,66z"/>
						</g>
					</g>
				</g>
			</g>
		</g>
	</g>
</g>
<g>
	<g>
		<g>
			<g>
				<g>
					<g>
						<g>
							<path class="st2" d="M323.9,42.1l0.5,0.9c0.5,1,1.3,1.8,2.3,2.3l0.9,0.5l-0.9,0.5c-1,0.5-1.8,1.3-2.3,2.3l-0.5,0.9l-0.5-0.9
								c-0.5-1-1.3-1.8-2.3-2.3l-0.9-0.5l0.9-0.5c1-0.5,1.8-1.3,2.3-2.3L323.9,42.1z"/>
						</g>
					</g>
				</g>
			</g>
		</g>
	</g>
</g>
<g>
	<g>
		<g>
			<g>
				<g>
					<g>
						<g>
							<path class="st0" d="M147.7,65.3l0.9,1.6c1,1.8,2.4,3.3,4.2,4.2l1.6,0.9l-1.6,0.9c-1.8,1-3.3,2.4-4.2,4.2l-0.9,1.6l-0.9-1.6
								c-1-1.8-2.4-3.3-4.2-4.2L141,72l1.6-0.9c1.8-1,3.3-2.4,4.2-4.2L147.7,65.3z"/>
						</g>
					</g>
				</g>
			</g>
		</g>
	</g>
</g>
<g>
	<g>
		<g>
			<g>
				<g>
					<g>
						<g>
							<path class="st2" d="M169.9,54.1l0.5,0.9c0.5,1,1.3,1.8,2.3,2.3l0.9,0.5l-0.9,0.5c-1,0.5-1.8,1.3-2.3,2.3l-0.5,0.9l-0.5-0.9
								c-0.5-1-1.3-1.8-2.3-2.3l-0.9-0.5l0.9-0.5c1-0.5,1.8-1.3,2.3-2.3L169.9,54.1z"/>
						</g>
					</g>
				</g>
			</g>
		</g>
	</g>
</g>
<g>
	<g>
		<path class="st3" d="M394,365.5c0,0.1-87.2,0.2-194.7,0.2c-107.5,0-194.7-0.1-194.7-0.2s87.1-0.2,194.7-0.2
			C306.8,365.3,394,365.4,394,365.5z"/>
	</g>
</g>
<g>
	<g>
		<g>
			<polygon class="st4" points="279.3,169.9 279.3,140.3 312.5,140.3 312.5,202.7 			"/>
		</g>
		<g>
			<rect x="276" y="138.6" class="st4" width="38.9" height="12.9"/>
		</g>
		<g>
			<g>
				<path class="st3" d="M314.9,151.4c0,0.1-8.7,0.3-19.4,0.3c-10.7,0-19.4-0.1-19.4-0.3c0-0.1,8.7-0.3,19.4-0.3
					C306.2,151.2,314.9,151.3,314.9,151.4z"/>
			</g>
		</g>
	</g>
	<g>
		<g>
			<polygon class="st5" points="41.2,233.9 192.1,88.8 365.4,234.5 350.9,248.5 192.6,118.9 56.5,248.3 			"/>
		</g>
		<g class="st6">
			<polygon points="192.6,118.9 192.1,88.8 365.4,234.5 350.9,248.5 			"/>
		</g>
		<g>
			<g>
				<path class="st3" d="M192.6,118.9c0,0-0.1-0.4-0.1-1.2c0-0.9-0.1-1.9-0.1-3.2c-0.1-2.8-0.2-6.5-0.3-10.6
					c-0.1-4.2-0.2-7.9-0.2-10.7c0-1.4,0-2.5,0-3.2c0-0.8,0.1-1.2,0.1-1.2c0,0,0.1,0.4,0.1,1.2c0,0.9,0.1,1.9,0.1,3.2
					c0.1,2.8,0.2,6.5,0.3,10.6c0.1,4.2,0.2,7.9,0.2,10.6c0,1.4,0,2.5,0,3.2C192.6,118.5,192.6,118.9,192.6,118.9z"/>
			</g>
		</g>
	</g>
</g>
<g>
	<g>
		<g>
			<g>
				<g>
					<g>
						<path class="st3" d="M153.6,203.4c-1.3-2.9-2.7-5.8-3.3-8.9c-0.6-3.1-0.6-6.5,0.9-9.3c0.8-1.7,2.1-3.1,2.8-4.8
							c0.9-2.4,0.7-5.3,2.3-7.3c2.5-3.1,7.5-2.2,11.1-3.7c2.9-1.2,5-4,8-4.8c2.6-0.7,5.4,0.2,7.9,1.4c2.5,1.2,4.8,2.6,7.5,3.1
							c1.9,0.3,3.9,0.1,5.8,0.3c1.9,0.1,4,0.6,5.3,2.1c1.3,1.4,1.5,4,0,5.2c3.4-0.4,6.5,3.1,6.3,6.5c-0.2,3.4-2.9,6.4-6.1,7.7
							c-3.2,1.3-6.8,1.2-10.2,0.8c-9.7-1.2-19.3-5.3-25.6-12.7"/>
					</g>
				</g>
			</g>
			<g>
				<g>
					<g>
						<g>
							<g>
								<g>
									<g>
										<g>
											<g>
												<g>
													<g>
														<g>
															<g>
																<g>
																	<g>
																		<g>
																			<g>
																				<g>
																					<g>
																						<path class="st7" d="M156.2,191.3l-8.6,47.8c-1.5,8.1,1,20.9,10.2,21.9l0,0c9.8,1.1,16.6-1.8,18-9.3
																							c0.6-3.6,1.5-14.1,1.6-14.5c0,0,12.4,1,15.4-10.8c1.5-5.7,3.5-17.8,5.3-28.8c1.9-11.8-5.6-23-17.2-25.8
																							l-1.1-0.3C167.1,169.3,158.2,178.7,156.2,191.3z"/>
																					</g>
																				</g>
																			</g>
																		</g>
																	</g>
																</g>
															</g>
														</g>
													</g>
												</g>
											</g>
										</g>
										<g>
											<g>
												<g>
													<g>
														<g>
															<g>
																<g>
																	<g>
																		<g>
																			<g>
																				<g>
																					<g>
																						<path class="st8" d="M177.3,237.2c0,0-7.6-1.4-14.4-8.4c0,0,1.9,10.2,14,12L177.3,237.2z"/>
																					</g>
																				</g>
																			</g>
																		</g>
																	</g>
																</g>
															</g>
														</g>
													</g>
												</g>
											</g>
										</g>
									</g>
								</g>
							</g>
							<g>
								<g>
									<g>
										<g>
											<g>
												<g>
													<g>
														<g>
															<g>
																<g>
																	<g>
																		<g>
																			<g>
																				<g>
																					<g>
																						<g>
																							<g>
																								<g>
																									<path class="st3" d="M190.8,206c-0.2,0.9-1.1,1.5-2.1,1.3c-0.9-0.2-1.6-1.1-1.4-2c0.2-0.9,1.1-1.5,2.1-1.3
																										C190.4,204.2,191,205.1,190.8,206z"/>
																								</g>
																							</g>
																						</g>
																					</g>
																				</g>
																			</g>
																		</g>
																	</g>
																</g>
															</g>
														</g>
													</g>
													<g>
														<g>
															<g>
																<g>
																	<g>
																		<g>
																			<g>
																				<g>
																					<g>
																						<g>
																							<g>
																								<g>
																									<g>
																										<path class="st3" d="M194,202.9c-0.3,0.2-1.3-1.1-3.2-1.5c-1.8-0.5-3.4,0.1-3.5-0.1
																											c-0.1-0.1,0.2-0.5,0.9-0.8c0.7-0.3,1.8-0.5,2.9-0.2c1.1,0.3,2,0.9,2.4,1.5
																											C194.1,202.3,194.2,202.8,194,202.9z"/>
																									</g>
																								</g>
																							</g>
																						</g>
																					</g>
																				</g>
																			</g>
																		</g>
																	</g>
																</g>
															</g>
														</g>
													</g>
												</g>
												<g>
													<g>
														<g>
															<g>
																<g>
																	<g>
																		<g>
																			<g>
																				<g>
																					<g>
																						<g>
																							<g>
																								<g>
																									<path class="st3" d="M173.6,202.3c-0.2,0.9-1.1,1.5-2.1,1.3c-0.9-0.2-1.6-1.1-1.4-2
																										c0.2-0.9,1.1-1.5,2.1-1.3C173.2,200.5,173.8,201.4,173.6,202.3z"/>
																								</g>
																							</g>
																						</g>
																					</g>
																				</g>
																			</g>
																		</g>
																	</g>
																</g>
															</g>
														</g>
													</g>
													<g>
														<g>
															<g>
																<g>
																	<g>
																		<g>
																			<g>
																				<g>
																					<g>
																						<g>
																							<g>
																								<g>
																									<g>
																										<path class="st3" d="M176,198.8c-0.3,0.2-1.3-1.1-3.2-1.5c-1.8-0.5-3.4,0.1-3.5-0.1
																											c-0.1-0.1,0.2-0.5,0.9-0.8c0.7-0.3,1.8-0.5,2.9-0.2c1.1,0.3,2,0.9,2.4,1.5
																											C176,198.3,176.1,198.7,176,198.8z"/>
																									</g>
																								</g>
																							</g>
																						</g>
																					</g>
																				</g>
																			</g>
																		</g>
																	</g>
																</g>
															</g>
														</g>
													</g>
												</g>
												<g>
													<g>
														<g>
															<g>
																<g>
																	<g>
																		<g>
																			<g>
																				<g>
																					<g>
																						<g>
																							<g>
																								<g>
																									<path class="st3" d="M179.3,214c0-0.1,1.2,0,3.1,0.2c0.5,0.1,0.9,0.1,1.1-0.2c0.2-0.3,0.1-0.9,0-1.5
																										c-0.2-1.2-0.3-2.5-0.5-3.9c-0.7-5.5-1.1-10-0.8-10.1c0.2,0,1,4.4,1.6,10c0.2,1.4,0.3,2.7,0.5,3.9
																										c0,0.6,0.2,1.3-0.2,1.9c-0.2,0.3-0.6,0.5-0.9,0.5c-0.3,0-0.6,0-0.8-0.1C180.4,214.4,179.3,214.1,179.3,214
																										z"/>
																								</g>
																							</g>
																						</g>
																					</g>
																				</g>
																			</g>
																		</g>
																	</g>
																</g>
															</g>
														</g>
													</g>
												</g>
												<g>
													<g>
														<g>
															<g>
																<g>
																	<g>
																		<g>
																			<g>
																				<g>
																					<g>
																						<g>
																							<g>
																								<g>
																									<path class="st3" d="M173.6,214c0.3,0.1-0.2,2,1.2,3.9c1.4,1.8,3.5,2.1,3.5,2.4c0,0.1-0.6,0.3-1.5,0.1
																										c-0.9-0.2-2.1-0.8-2.9-1.9c-0.8-1.1-1-2.4-0.9-3.2C173.1,214.4,173.5,213.9,173.6,214z"/>
																								</g>
																							</g>
																						</g>
																					</g>
																				</g>
																			</g>
																		</g>
																	</g>
																</g>
															</g>
														</g>
													</g>
												</g>
											</g>
										</g>
									</g>
									<g>
										<g>
											<g>
												<g>
													<g>
														<g>
															<g>
																<g>
																	<g>
																		<g>
																			<g>
																				<g>
																					<path class="st3" d="M178.2,191.7c-0.3,0.5-2.1-0.2-4.3-0.5c-2.2-0.3-4.1-0.1-4.3-0.6c-0.1-0.2,0.3-0.6,1.2-1
																						c0.8-0.3,2-0.5,3.4-0.3c1.3,0.2,2.5,0.7,3.2,1.2C178,191,178.3,191.5,178.2,191.7z"/>
																				</g>
																			</g>
																		</g>
																	</g>
																</g>
															</g>
														</g>
													</g>
												</g>
											</g>
										</g>
									</g>
									<g>
										<g>
											<g>
												<g>
													<g>
														<g>
															<g>
																<g>
																	<g>
																		<g>
																			<g>
																				<g>
																					<path class="st3" d="M194.7,197.4c-0.4,0.3-1.6-0.4-3.1-0.8c-1.5-0.4-2.9-0.4-3.1-0.9
																						c-0.1-0.2,0.2-0.6,0.9-0.9c0.6-0.3,1.7-0.4,2.7-0.1c1,0.3,1.8,0.9,2.3,1.4
																						C194.8,196.7,194.8,197.2,194.7,197.4z"/>
																				</g>
																			</g>
																		</g>
																	</g>
																</g>
															</g>
														</g>
													</g>
												</g>
											</g>
										</g>
									</g>
								</g>
							</g>
						</g>
					</g>
				</g>
				<g>
					<g>
						<g>
							<g>
								<g>
									<g>
										<g>
											<g>
												<g>
													<g>
														<g>
															<g>
																<g>
																	<path class="st7" d="M155,200.4c-0.2-0.1-7.6-4.4-9.3,3.8c-1.7,8.2,6.9,8.2,6.9,8C152.7,211.9,155,200.4,155,200.4
																		z"/>
																</g>
															</g>
														</g>
													</g>
												</g>
											</g>
										</g>
									</g>
								</g>
							</g>
						</g>
					</g>
					<g>
						<g>
							<g>
								<g>
									<g>
										<g>
											<g>
												<g>
													<g>
														<g>
															<g>
																<g>
																	<g>
																		<path class="st8" d="M150.8,208.5c0,0-0.2,0.1-0.4,0.1c-0.3,0.1-0.7,0-1.1-0.2c-0.8-0.5-1.2-2-1-3.5
																			c0.1-0.8,0.4-1.4,0.8-2c0.4-0.5,0.9-0.9,1.3-0.9c0.5,0,0.7,0.3,0.8,0.6c0.1,0.3,0,0.4,0,0.4c0,0,0.2-0.1,0.2-0.5
																			c0-0.2-0.1-0.4-0.2-0.6c-0.2-0.2-0.4-0.3-0.7-0.4c-0.6-0.1-1.3,0.4-1.8,1c-0.5,0.6-0.8,1.3-1,2.2
																			c-0.3,1.7,0.2,3.4,1.3,4c0.5,0.3,1.1,0.2,1.4,0.1C150.7,208.7,150.8,208.6,150.8,208.5z"/>
																	</g>
																</g>
															</g>
														</g>
													</g>
												</g>
											</g>
										</g>
									</g>
								</g>
							</g>
						</g>
					</g>
				</g>
				<g>
					<g>
						<g>
							<g>
								<g>
									<path class="st3" d="M200.9,186.6c-1.5,3-8.9,3.9-14.2,2c-4.9-1.7-6.5-4.9-9.6-7.8c-1.9-1.8-1.9-1.8-5.1-2.3
										c-2.6-0.4-4.8,2.1-6.9,3.8c0.8,6.6-2.4,13-5.5,18.9c-0.3,0.7-0.7,1.4-1.4,1.6c-1.1,0.5-2.4-0.4-3.1-1.5
										c-1-1.7-1-3.9-0.9-5.9c0.3-4.6,1.3-9.1,3.3-13.2c2-4.1,5.1-7.7,9.1-10c4.9-2.9,11-3.5,16.6-2c5.5,1.4,10.4,4.8,14.1,9.3
										C198.9,181.6,200.4,184,200.9,186.6"/>
								</g>
							</g>
						</g>
					</g>
				</g>
			</g>
			<g>
				<g>
					<g>
						<g>
							<g>
								<g>
									<path class="st3" d="M183.2,205.9c0.1,0,0.1-0.7,0.5-1.9c0.4-1.2,1.3-2.9,3.1-4.1c1.8-1.3,4.7-1.9,7.4-0.7
										c1.3,0.5,2.6,1.5,3.4,2.8c0.9,1.3,1.4,2.9,1.3,4.6c-0.1,1.7-0.7,3.3-1.7,4.5c-1,1.2-2.3,2.1-3.7,2.5
										c-2.8,0.9-5.6,0-7.3-1.4c-1.7-1.4-2.5-3.2-2.8-4.4C183.2,206.6,183.3,205.9,183.2,205.9c0,0,0,0.2-0.1,0.5
										c0,0.3,0,0.8,0.1,1.5c0.2,1.3,0.9,3.1,2.7,4.7c1.7,1.5,4.7,2.5,7.8,1.6c1.5-0.5,2.9-1.4,4-2.7c1.1-1.3,1.7-3,1.8-4.9
										c0.1-1.8-0.5-3.6-1.4-5c-0.9-1.4-2.3-2.5-3.8-3c-2.9-1.2-6-0.5-7.9,0.9c-1.9,1.4-2.8,3.2-3.1,4.4c-0.2,0.6-0.2,1.1-0.2,1.5
										C183.2,205.7,183.2,205.9,183.2,205.9z"/>
								</g>
							</g>
						</g>
					</g>
				</g>
				<g>
					<g>
						<g>
							<g>
								<g>
									<path class="st3" d="M163.7,201.6c0.1,0,0.1-0.7,0.5-1.9c0.4-1.2,1.3-2.9,3.1-4.1c1.8-1.3,4.7-1.9,7.4-0.7
										c1.3,0.5,2.6,1.5,3.4,2.8c0.9,1.3,1.4,2.9,1.3,4.6c-0.1,1.7-0.7,3.3-1.7,4.5c-1,1.2-2.3,2.1-3.7,2.5
										c-2.8,0.9-5.6,0-7.3-1.4c-1.7-1.4-2.5-3.2-2.8-4.4C163.8,202.3,163.8,201.6,163.7,201.6c0,0,0,0.2-0.1,0.5
										c0,0.3,0,0.8,0.1,1.5c0.2,1.3,0.9,3.1,2.7,4.7c1.7,1.5,4.7,2.5,7.8,1.6c1.5-0.5,2.9-1.4,4-2.7c1.1-1.3,1.7-3,1.8-4.9
										c0.1-1.8-0.5-3.6-1.4-5c-0.9-1.4-2.3-2.5-3.8-3c-2.9-1.2-6-0.5-7.9,0.9c-1.9,1.4-2.8,3.2-3.1,4.4c-0.2,0.6-0.2,1.1-0.2,1.5
										C163.7,201.4,163.7,201.6,163.7,201.6z"/>
								</g>
							</g>
						</g>
					</g>
				</g>
				<g>
					<g>
						<g>
							<g>
								<g>
									<path class="st3" d="M179.9,202.6c0.1,0.2,1.1-0.3,2.4,0.1c1.2,0.4,1.8,1.4,1.9,1.3c0.1,0,0.1-0.3-0.2-0.8
										c-0.3-0.4-0.8-0.9-1.5-1.2c-0.7-0.3-1.5-0.2-1.9,0C180.1,202.3,179.8,202.5,179.9,202.6z"/>
								</g>
							</g>
						</g>
					</g>
				</g>
				<g>
					<g>
						<g>
							<g>
								<g>
									<path class="st3" d="M152.7,199c0,0.2,2.6,0.4,5.9,0.5c3.3,0.1,5.9,0,5.9-0.2c0-0.2-2.6-0.4-5.9-0.5
										C155.4,198.8,152.7,198.8,152.7,199z"/>
								</g>
							</g>
						</g>
					</g>
				</g>
			</g>
		</g>
		<g>
			<g>
				<path class="st7" d="M63.3,265.8l16.1,18.3l19.8-18.3l16.1,18.8c0,0-18.1,18.8-27.8,23c-9,3.9-13.3,0.4-16.5-0.4
					c-3-0.8-19.6-30.3-19.6-30.3L63.3,265.8z"/>
			</g>
			<g>
				<g>
					<g>
						<path class="st7" d="M73.3,244.8c0,0-0.8,1.3-3.1,5.3c-2.3,4.1-2,8.9-3.3,12.7c-1.5,4.6-2.9,5.5-2.9,5.5l-12.6,8.5
							c0,0-6.1-3.7-8.1-7.2c-2.1-3.4-5.4-15.2-5.4-15.2l-5.7-10.3c0,0-0.1-0.6,0.1-0.9c1-1.8,3.6-1.9,4.7-0.2l0,0
							c0,0,1.9-1.7,5.3,0.2c2.7,1.6,2.4,3.9,2.4,3.9C46.4,248,54,260,56,256.9c1.7-2.8,3.3-3.8,3.3-3.8c6.1-3.2,5-3.2,7.6-6.6
							C69.4,243.1,72.8,242.2,73.3,244.8z"/>
					</g>
					<g>
						<g>
							<path class="st8" d="M40.6,259.9c0,0,0-0.2-0.1-0.5c0-0.4-0.1-0.9-0.1-1.5c-0.1-1.3-0.2-3.2-0.4-5.5
								c-0.1-1.2-0.2-2.4-0.3-3.8c0-0.7-0.1-1.4-0.1-2.1c0-0.7-0.2-1.5,0.1-2.3c0.1-0.4,0.4-0.8,0.8-1c0.4-0.2,0.8-0.3,1.3-0.3
								c0.9,0.1,1.7,0.6,2.2,1.3c0.5,0.7,0.7,1.6,0.9,2.4c0.2,0.8,0.4,1.7,0.6,2.6c1,4.6,1.9,8.8,2.7,12.5l-0.2-0.2
								c1.9-0.1,3.7,0.3,5.2,0.9c1.5,0.6,2.6,1.4,3.5,2.1c0.8,0.7,1.4,1.4,1.8,1.9c0.2,0.2,0.3,0.4,0.4,0.6c0.1,0.1,0.1,0.2,0.1,0.2
								c-0.1,0.1-0.7-1.1-2.4-2.5c-0.9-0.7-2-1.5-3.4-2c-1.4-0.6-3.2-0.9-5-0.8l-0.2,0l0-0.2C47,258.3,46,254,45,249.5
								c-0.2-0.9-0.4-1.7-0.6-2.5c-0.2-0.8-0.4-1.6-0.8-2.3c-0.4-0.7-1.1-1.1-1.8-1.2c-0.7-0.1-1.4,0.3-1.6,1
								c-0.2,0.7-0.1,1.4-0.1,2.1c0,0.7,0.1,1.4,0.1,2.1c0.1,1.4,0.1,2.6,0.2,3.8c0.1,2.3,0.2,4.1,0.3,5.5c0,0.6,0,1.1,0,1.5
								C40.7,259.8,40.7,259.9,40.6,259.9z"/>
						</g>
					</g>
					<g>
						<g>
							<path class="st8" d="M61,252.2c0,0.1-0.5,0.4-1.3,1c-0.8,0.6-1.9,1.5-2.7,2.8c-0.9,1.3-1.2,2.6-1.3,3.6c-0.1,1,0,1.6-0.1,1.6
								c0,0-0.2-0.6-0.2-1.7c0-1,0.4-2.5,1.3-3.8c0.9-1.3,2.1-2.2,2.9-2.8C60.3,252.4,60.9,252.2,61,252.2z"/>
						</g>
					</g>
				</g>
				<g>
					<g>
						<path class="st8" d="M40,249.3c-0.1,0-0.8-1.4-1.7-3.2c-0.9-1.7-1.6-3.2-1.5-3.2c0.1-0.1,1,1.3,1.9,3
							C39.7,247.7,40.1,249.3,40,249.3z"/>
					</g>
				</g>
			</g>
			<g>
				<g>
					<path class="st8" d="M88.9,295.4c-0.1,0.1-1.3-3.1-3.9-6.3c-2.6-3.2-5.5-5-5.4-5.1c0,0,0.8,0.3,1.9,1.1
						c1.1,0.8,2.5,2.1,3.8,3.7c1.3,1.6,2.3,3.3,2.8,4.5C88.8,294.6,89,295.4,88.9,295.4z"/>
				</g>
			</g>
		</g>
		<g>
			<g>
				<path class="st1" d="M148.7,233.3c0,0-23.3,6.2-33.4,13.1c-5.1,3.5-22.6,24.2-22.6,24.2l17.5,26l18.1-17.8L148.7,233.3z"/>
			</g>
			<g>
				<path class="st1" d="M118,281.7l6,69.8l14.3,1h69.5l-0.2-71.8l-3.1-31.6l-26.8-10.2c-9.5,9.2-24.8,6.9-29.1-5.4L118,281.7z"/>
			</g>
			<g>
				<g>
					<path class="st3" d="M116.2,259.9c0.1,0,1,9.6,2,21.4c1,11.8,1.7,21.4,1.5,21.4c-0.1,0-1-9.6-2-21.4
						C116.8,269.5,116.1,259.9,116.2,259.9z"/>
				</g>
			</g>
			<g class="st6">
				<g>
					<path d="M146.7,338.7l-1.5,0.6c11.3-0.6,22.1-6.5,28.8-15.6C165.4,329.4,156.5,335.2,146.7,338.7z"/>
				</g>
			</g>
			<g>
				<g>
					<path class="st3" d="M174.9,301.7c0,0,0,0.2-0.2,0.4c-0.2,0.3-0.3,0.7-0.6,1.2c-0.2,0.5-0.6,1.1-1,1.8
						c-0.4,0.7-0.8,1.5-1.4,2.4c-1.1,1.7-2.4,3.7-4.1,5.9c-1.7,2.1-3.6,4.4-5.8,6.6c-2.2,2.2-4.5,4.1-6.6,5.7c-2.1,1.6-4.2,3-5.9,4
						c-0.9,0.5-1.7,1-2.4,1.4c-0.7,0.4-1.3,0.7-1.8,1c-0.5,0.2-0.9,0.4-1.2,0.6c-0.3,0.1-0.4,0.2-0.4,0.2c0,0,0.1-0.1,0.4-0.2
						c0.3-0.2,0.7-0.4,1.1-0.6c0.5-0.3,1.1-0.6,1.8-1c0.7-0.4,1.5-0.9,2.3-1.4c1.7-1.1,3.7-2.4,5.8-4.1c2.1-1.7,4.3-3.6,6.5-5.7
						c2.2-2.2,4.1-4.4,5.8-6.5c1.6-2.1,3-4.1,4.1-5.8c0.6-0.8,1-1.6,1.4-2.3c0.4-0.7,0.8-1.3,1-1.8c0.3-0.5,0.5-0.8,0.6-1.1
						C174.8,301.9,174.9,301.7,174.9,301.7z"/>
				</g>
			</g>
		</g>
		<g>
			<g>
				<g>
					<g>
						<g>
							<g>
								<g>
									<g>
										<g>
											<path class="st9" d="M71.6,394.1l5.5,25.1c0,0-23.9,12.2-23.4,16.9L103,429l-7-39.4L71.6,394.1z"/>
										</g>
									</g>
								</g>
							</g>
						</g>
					</g>
				</g>
				<g class="st10">
					<g>
						<g>
							<g>
								<g>
									<g>
										<g>
											<g>
												<path class="st11" d="M91.8,414.3c1,0.1,1.8,1,1.8,2c0,1-1,1.9-2,1.8c-1-0.1-2-1.2-1.9-2.2c0.2-1,1.3-1.9,2.3-1.6"/>
											</g>
										</g>
									</g>
								</g>
							</g>
						</g>
					</g>
				</g>
				<g class="st10">
					<g>
						<g>
							<g>
								<g>
									<g>
										<g>
											<path class="st11" d="M103,429l-0.7-4l-47.3,8.5c0,0-1.5,0.9-1.4,2.9L103,429z"/>
										</g>
									</g>
								</g>
							</g>
						</g>
					</g>
				</g>
				<g>
					<g>
						<g>
							<g>
								<g>
									<g>
										<g>
											<g>
												<path class="st3" d="M76.2,419.1c0.1,0.2,1.3,0.1,2.6,0.7c1.3,0.5,2.1,1.4,2.3,1.3c0.2-0.1-0.4-1.5-2-2.1
													C77.5,418.3,76.1,418.9,76.2,419.1z"/>
											</g>
										</g>
									</g>
								</g>
							</g>
						</g>
					</g>
				</g>
				<g>
					<g>
						<g>
							<g>
								<g>
									<g>
										<g>
											<g>
												<path class="st3" d="M71.5,422.1c0,0.2,1.1,0.5,2.1,1.3c1,0.8,1.4,1.9,1.7,1.8c0.2,0,0.1-1.4-1.1-2.5
													C72.9,421.8,71.4,421.9,71.5,422.1z"/>
											</g>
										</g>
									</g>
								</g>
							</g>
						</g>
					</g>
				</g>
				<g>
					<g>
						<g>
							<g>
								<g>
									<g>
										<g>
											<g>
												<path class="st3" d="M69.7,428.8c0.2,0,0.3-1.2-0.5-2.4c-0.8-1.2-2.1-1.5-2.1-1.3c-0.1,0.2,0.8,0.8,1.4,1.8
													C69.2,427.8,69.4,428.8,69.7,428.8z"/>
											</g>
										</g>
									</g>
								</g>
							</g>
						</g>
					</g>
				</g>
				<g>
					<g>
						<g>
							<g>
								<g>
									<g>
										<g>
											<g>
												<path class="st3" d="M75.6,413.2c0.1,0.2,1.2-0.3,2.5-0.5c1.4-0.2,2.5,0.1,2.6-0.1c0.1-0.2-1.1-0.9-2.7-0.7
													C76.4,412.1,75.5,413.1,75.6,413.2z"/>
											</g>
										</g>
									</g>
								</g>
							</g>
						</g>
					</g>
				</g>
			</g>
			<g class="st6">
				<g>
					<g>
						<g>
							<g>
								<g>
									<g>
										<polygon points="72.7,399.1 73.6,403.6 97.7,399 97,394.9 										"/>
									</g>
								</g>
							</g>
						</g>
					</g>
				</g>
			</g>
			<g>
				<g>
					<g>
						<g>
							<g>
								<g>
									<g>
										<g>
											<path class="st3" d="M74.6,408.2c0,0.1,1,0.1,2.4-0.5c0.7-0.3,1.6-0.7,2.4-1.3c0.4-0.3,0.9-0.6,1.3-1
												c0.2-0.2,0.4-0.4,0.6-0.7c0.2-0.3,0.3-1-0.1-1.3c-0.3-0.3-0.8-0.4-1.1-0.4c-0.4,0.1-0.6,0.2-0.9,0.3
												c-0.5,0.2-1,0.5-1.4,0.8c-0.9,0.6-1.5,1.3-2,1.9c-0.9,1.3-1.2,2.2-1.1,2.3c0.1,0.1,0.5-0.8,1.5-1.9
												c0.5-0.5,1.2-1.1,2-1.6c0.4-0.3,0.9-0.5,1.3-0.7c0.5-0.2,0.9-0.3,1.1-0.1c0.1,0.1,0.1,0.1,0,0.3
												c-0.1,0.2-0.3,0.3-0.5,0.5c-0.4,0.4-0.8,0.7-1.2,1c-0.8,0.6-1.5,1-2.2,1.3C75.5,407.8,74.6,408,74.6,408.2z"/>
										</g>
									</g>
								</g>
							</g>
						</g>
					</g>
				</g>
			</g>
			<g>
				<g>
					<g>
						<g>
							<g>
								<g>
									<g>
										<g>
											<path class="st3" d="M75,408.4c0.1,0,0.4-0.9,0.2-2.5c-0.1-0.8-0.3-1.7-0.8-2.6c-0.2-0.5-0.5-0.9-0.9-1.4
												c-0.4-0.4-0.8-1-1.8-1c-0.5,0.1-0.8,0.5-0.9,0.9c-0.1,0.4-0.1,0.7-0.1,0.9c0,0.6,0.1,1.1,0.3,1.7c0.3,1,0.9,1.8,1.5,2.3
												c1.2,1.1,2.2,1.2,2.2,1.1c0.1-0.1-0.9-0.4-1.8-1.5c-0.5-0.5-0.9-1.3-1.2-2.2c-0.1-0.4-0.2-0.9-0.2-1.4c0-0.5,0.1-1,0.3-1
												c0.2,0,0.7,0.3,1,0.6c0.3,0.4,0.6,0.8,0.8,1.2c0.5,0.8,0.8,1.7,0.9,2.4C74.9,407.5,74.8,408.4,75,408.4z"/>
										</g>
									</g>
								</g>
							</g>
						</g>
					</g>
				</g>
			</g>
		</g>
		<g>
			<g>
				<path class="st3" d="M69.8,400.4c0,0-16.9-69.2-17.1-78.6c-0.2-10.1,9-18.5,15.2-19.9c6.2-1.4,19.9,3.3,27.5,12.8
					c7.6,9.5,31.8,27.5,31.8,27.5c10,7.5,24.8,10.7,38.3,3.7c0,0,19.8,30.8,21.1,30c2.3-1.4,0.8,2.5-1,7.2
					c-3.7,9.4-10.9,17.5-19.3,17.7L118,403l-18.8-21l1.7,14.6L69.8,400.4z"/>
			</g>
			<g>
				<g>
					<path class="st9" d="M100.4,392.4c0,0-0.1-0.2-0.2-0.7c-0.1-0.5-0.2-1.2-0.4-2.1c-0.3-1.9-0.7-4.5-0.9-7.9
						c-0.2-3.4-0.3-7.4-0.1-11.8c0.1-2.2,0.2-4.5,0.3-7c0.2-2.4,0.3-4.9,0.2-7.4c-0.2-5.1-0.8-9.9-1.6-14.3c-0.8-4.3-1.9-8.2-3-11.4
						c-1.1-3.1-2.2-5.6-3.2-7.2c-0.4-0.8-0.9-1.4-1.1-1.8c-0.3-0.4-0.4-0.6-0.4-0.6c0,0,0.2,0.2,0.5,0.6c0.3,0.4,0.8,1,1.2,1.8
						c1,1.6,2.2,4.1,3.3,7.2c1.1,3.2,2.2,7,3.1,11.4c0.9,4.4,1.5,9.2,1.6,14.3c0.1,2.6-0.1,5.1-0.2,7.5c-0.2,2.4-0.3,4.7-0.4,6.9
						c-0.2,4.4-0.2,8.4,0,11.8c0.2,3.3,0.5,6,0.8,7.9c0.1,0.9,0.2,1.6,0.3,2.1C100.4,392.1,100.4,392.4,100.4,392.4z"/>
				</g>
			</g>
			<g>
				<g>
					<path class="st9" d="M130.8,357.4c-0.1,0,0-3-0.5-6.6c-0.5-3.6-1.4-6.4-1.3-6.5c0.1,0,0.4,0.7,0.7,1.8c0.4,1.1,0.8,2.8,1,4.6
						c0.3,1.8,0.3,3.5,0.3,4.7C130.9,356.7,130.8,357.5,130.8,357.4z"/>
				</g>
			</g>
		</g>
		<g>
			<g>
				<g>
					<g>
						<g>
							<g>
								<g>
									<g>
										<g>
											<g>
												<path class="st9" d="M121.5,403.7l-24.1,8.6c0,0,2.4,26.7-1.9,28.8l-20.2-45.5l37.1-15L121.5,403.7z"/>
											</g>
										</g>
									</g>
								</g>
							</g>
						</g>
					</g>
					<g class="st10">
						<g>
							<g>
								<g>
									<g>
										<g>
											<g>
												<g>
													<path class="st11" d="M93.7,397.3c-0.6-0.8-1.9-1-2.7-0.4c-0.8,0.6-1.1,1.8-0.5,2.6c0.6,0.8,2.1,1.1,2.8,0.5
														c0.8-0.7,0.9-2.2,0.2-2.8"/>
												</g>
											</g>
										</g>
									</g>
								</g>
							</g>
						</g>
					</g>
					<g class="st10">
						<g>
							<g>
								<g>
									<g>
										<g>
											<g>
												<path class="st11" d="M75.3,395.6l3.7-1.5L97,438.7c0,0,0,1.7-1.7,2.8L75.3,395.6z"/>
											</g>
										</g>
									</g>
								</g>
							</g>
						</g>
					</g>
					<g>
						<g>
							<g>
								<g>
									<g>
										<g>
											<g>
												<g>
													<path class="st3" d="M97.9,413c-0.2,0.1-0.8-1-1.9-1.8c-1.1-0.9-2.4-1-2.3-1.3c0-0.2,1.4-0.4,2.8,0.6
														C97.8,411.5,98.1,413,97.9,413z"/>
												</g>
											</g>
										</g>
									</g>
								</g>
							</g>
						</g>
					</g>
					<g>
						<g>
							<g>
								<g>
									<g>
										<g>
											<g>
												<g>
													<path class="st3" d="M97.8,418.7c-0.2,0.1-1-0.7-2.2-1.1c-1.2-0.4-2.4-0.2-2.4-0.4c-0.1-0.2,1.1-0.9,2.7-0.4
														C97.4,417.3,98,418.6,97.8,418.7z"/>
												</g>
											</g>
										</g>
									</g>
								</g>
							</g>
						</g>
					</g>
					<g>
						<g>
							<g>
								<g>
									<g>
										<g>
											<g>
												<g>
													<path class="st3" d="M93.1,423.8c-0.1-0.2,0.9-0.9,2.3-0.9c1.5,0.1,2.4,0.9,2.2,1.1c-0.1,0.2-1.1-0.2-2.3-0.3
														C94.2,423.7,93.2,424,93.1,423.8z"/>
												</g>
											</g>
										</g>
									</g>
								</g>
							</g>
						</g>
					</g>
					<g>
						<g>
							<g>
								<g>
									<g>
										<g>
											<g>
												<g>
													<path class="st3" d="M103.2,410.5c-0.2,0-0.3-1.2-0.9-2.4c-0.6-1.3-1.4-2.1-1.2-2.3c0.1-0.2,1.3,0.4,2,1.9
														C103.7,409.2,103.4,410.5,103.2,410.5z"/>
												</g>
											</g>
										</g>
									</g>
								</g>
							</g>
						</g>
					</g>
				</g>
				<g class="st6">
					<g>
						<g>
							<g>
								<g>
									<g>
										<g>
											<polygon points="116.7,405.4 112.4,407 103.6,384.2 107.4,382.6 											"/>
										</g>
									</g>
								</g>
							</g>
						</g>
					</g>
				</g>
				<g>
					<g>
						<g>
							<g>
								<g>
									<g>
										<g>
											<g>
												<path class="st3" d="M108,408.6c-0.1,0-0.6-0.8-0.9-2.3c-0.2-0.8-0.3-1.7-0.2-2.7c0-0.5,0.1-1.1,0.2-1.6
													c0.1-0.3,0.1-0.6,0.3-0.9c0.1-0.3,0.7-0.7,1.2-0.6c0.4,0.1,0.8,0.5,0.9,0.8c0.1,0.3,0.2,0.6,0.2,0.9
													c0.1,0.6,0.1,1.1,0.1,1.6c0,1-0.3,2-0.5,2.7c-0.6,1.5-1.3,2.2-1.3,2.1c-0.1-0.1,0.4-0.9,0.8-2.3
													c0.2-0.7,0.3-1.6,0.3-2.5c0-0.5,0-1-0.1-1.5c-0.1-0.5-0.2-1-0.5-1c-0.1,0-0.1,0-0.2,0.2c-0.1,0.2-0.1,0.4-0.2,0.7
													c-0.1,0.5-0.2,1-0.2,1.5c-0.1,1,0,1.8,0,2.6C107.9,407.7,108.1,408.6,108,408.6z"/>
											</g>
										</g>
									</g>
								</g>
							</g>
						</g>
					</g>
				</g>
				<g>
					<g>
						<g>
							<g>
								<g>
									<g>
										<g>
											<g>
												<path class="st3" d="M107.6,408.5c-0.1-0.1,0.6-0.8,2-1.5c0.7-0.3,1.6-0.6,2.7-0.7c0.5,0,1.1,0,1.6,0
													c0.6,0.1,1.3,0.2,1.8,1c0.2,0.5,0,1-0.3,1.2c-0.3,0.3-0.5,0.4-0.8,0.6c-0.5,0.3-1,0.5-1.6,0.6c-1,0.2-2,0.2-2.8,0
													c-1.6-0.4-2.2-1.3-2.1-1.3c0.1-0.1,0.8,0.5,2.3,0.7c0.7,0.1,1.6,0.1,2.5-0.1c0.4-0.1,0.9-0.3,1.3-0.6
													c0.5-0.3,0.8-0.6,0.7-0.8c-0.1-0.2-0.6-0.5-1.1-0.5c-0.5-0.1-1-0.1-1.5-0.1c-1,0-1.8,0.2-2.5,0.5
													C108.4,408,107.7,408.6,107.6,408.5z"/>
											</g>
										</g>
									</g>
								</g>
							</g>
						</g>
					</g>
				</g>
			</g>
			<g>
				<path class="st3" d="M117.8,375.1c0,0,48.5-45.4,64.4-43c15.9,2.4,19.8,10.1,21.2,16.4c1.4,6.3,1,25.1-20.8,36.2
					c-21.7,11.1-68,23.2-68,23.2l-9.7-27L117.8,375.1z"/>
			</g>
			<g>
				<g>
					<path class="st9" d="M117.8,375.1c0,0-0.3,0.1-0.8,0.4c-0.6,0.3-1.4,0.6-2.5,1.1c-2.2,1-5.4,2.5-9.5,4.3l0.1-0.1
						c2.4,6.7,5.7,15.9,9.7,27l-0.2-0.1c11.4-3.1,24.7-6.9,39.3-11.8c7.3-2.5,14.8-5.2,22.4-8.5c1.9-0.8,3.8-1.7,5.7-2.6
						c1-0.4,1.8-1,2.8-1.5l1.4-0.8c0.5-0.3,0.9-0.6,1.3-0.9c3.6-2.3,6.8-5.2,9.5-8.7c2.8-3.6,4.8-7.8,5.8-12.1
						c0.3-1.1,0.4-2.2,0.6-3.3c0.1-1.1,0.3-2.2,0.3-3.3c0.1-2.2-0.1-4.4-0.6-6.5c-0.5-2.1-1.4-4.1-2.5-5.8c-1.2-1.8-2.6-3.3-4.3-4.5
						c-1.7-1.2-3.5-2.2-5.4-2.9c-1.9-0.8-3.8-1.3-5.8-1.7c-1-0.2-1.9-0.3-2.9-0.5c-0.5,0-1-0.1-1.4-0.1c-0.5,0-1,0.1-1.4,0.1
						c-1.9,0.3-3.7,0.8-5.5,1.5c-3.5,1.4-6.7,3.2-9.8,5c-6.1,3.6-11.4,7.5-16.3,11.2c-9.6,7.3-17,13.7-22.1,18.1
						c-2.5,2.2-4.5,4-5.8,5.2c-0.7,0.6-1.2,1-1.5,1.3C118,375,117.8,375.1,117.8,375.1s0.2-0.2,0.5-0.5c0.3-0.3,0.8-0.8,1.5-1.4
						c1.3-1.2,3.2-3,5.8-5.2c5.1-4.5,12.4-10.9,22-18.2c4.8-3.6,10.2-7.5,16.3-11.2c3-1.8,6.3-3.6,9.8-5c1.8-0.7,3.6-1.3,5.6-1.6
						c0.5,0,1-0.1,1.5-0.1c0.5,0,1,0.1,1.5,0.1c1,0.2,2,0.3,2.9,0.5c2,0.5,3.9,1,5.8,1.7c1.9,0.7,3.8,1.7,5.5,3
						c1.7,1.2,3.2,2.8,4.4,4.6c1.2,1.8,2,3.8,2.6,6c0.6,2.1,0.7,4.4,0.7,6.6c0,1.1-0.2,2.2-0.3,3.3c-0.2,1.1-0.3,2.2-0.7,3.3
						c-1.1,4.4-3.1,8.6-5.9,12.3c-2.7,3.5-6,6.5-9.6,8.8c-0.4,0.3-0.9,0.6-1.3,0.9l-1.4,0.8c-0.9,0.5-1.8,1.1-2.8,1.5
						c-1.9,0.9-3.8,1.9-5.7,2.7c-7.6,3.3-15.2,6-22.5,8.5c-14.6,4.9-27.9,8.7-39.3,11.7l-0.1,0l-0.1-0.1c-3.9-11.1-7.2-20.4-9.6-27
						l0-0.1l0.1,0c4.1-1.8,7.3-3.3,9.5-4.2c1.1-0.5,1.9-0.8,2.5-1.1C117.5,375.2,117.8,375.1,117.8,375.1z"/>
				</g>
			</g>
		</g>
		<g>
			<path class="st1" d="M143.6,342.6c-0.7-1.4,0.8-3.7-0.7-4.3c-5.6-2-1.3-10.8-7-9.3l-7.7,13.6c3.4,2,1.9,7.8,4.8,10.4
				c1.7,1.5,4.3,1.4,6.5,0.9c8.4-1.9,15.6-6.3,17.7-14.7C157.7,337.7,144.4,343.9,143.6,342.6z"/>
		</g>
	</g>
	<g>
		<path class="st3" d="M223.5,192.8c-4.8,0.6-10.1,3.6-11.9,8.1c-1.4,3.5,0.2,8.6,0.3,12.4c0,3,0.1,6.1,0.3,9.1
			c0,0.3-0.1,0.6-0.1,0.9c-0.4,3.6-1,7.7-0.9,12.1c0,1.1,0.1,2.2,0.3,3.3c0.1,0.5,0.1,1.1,0.3,1.6c0.1,0.5,0.2,1,0.3,1.5
			c0.5,2,1.2,3.9,2,5.7c1.6,3.5,3.4,6.3,5.1,8.6c1.7,2.3,3.2,4,4.2,5.1c0.1,0.1,0.2,0.2,0.3,0.3c1.2,3,2.4,6.1,3.5,9.1
			c1.2,3,2.4,6.1,4.5,8.6c2.1,2.5,5.2,4.3,8.4,4c2.9-0.3,5.5-2.3,7-4.9c1.5-2.6,2-5.6,2-8.6L223.5,192.8z M220.6,255.1
			c-1.5-2.3-3.1-5.2-4.5-8.5c-1.4-3.3-2.3-7.1-2.4-11.2c0-0.6,0-1.2,0-1.8c1.3,5.7,3.4,11.2,5.6,16.6c0.9,2.4,1.9,4.8,2.8,7.2
			C221.6,256.7,221.1,255.9,220.6,255.1z"/>
	</g>
	<g>
		<g>
			<path class="st7" d="M266.5,251.2L232,265.1c0,0,12.7,28.4,23.7,25.8c10.9-2.5,16.2-28.6,16.2-28.6L266.5,251.2z"/>
		</g>
		<g>
			<g>
				<path class="st12" d="M268.2,252.3c0,0,3.8,25.9-7.2,28c-7.7,1.5-25.5-17-25.5-17c-3.1,0.9-5.4,2.5-7.9,4.1
					c-7.9,4.9-10.8,14.9-7.2,23.4c3.8,8.8,8.8,20.3,11.6,26.2c5,10.4,16.7,17,16.7,17l-1,22.2c0,0,30.1-6.3,46.2-4.7
					c16.1,1.6,26.8-1.9,26.8-1.9l-21.4-37.3L283,250.7C283,250.7,275.6,251.2,268.2,252.3z"/>
			</g>
			<g>
				<path class="st12" d="M283,250.7c0,0,9.8-0.1,15.5,11.7c2.9,6,15.1,26.4,15.1,25.9l18.4-27.3l16,8.9c0,0-15,31.6-17.3,36.4
					c-2.4,4.7-5.5,11.4-14.5,12.3c-9,0.9-17.8-6.6-19.7-11.2c-1.9-4.5-15.7-28-15.7-28.7C280.9,278,283,250.7,283,250.7z"/>
			</g>
			<g>
				<g>
					<path class="st3" d="M314.1,337.7c0,0-0.1-0.2-0.3-0.5c-0.2-0.4-0.5-0.8-0.9-1.4c-0.8-1.3-1.8-3.1-3.1-5.3
						c-2.7-4.6-6.3-10.9-10.5-18.1l0,0l0-0.1c-0.1-2-0.2-4-0.4-6.1c-0.4-4.9-1.2-9.5-2.5-13.5c-1.2-4-3-7.4-4.9-10
						c-1.9-2.6-3.9-4.3-5.3-5.3c-0.7-0.5-1.3-0.9-1.7-1.1c-0.4-0.2-0.6-0.4-0.6-0.4c0,0,0.2,0.1,0.6,0.3c0.4,0.2,1,0.6,1.8,1.1
						c1.5,1,3.5,2.7,5.5,5.3c1.9,2.6,3.8,6,5.1,10.1c1.3,4.1,2.2,8.7,2.5,13.6c0.2,2.1,0.3,4.1,0.4,6.1l0-0.1
						c4.1,7.2,7.7,13.6,10.4,18.2c1.3,2.3,2.3,4.1,3,5.4c0.3,0.6,0.6,1.1,0.8,1.5C314,337.5,314.1,337.7,314.1,337.7z"/>
				</g>
			</g>
			<g>
				<g>
					<path class="st3" d="M314.4,300c-0.1,0-0.7-2.5-0.9-5.7c-0.1-1.6-0.1-3.1,0-4.1c0.1-1.1,0.2-1.7,0.2-1.7c0.1,0,0,2.6,0.2,5.8
						C314.2,297.5,314.6,300,314.4,300z"/>
				</g>
			</g>
			<g>
				<g>
					<path class="st3" d="M272.8,292.9c0,0,0.2,0.4,0.4,1.1c0.1,0.3,0.3,0.8,0.4,1.3c0.1,0.5,0.3,1.1,0.4,1.7
						c0.1,0.7,0.2,1.4,0.3,2.1c0.1,0.8,0.1,1.6,0.1,2.5c0,1.8-0.2,3.7-0.5,5.7c-0.4,2-1,3.8-1.7,5.5c-0.4,0.8-0.7,1.6-1.1,2.2
						c-0.4,0.7-0.7,1.3-1.1,1.9c-0.3,0.6-0.7,1-1,1.5c-0.3,0.4-0.6,0.8-0.9,1c-0.5,0.6-0.8,0.8-0.8,0.8c-0.1-0.1,1-1.3,2.4-3.5
						c0.3-0.6,0.7-1.2,1-1.9c0.4-0.7,0.7-1.4,1-2.2c0.6-1.6,1.2-3.4,1.6-5.4c0.4-2,0.5-3.9,0.6-5.6c0-0.9,0-1.7-0.1-2.5
						c0-0.8-0.1-1.5-0.2-2.1C273.2,294.5,272.7,293,272.8,292.9z"/>
				</g>
			</g>
		</g>
		<g>
			<g>
				<g>
					<g>
						<g>
							<g>
								<g>
									<g>
										<g>
											<g>
												<g>
													<g>
														<g>
															<g>
																<g>
																	<g>
																		<g>
																			<g>
																				<g>
																					<g>
																						<g>
																							<g>
																								<path class="st7" d="M254.6,206.3c-3-10.9-14.6-17.2-25.7-13.8c-10.4,3.3-16.3,14.4-13.7,24.9
																									c2.3,9.2,4.8,18.4,6.2,21.6c4.1,9.5,11.3,10.9,14.1,11c0.6,0,2.2-0.3,2.8-0.4l0,0c0,0,0.1,0,0.1,0.1
																									l2.4,11.9c2,7.6,8.8,12.3,16.5,10.3c7.7-2,11.1-9.9,9.2-17.6L254.6,206.3z"/>
																							</g>
																						</g>
																					</g>
																				</g>
																			</g>
																		</g>
																	</g>
																	<g>
																		<g>
																			<g>
																				<g>
																					<g>
																						<g>
																							<g>
																								<g>
																									<g>
																										<g>
																											<g>
																												<path class="st3" d="M221.8,222.2c0.2,0.9,1.1,1.4,2,1.2c0.9-0.2,1.5-1,1.3-1.9c-0.2-0.9-1.1-1.4-2-1.2
																													C222.2,220.5,221.7,221.4,221.8,222.2z"/>
																											</g>
																										</g>
																									</g>
																								</g>
																							</g>
																						</g>
																					</g>
																				</g>
																			</g>
																		</g>
																		<g>
																			<g>
																				<g>
																					<g>
																						<g>
																							<g>
																								<g>
																									<g>
																										<g>
																											<g>
																												<g>
																													<path class="st3" d="M218.6,219.1c0.3,0.2,1.2-1.1,3-1.5c1.7-0.5,3.2,0.1,3.4-0.2
																														c0.1-0.1-0.2-0.4-0.9-0.7c-0.6-0.3-1.7-0.4-2.8-0.1c-1.1,0.3-1.9,0.9-2.3,1.5
																														C218.5,218.6,218.4,219,218.6,219.1z"/>
																												</g>
																											</g>
																										</g>
																									</g>
																								</g>
																							</g>
																						</g>
																					</g>
																				</g>
																			</g>
																		</g>
																	</g>
																	<g>
																		<g>
																			<g>
																				<g>
																					<g>
																						<g>
																							<g>
																								<g>
																									<g>
																										<g>
																											<g>
																												<path class="st3" d="M238.1,218.3c0.2,0.9,1.1,1.4,2,1.2c0.9-0.2,1.5-1,1.3-1.9c-0.2-0.9-1.1-1.4-2-1.2
																													C238.5,216.6,237.9,217.5,238.1,218.3z"/>
																											</g>
																										</g>
																									</g>
																								</g>
																							</g>
																						</g>
																					</g>
																				</g>
																			</g>
																		</g>
																		<g>
																			<g>
																				<g>
																					<g>
																						<g>
																							<g>
																								<g>
																									<g>
																										<g>
																											<g>
																												<g>
																													<path class="st3" d="M235.7,215c0.3,0.2,1.2-1.1,3-1.5c1.7-0.5,3.2,0.1,3.4-0.2
																														c0.1-0.1-0.2-0.4-0.9-0.7c-0.6-0.3-1.7-0.4-2.8-0.1c-1.1,0.3-1.9,0.9-2.3,1.5
																														C235.7,214.5,235.6,214.9,235.7,215z"/>
																												</g>
																											</g>
																										</g>
																									</g>
																								</g>
																							</g>
																						</g>
																					</g>
																				</g>
																			</g>
																		</g>
																	</g>
																	<g>
																		<g>
																			<g>
																				<g>
																					<g>
																						<g>
																							<g>
																								<g>
																									<g>
																										<g>
																											<g>
																												<path class="st3" d="M232.7,229.4c0-0.1-1.1,0-2.9,0.2c-0.5,0.1-0.9,0.1-1-0.2c-0.2-0.3-0.1-0.8,0-1.4
																													c0.1-1.2,0.3-2.4,0.5-3.7c0.6-5.2,0.9-9.5,0.7-9.5c-0.2,0-0.9,4.2-1.5,9.4c-0.1,1.3-0.3,2.5-0.4,3.7
																													c0,0.5-0.2,1.2,0.2,1.8c0.2,0.3,0.6,0.5,0.9,0.5c0.3,0,0.6,0,0.8-0.1
																													C231.6,229.7,232.7,229.5,232.7,229.4z"/>
																											</g>
																										</g>
																									</g>
																								</g>
																							</g>
																						</g>
																					</g>
																				</g>
																			</g>
																		</g>
																	</g>
																	<g>
																		<g>
																			<g>
																				<g>
																					<g>
																						<g>
																							<g>
																								<g>
																									<g>
																										<g>
																											<path class="st8" d="M238.4,249.6c0,0,6.8-1.2,14-8.4c0,0-0.4,9.5-13.3,11.6L238.4,249.6z"/>
																										</g>
																									</g>
																								</g>
																							</g>
																						</g>
																					</g>
																				</g>
																			</g>
																		</g>
																	</g>
																	<g>
																		<g>
																			<g>
																				<g>
																					<g>
																						<g>
																							<g>
																								<g>
																									<g>
																										<g>
																											<path class="st8" d="M234.4,233.3c0.4-1,1.4-1.7,2.5-1.9c0.8-0.1,1.6,0,2.2,0.5c0.6,0.5,0.9,1.3,0.7,2
																												c-0.3,0.8-1.2,1.2-2.1,1.2c-0.9,0-1.7-0.4-2.6-0.7c-0.2-0.1-0.5-0.2-0.6-0.4
																												C234.4,233.9,234.3,233.6,234.4,233.3"/>
																										</g>
																									</g>
																								</g>
																							</g>
																						</g>
																					</g>
																				</g>
																			</g>
																		</g>
																	</g>
																	<g>
																		<g>
																			<g>
																				<g>
																					<g>
																						<g>
																							<g>
																								<g>
																									<g>
																										<g>
																											<g>
																												<path class="st3" d="M238.1,229.2c-0.3,0.1,0.2,1.9-1.1,3.7c-1.3,1.7-3.3,2.1-3.3,2.3
																													c0,0.1,0.5,0.2,1.4,0c0.8-0.2,2-0.8,2.8-1.8c0.8-1.1,0.9-2.3,0.8-3
																													C238.5,229.6,238.2,229.2,238.1,229.2z"/>
																											</g>
																										</g>
																									</g>
																								</g>
																							</g>
																						</g>
																					</g>
																				</g>
																			</g>
																		</g>
																	</g>
																</g>
															</g>
														</g>
														<g>
															<g>
																<g>
																	<g>
																		<g>
																			<g>
																				<g>
																					<g>
																						<g>
																							<g>
																								<path class="st3" d="M233.5,209.5c0.3,0.4,2-0.3,4.1-0.5c2.1-0.3,3.9-0.2,4-0.7c0.1-0.2-0.3-0.6-1.1-0.9
																									c-0.8-0.3-1.9-0.4-3.2-0.3c-1.3,0.2-2.3,0.7-3,1.2C233.7,208.8,233.4,209.3,233.5,209.5z"/>
																							</g>
																						</g>
																					</g>
																				</g>
																			</g>
																		</g>
																	</g>
																</g>
															</g>
														</g>
														<g>
															<g>
																<g>
																	<g>
																		<g>
																			<g>
																				<g>
																					<g>
																						<g>
																							<g>
																								<path class="st3" d="M217.5,214.3c0.4,0.3,1.5-0.4,2.9-0.8c1.4-0.4,2.7-0.4,2.9-0.9
																									c0.1-0.2-0.2-0.6-0.8-0.8c-0.6-0.2-1.6-0.3-2.6,0c-1,0.3-1.7,0.9-2.1,1.4
																									C217.4,213.7,217.3,214.2,217.5,214.3z"/>
																							</g>
																						</g>
																					</g>
																				</g>
																			</g>
																		</g>
																	</g>
																</g>
															</g>
														</g>
													</g>
												</g>
											</g>
										</g>
									</g>
								</g>
							</g>
						</g>
					</g>
				</g>
				<g>
					<g>
						<path class="st3" d="M280.1,249.7c-2.8-10.1-6-20.2-9.6-30.1c-2.2-6-4.5-11.9-7.8-17.3c-3.4-5.4-7.9-10.2-13.5-13
							c-4-2-8.6-2.9-13-2.3c-4.3-0.3-8.6,0.7-11.9,3.5c-1.7,1.4-3,3.7-2.1,5.6c0.7,1.6,2.5,2.2,4.1,2.7c4.5,1.4,9,2.8,13.4,4.3
							c0,0,0.1,0.1,0.1,0.1c0.2,0.2,0.5,0.5,0.8,0.8c1.2,1.2,2.6,3.2,3.9,6c1.2,2.8,2.2,6.3,2.7,10.3c0.5,4,0.4,8.5,0.6,13.3
							c0.2,4.8,0.7,9.5,2.1,13.6c1.4,4.1,3.3,7.4,5.1,10c1.7,2.5,3.3,4.3,4.4,5.6c0.1,0.7,0.3,1.4,0.3,2.1c0.1,2.1-0.3,4.2-0.3,6.3
							c0,2.1,0.6,4.4,2.2,5.7c1.6,1.4,4,1.5,6,0.7c1.9-0.8,3.4-2.4,4.5-4.2c2.4-3.9,3.1-8.7,2.7-13.4c0-0.6-0.1-1.1-0.2-1.7
							c0.8-0.1,1.6-0.4,2.4-0.7c1.7-0.7,3.3-2.2,3.6-4C280.8,252.3,280.5,251,280.1,249.7z M256.4,256.3c-1.5-2.7-3.2-5.9-4.4-9.8
							c-1.2-3.8-1.6-8.2-1.8-13c-0.1-3-0.2-6-0.3-8.8c0.2,1.2,0.5,2.3,0.7,3.5c1.6,8.9,2.5,18.1,5.9,26.6c0.6,1.5,1.3,3,1.8,4.5
							C257.7,258.4,257.1,257.4,256.4,256.3z"/>
					</g>
					<g>
						<g>
							<g>
								<g>
									<path class="st12" d="M263.4,203.2c0,0-0.1,0-0.4-0.1c-0.3,0-0.7-0.1-1.2-0.1c-0.5,0-1.1-0.1-1.8-0.2
										c-0.7-0.1-1.5-0.2-2.4-0.3c-1.8-0.2-3.9-0.6-6.3-1.1c-2.4-0.5-4.9-1.1-7.6-1.8c-2.7-0.8-5.2-1.6-7.4-2.4
										c-2.3-0.8-4.3-1.7-5.9-2.4c-0.8-0.4-1.6-0.7-2.2-1c-0.7-0.3-1.2-0.6-1.7-0.8c-0.4-0.2-0.8-0.4-1.1-0.5
										c-0.2-0.1-0.4-0.2-0.4-0.2c0,0,0.1,0.1,0.4,0.2c0.3,0.1,0.6,0.3,1,0.6c0.5,0.2,1,0.5,1.7,0.8c0.7,0.3,1.4,0.7,2.2,1.1
										c1.7,0.8,3.7,1.6,5.9,2.5c2.3,0.8,4.8,1.7,7.5,2.4c2.7,0.8,5.3,1.3,7.6,1.8c2.4,0.5,4.5,0.8,6.3,1c0.9,0.1,1.7,0.2,2.4,0.3
										c0.7,0.1,1.3,0.1,1.9,0.2c0.5,0,0.9,0.1,1.2,0.1C263.2,203.2,263.4,203.2,263.4,203.2z"/>
								</g>
							</g>
						</g>
					</g>
					<g>
						<g>
							<g>
								<g>
									<path class="st11" d="M263.8,204.9c0,0-0.1,0-0.4,0c-0.3,0-0.7,0-1.2,0.1c-0.3,0-0.5,0-0.9,0.1c-0.3,0-0.7,0-1,0
										c-0.7,0-1.6,0.1-2.5,0c-0.5,0-0.9,0-1.5,0c-0.5,0-1-0.1-1.6-0.1c-1.1,0-2.2-0.2-3.5-0.3c-2.4-0.3-5.1-0.7-7.8-1.4
										c-2.7-0.7-5.3-1.6-7.6-2.5c-1.1-0.5-2.2-0.9-3.2-1.4c-0.5-0.2-1-0.4-1.4-0.7c-0.4-0.2-0.9-0.5-1.3-0.7
										c-0.8-0.4-1.5-0.9-2.2-1.2c-0.3-0.2-0.6-0.4-0.9-0.5c-0.3-0.2-0.5-0.3-0.7-0.5c-0.4-0.3-0.8-0.5-1-0.6
										c-0.2-0.1-0.4-0.2-0.4-0.2c0,0,0.1,0.1,0.3,0.2c0.2,0.2,0.6,0.4,1,0.7c0.2,0.1,0.5,0.3,0.7,0.5c0.3,0.2,0.6,0.3,0.9,0.5
										c0.6,0.4,1.4,0.8,2.2,1.3c0.4,0.2,0.8,0.5,1.3,0.7c0.4,0.2,0.9,0.5,1.4,0.7c1,0.5,2.1,0.9,3.2,1.4c2.3,0.9,4.9,1.8,7.6,2.5
										c2.8,0.7,5.4,1.1,7.9,1.4c1.2,0.1,2.4,0.2,3.5,0.3c0.5,0,1.1,0.1,1.6,0.1c0.5,0,1,0,1.5,0c0.9,0,1.8,0,2.5-0.1
										c0.4,0,0.7,0,1-0.1c0.3,0,0.6-0.1,0.9-0.1c0.5-0.1,0.9-0.1,1.2-0.1C263.7,204.9,263.8,204.9,263.8,204.9z"/>
								</g>
							</g>
						</g>
					</g>
					<g>
						<g>
							<g>
								<g>
									<path class="st12" d="M270.3,268.2c0,0,0-0.1,0-0.2c0-0.1,0-0.3,0-0.5c0-0.4-0.1-1.1-0.2-1.9c-0.2-1.6-0.5-4-1.1-6.9
										c-0.6-2.9-1.5-6.3-2.7-10c-1.2-3.7-2.6-7.7-4-12c-2.9-8.5-5.5-16.1-7.4-21.7c-1-2.8-1.7-5-2.3-6.6
										c-0.3-0.8-0.5-1.4-0.6-1.8c-0.1-0.2-0.1-0.3-0.2-0.5c0-0.1-0.1-0.2-0.1-0.2s0,0.1,0,0.2c0,0.1,0.1,0.3,0.1,0.5
										c0.1,0.4,0.3,1,0.6,1.8c0.5,1.6,1.3,3.8,2.2,6.6c1.9,5.6,4.5,13.3,7.3,21.7c1.4,4.2,2.8,8.3,4,12c1.2,3.7,2.1,7.1,2.7,9.9
										c0.6,2.9,1,5.2,1.2,6.8c0.1,0.8,0.2,1.4,0.2,1.9c0,0.2,0,0.4,0.1,0.5C270.3,268.2,270.3,268.2,270.3,268.2z"/>
								</g>
							</g>
						</g>
					</g>
					<g>
						<g>
							<g>
								<g>
									<path class="st12" d="M258.5,243.3c0,0,0-0.1,0-0.4c0-0.3-0.1-0.7-0.2-1.2c-0.2-1-0.4-2.4-0.7-4.2
										c-0.6-3.6-1.6-8.5-2.8-13.9c-1.2-5.4-2.5-10.2-3.5-13.7c-0.5-1.7-0.9-3.1-1.2-4.1c-0.1-0.5-0.3-0.8-0.3-1.1
										c-0.1-0.3-0.1-0.4-0.1-0.4c0,0,0,0.1,0.1,0.4c0.1,0.3,0.2,0.7,0.3,1.1c0.3,1,0.7,2.4,1.1,4.1c0.9,3.5,2.2,8.3,3.4,13.7
										c1.2,5.4,2.2,10.3,2.9,13.8c0.3,1.8,0.6,3.2,0.8,4.2c0.1,0.5,0.2,0.9,0.2,1.1C258.5,243.2,258.5,243.3,258.5,243.3z"/>
								</g>
							</g>
						</g>
					</g>
				</g>
			</g>
		</g>
		<g>
			<g>
				<g>
					<path class="st7" d="M335.7,257.6c0,0,1.1-3,1.5-7.2c0.5-4.2,0.5-4.4-0.4-6.3c-0.9-1.9-2.6-2.6-3.4-3.5c-0.8-0.9,2.1-2,4.7-0.3
						c2.5,1.7,4.5,5,5,5.8c2.7,3.9,5,4,5,4l10.2-2.6c0,0,2.1-3.1,4-2.7l0.8,0.2l0.3-0.2c0.8-0.5,1.9,0.1,2,1c0,0.3,0,0.6-0.2,0.9
						c-0.7,1.5-7.2,7.2-7.5,8.7c-0.3,1.5,0,4-2.8,6.7c-2.9,2.7-6.2,3.8-9.7,4.2l-0.5,1.5l-10.9-6L335.7,257.6z"/>
				</g>
				<g>
					<g>
						<path class="st8" d="M355.7,258.5c0,0,0-0.3,0.1-1c0.1-0.7,0.3-1.6,0.4-2.6c0.2-1.1,0.5-2.4,0.7-3.8c0.1-0.7,0.3-1.5,0-2.1
							c-0.2-0.3-0.4-0.6-0.8-0.6c-0.3-0.1-0.7,0.1-1,0.3c-0.7,0.6-0.9,1.6-1.1,2.5c-0.3,0.9-0.5,1.7-0.8,2.5c-0.5,1.5-0.9,2.9-1.3,4
							l0,0.1l-0.1,0c-0.8,0.1-1.3,0.4-1.7,0.7c-0.3,0.3-0.5,0.4-0.5,0.4c0,0,0.1-0.2,0.4-0.5c0.3-0.3,0.9-0.7,1.8-0.8l-0.1,0.1
							c0.3-1.1,0.7-2.5,1.2-4c0.2-0.8,0.5-1.6,0.8-2.5c0.1-0.4,0.3-0.9,0.4-1.4c0.2-0.5,0.4-1,0.9-1.3c0.4-0.3,0.9-0.5,1.4-0.4
							c0.5,0.1,0.9,0.5,1.1,0.9c0.4,0.8,0.2,1.7,0.1,2.4c-0.3,1.4-0.6,2.7-0.8,3.8c-0.2,1-0.4,1.9-0.6,2.6
							C355.9,258.2,355.8,258.5,355.7,258.5z"/>
					</g>
				</g>
				<g>
					<g>
						<path class="st8" d="M363.4,245c0.1,0.1-1.1,2.3-2.8,5.1c-1.6,2.7-3,4.9-3.2,4.8c-0.1-0.1,1.1-2.3,2.8-5.1
							C361.8,247.1,363.2,244.9,363.4,245z"/>
					</g>
				</g>
				<g>
					<g>
						<path class="st8" d="M357.2,249.9c-0.1,0,0-1.1,0.7-2.3c0.7-1.2,1.6-1.8,1.7-1.7c0.1,0.1-0.7,0.8-1.3,1.9
							C357.6,248.9,357.3,249.9,357.2,249.9z"/>
					</g>
				</g>
				<g>
					<g>
						<path class="st8" d="M343.8,247.6c0,0,0.6,0.4,1.2,1.3c0.6,0.9,1.3,2.4,1.5,4.1c0.2,1.7-0.1,3.3-0.5,4.3
							c-0.4,1-0.8,1.6-0.9,1.6c-0.1,0,0.3-0.6,0.6-1.7c0.3-1,0.6-2.5,0.4-4.2c-0.2-1.6-0.8-3-1.3-4
							C344.2,248.1,343.7,247.6,343.8,247.6z"/>
					</g>
				</g>
				<g>
					<g>
						<path class="st8" d="M350.8,255.9c-0.1,0-0.3-1.3-1-2.8c-0.7-1.5-1.7-2.4-1.6-2.5c0.1-0.1,1.2,0.7,2,2.3
							C351,254.5,350.9,255.9,350.8,255.9z"/>
					</g>
				</g>
			</g>
			<g>
				<g>
					<path class="st8" d="M353.4,251.5c0,0.1-0.7,0.5-1.7,0.9c-1,0.4-1.9,0.6-1.9,0.5c0-0.1,0.7-0.5,1.7-0.9
						C352.5,251.6,353.4,251.4,353.4,251.5z"/>
				</g>
			</g>
		</g>
		<g>
			<g>
				<g>
					<g>
						<g>
							<g>
								<g>
									<g>
										<g>
											<g>
												<path class="st12" d="M325,397.8l22.9,6.6c0,0-0.6,24.9,3.5,26.6l16-43.4l-35.3-11.7L325,397.8z"/>
											</g>
										</g>
									</g>
								</g>
							</g>
						</g>
					</g>
					<g class="st10">
						<g>
							<g>
								<g>
									<g>
										<g>
											<g>
												<g>
													<path class="st11" d="M350.4,390.1c0.5-0.8,1.7-1.1,2.5-0.6c0.8,0.5,1.1,1.6,0.6,2.4c-0.5,0.8-1.9,1.2-2.6,0.6
														c-0.7-0.6-1-2-0.3-2.6"/>
												</g>
											</g>
										</g>
									</g>
								</g>
							</g>
						</g>
					</g>
					<g class="st10">
						<g>
							<g>
								<g>
									<g>
										<g>
											<g>
												<path class="st11" d="M367.4,387.5l-3.6-1.2l-13.9,42.5c0,0,0.1,1.6,1.8,2.5L367.4,387.5z"/>
											</g>
										</g>
									</g>
								</g>
							</g>
						</g>
					</g>
					<g>
						<g>
							<g>
								<g>
									<g>
										<g>
											<g>
												<g>
													<path class="st3" d="M347.5,405c0.2,0.1,0.7-1,1.7-1.8c1-0.9,2.1-1.1,2.1-1.3c0-0.2-1.4-0.3-2.6,0.7
														C347.4,403.6,347.3,404.9,347.5,405z"/>
												</g>
											</g>
										</g>
									</g>
								</g>
							</g>
						</g>
					</g>
					<g>
						<g>
							<g>
								<g>
									<g>
										<g>
											<g>
												<g>
													<path class="st3" d="M347.9,410.2c0.2,0.1,0.9-0.7,2-1.1c1.1-0.5,2.2-0.3,2.2-0.5c0.1-0.2-1.1-0.7-2.5-0.2
														C348.2,408.9,347.7,410.1,347.9,410.2z"/>
												</g>
											</g>
										</g>
									</g>
								</g>
							</g>
						</g>
					</g>
					<g>
						<g>
							<g>
								<g>
									<g>
										<g>
											<g>
												<g>
													<path class="st3" d="M352.5,414.6c0.1-0.2-0.9-0.8-2.2-0.7c-1.4,0.2-2.2,1-2,1.2c0.1,0.2,1-0.3,2.1-0.4
														C351.5,414.6,352.5,414.8,352.5,414.6z"/>
												</g>
											</g>
										</g>
									</g>
								</g>
							</g>
						</g>
					</g>
					<g>
						<g>
							<g>
								<g>
									<g>
										<g>
											<g>
												<g>
													<path class="st3" d="M342.4,402.9c0.2,0,0.2-1.1,0.7-2.3c0.5-1.2,1.2-2,1-2.2c-0.1-0.2-1.2,0.5-1.8,1.9
														C341.8,401.7,342.2,402.9,342.4,402.9z"/>
												</g>
											</g>
										</g>
									</g>
								</g>
							</g>
						</g>
					</g>
				</g>
			</g>
			<g>
				<g>
					<g>
						<g>
							<g>
								<g>
									<g>
										<g>
											<g>
												<path class="st12" d="M301.7,393.4l-21.6,10.1c0,0,4.5,24.5,0.7,26.8l-22.6-40.4l33-17.1L301.7,393.4z"/>
											</g>
										</g>
									</g>
								</g>
							</g>
						</g>
					</g>
					<g class="st10">
						<g>
							<g>
								<g>
									<g>
										<g>
											<g>
												<g>
													<path class="st11" d="M275.3,389.8c-0.6-0.7-1.8-0.8-2.5-0.2c-0.7,0.6-0.8,1.8-0.2,2.5c0.6,0.7,2,0.9,2.7,0.2
														c0.6-0.7,0.7-2.1-0.1-2.6"/>
												</g>
											</g>
										</g>
									</g>
								</g>
							</g>
						</g>
					</g>
					<g class="st10">
						<g>
							<g>
								<g>
									<g>
										<g>
											<g>
												<path class="st11" d="M258.2,389.8l3.3-1.7l20.4,39.8c0,0,0.2,1.6-1.4,2.7L258.2,389.8z"/>
											</g>
										</g>
									</g>
								</g>
							</g>
						</g>
					</g>
					<g>
						<g>
							<g>
								<g>
									<g>
										<g>
											<g>
												<g>
													<path class="st3" d="M280.6,404c-0.2,0.1-0.8-0.9-2-1.5c-1.1-0.7-2.3-0.8-2.3-1c-0.1-0.2,1.3-0.5,2.7,0.3
														C280.4,402.6,280.8,404,280.6,404z"/>
												</g>
											</g>
										</g>
									</g>
								</g>
							</g>
						</g>
					</g>
					<g>
						<g>
							<g>
								<g>
									<g>
										<g>
											<g>
												<g>
													<path class="st3" d="M281,409.2c-0.2,0.1-1-0.6-2.2-0.8c-1.2-0.3-2.2,0-2.3-0.2c-0.1-0.2,1-0.9,2.5-0.6
														C280.5,408,281.2,409.1,281,409.2z"/>
												</g>
											</g>
										</g>
									</g>
								</g>
							</g>
						</g>
					</g>
					<g>
						<g>
							<g>
								<g>
									<g>
										<g>
											<g>
												<g>
													<path class="st3" d="M277.1,414.3c-0.1-0.2,0.7-1,2.1-1c1.4-0.1,2.3,0.7,2.2,0.8c-0.1,0.2-1-0.1-2.1-0.1
														C278.1,414.2,277.2,414.5,277.1,414.3z"/>
												</g>
											</g>
										</g>
									</g>
								</g>
							</g>
						</g>
					</g>
					<g>
						<g>
							<g>
								<g>
									<g>
										<g>
											<g>
												<g>
													<path class="st3" d="M285.3,401.2c-0.2,0-0.4-1.1-1.1-2.2c-0.6-1.1-1.5-1.8-1.3-2c0.1-0.2,1.3,0.3,2,1.6
														C285.7,399.9,285.5,401.2,285.3,401.2z"/>
												</g>
											</g>
										</g>
									</g>
								</g>
							</g>
						</g>
					</g>
				</g>
			</g>
			<g>
				<g>
					<path class="st3" d="M319.9,344.9c0,0,33.2-8.5,41.5-6.7c8.4,1.8,18.8,3.1,20.3,9.3c1.5,6.2,1,16.3-5.1,21.9
						c-6.1,5.6-80.4,29.4-80.4,29.4l-7.4-20l-18.8-34.2C286.5,345.5,304.6,346.9,319.9,344.9z"/>
				</g>
				<g>
					<g>
						<path class="st12" d="M294.2,379.8c0,0,0.2-0.1,0.6-0.3c0.4-0.2,1-0.4,1.8-0.7c1.5-0.6,3.7-1.4,6.4-2.6
							c5.4-2.3,12.6-6.1,19.8-11.4c3.6-2.6,6.9-5.3,10.1-7.6c3.2-2.2,6.2-4.1,8.9-5.2c2.7-1.2,5-1.8,6.7-2c0.8-0.2,1.5-0.1,1.9-0.2
							c0.4,0,0.7,0,0.7,0c0,0.1-0.9,0.1-2.5,0.4c-1.6,0.3-3.9,0.9-6.6,2.1c-2.7,1.2-5.7,3-8.8,5.3c-3.2,2.3-6.5,4.9-10.1,7.6
							c-7.3,5.3-14.5,9-20,11.3c-2.7,1.1-4.9,2-6.5,2.5c-0.8,0.3-1.4,0.4-1.8,0.6C294.4,379.8,294.2,379.8,294.2,379.8z"/>
					</g>
				</g>
				<g>
					<path class="st3" d="M258.3,342.7c0,0-10.1,3.1-12.8,17.1c-2.7,13.9,4.6,29.7,6.4,31.9s37.1,3.8,37.1,3.8l49.4,7.6
						c0,0,5.4-4.3,6.5-13.6c0.8-7.1,0.1-9.2,0.1-9.2L291.9,355C291.9,355,267.1,341,258.3,342.7z"/>
				</g>
				<g>
					<g>
						<path class="st12" d="M270.1,344.6c0,0,0.1,0,0.4,0.2c0.3,0.1,0.6,0.3,1.1,0.5c1,0.5,2.4,1.1,4.3,2c3.7,1.8,9.1,4.3,15.8,7.5
							c13.4,6.4,32.1,15.3,53.4,25.4l0.1,0.1l0,0.1c0.4,2.7,0.5,5.5,0.2,8.4c-0.3,2.8-1.1,5.7-2.4,8.3c-0.6,1.2-1.2,2.4-2,3.4
							c-0.8,1.1-1.6,2.1-2.5,2.9l-0.1,0.1l-0.1,0c-12.8-2-24.8-3.8-35.8-5.5c-2.7-0.4-5.4-0.9-8-1.2c-2.6-0.5-5.1-1-7.4-1.8
							c-4.7-1.4-8.9-3.2-12.6-5.1c-3.7-1.9-6.9-3.8-9.6-5.7c-1.3-1-2.6-1.8-3.7-2.7c-1.1-0.8-2.1-1.7-3-2.4
							c-0.9-0.7-1.6-1.5-2.3-2.1c-0.7-0.6-1.2-1.1-1.6-1.6c-0.4-0.4-0.7-0.8-0.9-1c-0.2-0.2-0.3-0.4-0.3-0.4s0.1,0.1,0.3,0.3
							c0.2,0.2,0.5,0.6,1,1c0.4,0.4,0.9,1,1.6,1.6c0.7,0.6,1.4,1.3,2.3,2c0.9,0.7,1.9,1.6,3,2.4c1.1,0.9,2.4,1.7,3.7,2.7
							c2.7,1.8,5.9,3.7,9.6,5.6c3.7,1.8,7.9,3.6,12.6,5c2.3,0.7,4.8,1.3,7.4,1.7c2.6,0.3,5.2,0.8,8,1.2c10.9,1.7,23,3.5,35.8,5.5
							l-0.2,0.1c1.7-1.6,3.3-3.8,4.4-6.2c1.2-2.6,2-5.4,2.3-8.2c0.3-2.8,0.2-5.6-0.2-8.3l0.1,0.2c-21.2-10.2-39.9-19.1-53.3-25.5
							c-6.7-3.2-12-5.8-15.7-7.6c-1.8-0.9-3.2-1.6-4.2-2.1c-0.5-0.2-0.8-0.4-1.1-0.5C270.2,344.7,270.1,344.6,270.1,344.6z"/>
					</g>
				</g>
			</g>
			<g>
				<g>
					<path class="st12" d="M251.4,392.1c0,0-0.1-0.1-0.2-0.4c-0.1-0.3-0.4-0.7-0.6-1.3c-0.5-1.1-1.3-2.8-2.1-4.9
						c-1.6-4.2-3.5-10.2-3.7-17.1c-0.1-3.4,0.2-6.7,0.8-9.7c0.3-1.5,0.8-2.8,1.3-4.1c0.5-1.2,1.1-2.3,1.6-3.3
						c1.2-1.9,2.4-3.3,3.3-4.2c0.4-0.5,0.8-0.8,1.1-1c0.2-0.2,0.4-0.3,0.4-0.3c0,0-0.5,0.5-1.3,1.4c-0.8,0.9-2,2.3-3.1,4.3
						c-0.6,1-1.1,2.1-1.6,3.3c-0.5,1.2-0.9,2.6-1.2,4c-0.6,2.9-0.9,6.1-0.8,9.6c0.2,6.8,2.1,12.8,3.6,17.1c0.8,2.1,1.4,3.8,1.9,5
						c0.2,0.5,0.4,1,0.6,1.3C251.4,392,251.4,392.1,251.4,392.1z"/>
				</g>
			</g>
		</g>
	</g>
	<g>
		<g>
			<g>
				<g>
					<path class="st3" d="M203.3,254c-2-6.6-5.2-13-6.2-19.8l-6.3,0.9c-4.3,1.2-8.1,4-10.5,7.7c-2.4,3.8-3.3,8.4-2.6,12.8
						c0.7,4,2.7,7.6,3.6,11.5s0.5,8.6-2.6,11.1c1.5,0.1,3-0.4,4.2-1.3c0.2,1.5-0.3,3-1.1,4.1c2.8,0.4,5.6-0.2,8-1.8
						c0.1,1.1-0.4,2.2-1.3,2.8c5.6-0.1,11.1-3.1,14-7.9C206.1,268.2,205.3,260.6,203.3,254z"/>
				</g>
				<g>
					<g>
						<g>
							<g>
								<path class="st7" d="M184.2,253.2c-1-6.7,4.7-14.9,11.5-15.6l16.1,0.5c2.2,0.1,4.2,1.4,5.2,3.4l0,0l7.8,44.5l0,0
									c0,0,3.2,13.8-9,15.6c-11,1.6-12.8-10-12.8-10l-1.4-8.4c0,0-8.8,1.5-12.9-9.2C186.5,268.7,185.3,260.6,184.2,253.2z"/>
							</g>
						</g>
						<g>
							<g>
								<g>
									<g>
										<g>
											<g>
												<g>
													<g>
														<g>
															<g>
																<g>
																	<g>
																		<path class="st3" d="M190.7,261.1c0.1,0.8,0.9,1.3,1.7,1.1c0.8-0.1,1.3-0.8,1.2-1.6c-0.1-0.8-0.9-1.3-1.7-1.1
																			C191.1,259.6,190.6,260.3,190.7,261.1z"/>
																	</g>
																</g>
															</g>
														</g>
													</g>
												</g>
											</g>
										</g>
									</g>
								</g>
							</g>
						</g>
						<g>
							<g>
								<g>
									<g>
										<g>
											<g>
												<g>
													<g>
														<g>
															<g>
																<g>
																	<g>
																		<g>
																			<path class="st3" d="M187.4,258.6c0.2,0.1,1.1-0.9,2.6-1.2c1.5-0.3,2.8,0.2,2.9,0c0.1-0.1-0.2-0.4-0.7-0.6
																				c-0.6-0.3-1.4-0.4-2.4-0.2c-0.9,0.2-1.7,0.7-2.1,1.2C187.3,258.2,187.3,258.6,187.4,258.6z"/>
																		</g>
																	</g>
																</g>
															</g>
														</g>
													</g>
												</g>
											</g>
										</g>
									</g>
								</g>
							</g>
						</g>
						<g>
							<g>
								<g>
									<g>
										<g>
											<g>
												<g>
													<g>
														<g>
															<g>
																<g>
																	<g>
																		<path class="st3" d="M203.6,258.4c0.1,0.8,0.9,1.3,1.7,1.1c0.8-0.1,1.3-0.8,1.2-1.6c-0.1-0.8-0.9-1.3-1.7-1.1
																			C204,256.9,203.4,257.6,203.6,258.4z"/>
																	</g>
																</g>
															</g>
														</g>
													</g>
												</g>
											</g>
										</g>
									</g>
								</g>
							</g>
						</g>
						<g>
							<g>
								<g>
									<g>
										<g>
											<g>
												<g>
													<g>
														<g>
															<g>
																<g>
																	<g>
																		<g>
																			<path class="st3" d="M201.5,255.9c0.2,0.1,1.1-0.9,2.6-1.2c1.5-0.3,2.8,0.2,2.9,0c0.1-0.1-0.2-0.4-0.8-0.6
																				c-0.6-0.3-1.4-0.4-2.4-0.2c-0.9,0.2-1.7,0.7-2.1,1.2C201.4,255.5,201.4,255.8,201.5,255.9z"/>
																		</g>
																	</g>
																</g>
															</g>
														</g>
													</g>
												</g>
											</g>
										</g>
									</g>
								</g>
							</g>
						</g>
						<g>
							<g>
								<g>
									<g>
										<g>
											<g>
												<g>
													<g>
														<g>
															<g>
																<g>
																	<g>
																		<path class="st3" d="M199.2,268c0-0.1-1,0-2.6,0.1c-0.4,0-0.8,0.1-0.9-0.2c-0.1-0.2-0.1-0.6,0-1
																			c0.2-0.9,0.4-1.8,0.6-2.7c0.2-1,1.2-6.6,1.1-7.1c-0.2,0-1,3.1-1.8,7c-0.2,1-0.4,1.9-0.5,2.8
																			c-0.1,0.4-0.2,0.9,0.1,1.3c0.2,0.2,0.5,0.3,0.7,0.4c0.3,0,0.5,0,0.7-0.1C198.3,268.2,199.2,268,199.2,268z"/>
																	</g>
																</g>
															</g>
														</g>
													</g>
												</g>
											</g>
										</g>
									</g>
								</g>
							</g>
						</g>
						<g>
							<g>
								<g>
									<g>
										<g>
											<g>
												<g>
													<g>
														<g>
															<g>
																<g>
																	<path class="st8" d="M201.4,283.3c0,0,7.5-1.1,14-7.1c0,0-2.1,8.5-13.4,9.8L201.4,283.3z"/>
																</g>
															</g>
														</g>
													</g>
												</g>
											</g>
										</g>
									</g>
								</g>
							</g>
						</g>
						<g>
							<g>
								<g>
									<g>
										<g>
											<g>
												<g>
													<g>
														<g>
															<g>
																<g>
																	<g>
																		<path class="st3" d="M203.8,267.1c-0.3,0,0.1,1.7-1.1,3.2c-1.2,1.5-3,1.7-2.9,1.9c0,0.1,0.5,0.2,1.2,0.1
																			c0.7-0.1,1.8-0.6,2.5-1.5c0.7-0.9,0.9-1.9,0.8-2.6C204.2,267.5,203.9,267.1,203.8,267.1z"/>
																	</g>
																</g>
															</g>
														</g>
													</g>
												</g>
											</g>
										</g>
									</g>
								</g>
							</g>
						</g>
						<g>
							<g>
								<g>
									<g>
										<g>
											<g>
												<g>
													<g>
														<path class="st3" d="M200.9,250.7c0.3,0.4,1.5-0.2,3.1-0.4c1.6-0.3,3-0.1,3.1-0.5c0-0.2-0.3-0.6-1-0.9
															c-0.6-0.3-1.6-0.5-2.5-0.3c-1,0.2-1.7,0.6-2.2,1.1C200.9,250,200.8,250.5,200.9,250.7z"/>
													</g>
												</g>
											</g>
										</g>
									</g>
								</g>
							</g>
						</g>
						<g>
							<g>
								<g>
									<g>
										<g>
											<g>
												<g>
													<g>
														<path class="st3" d="M186.2,253.4c0.3,0.4,1.4-0.2,2.7-0.4c1.3-0.3,2.5-0.1,2.7-0.5c0.1-0.2-0.2-0.6-0.7-0.9
															c-0.5-0.3-1.4-0.5-2.3-0.4c-0.9,0.2-1.7,0.6-2.1,1.1C186.1,252.8,186,253.2,186.2,253.4z"/>
													</g>
												</g>
											</g>
										</g>
									</g>
								</g>
							</g>
						</g>
					</g>
				</g>
				<g>
					<path class="st3" d="M189.9,235.4c-2.6,6.9,4.1,8.3,7.7,10.3c3.6,2,7.7,3.2,11.7,4.2c1,0.3,2,0.6,2.8,1.3
						c0.6,0.6,0.8,1.4,1.1,2.3c0.7,2.4,1.5,4.8,2.2,7.2c0.5,1.7,1.1,3.4,1.1,5.2c0.1,1.8-0.4,3.6-1.6,4.9c1-0.1,2-0.7,2.6-1.5
						c0.1,2.6-0.4,5.2-1.6,7.5c3.2,0,6.4-2.1,7.7-5c0.2,1.2,0.9,2,1.9,2.9c0.4,0.3,1.1,0.6,1,0.1c-0.4-1.1-0.6-2.5-0.8-3.5
						c1.6,0.6,2,1.2,5.4,0.1c-1.9-1.5-2.6-2.4-3.3-4.4c0,0,0.9,1.9,3.9,1c0,0-3.8-3-4.1-8c-0.2-4.4-0.1-9.6-1-13.9
						c-0.9-4.3-3-8.5-6.4-11.2c-2.8-2.3-6.3-3.5-9.9-4.1c-3.8-0.7-7.7-0.6-11.5,0C196.3,231.1,191,232,189.9,235.4"/>
				</g>
			</g>
			<g>
				<g>
					<path class="st9" d="M215.8,276.8c0-0.1,0.9-0.1,2.5-0.6c0.8-0.3,1.7-0.7,2.6-1.4c0.9-0.7,1.9-1.7,2.4-3.1l0.2-0.4l0.1,0.4
						c0.2,0.7,0.4,1.4,0.9,1.9c0.4,0.6,1.1,1.1,1.9,1.2l-0.2,0.2c-0.3-1.2-0.6-2.5-0.9-3.8l-0.1-0.4l0.4,0.2
						c1.5,0.9,3.5,0.9,5.2,0.1l0,0.4c-1.5-1-2.8-2.6-3.3-4.5l-0.3-1.1l0.7,0.9c0.8,1,2.3,1.5,3.6,0.9l0,0.4
						c-2.3-1.8-3.6-4.8-4.1-7.8c-0.5-2.9-0.4-5.8-0.4-8.6c0-2.8-0.2-5.4-1-7.8c-1.5-4.8-4.8-8.4-8-10.4c-3.2-2-6.4-2.7-8.5-2.9
						c-1.1-0.1-1.9-0.1-2.5-0.1c-0.3,0-0.5,0-0.6,0c-0.1,0-0.2,0-0.2,0c0,0,1.2-0.2,3.3-0.1c2.1,0.2,5.3,0.8,8.6,2.8
						c3.3,2,6.6,5.6,8.2,10.5c0.8,2.5,1,5.2,1,7.9c0,2.8-0.1,5.6,0.4,8.5c0.5,2.9,1.7,5.8,3.9,7.5l0.3,0.2l-0.3,0.1
						c-1.5,0.7-3.2,0.1-4.1-1l0.4-0.2c0.5,1.8,1.7,3.4,3.2,4.3l0.3,0.2l-0.3,0.2c-1.9,0.9-4,0.8-5.6-0.1l0.3-0.2
						c0.3,1.3,0.6,2.6,0.9,3.8l0.1,0.2l-0.2,0c-0.9-0.1-1.6-0.7-2.1-1.4c-0.5-0.7-0.7-1.4-0.9-2.1l0.3,0c-0.6,1.5-1.6,2.5-2.6,3.2
						c-1,0.7-1.9,1.1-2.7,1.4c-0.8,0.2-1.4,0.4-1.9,0.4C216.1,276.8,215.8,276.9,215.8,276.8z"/>
				</g>
			</g>
			<g>
				<g>
					<path class="st9" d="M223.8,264.1c0,0,0-0.2,0-0.5c0-0.4,0.1-0.9,0.1-1.4c0.1-1.3,0.2-3.1,0-5.3c-0.2-2.2-0.6-4.9-2-7.5
						c-0.7-1.3-1.7-2.5-2.9-3.5c-1.2-1-2.7-1.8-4.3-2.4c-3.2-1.1-6.5-1.4-9.5-1.7c-3-0.3-5.6-0.6-7.8-1.3c-2.2-0.6-3.8-1.5-4.8-2.3
						c-0.5-0.4-0.9-0.7-1.1-0.9c-0.2-0.2-0.4-0.4-0.3-0.4c0,0,0.5,0.5,1.6,1.2c1,0.7,2.7,1.5,4.8,2.1c2.2,0.6,4.8,0.9,7.8,1.2
						c3,0.3,6.3,0.5,9.6,1.7c1.6,0.6,3.2,1.4,4.4,2.4c1.3,1.1,2.3,2.3,3,3.7c1.4,2.7,1.9,5.4,2,7.7c0.1,2.3,0,4.1-0.2,5.3
						c-0.1,0.6-0.1,1.1-0.2,1.4C223.8,264,223.8,264.1,223.8,264.1z"/>
				</g>
			</g>
		</g>
		<g>
			<path class="st7" d="M179.6,324.5l-0.6,6.9c6.2,0.3,10.8,2,14.7,4.2l-0.4-11.2H179.6z"/>
		</g>
		<g>
			<g>
				<g>
					<path class="st3" d="M188.5,371.6c0,0-6.9,19.1-1.5,28.5c5.4,9.4,7.3,10.8,14.1,10.4c6.8-0.4,11.4-5.6,12.8-7.6
						c1.4-2,4.4-29.5,4.4-29.5l-1.2-25.8l-20.5,0.9L188.5,371.6z"/>
				</g>
				<g>
					<path class="st3" d="M245.3,345.9c0,0,2.4,14.4,2.2,26.9c-0.2,12.6-4.7,28-9.6,34.3c-2.3,3-8.3,3.8-12.6,3.4
						c-3.9-0.3-7.7-3.5-7.9-9.5c-0.2-6,0.9-29.5,0.9-29.1c0,0.4-5.5-17.5-5.5-17.5l3.3-6.9L245.3,345.9z"/>
				</g>
				<g>
					<g>
						<path class="st9" d="M219.3,367.4c0.1,0-0.1,2.5-0.5,5.6c-0.4,3.1-0.8,5.5-1,5.5c-0.1,0,0.1-2.5,0.5-5.6
							C218.8,369.8,219.2,367.4,219.3,367.4z"/>
					</g>
				</g>
				<g>
					<g>
						<path class="st9" d="M187,400.1c0,0-0.1-0.1-0.3-0.3c-0.2-0.2-0.4-0.6-0.6-1.1c-0.5-1-0.9-2.6-1.1-4.5
							c-0.4-3.9,0.1-9.3,1.3-15.2c1.2-5.8,2.9-11,4.4-14.6c0.7-1.8,1.4-3.2,1.9-4.2c0.2-0.5,0.4-0.9,0.6-1.1
							c0.1-0.3,0.2-0.4,0.2-0.4c0,0,0,0.1-0.1,0.4c-0.1,0.3-0.3,0.7-0.5,1.2c-0.4,1-1,2.5-1.7,4.3c-1.4,3.6-3,8.8-4.2,14.6
							c-1.2,5.8-1.8,11.2-1.5,15c0.1,1.9,0.5,3.5,0.9,4.5C186.7,399.6,187.1,400.1,187,400.1z"/>
					</g>
				</g>
			</g>
			<g class="st6">
				<g>
					<path d="M193.7,358l-0.3,1.1c11.3,5.8,24.7,6.6,37,3.8c5.6-1.3,11.4-3.5,14.9-8.1C228.3,357.4,211,358.4,193.7,358z"/>
				</g>
			</g>
		</g>
		<g>
			<g>
				<path class="st5" d="M196.9,286.9c0,0-10.5,1.4-13.7,16.7c-3.1,14.5-4.4,20.8-4.4,20.8h19.6L196.9,286.9z"/>
			</g>
			<g>
				<path class="st5" d="M223.8,279.3c0,0,14.1-2.9,21.9,5.3c6.4,6.8,11.7,17.9,11.7,17.9l-15.7,8L223.8,279.3z"/>
			</g>
			<g>
				<path class="st5" d="M196.9,286.9l4.7-1.5c0,0,6.5,2.8,12.4,1.1c7.3-2.1,9.6-7.2,9.6-7.2l11.8,0.7l7.6,36.8l4.4,38
					c-19.3,6.8-37.9,9.8-54.7,3.6l1.5-5l-1.5-43.2L196.9,286.9z"/>
			</g>
			<g>
				<g>
					<path class="st3" d="M194.1,347.6c0,0,0-0.2-0.1-0.5c0-0.4-0.1-0.8-0.1-1.4c-0.1-1.3-0.1-3-0.2-5.1c-0.1-2.2-0.2-4.8-0.3-7.6
						c-0.1-1.4-0.1-2.9-0.2-4.5c-0.1-1.6-0.1-3.2-0.3-4.8c-0.6-6.6-2-12.5-2.8-16.7c-0.4-2.1-0.7-3.9-0.9-5.1
						c-0.1-0.6-0.1-1-0.2-1.4c0-0.3-0.1-0.5,0-0.5c0,0,0.1,0.2,0.1,0.5c0.1,0.4,0.2,0.8,0.3,1.4c0.3,1.3,0.6,3,1,5
						c0.9,4.3,2.3,10.1,2.9,16.7c0.2,1.7,0.2,3.3,0.2,4.8c0,1.6,0.1,3.1,0.1,4.5c0.1,2.9,0.2,5.4,0.2,7.6c0,2.1,0.1,3.9,0.1,5.1
						c0,0.6,0,1,0,1.4C194.1,347.4,194.1,347.6,194.1,347.6z"/>
				</g>
			</g>
			<g>
				<g>
					<path class="st3" d="M234.4,341.6c0,0-0.4,0.3-1.1,0.6c-0.7,0.4-1.9,0.9-3.2,1.5c-2.8,1.2-6.7,2.7-11.1,4.1
						c-4.4,1.3-8.5,2.3-11.5,2.8c-1.5,0.3-2.7,0.5-3.5,0.6c-0.8,0.1-1.3,0.2-1.3,0.1c0,0,0.4-0.1,1.3-0.3c0.9-0.2,2.1-0.4,3.5-0.7
						c2.9-0.6,7-1.6,11.4-3c4.4-1.3,8.3-2.8,11.1-3.9c1.4-0.6,2.5-1,3.3-1.4C233.9,341.8,234.4,341.6,234.4,341.6z"/>
				</g>
			</g>
			<g class="st6">
				<g>
					<path d="M189.7,303.7l-0.2,0.4c-1.9,5.7-0.6,12.4,3.3,16.9C192.2,315.1,191.2,309.3,189.7,303.7z"/>
				</g>
			</g>
			<g>
				<g>
					<path class="st3" d="M231.8,338.3c0,0-0.8,0.7-2.2,1.5c-1.4,0.9-3.4,1.9-5.8,3c-2.3,1-4.5,1.8-6.1,2.2
						c-1.6,0.5-2.6,0.7-2.6,0.6c0-0.1,1-0.4,2.5-0.9c1.6-0.5,3.7-1.3,6-2.3c2.3-1,4.3-2,5.8-2.8
						C230.9,338.8,231.8,338.2,231.8,338.3z"/>
				</g>
			</g>
		</g>
		<g>
			<g>
				<g>
					<g>
						<g>
							<path class="st7" d="M255.1,299.7c0,0,2.6,6.5,4.6,12.2c2.2,6,6.3,19.3-2.4,22.4c-6.6,2.4-9.9-5.2-9.9-5.2l-5.3-18.7l4.9-2.6
								l-1.6-4.6L255.1,299.7z"/>
						</g>
					</g>
				</g>
			</g>
			<g>
				<g>
					<g>
						<g>
							<g>
								<g>
									<path class="st7" d="M246.2,305.4c0,0-3.8-3.9-4.4-5.3l-2-8.5c0,0,0.7-1.2,2.1,0c0.8,0.7,1.6,2.2,1.6,2.2l1.1,2.4l0.5-1.5
										l-0.9-5.8c0,0-0.7-4.2,0.2-4s1.6,1.2,1.9,3c0.3,1.8,0.7,4.1,0.7,4.1s0.2,0.7,0.5-0.7c0.3-1.4-0.8-6.3-0.7-7
										c0-0.7-0.5-2.4,0.7-2.7c1.2-0.3,1.4,2.1,1.4,2.1l1.7,7.3c0,0,0-3.1,0-3.7c0-0.5-0.3-2.2-0.2-3.1c0.1-1,0.5-1.6,1-1.7
										c1-0.2,1.3,0.5,1.3,0.5l0.7,6.5c0,0,0.1,3,0.3,3.2c0.1,0.1,0.8-1.5,0.8-1.5l0.2-2.2c0,0-0.3-3,0.5-3.3
										c0.9-0.4,1.1,0.2,1.1,0.2l0.6,5.4l-0.4,6.5l-1.3,6l-3,0.9L246.2,305.4z"/>
								</g>
							</g>
						</g>
					</g>
				</g>
			</g>
			<g>
				<g>
					<path class="st8" d="M250.5,329.3c0,0-0.1,0-0.2-0.1c-0.1-0.1-0.3-0.3-0.5-0.5c-0.4-0.5-0.9-1.3-1.2-2.4
						c-0.7-2.2-0.9-5.3-0.7-8.7c0.2-3.4-0.2-6.5-0.7-8.6c-0.5-2.2-1-3.5-0.9-3.5c0,0,0.2,0.3,0.4,0.9c0.2,0.6,0.5,1.4,0.8,2.5
						c0.6,2.2,1,5.3,0.8,8.7c-0.1,1.7-0.1,3.3,0,4.8c0.1,1.5,0.3,2.8,0.6,3.9c0.3,1.1,0.7,1.9,1,2.4
						C250.2,329.1,250.5,329.3,250.5,329.3z"/>
				</g>
			</g>
			<g>
				<g>
					<path class="st8" d="M250.8,300.6c-0.1,0-0.3-0.6-0.9-1.3c-0.6-0.7-1.6-1.6-3-2c-0.3-0.1-0.7-0.1-1.1-0.2
						c-0.2,0-0.4-0.1-0.5-0.1c-0.1,0-0.2,0-0.3-0.1c-0.1-0.1-0.2-0.2-0.2-0.2c-0.4-0.6-0.6-1.1-0.8-1.6c-0.4-0.9-0.6-1.5-0.6-1.5
						c0.1,0,0.4,0.5,0.8,1.4c0.2,0.4,0.5,1,0.8,1.5c0.1,0.1,0.1,0.2,0.3,0.2c0.1,0,0.3,0.1,0.5,0.1c0.3,0,0.7,0.1,1.1,0.2
						c1.5,0.4,2.6,1.4,3.2,2.2C250.8,300,250.8,300.6,250.8,300.6z"/>
				</g>
			</g>
		</g>
		<g>
			<g>
				<path class="st7" d="M186.9,331.4c-0.3-0.6-1.1-0.9-1.8-1c-0.7-0.1-1.4,0-2.1-0.3c-0.5-0.2-1-0.6-1.5-0.8c-1.3-0.6-3-0.3-4,0.8
					l-0.4-0.2c-0.6-0.5-1.4-0.5-2.1-0.2c-0.7,0.3-1.2,0.9-1.7,1.4c-1.4,1.7-2.3,3.8-2.7,6c-0.1,0.8-0.1,1.9,0.6,2.3
					c0.5,0.3,1.2,0.2,1.7-0.1c0.5-0.3,0.9-0.8,1.2-1.3c1-1.6,1.8-3.3,2.4-5.1c-0.5,2.1-1,4.3-1.1,6.5c0,0.6,0,1.1,0.2,1.7
					c0.2,0.5,0.7,1,1.2,1c0.5,0,0.9-0.2,1.2-0.5c0.3-0.3,0.5-0.8,0.7-1.2c0.9-1.9,1.6-3.8,2.2-5.8c-0.4,2-0.7,4.1-0.7,6.2
					c0,0.7,0,1.5,0.6,1.9c0.4,0.3,1,0.2,1.5-0.1c0.4-0.3,0.7-0.7,1-1.2c1.1-2.1,1-4.8,2.4-6.8c0.4-0.5,0.8-1,1.1-1.5
					C187.1,332.7,187.2,332,186.9,331.4z"/>
			</g>
			<g>
				<g>
					<path class="st8" d="M186.9,331.4c0,0,0.1,0.1,0.2,0.4c0.1,0.3,0.1,0.7-0.2,1.2c-0.2,0.5-0.7,1-1.1,1.7
						c-0.4,0.6-0.8,1.4-1.1,2.4c-0.3,0.9-0.5,2-0.8,3.2c-0.2,0.6-0.4,1.2-0.8,1.7c-0.3,0.6-0.9,1.1-1.7,1.2c-0.4,0-0.8-0.1-1.1-0.4
						c-0.3-0.3-0.4-0.7-0.4-1.1c-0.1-0.8,0-1.5,0-2.3c0.1-1.5,0.3-3.1,0.6-4.8l0.4,0.1c-0.3,1.1-0.7,2.2-1.1,3.4
						c-0.2,0.6-0.4,1.1-0.7,1.7c-0.3,0.6-0.5,1.1-0.9,1.7c-0.4,0.5-1.1,1.1-1.8,0.9c-0.8-0.2-1.2-0.9-1.3-1.6c-0.1-0.7,0-1.4,0-2
						c0.1-0.7,0.2-1.3,0.3-2c0.2-1.3,0.5-2.6,0.8-3.8l0.4,0.1c-0.7,2.2-1.7,4.2-3,5.9c-0.4,0.4-0.8,0.8-1.4,0.9
						c-0.6,0.1-1.2-0.1-1.6-0.5c-0.4-0.5-0.4-1.1-0.4-1.6c0-0.5,0.1-1,0.2-1.5c0.4-1.9,1.3-3.6,2.4-5c0.5-0.7,1.1-1.3,1.9-1.7
						c0.8-0.3,1.7-0.3,2.4,0.2l0,0c0.1,0.1,0.3,0.2,0.4,0.2l-0.2,0c1.2-1.2,3-1.4,4.1-0.8c0.6,0.3,1,0.7,1.5,0.8
						c0.5,0.2,1,0.2,1.4,0.2c0.9,0,1.6,0.2,2,0.5C186.9,331.2,186.9,331.4,186.9,331.4c0,0-0.1-0.2-0.5-0.5c-0.4-0.3-1-0.4-1.9-0.4
						c-0.4,0-0.9,0-1.5-0.2c-0.5-0.2-1-0.6-1.6-0.8c-1.1-0.5-2.7-0.4-3.8,0.8l-0.1,0.1l-0.1-0.1c-0.1-0.1-0.3-0.2-0.4-0.2l0,0l0,0
						c-0.5-0.4-1.3-0.5-2-0.1c-0.7,0.3-1.3,0.9-1.8,1.6c-1,1.3-1.9,3-2.3,4.9c-0.1,0.5-0.2,0.9-0.2,1.4c0,0.5,0.1,1,0.3,1.3
						c0.3,0.3,0.7,0.5,1.2,0.4c0.5-0.1,0.8-0.4,1.2-0.8c1.2-1.7,2.2-3.7,2.9-5.8l0.4,0.1c-0.3,1.2-0.6,2.5-0.8,3.8
						c-0.1,0.7-0.2,1.3-0.3,2c-0.1,0.6-0.1,1.3,0,1.9c0.1,0.6,0.5,1.1,1,1.2c0.5,0.1,1.1-0.2,1.4-0.7c0.3-0.5,0.6-1.1,0.8-1.6
						c0.2-0.6,0.5-1.1,0.7-1.7c0.4-1.1,0.8-2.2,1.1-3.3l0.4,0.1c-0.3,1.6-0.5,3.2-0.6,4.7c0,0.7-0.1,1.5,0,2.2
						c0,0.3,0.1,0.7,0.3,0.9c0.2,0.2,0.5,0.3,0.8,0.3c0.6,0,1.1-0.5,1.4-1c0.3-0.5,0.6-1.1,0.7-1.7c0.4-1.1,0.6-2.2,0.9-3.2
						c0.3-1,0.7-1.8,1.1-2.4c0.5-0.6,0.9-1.1,1.1-1.6C187.3,332,186.9,331.4,186.9,331.4z"/>
				</g>
			</g>
		</g>
	</g>
</g>
</svg>
