<?xml version="1.0" encoding="utf-8"?>
<!-- Generator: Adobe Illustrator 24.0.0, SVG Export Plug-In . SVG Version: 6.00 Build 0)  -->
<svg version="1.1" xmlns="http://www.w3.org/2000/svg" xmlns:xlink="http://www.w3.org/1999/xlink" x="0px" y="0px"
	 viewBox="0 0 630.2 409.7" style="enable-background:new 0 0 630.2 409.7;" xml:space="preserve">
<style type="text/css">
	.st0{opacity:0.62;fill:#AEDCFE;}
	.st1{fill:#374C7F;}
	.st2{fill:#BCC0CE;}
	.st3{fill:#FFFFFF;}
	.st4{fill:#DEF6F8;}
	.st5{fill:none;stroke:#57595E;stroke-width:0.5975;stroke-miterlimit:10;}
	.st6{fill:#F5AD49;}
	.st7{fill:none;stroke:#FFFFFF;stroke-width:0.3983;stroke-miterlimit:10;}
	.st8{fill:none;stroke:#FFFFFF;stroke-width:0.8901;stroke-linecap:round;stroke-miterlimit:10;}
	.st9{fill:#FF4747;}
	.st10{fill:none;stroke:#45619B;stroke-width:1.2141;stroke-linecap:round;stroke-miterlimit:10;}
	.st11{fill:#28355F;}
	.st12{opacity:0.31;fill:#9BABB8;}
	.st13{opacity:0.4;fill:#19181B;}
	.st14{fill:none;stroke:#57595E;stroke-width:0.7569;stroke-miterlimit:10;}
	.st15{fill:none;stroke:#FFFFFF;stroke-width:0.5046;stroke-miterlimit:10;}
	.st16{fill:none;stroke:#FFFFFF;stroke-width:1.1276;stroke-linecap:round;stroke-miterlimit:10;}
	.st17{fill:#9BABB8;}
	.st18{fill:#44555F;}
	.st19{fill:none;stroke:#45619B;stroke-width:1.5381;stroke-linecap:round;stroke-miterlimit:10;}
	.st20{fill:none;stroke:#57595E;stroke-width:1.0212;stroke-miterlimit:10;}
	.st21{fill:none;stroke:#FFFFFF;stroke-width:0.6808;stroke-miterlimit:10;}
	.st22{fill:none;stroke:#FFFFFF;stroke-width:1.5212;stroke-linecap:round;stroke-miterlimit:10;}
	.st23{fill:none;stroke:#45619B;stroke-width:2.0751;stroke-linecap:round;stroke-miterlimit:10;}
	.st24{fill:#BC3535;}
	.st25{fill:#1A171B;}
	.st26{opacity:0.35;}
	.st27{fill:#653239;}
	.st28{fill:#131A2B;}
	.st29{fill:#A4BDDA;}
	.st30{fill:none;stroke:#FFFFFF;stroke-width:0.747;stroke-miterlimit:10;}
	.st31{fill:#7590AA;}
	.st32{fill:#B4D1ED;}
	.st33{fill:none;stroke:#FFFFFF;stroke-width:0.4803;stroke-miterlimit:10;}
	.st34{fill:#C92D3C;}
	.st35{fill:none;stroke:#FFFFFF;stroke-width:0.5842;stroke-miterlimit:10;}
	.st36{fill:none;stroke:#FFFFFF;stroke-width:0.3756;stroke-miterlimit:10;}
	.st37{fill:none;stroke:#CE7A2E;stroke-width:2.4146;stroke-miterlimit:10;}
	.st38{opacity:0.53;fill:#440000;}
	.st39{fill:#E37427;}
	.st40{fill:#FF8076;}
	.st41{fill:none;stroke:#A50000;stroke-width:0.9198;stroke-miterlimit:10;}
	.st42{opacity:0.42;fill:#FFFFFF;}
	.st43{fill:#440000;}
	.st44{fill:#394C77;}
	.st45{fill:#072847;}
	.st46{fill:#D1544E;}
	.st47{fill:#7A0000;}
	.st48{fill:none;stroke:#BA4A4A;stroke-width:0.4599;stroke-miterlimit:10;}
	.st49{fill:none;stroke:#7A0000;stroke-width:1.8395;stroke-linecap:round;stroke-miterlimit:10;}
	.st50{fill:none;stroke:#80C8D4;stroke-width:0.9198;stroke-miterlimit:10;}
	.st51{fill:none;stroke:#A50000;stroke-width:0.9198;stroke-linecap:round;stroke-miterlimit:10;}
	.st52{opacity:0.49;fill:#B0322F;}
</style>
<g id="BACKGROUND">
</g>
<g id="OBJECTS">
	<g>
		<g>
			<path class="st0" d="M61.5,346.7c-25.7-12.5-49-32.5-57.6-58.7c-7.2-21.7-3.6-45.3,5.2-66.1c19.9-46.7,63-74.9,108.2-84.5
				c23.1-4.9,46.2-0.8,69-5.2c29.3-5.7,56.9-19.6,82.6-35.9c37.3-23.7,72.4-52.2,115-66.1C448,9.4,524.6,26.7,573.7,72.6
				c49.1,46,68.6,118.3,48.9,180c-19.6,61.7-77.3,110.2-144.1,121.8c-56.4,9.8-114.4-5-171.9-7.7
				C223.9,362.8,135.8,382.8,61.5,346.7z"/>
			<ellipse transform="matrix(0.2298 -0.9732 0.9732 0.2298 33.5917 142.5131)" class="st0" cx="106.8" cy="50" rx="50" ry="50"/>
			
				<ellipse transform="matrix(0.9924 -0.1227 0.1227 0.9924 -1.6022 74.0528)" class="st0" cx="600.4" cy="50" rx="17.8" ry="17.8"/>
		</g>
		<g>
			<g>
				<path class="st1" d="M550.2,158.4H428.7c-3.1,0-5.6-2.5-5.6-5.6V78c0-3.1,2.5-5.6,5.6-5.6h121.4c3.1,0,5.6,2.5,5.6,5.6v74.9
					C555.7,155.9,553.2,158.4,550.2,158.4z"/>
				<g>
					<path class="st2" d="M547.2,163H422.2c-2.9,0-5.3-2.4-5.3-5.3V80.3c0-2.9,2.4-5.3,5.3-5.3h125.1c2.9,0,5.3,2.4,5.3,5.3v77.4
						C552.5,160.6,550.1,163,547.2,163z"/>
					<path class="st3" d="M546.4,160.6H422.9c-1.9,0-3.4-1.5-3.4-3.4V85.9c0-1.5,1.2-2.7,2.7-2.7h125c1.5,0,2.7,1.2,2.7,2.7v71.3
						C549.8,159.1,548.3,160.6,546.4,160.6z"/>
					<path class="st1" d="M541.6,98.3H428.3c-3.5,0-6.4-2.9-6.4-6.4v-0.1c0-3.5,2.9-6.4,6.4-6.4h113.3c3.5,0,6.4,2.9,6.4,6.4v0.1
						C548,95.4,545.1,98.3,541.6,98.3z"/>
					<path class="st3" d="M523.7,94h-75.3c-0.7,0-1.2-0.6-1.2-1.2v-2.4c0-0.7,0.6-1.2,1.2-1.2h75.3c0.7,0,1.2,0.6,1.2,1.2v2.4
						C525,93.5,524.4,94,523.7,94z"/>
					<path class="st4" d="M427.5,94h22.5c0.6,0,1.1-0.5,1.1-1.1v-2.6c0-0.6-0.5-1.1-1.1-1.1h-22.5c-0.6,0-1.1,0.5-1.1,1.1v2.6
						C426.4,93.5,426.9,94,427.5,94z"/>
					<line class="st5" x1="454" y1="91.6" x2="479.5" y2="91.6"/>
					<line class="st5" x1="429.8" y1="91.6" x2="447.2" y2="91.6"/>
					<path class="st6" d="M523.7,89.1h-7.6V94h7.6c0.7,0,1.2-0.6,1.2-1.2v-2.4C525,89.7,524.4,89.1,523.7,89.1z"/>
					<g>
						<path class="st7" d="M520.8,91.1c0,0.7-0.6,1.3-1.3,1.3c-0.7,0-1.3-0.6-1.3-1.3c0-0.7,0.6-1.3,1.3-1.3
							C520.3,89.8,520.8,90.4,520.8,91.1z"/>
						<line class="st7" x1="520.5" y1="91.9" x2="521.9" y2="93.3"/>
					</g>
					<polyline class="st8" points="531.1,88.2 534,88.2 535.4,92.3 541.4,92.3 542,89 					"/>
					<ellipse class="st6" cx="538.3" cy="89.1" rx="1.2" ry="1.4"/>
					<path class="st3" d="M537.2,94.6c0,0.6-0.5,1.1-1.1,1.1c-0.6,0-1.1-0.5-1.1-1.1c0-0.6,0.5-1.1,1.1-1.1
						C536.7,93.5,537.2,94,537.2,94.6z"/>
					<path class="st3" d="M541.2,94.6c0,0.6-0.5,1.1-1.1,1.1c-0.6,0-1.1-0.5-1.1-1.1c0-0.6,0.5-1.1,1.1-1.1
						C540.7,93.5,541.2,94,541.2,94.6z"/>
					<g>
						<path class="st1" d="M529.6,156.5h-40.8c-0.8,0-1.5-0.7-1.5-1.5v-3.6c0-0.8,0.7-1.5,1.5-1.5h40.8c0.8,0,1.5,0.7,1.5,1.5v3.6
							C531.1,155.8,530.5,156.5,529.6,156.5z"/>
						<path class="st9" d="M529.6,155.7h-40.8c-0.8,0-1.5-0.7-1.5-1.5v-3.6c0-0.8,0.7-1.5,1.5-1.5h40.8c0.8,0,1.5,0.7,1.5,1.5v3.6
							C531.1,155,530.5,155.7,529.6,155.7z"/>
					</g>
					<g>
						<polygon class="st6" points="510.2,125.7 511,127.4 512.9,127.7 511.5,129 511.9,130.9 510.2,130 508.5,130.9 508.8,129 
							507.4,127.7 509.3,127.4 						"/>
						<polygon class="st6" points="516.2,125.7 517,127.4 518.9,127.7 517.6,129 517.9,130.9 516.2,130 514.5,130.9 514.8,129 
							513.4,127.7 515.3,127.4 						"/>
						<polygon class="st6" points="522.2,125.7 523.1,127.4 525,127.7 523.6,129 523.9,130.9 522.2,130 520.5,130.9 520.8,129 
							519.5,127.7 521.4,127.4 						"/>
						<polygon class="st6" points="528.2,125.7 529.1,127.4 531,127.7 529.6,129 529.9,130.9 528.2,130 526.5,130.9 526.9,129 
							525.5,127.7 527.4,127.4 						"/>
						<polygon class="st6" points="534.3,125.7 535.1,127.4 537,127.7 535.6,129 536,130.9 534.3,130 532.6,130.9 532.9,129 
							531.5,127.7 533.4,127.4 						"/>
					</g>
					<g>
						<path class="st6" d="M535.7,145.2H485c-1,0-1.9-0.8-1.9-1.9v-4.5c0-1,0.8-1.9,1.9-1.9h50.7c1,0,1.9,0.8,1.9,1.9v4.5
							C537.6,144.4,536.7,145.2,535.7,145.2z"/>
						<g>
							<g>
								<rect x="521.7" y="138.6" class="st1" width="1" height="5.1"/>
								<rect x="519.6" y="140.6" class="st1" width="5.1" height="1"/>
								
									<rect x="521.7" y="138.6" transform="matrix(0.7072 -0.707 0.707 0.7072 53.1372 410.5497)" class="st1" width="1" height="5.1"/>
								
									<rect x="519.6" y="140.6" transform="matrix(0.7071 -0.7072 0.7072 0.7071 53.1764 410.618)" class="st1" width="5.1" height="1"/>
							</g>
							<g>
								<rect x="513.5" y="138.6" class="st1" width="1" height="5.1"/>
								<rect x="511.4" y="140.6" class="st1" width="5.1" height="1"/>
								
									<rect x="513.5" y="138.6" transform="matrix(0.7072 -0.7071 0.7071 0.7072 50.7404 404.761)" class="st1" width="1" height="5.1"/>
								
									<rect x="511.4" y="140.6" transform="matrix(0.7071 -0.7071 0.7071 0.7071 50.7596 404.7947)" class="st1" width="5.1" height="1"/>
							</g>
							<g>
								<rect x="505.3" y="138.6" class="st1" width="1" height="5.1"/>
								<rect x="503.3" y="140.6" class="st1" width="5.1" height="1"/>
								
									<rect x="505.3" y="138.6" transform="matrix(0.7071 -0.7071 0.7071 0.7071 48.3598 399.0011)" class="st1" width="1" height="5.1"/>
								
									<rect x="503.3" y="140.6" transform="matrix(0.7071 -0.7072 0.7072 0.7071 48.3786 399.0344)" class="st1" width="5.1" height="1"/>
							</g>
							<g>
								<rect x="497.1" y="138.6" class="st1" width="1" height="5.1"/>
								<rect x="495.1" y="140.6" class="st1" width="5.1" height="1"/>
								
									<rect x="497.1" y="138.6" transform="matrix(0.7072 -0.707 0.707 0.7072 45.9394 393.1706)" class="st1" width="1" height="5.1"/>
								
									<rect x="495.1" y="140.6" transform="matrix(0.7071 -0.7072 0.7072 0.7071 45.9761 393.2364)" class="st1" width="5.1" height="1"/>
							</g>
						</g>
					</g>
					<path class="st1" d="M425.4,79.4c0,1-0.8,1.8-1.8,1.8c-1,0-1.8-0.8-1.8-1.8c0-1,0.8-1.8,1.8-1.8
						C424.6,77.6,425.4,78.4,425.4,79.4z"/>
					<path class="st9" d="M432.6,79.4c0,1-0.8,1.8-1.8,1.8c-1,0-1.8-0.8-1.8-1.8c0-1,0.8-1.8,1.8-1.8
						C431.8,77.6,432.6,78.4,432.6,79.4z"/>
					<path class="st3" d="M439.8,79.4c0,1-0.8,1.8-1.8,1.8s-1.8-0.8-1.8-1.8c0-1,0.8-1.8,1.8-1.8S439.8,78.4,439.8,79.4z"/>
					<line class="st10" x1="483.1" y1="105.4" x2="537.6" y2="105.4"/>
					<line class="st10" x1="483.1" y1="113.3" x2="537.6" y2="113.3"/>
					<line class="st10" x1="483.1" y1="121.2" x2="537.6" y2="121.2"/>
					<line class="st10" x1="483.1" y1="129.1" x2="503.7" y2="129.1"/>
					<g>
						<path class="st1" d="M458.3,141.5l-8.9-1.2l-8.9,1.2l-9.9-9c-2.7-2.5-4.2-6-4.2-9.6V116c0-7.5,6.1-13.5,13.5-13.5h18.9
							c7.5,0,13.5,6.1,13.5,13.5v6.9c0,3.6-1.5,7.1-4.2,9.6L458.3,141.5z M439.9,109c-3.9,0-7,3.2-7,7v6.9c0,1.8,0.8,3.6,2.1,4.8
							l7.6,7l6.8-0.9l6.8,0.9l7.6-7c1.3-1.2,2.1-3,2.1-4.8V116c0-3.9-3.2-7-7-7H439.9z"/>
						<path class="st11" d="M463.6,110.9L463.6,110.9c1.4,1.3,2.3,3.1,2.3,5.2v6.9c0,1.8-0.8,3.6-2.1,4.8l-5.2,4.7l2.6,1.8l4-3.6
							c2.1-1.9,3.4-4.7,3.4-7.6V119C468.5,113.2,463.6,110.9,463.6,110.9z"/>
						<path class="st1" d="M449.4,124.7c-9,0-16.4,7.3-16.4,16.4c0,4.8,2.1,9.2,5.4,12.2c3.3,1.5,7.1,2.4,11,2.4s7.6-0.8,11-2.4
							c3.3-3,5.4-7.3,5.4-12.2C465.8,132,458.4,124.7,449.4,124.7z"/>
						<path class="st4" d="M465.4,144.3c-9.5,3.4-17.8,3.2-23.1,2.4c-4.5-0.7-7.6-1.8-9-2.4c0.1,0.6,0.3,1.3,0.5,1.9
							c1.7,0.6,4.6,1.4,8.2,2c2.1,0.4,4.5,0.6,7,0.5c4.6-0.2,10-0.6,16-2.6C465.2,145.5,465.3,144.9,465.4,144.3z"/>
						<path class="st12" d="M457.2,126.7c-2.3-1.3-5-2-7.9-2c-5.2,0-9.9,2.5-12.9,6.3c1.6,3,6.7,4.1,12.1,2.5
							C453,132.2,456.3,129.5,457.2,126.7z"/>
						<path class="st13" d="M450.1,155.6c3.6-0.1,7.1-0.9,10.3-2.4c3.3-3,5.4-7.3,5.4-12.2c0-0.2,0-0.4,0-0.6
							C461.5,141.5,452,144.9,450.1,155.6z"/>
					</g>
				</g>
			</g>
			<g>
				<path class="st1" d="M259.3,147H103.9c-3.9,0-7.1-3.2-7.1-7.1V44c0-3.9,3.2-7.1,7.1-7.1h155.4c3.9,0,7.1,3.2,7.1,7.1v95.8
					C266.4,143.8,263.2,147,259.3,147z"/>
				<g>
					<path class="st2" d="M265.6,141.9H107.2c-3.7,0-6.7-3-6.7-6.7V37.1c0-3.7,3-6.7,6.7-6.7h158.4c3.7,0,6.7,3,6.7,6.7v98.1
						C272.3,138.9,269.3,141.9,265.6,141.9z"/>
					<path class="st3" d="M264.5,138.8H108.1c-2.4,0-4.3-1.9-4.3-4.3V44.2c0-1.9,1.5-3.4,3.4-3.4h158.3c1.9,0,3.4,1.5,3.4,3.4v90.3
						C268.9,136.9,266.9,138.8,264.5,138.8z"/>
					<path class="st1" d="M258.5,59.9H114.9c-4.5,0-8.1-3.6-8.1-8.1v-0.2c0-4.5,3.6-8.1,8.1-8.1h143.5c4.5,0,8.1,3.6,8.1,8.1v0.2
						C266.6,56.3,262.9,59.9,258.5,59.9z"/>
					<path class="st3" d="M235.9,54.5h-95.4c-0.9,0-1.6-0.7-1.6-1.6v-3.1c0-0.9,0.7-1.6,1.6-1.6h95.4c0.9,0,1.6,0.7,1.6,1.6v3.1
						C237.4,53.8,236.7,54.5,235.9,54.5z"/>
					<path class="st4" d="M114,54.5h28.5c0.8,0,1.5-0.7,1.5-1.5v-3.3c0-0.8-0.7-1.5-1.5-1.5H114c-0.8,0-1.5,0.7-1.5,1.5V53
						C112.5,53.9,113.2,54.5,114,54.5z"/>
					<line class="st14" x1="147.5" y1="51.4" x2="179.8" y2="51.4"/>
					<line class="st14" x1="116.8" y1="51.4" x2="138.9" y2="51.4"/>
					<path class="st6" d="M235.9,48.3h-9.7v6.2h9.7c0.9,0,1.6-0.7,1.6-1.6v-3.1C237.4,49,236.7,48.3,235.9,48.3z"/>
					<g>
						<circle class="st15" cx="230.5" cy="50.8" r="1.6"/>
						<line class="st15" x1="231.8" y1="51.8" x2="233.6" y2="53.6"/>
					</g>
					<polyline class="st16" points="245.3,47.1 248.9,47.1 250.7,52.3 258.2,52.3 259,48.2 					"/>
					<ellipse class="st6" cx="254.3" cy="48.3" rx="1.6" ry="1.8"/>
					<path class="st3" d="M252.9,55.2c0,0.7-0.6,1.4-1.4,1.4c-0.7,0-1.4-0.6-1.4-1.4c0-0.7,0.6-1.4,1.4-1.4
						C252.3,53.8,252.9,54.4,252.9,55.2z"/>
					<path class="st3" d="M258,55.2c0,0.7-0.6,1.4-1.4,1.4c-0.7,0-1.4-0.6-1.4-1.4c0-0.7,0.6-1.4,1.4-1.4
						C257.4,53.8,258,54.4,258,55.2z"/>
					<g>
						<path class="st1" d="M243.4,133.7h-51.7c-1,0-1.9-0.8-1.9-1.9v-4.6c0-1,0.8-1.9,1.9-1.9h51.7c1,0,1.9,0.8,1.9,1.9v4.6
							C245.3,132.8,244.4,133.7,243.4,133.7z"/>
						<path class="st9" d="M243.4,132.6h-51.7c-1,0-1.9-0.8-1.9-1.9v-4.6c0-1,0.8-1.9,1.9-1.9h51.7c1,0,1.9,0.8,1.9,1.9v4.6
							C245.3,131.8,244.4,132.6,243.4,132.6z"/>
					</g>
					<g>
						<polygon class="st6" points="218.7,94.6 219.7,96.8 222.1,97.1 220.4,98.8 220.8,101.2 218.7,100.1 216.5,101.2 216.9,98.8 
							215.2,97.1 217.6,96.8 						"/>
						<polygon class="st6" points="226.3,94.6 227.4,96.8 229.8,97.1 228,98.8 228.4,101.2 226.3,100.1 224.1,101.2 224.6,98.8 
							222.8,97.1 225.2,96.8 						"/>
						<polygon class="st6" points="233.9,94.6 235,96.8 237.4,97.1 235.7,98.8 236.1,101.2 233.9,100.1 231.8,101.2 232.2,98.8 
							230.4,97.1 232.9,96.8 						"/>
						<polygon class="st6" points="241.6,94.6 242.6,96.8 245,97.1 243.3,98.8 243.7,101.2 241.6,100.1 239.4,101.2 239.8,98.8 
							238.1,97.1 240.5,96.8 						"/>
						<polygon class="st6" points="249.2,94.6 250.3,96.8 252.7,97.1 250.9,98.8 251.3,101.2 249.2,100.1 247,101.2 247.5,98.8 
							245.7,97.1 248.1,96.8 						"/>
					</g>
					<g>
						<path class="st6" d="M251,119.4h-64.3c-1.3,0-2.3-1.1-2.3-2.3v-5.7c0-1.3,1.1-2.3,2.3-2.3H251c1.3,0,2.3,1.1,2.3,2.3v5.7
							C253.4,118.3,252.3,119.4,251,119.4z"/>
						<g>
							<g>
								<rect x="233.3" y="110.9" class="st1" width="1.2" height="6.5"/>
								<rect x="230.7" y="113.6" class="st1" width="6.5" height="1.2"/>
								
									<rect x="233.3" y="110.9" transform="matrix(0.7071 -0.7071 0.7071 0.7071 -12.2119 198.8519)" class="st1" width="1.2" height="6.5"/>
								
									<rect x="230.7" y="113.6" transform="matrix(0.7071 -0.7071 0.7071 0.7071 -12.2121 198.8511)" class="st1" width="6.5" height="1.2"/>
							</g>
							<g>
								<rect x="222.9" y="110.9" class="st1" width="1.2" height="6.5"/>
								<rect x="220.3" y="113.6" class="st1" width="6.5" height="1.2"/>
								
									<rect x="222.9" y="110.9" transform="matrix(0.7071 -0.7071 0.7071 0.7071 -15.2478 191.5254)" class="st1" width="1.2" height="6.5"/>
								
									<rect x="220.3" y="113.6" transform="matrix(0.7071 -0.7071 0.7071 0.7071 -15.2567 191.4979)" class="st1" width="6.5" height="1.2"/>
							</g>
							<g>
								<rect x="212.6" y="110.9" class="st1" width="1.2" height="6.5"/>
								<rect x="209.9" y="113.6" class="st1" width="6.5" height="1.2"/>
								
									<rect x="212.6" y="110.9" transform="matrix(0.7071 -0.7071 0.7071 0.7071 -18.2923 184.1722)" class="st1" width="1.2" height="6.5"/>
								
									<rect x="209.9" y="113.6" transform="matrix(0.7071 -0.7071 0.7071 0.7071 -18.2923 184.1722)" class="st1" width="6.5" height="1.2"/>
							</g>
							<g>
								<rect x="202.2" y="110.9" class="st1" width="1.2" height="6.5"/>
								<rect x="199.5" y="113.6" class="st1" width="6.5" height="1.2"/>
								
									<rect x="202.2" y="110.9" transform="matrix(0.7071 -0.7071 0.7071 0.7071 -21.3288 176.8456)" class="st1" width="1.2" height="6.5"/>
								
									<rect x="199.5" y="113.6" transform="matrix(0.7071 -0.7071 0.7071 0.7071 -21.3362 176.8192)" class="st1" width="6.5" height="1.2"/>
							</g>
						</g>
					</g>
					<g>
						
							<ellipse transform="matrix(0.6345 -0.773 0.773 0.6345 -36.1504 160.5376)" class="st1" cx="151.7" cy="118.5" rx="15.9" ry="11.9"/>
						
							<ellipse transform="matrix(0.6345 -0.773 0.773 0.6345 -36.4574 161.7601)" class="st11" cx="152.8" cy="119.4" rx="15.9" ry="10.4"/>
						
							<ellipse transform="matrix(0.6345 -0.773 0.773 0.6345 -36.8253 163.2302)" class="st1" cx="154.2" cy="120.5" rx="15.9" ry="10.4"/>
						<path class="st17" d="M149.7,116.9c-4.4,5.3-4.9,12-1.3,15c3.7,3,10.1,1.1,14.5-4.2s4.9-12,1.3-15
							C160.5,109.7,154,111.6,149.7,116.9z"/>
						<path class="st4" d="M151.7,118.5c-4.4,5.3-5.4,11.7-2.3,14.2c3.1,2.5,9.2,0.3,13.5-5s5.4-11.7,2.3-14.2
							C162.1,110.9,156,113.2,151.7,118.5z"/>
						<path class="st11" d="M155.3,111.2l7.1-1.9c0,0,8.7-24.2-7.2-39.7c-8.5-8.3-13.9-5.4-15.4-4.8c-1.5,0.6-4.4,2-4.4,2
							s5.5-1,11.1,4.5c5.6,5.6,12,15.6,10.2,29.8C155.3,109.8,155.3,111.2,155.3,111.2z"/>
						<path class="st1" d="M156.2,88.8c-1.7-7.8-5.9-13.7-9.7-17.5c-5.6-5.5-11.1-4.5-11.1-4.5s2.9-1.4,4.4-2
							c1.5-0.6,6.9-3.5,15.4,4.8c5.2,5.1,7.8,11.1,8.9,16.9L156.2,88.8z"/>
						<path class="st18" d="M155.3,111.2c0.4,0,1.2-3.5,1.2-3.8c0.8-3.2,1.3-6.5,1.4-9.7c0.1-4.4-0.5-8.8-1.9-13
							c-1.8-5.1-4.9-9.7-8.8-13.5c-2.3-2.2-4.8-4.5-8.1-4.8c-2.5-0.2-4.9,0.6-6.9,2.1c-2,1.5-3.4,3.5-4.4,5.7
							c-0.6,1.3-1,2.7-1.2,4.1c-0.1,0.4-0.5,4.6-0.3,4.6c7.4-0.4,7.4-0.4,7.4-0.4s0.7-11.8,5.3-15.1c3.7,0.9,24.5,12.7,15.4,44
							C155.3,111.2,155.3,111.2,155.3,111.2z"/>
						<path class="st11" d="M138.9,67.3c-4.6,3.3-5.3,15.1-5.3,15.1s0,0-7.4,0.4c0,0,0,0,0,0c0.3-0.1,0.6-0.3,1-0.4
							C128.3,66.9,138.9,67.3,138.9,67.3z"/>
						<path class="st1" d="M118.1,88.3c-5.6,6.8-6.3,15.5-1.5,19.4c4.8,3.9,13.1,1.6,18.7-5.2c5.6-6.8,6.3-15.5,1.5-19.4
							C132.1,79.1,123.7,81.5,118.1,88.3z"/>
						
							<ellipse transform="matrix(0.6345 -0.773 0.773 0.6345 -27.7705 134.366)" class="st11" cx="128.2" cy="96.5" rx="15.9" ry="11.2"/>
						
							<ellipse transform="matrix(0.6345 -0.773 0.773 0.6345 -28.2102 136.1222)" class="st1" cx="129.8" cy="97.9" rx="15.9" ry="10.4"/>
						<path class="st11" d="M125.9,94.7c-3.3,4-3.8,9-1.2,11.1c2.6,2.1,7.4,0.6,10.7-3.4c3.3-4,3.8-9,1.2-11.1
							C134,89.1,129.2,90.7,125.9,94.7z"/>
						<path class="st17" d="M134.5,101.8c3.1-3.8,3.8-8.5,1.6-10.8c0.1,0.1,0.3,0.2,0.4,0.3c2.6,2.1,2.1,7.1-1.2,11.1
							c-3.3,4-8.1,5.5-10.7,3.4c-0.1-0.1-0.3-0.2-0.4-0.4C127,107.1,131.4,105.6,134.5,101.8z"/>
						<path class="st9" d="M154.8,120.8c-2.4,2.9-3.1,6.3-1.5,7.6c1.6,1.3,4.8,0,7.2-3c2.4-2.9,3.1-6.3,1.5-7.6
							C160.4,116.6,157.2,117.9,154.8,120.8z"/>
					</g>
					<circle class="st1" cx="109.1" cy="35.9" r="2.3"/>
					<circle class="st9" cx="118.2" cy="35.9" r="2.3"/>
					<circle class="st3" cx="127.2" cy="35.9" r="2.3"/>
					<line class="st19" x1="184.4" y1="68.9" x2="253.4" y2="68.9"/>
					<line class="st19" x1="184.4" y1="78.9" x2="253.4" y2="78.9"/>
					<line class="st19" x1="184.4" y1="88.9" x2="253.4" y2="88.9"/>
					<line class="st19" x1="184.4" y1="98.9" x2="210.4" y2="98.9"/>
				</g>
			</g>
			<g>
				<path class="st1" d="M241.9,386.2H29.7c-5.4,0-9.7-4.4-9.7-9.7V245.6c0-5.4,4.4-9.7,9.7-9.7h212.3c5.4,0,9.7,4.4,9.7,9.7v130.9
					C251.7,381.8,247.3,386.2,241.9,386.2z"/>
				<g>
					<path class="st2" d="M247.4,380.5H33.7c-5,0-9-4-9-9V239.1c0-5,4-9,9-9h213.8c5,0,9,4,9,9v132.3
						C256.4,376.4,252.4,380.5,247.4,380.5z"/>
					<path class="st3" d="M246,376.4H34.9c-3.2,0-5.9-2.6-5.9-5.9V248.7c0-2.5,2.1-4.6,4.6-4.6h213.6c2.5,0,4.6,2.1,4.6,4.6v121.8
						C251.8,373.8,249.2,376.4,246,376.4z"/>
					<path class="st1" d="M237.8,269.9H44.1c-6,0-10.9-4.9-10.9-10.9v-0.2c0-6,4.9-10.9,10.9-10.9h193.6c6,0,10.9,4.9,10.9,10.9v0.2
						C248.7,265,243.8,269.9,237.8,269.9z"/>
					<path class="st3" d="M207.3,262.6H78.6c-1.2,0-2.1-0.9-2.1-2.1v-4.2c0-1.2,0.9-2.1,2.1-2.1h128.7c1.2,0,2.1,0.9,2.1,2.1v4.2
						C209.4,261.6,208.5,262.6,207.3,262.6z"/>
					<path class="st4" d="M42.9,262.6h38.5c1.1,0,2-0.9,2-2v-4.5c0-1.1-0.9-2-2-2H42.9c-1.1,0-2,0.9-2,2v4.5
						C40.9,261.7,41.8,262.6,42.9,262.6z"/>
					<line class="st20" x1="88" y1="258.4" x2="131.7" y2="258.4"/>
					<line class="st20" x1="46.7" y1="258.4" x2="76.5" y2="258.4"/>
					<path class="st6" d="M207.3,254.2h-13.1v8.4h13.1c1.2,0,2.1-0.9,2.1-2.1v-4.2C209.4,255.1,208.5,254.2,207.3,254.2z"/>
					<g>
						<circle class="st21" cx="200.1" cy="257.6" r="2.2"/>
						<line class="st21" x1="201.8" y1="259" x2="204.2" y2="261.3"/>
					</g>
					<polyline class="st22" points="219.9,252.6 224.9,252.6 227.3,259.6 237.4,259.6 238.5,254 					"/>
					<ellipse class="st6" cx="232.1" cy="254.2" rx="2.1" ry="2.4"/>
					<circle class="st3" cx="228.4" cy="263.5" r="1.8"/>
					<circle class="st3" cx="235.3" cy="263.5" r="1.8"/>
					<g>
						<path class="st1" d="M217.4,369.4h-69.8c-1.4,0-2.5-1.1-2.5-2.5v-6.2c0-1.4,1.1-2.5,2.5-2.5h69.8c1.4,0,2.5,1.1,2.5,2.5v6.2
							C219.9,368.2,218.8,369.4,217.4,369.4z"/>
						<path class="st9" d="M217.4,368h-69.8c-1.4,0-2.5-1.1-2.5-2.5v-6.2c0-1.4,1.1-2.5,2.5-2.5h69.8c1.4,0,2.5,1.1,2.5,2.5v6.2
							C219.9,366.9,218.8,368,217.4,368z"/>
					</g>
					<g>
						<polygon class="st6" points="184.1,316.7 185.5,319.6 188.8,320.1 186.4,322.4 187,325.6 184.1,324.1 181.2,325.6 
							181.7,322.4 179.4,320.1 182.6,319.6 						"/>
						<polygon class="st6" points="194.4,316.7 195.8,319.6 199.1,320.1 196.7,322.4 197.3,325.6 194.4,324.1 191.5,325.6 
							192,322.4 189.7,320.1 192.9,319.6 						"/>
						<polygon class="st6" points="204.7,316.7 206.1,319.6 209.4,320.1 207,322.4 207.6,325.6 204.7,324.1 201.8,325.6 
							202.3,322.4 200,320.1 203.2,319.6 						"/>
						<polygon class="st6" points="215,316.7 216.4,319.6 219.7,320.1 217.3,322.4 217.9,325.6 215,324.1 212.1,325.6 212.6,322.4 
							210.3,320.1 213.5,319.6 						"/>
						<polygon class="st6" points="225.3,316.7 226.7,319.6 230,320.1 227.6,322.4 228.2,325.6 225.3,324.1 222.4,325.6 
							222.9,322.4 220.6,320.1 223.8,319.6 						"/>
					</g>
					<g>
						<path class="st6" d="M227.7,350.1h-86.7c-1.7,0-3.2-1.4-3.2-3.2v-7.7c0-1.7,1.4-3.2,3.2-3.2h86.7c1.7,0,3.2,1.4,3.2,3.2v7.7
							C230.9,348.7,229.5,350.1,227.7,350.1z"/>
						<g>
							<g>
								<rect x="203.8" y="338.7" class="st1" width="1.7" height="8.8"/>
								<rect x="200.3" y="342.3" class="st1" width="8.8" height="1.7"/>
								
									<rect x="203.8" y="338.7" transform="matrix(0.7071 -0.7071 0.7071 0.7071 -182.6543 245.2081)" class="st1" width="1.7" height="8.8"/>
								
									<rect x="200.3" y="342.3" transform="matrix(0.7071 -0.7071 0.7071 0.7071 -182.6585 245.2246)" class="st1" width="8.8" height="1.7"/>
							</g>
							<g>
								<rect x="189.8" y="338.7" class="st1" width="1.7" height="8.8"/>
								<rect x="186.3" y="342.3" class="st1" width="8.8" height="1.7"/>
								
									<rect x="189.8" y="338.7" transform="matrix(0.7071 -0.7071 0.7071 0.7071 -186.7558 235.3062)" class="st1" width="1.7" height="8.8"/>
								
									<rect x="186.3" y="342.3" transform="matrix(0.7071 -0.7071 0.7071 0.7071 -186.7604 235.3222)" class="st1" width="8.8" height="1.7"/>
							</g>
							<g>
								<rect x="175.8" y="338.7" class="st1" width="1.7" height="8.8"/>
								<rect x="172.3" y="342.3" class="st1" width="8.8" height="1.7"/>
								
									<rect x="175.8" y="338.7" transform="matrix(0.7071 -0.7071 0.7071 0.7071 -190.8574 225.4042)" class="st1" width="1.7" height="8.8"/>
								
									<rect x="172.3" y="342.3" transform="matrix(0.7071 -0.7071 0.7071 0.7071 -190.8624 225.4198)" class="st1" width="8.8" height="1.7"/>
							</g>
							<g>
								<rect x="161.8" y="338.7" class="st1" width="1.7" height="8.8"/>
								<rect x="158.3" y="342.3" class="st1" width="8.8" height="1.7"/>
								
									<rect x="161.8" y="338.7" transform="matrix(0.7071 -0.7071 0.7071 0.7071 -194.9589 215.5022)" class="st1" width="1.7" height="8.8"/>
								
									<rect x="158.3" y="342.3" transform="matrix(0.7071 -0.7071 0.7071 0.7071 -194.9643 215.5175)" class="st1" width="8.8" height="1.7"/>
							</g>
						</g>
					</g>
					<circle class="st1" cx="36.2" cy="237.5" r="3"/>
					<circle class="st9" cx="48.5" cy="237.5" r="3"/>
					<circle class="st3" cx="60.7" cy="237.5" r="3"/>
					<line class="st23" x1="137.9" y1="282.1" x2="230.9" y2="282.1"/>
					<line class="st23" x1="137.9" y1="295.5" x2="230.9" y2="295.5"/>
					<line class="st23" x1="137.9" y1="309" x2="230.9" y2="309"/>
					<line class="st23" x1="137.9" y1="322.5" x2="173" y2="322.5"/>
					<g>
						<polygon class="st24" points="74.1,296.2 71.4,283.3 84,276.9 92,280.8 95,289.6 95,296.2 85.9,318.4 80.2,318.4 						"/>
						<path class="st9" d="M67.8,288.9c0,0-18.2,5.1-21.5,11.3l-9.6,22.1l18.2,6l3-5.7l-0.3,42.1H109v-44.2l3.3,5.9l17.6-4.7
							l-9.6-23c0,0-7.1-9-22-9.9l-8.9,7.2l-6.1,18.5l-4.9-18.5l-1.2,0.2L67.8,288.9"/>
						<path class="st25" d="M67.8,288.9"/>
						<polygon class="st3" points="78.4,296.1 74.6,298.1 83.4,315.1 92.4,298.2 89.5,296.1 83.2,313.7 						"/>
						<rect x="90.5" y="312.5" class="st3" width="12.8" height="2"/>
						<g class="st26">
							<path class="st27" d="M120.4,298.8c0,0-7.1-9-22-9.9l-4.1,3.3c0.3,0,0.6,0.1,0.8,0.1c3,0.6,19.2,10.2,19.2,10.2l10.1,20.8
								l5.6-1.5L120.4,298.8z"/>
							<path class="st27" d="M67.8,288.9c0,0-18.2,5.1-21.5,11.3l-9.6,22.1l7.9,2.6c1.6-4,4.4-10.7,8.8-21.7
								c2.6-1.5,14.8-5.3,22.8-7.7L67.8,288.9z"/>
						</g>
						<path class="st3" d="M95.8,282.5c6.9,12.5,0.3,18.3,0.3,18.3l-6.6-4.7c1.2-1,2.1-2.9,2.5-4.4c1.5-5.6-1.5-11.6-7.4-12.6
							c-2.7-0.5-6.2,0.7-8.3,2.4c-3,2.5-3.3,7.4-1.5,10.7c0.2,0.4,2.8,4.2,3.6,3.8c0,0-9,4.7-9,4.7c-4.5-10.8,2-18.6,2-18.6
							s3.8-5.7,11.8-5.7C83.2,276.5,91.4,276.3,95.8,282.5z"/>
					</g>
				</g>
			</g>
		</g>
		<path class="st28" d="M593.7,407c0,1.5-78.3,2.7-174.9,2.7S244,408.5,244,407c0-1.5,78.3-2.7,174.9-2.7S593.7,405.5,593.7,407z"/>
		<g>
			<g>
				<g>
					<g>
						<g>
							<path class="st29" d="M530.6,323.1c0,0,35.2-85.7,68.5-62.3c11.9,9.4-64.9,67.5-64.9,67.5L530.6,323.1z"/>
							<path class="st30" d="M586.9,264.5c0,0-40.9,35-51.7,51.5"/>
							<path class="st30" d="M557.8,291c0,0,2.9-5.1,2.5-15.1"/>
							<path class="st31" d="M544.4,320.4l29.1-59.2c-23.5,14.9-42.8,61.9-42.8,61.9l3.2,4.6l3.3-1.6
								C538.9,324.7,541.4,322.7,544.4,320.4z"/>
							<path class="st32" d="M522.9,328.5c0,0,0.3-136.5,56.8-124.9c20.7,5.5-49.3,129.7-49.3,129.7L522.9,328.5z"/>
							<path class="st30" d="M567.3,212.4c0,0-33.7,68.7-39.3,111.2"/>
							<path class="st30" d="M577.3,224.3c0,0-14.3,5.5-20,9.8"/>
							<path class="st30" d="M540.5,238.1c0,0,4.7,13.4,5.5,23.2"/>
							<path class="st30" d="M552.6,277.7c0,0-9.2,1.9-14.9,6.6"/>
						</g>
						<path class="st30" d="M570.3,279.2c0,0,9.2-3.3,19.5-2.4"/>
					</g>
					<g>
						<g>
							<path class="st29" d="M528,321.9c0,0-34.8-48.3-52.2-28.7c-6,7.6,50.7,32.5,50.7,32.5L528,321.9z"/>
							<path class="st33" d="M484.1,293.7c0,0,30.9,15.8,40,24.5"/>
							<path class="st33" d="M506.2,305.9c0,0-2.6-2.8-3.8-9.1"/>
							<path class="st31" d="M519,322.3L492,289.6c17,5.8,36,32.3,36,32.3l-1.3,3.3l-2.3-0.5C523.1,324.2,521.2,323.3,519,322.3z"/>
							<path class="st32" d="M533.7,324.1c0,0-20.7-85.3-54.2-69.6c-12.1,6.6,50.3,73.7,50.3,73.7L533.7,324.1z"/>
							<path class="st33" d="M488.5,258.2c0,0,31.4,37.9,41.2,63.6"/>
							<path class="st33" d="M484.1,267.2c0,0,9.8,1.3,14,3.1"/>
							<path class="st33" d="M509.1,270.3c0,0-1,9.1,0,15.3"/>
							<path class="st33" d="M507.5,296.9c0,0,6-0.2,10.3,1.9"/>
						</g>
						<path class="st33" d="M496.6,300.4c0,0-6.3-0.7-12.6,1.4"/>
					</g>
					<rect x="504.3" y="321.3" class="st34" width="47.7" height="84.5"/>
				</g>
				<rect x="504.3" y="335.3" class="st9" width="47.7" height="25.9"/>
			</g>
			<g>
				<g>
					<g>
						<g>
							<path class="st29" d="M460.9,339.2c0,0-27.5-67-53.6-48.7c-9.3,7.3,50.8,52.8,50.8,52.8L460.9,339.2z"/>
							<path class="st35" d="M417,293.3c0,0,32,27.4,40.4,40.3"/>
							<path class="st35" d="M439.7,314.1c0,0-2.3-4-2-11.8"/>
							<path class="st31" d="M450.2,337.1l-22.8-46.3c18.4,11.7,33.5,48.4,33.5,48.4l-2.5,3.6l-2.6-1.3
								C454.5,340.4,452.5,338.9,450.2,337.1z"/>
							<path class="st32" d="M467,343.4c0,0-0.3-106.8-44.5-97.7c-16.2,4.3,38.6,101.5,38.6,101.5L467,343.4z"/>
							<path class="st35" d="M432.3,252.6c0,0,26.4,53.7,30.7,86.9"/>
							<path class="st35" d="M424.5,261.9c0,0,11.2,4.3,15.6,7.7"/>
							<path class="st35" d="M453.2,272.7c0,0-3.7,10.4-4.3,18.1"/>
							<path class="st35" d="M443.7,303.7c0,0,7.2,1.5,11.6,5.1"/>
						</g>
						<path class="st35" d="M429.9,304.8c0,0-7.2-2.6-15.3-1.9"/>
					</g>
					<g>
						<g>
							<path class="st29" d="M463,338.3c0,0,27.2-37.8,40.8-22.5c4.7,6-39.6,25.4-39.6,25.4L463,338.3z"/>
							<path class="st36" d="M497.4,316.2c0,0-24.1,12.3-31.3,19.1"/>
							<path class="st36" d="M480,325.8c0,0,2-2.2,3-7.1"/>
							<path class="st31" d="M470,338.6l21.2-25.5c-13.3,4.5-28.2,25.2-28.2,25.2l1,2.6l1.8-0.4C466.9,340,468.3,339.4,470,338.6z"
								/>
							<path class="st32" d="M458.6,340c0,0,16.2-66.7,42.4-54.4c9.5,5.1-39.3,57.7-39.3,57.7L458.6,340z"/>
							<path class="st36" d="M493.9,288.4c0,0-24.5,29.6-32.2,49.8"/>
							<path class="st36" d="M497.4,295.4c0,0-7.6,1-10.9,2.5"/>
							<path class="st36" d="M477.8,297.9c0,0,0.8,7.1,0,12"/>
							<path class="st36" d="M479.1,318.7c0,0-4.7-0.2-8,1.5"/>
						</g>
						<path class="st36" d="M487.6,321.5c0,0,4.9-0.5,9.8,1.1"/>
					</g>
					<rect x="444.2" y="337.8" class="st34" width="37.3" height="66.1"/>
				</g>
				<rect x="444.2" y="348.7" class="st9" width="37.3" height="20.2"/>
			</g>
			<g>
				<path class="st37" d="M478.1,186h-0.4c-9.7,0-17.5,7.8-17.5,17.5V223h35.4v-19.4C495.6,193.9,487.7,186,478.1,186z"/>
				<path class="st37" d="M484,186h-0.4c-9.7,0-17.5,7.8-17.5,17.5V223h35.4v-19.4C501.5,193.9,493.7,186,484,186z"/>
				<rect x="418.3" y="327.6" class="st1" width="115.9" height="78.9"/>
				<rect x="418.3" y="327.6" class="st11" width="44.3" height="78.9"/>
				<rect x="440.5" y="291.4" class="st9" width="83.3" height="36.2"/>
				<rect x="498" y="291.4" class="st24" width="25.8" height="36.2"/>
				<polygon class="st6" points="510.5,218.2 451.7,218.2 448.1,291.4 514.1,291.4 				"/>
				<polygon class="st38" points="440.5,327.6 498,313.1 523.8,327.6 				"/>
				<path class="st39" d="M448.1,291.4c0,0,38.1-14.6,42.5-73.2c19.8,0,19.8,0,19.8,0l3.6,73.2H448.1z"/>
			</g>
		</g>
		<g>
			<rect x="301.2" y="211.6" class="st39" width="16.3" height="29.3"/>
			<path class="st40" d="M344.3,325.5l-9.2,81h-36.6c0,0-0.7-8.9,7.5-11c9.9-72,10.1-73.9,10.1-73.9L344.3,325.5z"/>
			<path class="st41" d="M323.7,382.1c0,0-0.6,6.2,6.5,6.7"/>
			<path class="st42" d="M325.4,322.9l-9.2-1.3c0,0-0.2,1.9-10.1,73.9c-8.3,2.1-7.5,11-7.5,11h15.3L325.4,322.9z"/>
			<path class="st40" d="M383.6,323.2l2,83.3h-36.8c0,0-1.5-7.8,6.4-11c0-72.7,0-72.3,0-72.3H383.6z"/>
			<path class="st43" d="M383.6,323.2h-28.4c0,0,0,0.2,0,7c7.7,8.1,20.8,9.4,28.8,9.3L383.6,323.2z"/>
			<path class="st42" d="M369,323.2h-13.8c0,0,0,0.7,0,72.3c-7.9,3.2-6.4,11-6.4,11h18.2L369,323.2z"/>
			<path class="st43" d="M315.2,329c4.2,3.5,13.7,10.1,27.4,11.8l1.7-15.3l-28.1-3.9C316.2,321.6,316.1,322,315.2,329z"/>
			<path class="st11" d="M314.8,387.4h-0.4c-4.4,0-7.9,3.6-7.9,7.9v0.2h16.3v-0.2C322.7,390.9,319.1,387.4,314.8,387.4z"/>
			<path class="st44" d="M298.5,406.5h36.6l1.2-11h-30.3C297.8,397.6,298.5,406.5,298.5,406.5z"/>
			<path class="st1" d="M354.5,226l-7.4,105.5c0,0-13.8,5.1-34.3-4.7l0,0l18.8-103.5L354.5,226z"/>
			<path class="st11" d="M338.2,332.8c5.6-0.1,8.8-1.3,8.8-1.3l12.8-106.9h-11.2L338.2,332.8z"/>
			<path class="st3" d="M321.4,397.2c0,0.9-0.8,1.7-1.7,1.7h-12.9c-0.9,0-1.7-0.8-1.7-1.7l0,0c0-0.9,0.8-1.7,1.7-1.7h12.9
				C320.6,395.5,321.4,396.2,321.4,397.2L321.4,397.2z"/>
			<path class="st44" d="M348.8,406.5h36.8l-0.3-11h-30.1C347.3,398.7,348.8,406.5,348.8,406.5z"/>
			<path class="st3" d="M371.5,397.2c0,0.9-0.8,1.7-1.7,1.7h-12.9c-0.9,0-1.7-0.8-1.7-1.7l0,0c0-0.9,0.8-1.7,1.7-1.7h12.9
				C370.7,395.5,371.5,396.2,371.5,397.2L371.5,397.2z"/>
			<path class="st11" d="M363.5,387.4h-0.4c-4.4,0-7.9,3.6-7.9,7.9v0.2h16.3v-0.2C371.5,390.9,367.9,387.4,363.5,387.4z"/>
			<path class="st41" d="M374.2,382.1c0,0-0.6,6.2,6.5,6.7"/>
			<path class="st1" d="M380.1,223.3l7,105.5c0,0-13,6.9-34.6,0c0-75,0-75,0-75s-8.3-13.9-6.9-26.3c0.9-7.7,0.9-7.7,0.9-7.7
				L380.1,223.3z"/>
			<path class="st11" d="M378.6,331.3c5.5-0.9,8.6-2.5,8.6-2.5l-7-105.5l-5.9-0.6L378.6,331.3z"/>
			<path class="st11" d="M374.2,222.6L374.2,222.6l-12.2-1.3c0.3,6.9,2.3,22.3,13.2,27C374.2,222.6,374.2,222.6,374.2,222.6z"/>
			<path class="st45" d="M380.9,234.9l-0.8-11.6l-33.6-3.4c0,0,0,0-0.6,5.2l-14.3-1.7C331.6,223.3,347.8,238,380.9,234.9z"/>
			<path class="st46" d="M342.4,128.1c0,0-7.8,1.6-13.3,20.9c-5.5,19.3-12.1,43.2-12.1,43.2s-45.3-2.6-49,15.9c69.7,0,69.7,0,69.7,0
				L342.4,128.1z"/>
			<path class="st24" d="M323.6,168.3c4.4,1.6,10.5,3.4,16.2,3.6l2.6-43.9c0,0-7.8,1.6-13.3,20.9C327.3,155.3,325.4,162,323.6,168.3
				z"/>
			<polygon class="st43" points="334.3,161.1 326.6,201.9 332.1,201.9 			"/>
			<path class="st9" d="M372.2,122l20.1,18.7l-12.2,82.5c0,0-29.2,10.6-48.5,0c1.4-53.8,0.6-64.7,10.8-95.2
				c19.2-6.6,20.5-6.1,20.5-6.1H372.2z"/>
			<polygon class="st40" points="371.3,102.4 372.2,122 359.4,140.7 357.3,125.4 358.6,113.8 367.4,102.1 			"/>
			<path class="st43" d="M368.5,105.5l-3.1-0.7l-6.8,9l-1.3,11.6C366.8,119.1,368.5,105.5,368.5,105.5z"/>
			<path class="st47" d="M352.1,94.7c0,0-9.3,0-10.8-7.1c-0.6-2.5,3.8-5.6,7.5-2.3c-1.9-6.9,0.1-8.6,4.9-8.6c4.8,0,9,7.7,9.1,8
				c0.6-5.4,5.3-5.7,6.2,1.6c4.1,2.2,7,2.8,6.7,9c-0.3,6.2-2.3,15.1-4.3,17.1l0,0c-1.3-0.8-2.2-2.1-2.4-3.6l-0.5-3.9l-1.8-4l-6-7.8
				L352.1,94.7z"/>
			<path class="st42" d="M364.7,90.6c0,0-11.3-7.5-12.6-13.9c-3.6,0.4-5,2.5-3.3,8.5c-3.7-3.3-8-0.2-7.5,2.3
				c1.5,7.1,10.8,7.1,10.8,7.1l5.8-1.1L364.7,90.6z"/>
			<path class="st40" d="M350.5,93.3c-0.6,4.6-1.6,14.1-1.7,21.7c0,4.4,4.7,7.4,8.6,5.3c5.6-2.9,10.4-7.8,11.6-18.5l-1.7,0.2
				l0.5-10.7c0,0-8-2.1-13.8-1.5C352.2,90,350.7,91.5,350.5,93.3z"/>
			<path class="st47" d="M367.4,102.1l0.2-3.8l0,0c0,0-0.6,7.2-3.8,9.8c-3.2,2.6-8.6,1.2-11.7,1.2c-1.1,0-2.2,0-3,0.1
				c-0.1,1.9-0.2,3.9-0.2,5.7c0,4.4,4.7,7.4,8.6,5.3c5.6-2.9,10.4-7.8,11.6-18.5L367.4,102.1z"/>
			<path class="st47" d="M360.8,102.5c0,0.3-0.3,0.6-0.7,0.6l0,0c-0.4,0-0.7-0.3-0.7-0.6v-1.9c0-0.3,0.3-0.6,0.7-0.6l0,0
				c0.4,0,0.7,0.3,0.7,0.6V102.5z"/>
			<path class="st47" d="M352.1,103.6c0,0.3-0.3,0.6-0.7,0.6l0,0c-0.4,0-0.7-0.3-0.7-0.6v-1.8c0-0.3,0.3-0.6,0.7-0.6l0,0
				c0.4,0,0.7,0.3,0.7,0.6V103.6z"/>
			<polyline class="st48" points="354.3,102.4 353.7,108.5 356.6,108.5 			"/>
			<path class="st3" d="M352.1,111.1h6.2C358.3,111.1,355.2,114,352.1,111.1z"/>
			<polygon class="st43" points="374.1,158.2 369.1,196.3 388.2,201.9 			"/>
			<path class="st40" d="M369.1,101.9l0.8-4.6c0,0,6.7-2.3,5.9,3.4c-0.7,3.9-7.1,4.2-7.1,4.2L369.1,101.9z"/>
			<polygon class="st24" points="366.8,129.9 370.2,143.2 375.9,125.4 372.2,122 			"/>
			<polygon class="st24" points="358.3,132.6 352.1,138.6 354.7,124 357.5,123.2 357.3,125.4 			"/>
			<path class="st42" d="M364.7,90.6c-2.9-0.6-7.2-1.2-10.7-0.8c-1.9,0.2-3.3,1.7-3.5,3.5c-0.6,4.6-1.6,14.1-1.7,21.7
				c0,3.7,3.3,6.4,6.7,5.9c0.8-1.2,2.1-3,3.9-5.9C363.7,108.3,364.6,94.3,364.7,90.6z"/>
			<path class="st49" d="M357.3,97.5c0,0,2.5-2.3,5.1-0.7"/>
			<path class="st49" d="M352.6,97.5c0,0-2.2-0.8-3.4,0"/>
			<line class="st41" x1="368.9" y1="103.1" x2="374.1" y2="100.1"/>
			<line class="st50" x1="374.1" y1="234.9" x2="378.6" y2="331.3"/>
			<line class="st50" x1="347.1" y1="241" x2="338.2" y2="332.8"/>
			<rect x="306.1" y="241" class="st6" width="7.3" height="165.5"/>
			<rect x="301.2" y="215.1" class="st39" width="16.3" height="4.7"/>
			<rect x="279.9" y="402.9" class="st39" width="58.3" height="3.6"/>
			<rect x="250.4" y="208.2" class="st6" width="118.2" height="7"/>
			<rect x="285.8" y="201.9" class="st3" width="47.8" height="6.3"/>
			<rect x="251.9" y="201.9" class="st11" width="33.9" height="6.3"/>
			<polygon class="st1" points="254,157.3 220.1,157.3 254,201.9 287.9,201.9 			"/>
			<polygon class="st3" points="251.9,157.3 218,157.3 251.9,201.9 285.8,201.9 			"/>
			<polygon class="st39" points="339.6,208.2 354.5,215.1 366.3,215.1 348.3,208.2 			"/>
			<path class="st4" d="M252.8,178.6c3.3,1.4,5.2,4.1,4.4,6c-0.8,1.9-4.1,2.4-7.4,1c-3.3-1.4-5.2-4.1-4.4-6
				C246.3,177.6,249.6,177.2,252.8,178.6z"/>
			<rect x="290.2" y="203.4" class="st1" width="10.9" height="3"/>
			<rect x="304.3" y="203.4" class="st1" width="10.9" height="3"/>
			<path class="st40" d="M392.3,140.7c0,0,3.9,6.4,4.5,22.7c0.4,9.5,0.3,30.1,0.2,45.4c-0.1,9.3-9.4,15.7-18.1,12.4l-45.3-19.4
				h-16.7c0,0-3.5-4.1,7.8-6.9c5-1.2,9.9-2,13.9-2.5c5.3-0.7,10.7-0.4,15.9,0.7l19.5,4.3v-39.2C374.1,158.2,374.3,143.8,392.3,140.7
				z"/>
			<path class="st24" d="M396.8,163.4c-0.6-16.2-4.5-22.7-4.5-22.7c-18,3.1-18.2,17.5-18.2,17.5v23.3c5.4,0,14.3-0.5,22.9-2.8
				C397,172.5,397,167.1,396.8,163.4z"/>
			<line class="st51" x1="374.1" y1="197.4" x2="383.6" y2="199.7"/>
			<path class="st52" d="M378.9,221.2c8.5,3.2,17.6-2.9,18-11.9c-1.7-0.8-3.7-1.2-5.7-1.2c-7.2,0-13.2,5.4-14,12.5L378.9,221.2z"/>
			<path class="st51" d="M317.4,198.2c0,0,10.8-3,16.2-2.6"/>
		</g>
	</g>
</g>
</svg>
