<?xml version="1.0" encoding="utf-8"?>
<!-- Generator: Adobe Illustrator 24.0.0, SVG Export Plug-In . SVG Version: 6.00 Build 0)  -->
<svg version="1.1" xmlns="http://www.w3.org/2000/svg" xmlns:xlink="http://www.w3.org/1999/xlink" x="0px" y="0px"
	 viewBox="0 0 2884.5 3075.3" style="enable-background:new 0 0 2884.5 3075.3;" xml:space="preserve">
<style type="text/css">
	.st0{fill:#BDD0FB;}
	.st1{opacity:0.52;}
	.st2{fill:#FFFFFF;}
	.st3{fill:url(#SVGID_1_);}
	.st4{fill:url(#SVGID_2_);}
	.st5{fill:url(#SVGID_3_);}
	.st6{fill:url(#SVGID_4_);}
	.st7{fill:url(#SVGID_5_);}
	.st8{fill:url(#SVGID_6_);}
	.st9{fill:url(#SVGID_7_);}
	.st10{fill:url(#SVGID_8_);}
	.st11{fill:url(#SVGID_9_);}
	.st12{fill:url(#SVGID_10_);}
	.st13{fill:url(#SVGID_11_);}
	.st14{fill:url(#SVGID_12_);}
	.st15{fill:url(#SVGID_13_);}
	.st16{fill:url(#SVGID_14_);}
	.st17{fill:url(#SVGID_15_);}
	.st18{fill:url(#SVGID_16_);}
	.st19{fill:url(#SVGID_17_);}
	.st20{fill:url(#SVGID_18_);}
	.st21{fill:url(#SVGID_19_);}
	.st22{fill:url(#SVGID_20_);}
	.st23{fill:url(#SVGID_21_);}
	.st24{fill:url(#SVGID_22_);}
	.st25{fill:url(#SVGID_23_);}
	.st26{fill:url(#SVGID_24_);}
	.st27{fill:url(#SVGID_25_);}
	.st28{fill:url(#SVGID_26_);}
	.st29{fill:url(#SVGID_27_);}
	.st30{fill:#64A1FF;}
	.st31{fill:#00001E;}
	.st32{fill:#D278F2;}
	.st33{fill:url(#SVGID_28_);}
	.st34{fill:#FCC989;}
	.st35{fill:url(#SVGID_29_);}
	.st36{fill:#91B3FA;}
	.st37{fill:url(#SVGID_30_);}
	.st38{fill:url(#SVGID_31_);}
	.st39{fill:url(#SVGID_32_);}
	.st40{fill:url(#SVGID_33_);}
	.st41{fill:url(#SVGID_34_);}
	.st42{fill:url(#SVGID_35_);}
	.st43{fill:url(#SVGID_36_);}
	.st44{fill:url(#SVGID_37_);}
	.st45{fill:url(#SVGID_38_);}
	.st46{fill:url(#SVGID_39_);}
	.st47{fill:url(#SVGID_40_);}
	.st48{fill:#FFFCFC;}
	.st49{fill:url(#SVGID_41_);}
	.st50{fill:#EAECED;}
	.st51{fill:#B1B1B2;}
	.st52{fill:url(#SVGID_42_);}
	.st53{opacity:0.3;}
</style>
<g id="Background">
</g>
<g id="Illustration">
	<g>
		<g>
			<g>
				<path class="st0" d="M568.5,861.3c0.3-14.8,12.8-26.8,28-26.8h926.9c15.5,0,31.9,12.3,31.9,27.3v2100.9c0,11.2-6.5,22-14.7,29.9
					c-8.2,7.9-20.3,12.4-31.8,12.3l-937.1-2.5c-11.7,0-23.1-4.6-31.2-12.7c-8.2-8.1-12.7-19.1-12.5-30.4L568.5,861.3z"/>
				<g class="st1">
					<polygon class="st2" points="1100.8,983.4 1404,982.4 1403.9,945.6 1101,946.5 					"/>
					<polygon class="st2" points="1100,1119.2 1404.4,1117.8 1404.3,1080.7 1100.2,1081.9 					"/>
					<polygon class="st2" points="1099.2,1256 1404.9,1254.3 1404.8,1216.8 1099.4,1218.4 					"/>
					<polygon class="st2" points="1098.3,1394 1405.3,1391.9 1405.2,1354.2 1098.5,1356.1 					"/>
					<polygon class="st2" points="1097.5,1533.1 1405.7,1530.7 1405.6,1492.6 1097.7,1494.9 					"/>
					<polygon class="st2" points="1095.7,1814.8 1406.6,1811.7 1406.5,1773 1096,1776 					"/>
					<polygon class="st2" points="1093.1,2246.4 1407.9,2242.2 1407.8,2202.5 1093.3,2206.6 					"/>
					<polygon class="st2" points="1096.6,1673.3 1406.1,1670.6 1406,1632.2 1096.8,1634.9 					"/>
					<polygon class="st2" points="1094.9,1957.5 1407,1954 1406.9,1915 1095.1,1918.3 					"/>
					<polygon class="st2" points="1094,2101.3 1407.5,2097.5 1407.3,2058.1 1094.2,2061.8 					"/>
					<polygon class="st2" points="1092.2,2392.7 1408.3,2388.2 1408.2,2348.1 1092.4,2352.6 					"/>
					<polygon class="st2" points="1091.3,2540.3 1408.8,2535.4 1408.7,2495 1091.5,2499.8 					"/>
					<polygon class="st2" points="1090.4,2689.2 1409.3,2683.8 1409.1,2643.1 1090.6,2648.3 					"/>
					<polygon class="st2" points="1089.5,2839.3 1409.7,2833.6 1409.6,2792.5 1089.7,2798.1 					"/>
					<polygon class="st2" points="703.3,984.8 1008.4,983.8 1008.7,946.8 704,947.7 					"/>
					<polygon class="st2" points="700.8,1120.9 1007.2,1119.6 1007.5,1082.3 701.5,1083.6 					"/>
					<polygon class="st2" points="698.3,1258.2 1006,1256.5 1006.3,1218.9 699,1220.5 					"/>
					<polygon class="st2" points="695.8,1396.6 1004.7,1394.6 1005.1,1356.7 696.5,1358.6 					"/>
					<polygon class="st2" points="693.3,1536.2 1003.5,1533.8 1003.8,1495.6 694,1497.9 					"/>
					<polygon class="st2" points="688.1,1818.9 1001,1815.7 1001.3,1776.9 688.8,1779.9 					"/>
					<polygon class="st2" points="680.3,2251.9 997.1,2247.7 997.5,2207.8 681,2212 					"/>
					<polygon class="st2" points="690.7,1676.9 1002.2,1674.2 1002.6,1635.7 691.4,1638.3 					"/>
					<polygon class="st2" points="685.5,1962 999.7,1958.5 1000,1919.3 686.2,1922.7 					"/>
					<polygon class="st2" points="682.9,2106.3 998.4,2102.5 998.8,2063 683.6,2066.7 					"/>
					<polygon class="st2" points="677.6,2398.7 995.8,2394.1 996.2,2353.9 678.3,2358.4 					"/>
					<polygon class="st2" points="674.9,2546.8 994.5,2541.8 994.9,2501.3 675.6,2506.2 					"/>
					<polygon class="st2" points="672.2,2696.2 993.2,2690.8 993.5,2649.9 672.9,2655.2 					"/>
					<polygon class="st2" points="669.4,2846.9 991.8,2841.1 992.2,2799.8 670.2,2805.5 					"/>
				</g>
			</g>
			<g>
				<path class="st0" d="M36.6,1440.8c0.4-17.2,18-31.3,39.6-31.3h816.4c21.9,0,43.4,14.9,43.4,32.3v1554.7
					c0,8.4-6.1,16.4-13.5,22.3c-7.5,5.9-18.5,9.2-29,9.2l-853.6-1.9c-10.6,0-21-3.4-28.4-9.5c-7.4-6-11.6-14.4-11.4-22.8
					L36.6,1440.8z"/>
				<g>
					<g>
						<linearGradient id="SVGID_1_" gradientUnits="userSpaceOnUse" x1="637.8271" y1="1545.2479" x2="872.2399" y2="1545.2479">
							<stop  offset="0" style="stop-color:#DAE3FE"/>
							<stop  offset="1" style="stop-color:#E9EFFD"/>
						</linearGradient>
						<polygon class="st3" points="637.8,1592.7 870.4,1592.5 872.2,1497.8 639.4,1497.8 						"/>
						<linearGradient id="SVGID_2_" gradientUnits="userSpaceOnUse" x1="377.1448" y1="1545.2242" x2="611.0712" y2="1545.2242">
							<stop  offset="0" style="stop-color:#DAE3FE"/>
							<stop  offset="1" style="stop-color:#E9EFFD"/>
						</linearGradient>
						<polygon class="st4" points="377.1,1592.7 609.5,1592.4 611.1,1497.8 378.5,1497.8 						"/>
						<linearGradient id="SVGID_3_" gradientUnits="userSpaceOnUse" x1="116.7248" y1="1545.2003" x2="350.1645" y2="1545.2003">
							<stop  offset="0" style="stop-color:#DAE3FE"/>
							<stop  offset="1" style="stop-color:#E9EFFD"/>
						</linearGradient>
						<polygon class="st5" points="116.7,1592.6 348.8,1592.4 350.2,1497.8 117.8,1497.8 						"/>
					</g>
					<g>
						<linearGradient id="SVGID_4_" gradientUnits="userSpaceOnUse" x1="634.9206" y1="1715.7979" x2="868.9216" y2="1715.7979">
							<stop  offset="0" style="stop-color:#DAE3FE"/>
							<stop  offset="1" style="stop-color:#E9EFFD"/>
						</linearGradient>
						<polygon class="st6" points="634.9,1762.8 867.1,1762.9 868.9,1668.8 636.5,1668.7 						"/>
						<linearGradient id="SVGID_5_" gradientUnits="userSpaceOnUse" x1="374.6928" y1="1715.6886" x2="608.2092" y2="1715.6886">
							<stop  offset="0" style="stop-color:#DAE3FE"/>
							<stop  offset="1" style="stop-color:#E9EFFD"/>
						</linearGradient>
						<polygon class="st7" points="374.7,1762.6 606.6,1762.8 608.2,1668.7 376.1,1668.6 						"/>
						<linearGradient id="SVGID_6_" gradientUnits="userSpaceOnUse" x1="114.726" y1="1715.58" x2="347.7567" y2="1715.58">
							<stop  offset="0" style="stop-color:#DAE3FE"/>
							<stop  offset="1" style="stop-color:#E9EFFD"/>
						</linearGradient>
						<polygon class="st8" points="114.7,1762.5 346.4,1762.6 347.8,1668.6 115.8,1668.5 						"/>
					</g>
					<g>
						<linearGradient id="SVGID_7_" gradientUnits="userSpaceOnUse" x1="632.0245" y1="1884.8669" x2="865.6149" y2="1884.8669">
							<stop  offset="0" style="stop-color:#DAE3FE"/>
							<stop  offset="1" style="stop-color:#E9EFFD"/>
						</linearGradient>
						<polygon class="st9" points="632,1931.6 863.8,1931.8 865.6,1838 633.6,1837.9 						"/>
						<linearGradient id="SVGID_8_" gradientUnits="userSpaceOnUse" x1="372.2489" y1="1884.6731" x2="605.356" y2="1884.6731">
							<stop  offset="0" style="stop-color:#DAE3FE"/>
							<stop  offset="1" style="stop-color:#E9EFFD"/>
						</linearGradient>
						<polygon class="st10" points="372.2,1931.4 603.8,1931.6 605.4,1837.9 373.6,1837.7 						"/>
						<linearGradient id="SVGID_9_" gradientUnits="userSpaceOnUse" x1="112.734" y1="1884.4801" x2="345.3572" y2="1884.4801">
							<stop  offset="0" style="stop-color:#DAE3FE"/>
							<stop  offset="1" style="stop-color:#E9EFFD"/>
						</linearGradient>
						<polygon class="st11" points="112.7,1931.2 344,1931.4 345.4,1837.7 113.8,1837.6 						"/>
					</g>
					<g>
						<linearGradient id="SVGID_10_" gradientUnits="userSpaceOnUse" x1="629.138" y1="2053.3501" x2="862.3197" y2="2053.3501">
							<stop  offset="0" style="stop-color:#DAE3FE"/>
							<stop  offset="1" style="stop-color:#E9EFFD"/>
						</linearGradient>
						<polygon class="st12" points="629.1,2099.9 860.5,2100.2 862.3,2006.7 630.7,2006.5 						"/>
						<linearGradient id="SVGID_11_" gradientUnits="userSpaceOnUse" x1="369.8133" y1="2053.0725" x2="602.5134" y2="2053.0725">
							<stop  offset="0" style="stop-color:#DAE3FE"/>
							<stop  offset="1" style="stop-color:#E9EFFD"/>
						</linearGradient>
						<polygon class="st13" points="369.8,2099.6 600.9,2099.9 602.5,2006.5 371.2,2006.3 						"/>
						<linearGradient id="SVGID_12_" gradientUnits="userSpaceOnUse" x1="110.7483" y1="2052.7957" x2="342.9664" y2="2052.7957">
							<stop  offset="0" style="stop-color:#DAE3FE"/>
							<stop  offset="1" style="stop-color:#E9EFFD"/>
						</linearGradient>
						<polygon class="st14" points="110.7,2099.3 341.6,2099.6 343,2006.2 111.9,2006 						"/>
					</g>
					<g>
						<linearGradient id="SVGID_13_" gradientUnits="userSpaceOnUse" x1="626.2623" y1="2221.2507" x2="859.0356" y2="2221.2507">
							<stop  offset="0" style="stop-color:#DAE3FE"/>
							<stop  offset="1" style="stop-color:#E9EFFD"/>
						</linearGradient>
						<polygon class="st15" points="626.3,2267.6 857.2,2268 859,2174.8 627.9,2174.5 						"/>
						<linearGradient id="SVGID_14_" gradientUnits="userSpaceOnUse" x1="367.3865" y1="2220.8896" x2="599.6801" y2="2220.8896">
							<stop  offset="0" style="stop-color:#DAE3FE"/>
							<stop  offset="1" style="stop-color:#E9EFFD"/>
						</linearGradient>
						<polygon class="st16" points="367.4,2267.2 598.1,2267.6 599.7,2174.5 368.7,2174.2 						"/>
						<linearGradient id="SVGID_15_" gradientUnits="userSpaceOnUse" x1="108.7694" y1="2220.5293" x2="340.5835" y2="2220.5293">
							<stop  offset="0" style="stop-color:#DAE3FE"/>
							<stop  offset="1" style="stop-color:#E9EFFD"/>
						</linearGradient>
						<polygon class="st17" points="108.8,2266.9 339.3,2267.2 340.6,2174.2 109.9,2173.9 						"/>
					</g>
					<g>
						<linearGradient id="SVGID_16_" gradientUnits="userSpaceOnUse" x1="623.3959" y1="2388.5718" x2="855.7635" y2="2388.5718">
							<stop  offset="0" style="stop-color:#DAE3FE"/>
							<stop  offset="1" style="stop-color:#E9EFFD"/>
						</linearGradient>
						<polygon class="st18" points="623.4,2434.8 854,2435.2 855.8,2342.4 625,2342 						"/>
						<linearGradient id="SVGID_17_" gradientUnits="userSpaceOnUse" x1="364.9675" y1="2388.1277" x2="596.8575" y2="2388.1277">
							<stop  offset="0" style="stop-color:#DAE3FE"/>
							<stop  offset="1" style="stop-color:#E9EFFD"/>
						</linearGradient>
						<polygon class="st19" points="365,2434.3 595.3,2434.7 596.9,2341.9 366.3,2341.6 						"/>
						<linearGradient id="SVGID_18_" gradientUnits="userSpaceOnUse" x1="106.7979" y1="2387.6848" x2="338.2093" y2="2387.6848">
							<stop  offset="0" style="stop-color:#DAE3FE"/>
							<stop  offset="1" style="stop-color:#E9EFFD"/>
						</linearGradient>
						<polygon class="st20" points="106.8,2433.8 336.9,2434.2 338.2,2341.5 107.9,2341.1 						"/>
					</g>
					<g>
						<linearGradient id="SVGID_19_" gradientUnits="userSpaceOnUse" x1="620.5388" y1="2555.3159" x2="852.5023" y2="2555.3159">
							<stop  offset="0" style="stop-color:#DAE3FE"/>
							<stop  offset="1" style="stop-color:#E9EFFD"/>
						</linearGradient>
						<polygon class="st21" points="620.5,2601.3 850.7,2601.8 852.5,2509.3 622.1,2508.8 						"/>
						<linearGradient id="SVGID_20_" gradientUnits="userSpaceOnUse" x1="362.5577" y1="2554.7898" x2="594.0436" y2="2554.7898">
							<stop  offset="0" style="stop-color:#DAE3FE"/>
							<stop  offset="1" style="stop-color:#E9EFFD"/>
						</linearGradient>
						<polygon class="st22" points="362.6,2600.8 592.5,2601.2 594,2508.8 363.9,2508.3 						"/>
						<linearGradient id="SVGID_21_" gradientUnits="userSpaceOnUse" x1="104.8326" y1="2554.2644" x2="335.843" y2="2554.2644">
							<stop  offset="0" style="stop-color:#DAE3FE"/>
							<stop  offset="1" style="stop-color:#E9EFFD"/>
						</linearGradient>
						<polygon class="st23" points="104.8,2600.2 334.5,2600.7 335.8,2508.3 105.9,2507.8 						"/>
					</g>
					<g>
						<linearGradient id="SVGID_22_" gradientUnits="userSpaceOnUse" x1="617.6923" y1="2721.4866" x2="849.2527" y2="2721.4866">
							<stop  offset="0" style="stop-color:#DAE3FE"/>
							<stop  offset="1" style="stop-color:#E9EFFD"/>
						</linearGradient>
						<polygon class="st24" points="617.7,2767.3 847.5,2767.8 849.3,2675.7 619.3,2675.1 						"/>
						<linearGradient id="SVGID_23_" gradientUnits="userSpaceOnUse" x1="360.1558" y1="2720.8789" x2="591.2407" y2="2720.8789">
							<stop  offset="0" style="stop-color:#DAE3FE"/>
							<stop  offset="1" style="stop-color:#E9EFFD"/>
						</linearGradient>
						<polygon class="st25" points="360.2,2766.6 589.7,2767.2 591.2,2675.1 361.5,2674.6 						"/>
						<linearGradient id="SVGID_24_" gradientUnits="userSpaceOnUse" x1="102.8742" y1="2720.2717" x2="333.4839" y2="2720.2717">
							<stop  offset="0" style="stop-color:#DAE3FE"/>
							<stop  offset="1" style="stop-color:#E9EFFD"/>
						</linearGradient>
						<polygon class="st26" points="102.9,2766 332.2,2766.6 333.5,2674.5 104,2674 						"/>
					</g>
					<g>
						<linearGradient id="SVGID_25_" gradientUnits="userSpaceOnUse" x1="614.855" y1="2887.0869" x2="846.0134" y2="2887.0869">
							<stop  offset="0" style="stop-color:#DAE3FE"/>
							<stop  offset="1" style="stop-color:#E9EFFD"/>
						</linearGradient>
						<polygon class="st27" points="614.9,2932.7 844.2,2933.3 846,2841.5 616.4,2840.9 						"/>
						<linearGradient id="SVGID_26_" gradientUnits="userSpaceOnUse" x1="357.7617" y1="2886.3977" x2="588.4469" y2="2886.3977">
							<stop  offset="0" style="stop-color:#DAE3FE"/>
							<stop  offset="1" style="stop-color:#E9EFFD"/>
						</linearGradient>
						<polygon class="st28" points="357.8,2932 586.9,2932.6 588.4,2840.8 359.1,2840.2 						"/>
						<linearGradient id="SVGID_27_" gradientUnits="userSpaceOnUse" x1="100.9231" y1="2885.7095" x2="331.1346" y2="2885.7095">
							<stop  offset="0" style="stop-color:#DAE3FE"/>
							<stop  offset="1" style="stop-color:#E9EFFD"/>
						</linearGradient>
						<polygon class="st29" points="100.9,2931.3 329.8,2931.9 331.1,2840.1 102,2839.5 						"/>
					</g>
				</g>
			</g>
		</g>
		<g>
			<path class="st30" d="M2683.2,3055.3H870.5c-14.2,0-25.7-11.5-25.7-25.7V580c0-14.2,11.5-25.7,25.7-25.7h1812.8
				c14.2,0,25.7,11.5,25.7,25.7v2449.6C2708.9,3043.8,2697.4,3055.3,2683.2,3055.3z"/>
			<path class="st31" d="M2391.6,2725.8H1158.2c-46.8,0-84.7-37.9-84.7-84.7V1014.7c0-46.8,37.9-84.7,84.7-84.7h1233.4
				c46.8,0,84.7,37.9,84.7,84.7v1626.5C2476.2,2687.9,2438.3,2725.8,2391.6,2725.8z"/>
			<path class="st32" d="M2344.9,2600.9H1206c-14,0-25.4-11.4-25.4-25.4V1103.2c0-14,11.4-25.4,25.4-25.4h1138.9
				c14,0,25.4,11.4,25.4,25.4v1472.3C2370.3,2589.5,2358.9,2600.9,2344.9,2600.9z"/>
			<linearGradient id="SVGID_28_" gradientUnits="userSpaceOnUse" x1="1868.0808" y1="527.7534" x2="2230.0332" y2="-307.5208">
				<stop  offset="0" style="stop-color:#09005D"/>
				<stop  offset="1" style="stop-color:#1A0F91"/>
			</linearGradient>
			<circle class="st33" cx="1773.5" cy="746.1" r="55.8"/>
			<path class="st34" d="M2133.7,1646.3l-717.4,11.9c-54.6,0.9-99,43.4-99,94.8v451.8c0,51.5,44.4,91.4,99,89.2l717.4-28.8
				c51.5-2.1,93.2-44.1,93.2-93.8v-436.7C2226.9,1685.1,2185.3,1645.5,2133.7,1646.3z"/>
			<path class="st34" d="M2170,1564.6c-21.7,0.3-39.4-16.4-39.4-37.5v-98.9c0-99.2-83.9-179.7-187.8-179.4l-233.7,0.7
				c-106.6,0.3-193.9,83.2-193.9,184.7v101.2c0,21.5-18.5,39.2-41.4,39.5c-22.9,0.3-41.5-16.9-41.5-38.4v-101.5
				c0-144.9,124.8-262.8,276.7-262.8h233.7c147.6,0,266.4,114.5,266.4,255.2v98.6C2209.3,1547.1,2191.7,1564.3,2170,1564.6z"/>
			<path class="st31" d="M1891.1,1896.7c0-50.2-43.8-89.6-97.1-86c-47.1,3.2-86.1,40.9-88.6,86c-2,35,17.2,65.2,46.4,80.5
				c12.4,6.5,18.6,20.2,16.2,33.8l-20.5,115c-2.6,14.6,9.2,27.5,24.6,26.9l52.6-1.9c15.4-0.6,27.1-14.2,24.5-28.6l-20.5-113.9
				c-2.4-13.6,4.6-27.1,17.1-34.5C1873,1957.7,1891.1,1929,1891.1,1896.7z"/>
		</g>
		<g>
			<g>
				
					<linearGradient id="SVGID_29_" gradientUnits="userSpaceOnUse" x1="-2102.5032" y1="3012.6035" x2="-1970.4141" y2="3012.6035" gradientTransform="matrix(1 0 0 1 2420.5969 0)">
					<stop  offset="0" style="stop-color:#09005D"/>
					<stop  offset="1" style="stop-color:#1A0F91"/>
				</linearGradient>
				<path class="st35" d="M450.2,3059.6c0-1-0.1-2-0.3-3c-14.9-59-88.7-95.7-88.7-95.7l-29.3,2.3c-16.8,52-14.7,83.9-12,98.1
					c0.1,0.4,0.2,0.8,0.3,1.2C344.4,3064.6,394.1,3066,450.2,3059.6z"/>
				<path class="st36" d="M320.2,3062.5c1.3,4.7,4.8,8.4,9.3,9.4c34.3,7.2,88.9,1.4,111.8-1.6c5.1-0.7,8.8-5.3,8.8-10.6
					C394.1,3066,344.4,3064.6,320.2,3062.5z"/>
				
					<linearGradient id="SVGID_30_" gradientUnits="userSpaceOnUse" x1="-2065.7705" y1="2862.2258" x2="-2091.0017" y2="3082.4268" gradientTransform="matrix(1 0 0 1 2420.5969 0)">
					<stop  offset="0" style="stop-color:#FEBBBA"/>
					<stop  offset="1" style="stop-color:#FF928E"/>
				</linearGradient>
				<path class="st37" d="M320.1,2919.6l12.4,59.7c0.9,4.4,4.3,7.6,8.3,8c5,0.5,12.1,0.7,19.2-0.3c6.4-0.9,10.8-7.4,9.7-14.4
					l-8.6-53H320.1z"/>
				<path class="st36" d="M576.9,3061.7c-32.3-0.9-49-4.7-57.7-8.2c0,3.2,0,6.5,0.1,9.9c0.1,3.6,2.8,6.5,6.1,6.5l177.4-1.1
					c5.7,0,9-6.6,6.5-11.8C686.1,3058.8,626.9,3063.1,576.9,3061.7z"/>
				
					<linearGradient id="SVGID_31_" gradientUnits="userSpaceOnUse" x1="-1901.3666" y1="3015.9607" x2="-1711.2261" y2="3015.9607" gradientTransform="matrix(1 0 0 1 2420.5969 0)">
					<stop  offset="0" style="stop-color:#09005D"/>
					<stop  offset="1" style="stop-color:#1A0F91"/>
				</linearGradient>
				<path class="st38" d="M709.4,3056.9c-0.2-0.5-0.4-0.9-0.7-1.3c-15.7-21.9-55.6-65.5-134.4-84.4l-37.8-1.2
					c0,0-16.8,29.3-17.2,83.5c8.6,3.5,25.4,7.3,57.7,8.2C626.9,3063.1,686.1,3058.8,709.4,3056.9z"/>
				
					<linearGradient id="SVGID_32_" gradientUnits="userSpaceOnUse" x1="-1762.5288" y1="2740.9534" x2="-1787.7605" y2="2961.1577" gradientTransform="matrix(0.998 -6.290000e-02 6.290000e-02 0.998 2143.509 39.1492)">
					<stop  offset="0" style="stop-color:#FEBBBA"/>
					<stop  offset="1" style="stop-color:#FF928E"/>
				</linearGradient>
				<path class="st39" d="M527.7,2914.4c0.6,2.8,8.5,45.2,11.5,61.7c0.7,3.9,3.8,6.8,7.4,7c6.5,0.4,16.9,0.4,25.9-2
					c4.8-1.3,8.1-6.3,7.8-11.7l-4.2-67.1L527.7,2914.4z"/>
				
					<linearGradient id="SVGID_33_" gradientUnits="userSpaceOnUse" x1="-1508.4862" y1="3069.9617" x2="-1247.3234" y2="1824.6561" gradientTransform="matrix(-1 0 0 1 -986.4169 0)">
					<stop  offset="0" style="stop-color:#09005D"/>
					<stop  offset="1" style="stop-color:#1A0F91"/>
				</linearGradient>
				<path class="st40" d="M499,2130.6c0,0,52,357.6,89.6,783.2c0.7,7.9-5.6,14.8-13.4,16.5c-11.5,2.4-28.3,5.3-42.3,4.9
					c-7.5-0.2-13.7-5.7-14.9-13.1c-12.8-75-104.1-477.7-128.1-566.3c0,0-27.5,376.5-18.7,571.8c0.2,4.9-3.3,9.1-8.2,9.6
					c-7.3,0.8-19,1.5-34-0.1c-5.7-0.6-10.2-4.9-11-10.5c-9.1-63.5-61.6-441.5-59.3-713.8c0.1-15.4,18-141.5,18-141.5L499,2130.6z"/>
			</g>
			<path class="st30" d="M519.2,1529.2l7,187.1c19.8,6.8,38.6,12.1,56.6,16.1c11.2-36.1,35.9-80.5,56.2-113.5
				C564.6,1592.7,519.2,1529.2,519.2,1529.2z"/>
			<path class="st30" d="M268.9,2151.2c-5.4-1.9-9.1-6.8-9.7-12.4c-6.9-67.1-40.4-483.5,171.1-654.7c0,0,12.1-31.7,111.9,46.3
				c99.7,78,46.3,159.8,22.5,272.6c-28.9,136.5-79.6,248.1-57.2,332.1c1.5,5.8-1.5,11.9-7.1,14
				C422.9,2177.6,345.8,2178.5,268.9,2151.2z"/>
			
				<linearGradient id="SVGID_34_" gradientUnits="userSpaceOnUse" x1="-1965.1136" y1="1578.797" x2="-1906.5135" y2="1418.7738" gradientTransform="matrix(1 0 0 1 2420.5969 0)">
				<stop  offset="0" style="stop-color:#FEBBBA"/>
				<stop  offset="1" style="stop-color:#FF928E"/>
			</linearGradient>
			<path class="st41" d="M512.9,1359.4c-0.1,5.9-84.5,125.9-84.5,125.9s15.2,29.9,87.5,54.1l62.5-128.5L512.9,1359.4z"/>
			<path class="st30" d="M471,1769.9c-0.5,0-1.1-0.2-1.5-0.5c-67.5-45.6-99.2-119.2-99.5-119.9c-0.6-1.4,0.1-3,1.5-3.6
				c1.4-0.6,3,0.1,3.6,1.5c0.3,0.7,31.5,72.9,97.6,117.5c1.3,0.8,1.6,2.6,0.7,3.8C472.8,1769.5,471.9,1769.9,471,1769.9z"/>
			<path class="st30" d="M571.5,1667.9c-0.9,0-1.8-0.4-2.3-1.3c-0.2-0.3-20.8-32.4-60.1-102.7c-12.1-21.6-27.9-35.3-47.2-40.7
				c-31.8-8.9-62.5,8.2-62.8,8.3c-1.3,0.7-3,0.3-3.7-1c-0.7-1.3-0.3-3,1-3.7c1.3-0.7,32.9-18.4,67-8.9c20.7,5.8,37.7,20.3,50.5,43.3
				c39.2,70.1,59.7,102.1,59.9,102.4c0.8,1.3,0.5,3-0.8,3.8C572.6,1667.8,572.1,1667.9,571.5,1667.9z"/>
			<g>
				
					<linearGradient id="SVGID_35_" gradientUnits="userSpaceOnUse" x1="-1821.0804" y1="1338.7573" x2="-2170.2317" y2="1616.8423" gradientTransform="matrix(1 0 0 1 2420.5969 0)">
					<stop  offset="0" style="stop-color:#FEBBBA"/>
					<stop  offset="1" style="stop-color:#FF928E"/>
				</linearGradient>
				<path class="st42" d="M579.4,1290.6c0,0,30.1,69,32.1,105.3c2,36.2,9.8,59.8-32.1,67.1c-41.9,7.3-77.2-13.6-96.3-49.7
					c0,0-30-55.6-23.2-78.4C466.5,1312.1,579.4,1290.6,579.4,1290.6z"/>
				
					<linearGradient id="SVGID_36_" gradientUnits="userSpaceOnUse" x1="-1955.8702" y1="1247.2742" x2="-1795.8389" y2="1453.3142" gradientTransform="matrix(1 0 0 1 2420.5969 0)">
					<stop  offset="0" style="stop-color:#09005D"/>
					<stop  offset="1" style="stop-color:#1A0F91"/>
				</linearGradient>
				<path class="st43" d="M497.4,1387.3l2.4-1.1c3-1.3,4.3-5,2.8-7.9c-5.9-11.4-17.4-37.6-2.5-43.7c19.2-7.9,95.1-23.4,111.5-50.3
					c15.8-25.9,1.8-59.3-19.2-68.9c-1.4-0.6-3.1-0.1-3.8,1.2l-1.7,3.3c-1.2,2.3-4.5,1.9-5.3-0.5l0,0c-0.7-2.4-3.8-2.8-5.1-0.7
					c-5,8.1-18.6,21.1-55,27.9c-51.7,9.5-85.9,30.5-86.7,66.2c-0.1,2.3-2.5,3.5-4.4,2.3c-3.8-2.3-9.9-3.4-18.1,3.4
					c-14.2,11.9-8.4,42.9,22.7,68.4c1.5,1.2,1.5,3.5-0.1,4.6c-5.6,3.7-14.1,12.4,7.7,24.1c22.5,12.1,39.4,11.1,45.9,10
					c1.6-0.3,2.7-1.8,2.3-3.4l-6.9-31.4c-0.4-1.8,1-3.5,2.8-3.5H497.4z"/>
				
					<linearGradient id="SVGID_37_" gradientUnits="userSpaceOnUse" x1="-1856.2245" y1="1323.5189" x2="-2028.0524" y2="1454.9934" gradientTransform="matrix(1 0 0 1 2420.5969 0)">
					<stop  offset="0" style="stop-color:#FEBBBA"/>
					<stop  offset="1" style="stop-color:#FF928E"/>
				</linearGradient>
				<path class="st44" d="M498.7,1393.9c0,0-11.5-44.1-31.2-31.7c-19.8,12.4,10.3,49.4,26.2,51.1L498.7,1393.9z"/>
			</g>
			
				<linearGradient id="SVGID_38_" gradientUnits="userSpaceOnUse" x1="-1957.4695" y1="1410.3817" x2="-1593.6602" y2="1724.6451" gradientTransform="matrix(-1 0 0 1 -986.4169 0)">
				<stop  offset="0" style="stop-color:#FEBBBA"/>
				<stop  offset="1" style="stop-color:#FF928E"/>
			</linearGradient>
			<path class="st45" d="M887.9,1515.1c0,0-15.1-26.7-14.1-39.7c1-13-7.1-32,1.5-30.6c8.6,1.4,10.4,0.3,12.7,15.8
				C890.3,1476.2,917.5,1544.2,887.9,1515.1z"/>
			
				<linearGradient id="SVGID_39_" gradientUnits="userSpaceOnUse" x1="-1965.0562" y1="1439.6792" x2="-1610.9198" y2="1745.587" gradientTransform="matrix(-1 0 0 1 -986.4169 0)">
				<stop  offset="0" style="stop-color:#FEBBBA"/>
				<stop  offset="1" style="stop-color:#FF928E"/>
			</linearGradient>
			<path class="st46" d="M890.7,1472.7l-0.3,53.4c-102,110.1-184.5,116.6-251.5,92.9c-20.2,33-44.9,77.3-56.2,113.5
				c272.3,60,336.5-190.3,336.5-190.3c36.9-15.3,44.3-24.2,42.7-34.2L890.7,1472.7z"/>
			
				<linearGradient id="SVGID_40_" gradientUnits="userSpaceOnUse" x1="-1970.9377" y1="1425.9733" x2="-1607.1295" y2="1740.2358" gradientTransform="matrix(-1 0 0 1 -986.4169 0)">
				<stop  offset="0" style="stop-color:#FEBBBA"/>
				<stop  offset="1" style="stop-color:#FF928E"/>
			</linearGradient>
			<path class="st47" d="M969.2,1419.7c-8.7-3.5-25.7-36-29-25.3c-3.3,10.7,1.4,25.3,0,29.9c-1.4,4.5-22.6,56.8-18.4,68.4
				c3.1,8.4,19.9,7.1,22.5,20.8c0.9,4.5,4.5,7.8,8.7,7.8c4.2,0,7.9-3.3,8.7-7.8C962,1511.7,977.9,1423.3,969.2,1419.7z"/>
			<path class="st31" d="M691.2,1308.6c-68.8,136-14.3,302,121.8,370.8c110.6,55.9,240.9,30.3,322.8-54.2l472.6,238.9
				c7.8,4,17.2,3.6,24.7-0.9l46.2-27.5c0.8-0.5,1.5-1,2.3-1.5c0.2-0.2,0.4-0.3,0.6-0.5c0.5-0.4,1.1-0.9,1.6-1.3
				c0.2-0.2,0.3-0.3,0.5-0.5c0.6-0.6,1.2-1.2,1.7-1.9c0,0,0,0,0,0c5.8-7.1,7.6-16.9,4-25.8l-37.6-94.1c-2.3-5.8-6.7-10.6-12.3-13.4
				l-47.3-23.9l-12.5,24.8l-40.7-20.6l12.5-24.8l-38-19.2l-11.5,22.8l-49.4-25l11.5-22.8l-18.4-9.3l-5.9,11.7l-41.4-20.9l5.9-11.7
				l-32.2-16.3l-12.5,24.8l-23-11.6l12.5-24.8l-19.9-10.1l-12.5,24.8l-39.9-20.2l12.5-24.8l-56.1-28.4h0l-24-12.1
				c19.6-116.1-37.1-236.2-147.7-292.1C926,1118.1,759.9,1172.6,691.2,1308.6z M852.2,1327.4c27.5,13.9,38.6,47.5,24.7,75.1
				c-13.9,27.5-47.5,38.6-75.1,24.7c-27.5-13.9-38.6-47.5-24.7-75.1C791,1324.5,824.6,1313.4,852.2,1327.4z"/>
			<path class="st48" d="M1074.2,1391.9l224,113.3l-12.5,24.8l39.9,20.2l12.5-24.8l19.9,10.1l-12.5,24.8l23,11.6l12.5-24.8
				l32.2,16.3l-5.9,11.7l41.4,20.9l5.9-11.7l18.4,9.3l-11.5,22.8l49.4,25l11.5-22.8l38,19.2l-12.5,24.8l40.7,20.6l12.5-24.8
				l47.3,23.9c5.6,2.8,10,7.6,12.3,13.4l37.6,94.1c4.7,11.7,0.1,25.1-10.7,31.6l-46.2,27.5c-7.6,4.5-16.9,4.8-24.7,0.9l-570.5-288.4
				L1074.2,1391.9z"/>
			
				<linearGradient id="SVGID_41_" gradientUnits="userSpaceOnUse" x1="-412.1761" y1="1694.7838" x2="155.2303" y2="3025.6094" gradientTransform="matrix(0.4597 -0.8881 0.8881 0.4597 -690.1856 249.792)">
				<stop  offset="0" style="stop-color:#FF9085"/>
				<stop  offset="1" style="stop-color:#FB6FBB"/>
			</linearGradient>
			<path class="st49" d="M821.4,1665.2c136,68.8,302,14.3,370.8-121.8c68.8-136,14.3-302-121.8-370.8
				c-136-68.8-302-14.3-370.8,121.8C630.9,1430.4,685.4,1596.4,821.4,1665.2z M810.3,1412.9c-27.5-13.9-38.6-47.5-24.7-75.1
				c13.9-27.5,47.5-38.6,75.1-24.7c27.5,13.9,38.6,47.5,24.7,75.1C871.4,1415.8,837.8,1426.8,810.3,1412.9z"/>
			<path class="st50" d="M1144.2,1611l472.6,238.9c7.8,4,17.2,3.6,24.7-0.9l46.2-27.5c7-4.2,11.3-11.2,12.3-18.8
				c-43.1-46.7-452.5-225.5-467.8-262.2c-5.4-13.1-6.4-32.9,9.9-63.7l-24-12.1c19.6-116.1-37.1-236.2-147.7-292.1
				c-136-68.8-302-14.3-370.8,121.8c-68.8,136-14.3,302,121.8,370.8C932,1721.1,1062.4,1695.5,1144.2,1611z M860.7,1313.2
				c27.5,13.9,38.6,47.5,24.7,75.1c-13.9,27.5-47.5,38.6-75.1,24.7c-27.5-13.9-38.6-47.5-24.7-75.1
				C799.5,1310.3,833.1,1299.2,860.7,1313.2z"/>
			<path class="st51" d="M845.9,1616.8c109.3,55.3,242.8,11.5,298-97.9c55.3-109.3,11.5-242.8-97.9-298s-242.8-11.5-298,97.9
				C692.7,1428.1,736.6,1561.6,845.9,1616.8z M810.3,1412.9c-27.5-13.9-38.6-47.5-24.7-75.1c13.9-27.5,47.5-38.6,75.1-24.7
				c27.5,13.9,38.6,47.5,24.7,75.1C871.4,1415.8,837.8,1426.8,810.3,1412.9z"/>
			
				<linearGradient id="SVGID_42_" gradientUnits="userSpaceOnUse" x1="-1396.3668" y1="3694.042" x2="-1835.4655" y2="4457.0137" gradientTransform="matrix(0.9478 -0.3187 0.3187 0.9478 900.2198 -2262.4221)">
				<stop  offset="0" style="stop-color:#FEBBBA"/>
				<stop  offset="1" style="stop-color:#FF928E"/>
			</linearGradient>
			<path class="st52" d="M471,1769.9c0,0,259.9,87,405.3-23.7c9-6.9,20.4-9.9,31.6-8l55.5,9c23.3,3.8,45.5-11.3,50.5-34.4
				c2.9-13.2,4.2-27.6,1.3-39.9l-104.8-6.3l3-13.6c0,0-46.3,11.3-47.3,47.6c0,0-108.7,71.2-306.9-39.3
				C559.2,1661.3,482,1721.7,471,1769.9z"/>
		</g>
		<g>
			<g>
				<g class="st53">
					<path class="st34" d="M2478.3,467c-6.1-0.2-10.8-5.4-10.5-11.4c0.5-11.8,0.5-23.7-0.1-35.5c-0.3-6,4.3-11.1,10.3-11.4
						c0.1,0,0.1,0,0.2,0c6-0.3,11.2,4.4,11.4,10.5c0.6,12.4,0.6,25,0.1,37.4c-0.2,5.7-4.7,10.1-10.2,10.5
						C2479.1,467,2478.7,467,2478.3,467z M2461.3,362.7c-2.1-11.6-4.8-23.3-7.9-34.6c-1.6-5.8,1.9-11.9,7.7-13.5
						c5.9-1.6,11.9,1.9,13.5,7.7c3.3,11.9,6,24.2,8.3,36.4c1.1,6-2.9,11.7-8.8,12.8c-0.4,0.1-0.9,0.1-1.3,0.2
						C2467.3,372,2462.3,368.2,2461.3,362.7z M2434.4,273.6c-4.7-10.8-9.8-21.6-15.4-32c-2.9-5.3-0.8-12,4.5-14.8
						c5.3-2.8,12-0.8,14.8,4.5c5.9,10.9,11.3,22.3,16.2,33.7c2.4,5.6-0.2,12-5.7,14.4c-1.2,0.5-2.4,0.8-3.6,0.9
						C2440.7,280.5,2436.3,278,2434.4,273.6z M2388.3,192.8c-7-9.5-14.4-18.9-22.2-27.8c-4-4.6-3.5-11.5,1.1-15.5
						c4.6-4,11.5-3.5,15.5,1.1c8.2,9.4,16,19.2,23.3,29.2c3.6,4.9,2.5,11.8-2.4,15.3c-1.7,1.3-3.8,2-5.8,2.1
						C2394.2,197.5,2390.6,195.9,2388.3,192.8z M2325.3,124.2c-8.9-7.7-18.2-15.2-27.8-22.2c-4.9-3.6-6-10.4-2.4-15.3
						c3.6-4.9,10.4-6,15.3-2.4c10,7.3,19.9,15.2,29.2,23.3c4.6,4,5.1,10.9,1.1,15.5c-2,2.3-4.8,3.6-7.6,3.7
						C2330.4,127.1,2327.6,126.2,2325.3,124.2z M2248.7,71.3c-10.4-5.6-21.1-10.8-32-15.5c-5.6-2.4-8.1-8.9-5.7-14.4
						c2.4-5.6,8.9-8.1,14.4-5.7c11.4,4.9,22.7,10.4,33.7,16.3c5.3,2.9,7.3,9.5,4.5,14.8c-1.9,3.5-5.3,5.5-9,5.8
						C2252.6,72.7,2250.6,72.3,2248.7,71.3z M1841.6,66.2c-2.8-5.3-0.8-12,4.5-14.8c10.9-5.8,22.3-11.3,33.7-16.2
						c5.6-2.4,12,0.2,14.4,5.8c2.4,5.6-0.2,12-5.8,14.4c-10.9,4.6-21.6,9.8-32,15.3c-1.4,0.8-2.9,1.2-4.5,1.3
						C1847.8,72.3,1843.7,70.1,1841.6,66.2z M2162.4,36.7c-11.4-3.1-23-5.8-34.6-7.9c-6-1.1-9.9-6.8-8.8-12.8
						c1.1-6,6.8-9.9,12.8-8.8c12.2,2.3,24.5,5.1,36.4,8.4c5.8,1.6,9.3,7.6,7.7,13.5c-1.3,4.6-5.3,7.7-9.9,8
						C2164.8,37.2,2163.6,37.1,2162.4,36.7z M1929.5,28.8c-1.6-5.8,1.9-11.9,7.7-13.4c12-3.2,24.2-6,36.5-8.2
						c6-1.1,11.7,2.9,12.7,8.8c1.1,6-2.9,11.7-8.8,12.7c-11.6,2.1-23.3,4.7-34.7,7.8c-0.7,0.2-1.5,0.3-2.2,0.4
						C1935.7,37.2,1930.9,33.9,1929.5,28.8z M2070.5,22.3c-11.8-0.5-23.7-0.5-35.5,0c-6.1,0.3-11.2-4.4-11.4-10.5
						c-0.3-6,4.3-11,10.3-11.4c0.1,0,0.2,0,0.2,0c12.4-0.5,25-0.5,37.4,0c6.1,0.3,10.7,5.4,10.5,11.4c-0.2,5.7-4.7,10.1-10.2,10.5
						C2071.3,22.3,2070.9,22.3,2070.5,22.3z"/>
					<path class="st34" d="M1787.6,114.2c2.2-0.1,4.3-0.9,6.1-2.4c4.4-3.5,9-7,13.6-10.4c4.9-3.6,6-10.4,2.4-15.3
						c-3.6-4.9-10.4-6-15.3-2.4c-4.8,3.5-9.6,7.2-14.3,10.9c-4.7,3.8-5.5,10.7-1.8,15.4C1780.6,113,1784.1,114.5,1787.6,114.2z"/>
				</g>
				<g class="st53">
					<path class="st34" d="M1627.7,407.8c5.3-0.3,9.7-4.5,10.2-9.9c0.5-5.6,1.2-11.3,2-17c0.8-6-3.4-11.5-9.4-12.4
						c-6-0.8-11.5,3.4-12.4,9.4c-0.8,5.9-1.5,11.9-2.1,17.9c-0.6,6,3.8,11.4,9.9,12C1626.5,407.9,1627.1,407.9,1627.7,407.8z"/>
					<path class="st34" d="M2057.8,876c-6.1,0.1-11-4.8-11.1-10.8c-0.1-6.1,4.7-11,10.8-11.1c11.5-0.2,23.2-0.8,34.9-2
						c6-0.6,11.4,3.8,12,9.9c0.6,6-3.8,11.4-9.9,12c-5.1,0.5-10.1,0.9-15.1,1.2C2072.2,875.6,2065,875.9,2057.8,876z M2140.3,855.9
						c-1.4-5.9,2.2-11.8,8.1-13.2c11.3-2.7,22.6-5.9,33.6-9.5c5.7-1.9,11.9,1.3,13.8,7c1.9,5.8-1.3,11.9-7,13.8
						c-11.6,3.8-23.5,7.2-35.4,10c-0.6,0.1-1.2,0.2-1.8,0.3C2146.4,864.7,2141.6,861.2,2140.3,855.9z M1998.2,872.7
						c-12.1-1.5-24.3-3.5-36.3-6c-5.9-1.2-9.7-7.1-8.5-13c1.2-5.9,7.1-9.7,13-8.5c11.4,2.4,23,4.3,34.5,5.7c6,0.7,10.3,6.2,9.5,12.2
						c-0.7,5.3-5,9.3-10.2,9.6C1999.6,872.8,1998.9,872.8,1998.2,872.7z M2229.7,826.6c-2.7-5.4-0.4-12,5-14.7
						c10.4-5.1,20.8-10.7,30.7-16.6c5.2-3.1,11.9-1.4,15,3.8c3.1,5.2,1.4,11.9-3.8,15c-10.5,6.3-21.4,12.2-32.4,17.5
						c-1.3,0.6-2.7,1-4.1,1.1C2235.9,833,2231.7,830.7,2229.7,826.6z M1904.4,850.4c-11.5-4.1-22.9-8.8-34.1-13.9
						c-5.5-2.5-7.9-9-5.4-14.5c2.5-5.5,9-7.9,14.5-5.4c10.6,4.8,21.5,9.3,32.4,13.2c5.7,2,8.7,8.3,6.6,14c-1.5,4.2-5.4,7-9.6,7.2
						C1907.4,851.1,1905.9,850.9,1904.4,850.4z M1817.9,808.1c-10.3-6.5-20.5-13.6-30.2-21c-4.8-3.7-5.8-10.5-2.1-15.4
						c3.7-4.8,10.5-5.8,15.4-2.1c9.2,7,18.9,13.7,28.7,19.9c5.1,3.2,6.6,10,3.4,15.1c-2,3.1-5.2,4.9-8.6,5.1
						C1822.2,809.9,1819.9,809.4,1817.9,808.1z M1742.6,747.9c-8.7-8.6-17-17.7-24.9-27c-3.9-4.6-3.3-11.5,1.3-15.5
						c4.6-3.9,11.5-3.3,15.5,1.3c7.5,8.8,15.5,17.5,23.7,25.7c4.3,4.3,4.3,11.2,0,15.5c-2,2-4.5,3-7.1,3.2
						C1748,751.2,1744.9,750.2,1742.6,747.9z M1682.2,672.7c-6.6-10.3-12.8-21-18.4-31.9c-2.8-5.4-0.7-12,4.6-14.8
						c5.4-2.8,12-0.7,14.8,4.6c5.4,10.3,11.2,20.5,17.5,30.3c3.2,5.1,1.7,11.9-3.4,15.1c-1.6,1-3.4,1.6-5.2,1.7
						C1688.3,678,1684.4,676.2,1682.2,672.7z M1639.8,586c-4.1-11.5-7.8-23.3-10.9-35.1c-1.6-5.9,1.9-11.9,7.8-13.4
						c5.8-1.5,11.9,1.9,13.4,7.8c3,11.2,6.5,22.4,10.4,33.4c2,5.7-0.9,12-6.6,14c-1,0.4-2,0.6-3,0.6
						C1646.1,593.6,1641.5,590.7,1639.8,586z M1617.5,492.3c-1.1-8.9-2-18-2.5-26.9c-0.2-3.2-0.4-6.5-0.5-9.7
						c-0.3-6,4.4-11.3,10.5-11.4c6.1-0.3,11.2,4.4,11.4,10.5c0.1,3.1,0.3,6.1,0.5,9.2c0.5,8.5,1.4,17.1,2.4,25.6
						c0.8,6-3.5,11.5-9.5,12.2c-0.2,0-0.5,0.1-0.7,0.1C1623.3,502.2,1618.2,498,1617.5,492.3z"/>
					<path class="st34" d="M2319.8,782.2c2.2-0.1,4.3-0.9,6.2-2.4c4.6-3.7,9.3-7.6,13.8-11.5c4.6-4,5-10.9,1.1-15.5
						c-4-4.6-10.9-5-15.5-1.1c-4.3,3.7-8.7,7.4-13.1,11c-4.7,3.8-5.5,10.7-1.7,15.4C2312.9,781,2316.4,782.4,2319.8,782.2z"/>
				</g>
				<g>
					<path class="st34" d="M2340.5,595.4c1.3-1.8,1.3-4.2,0-6l-36.1-50.8c11.1-26.9,18-55.8,20-85.7l54.8-29.7c1.9-1,3-3.2,2.6-5.3
						l-12.2-73.8c-0.4-2.2-2-3.9-4.2-4.2l-61.5-10.4c-11.5-27.7-27.4-52.8-46.6-74.7l17.8-59.8c0.6-2.1-0.2-4.4-1.9-5.6l-60.8-43.5
						c-1.8-1.3-4.2-1.3-6,0l-50.8,36.1c-26.9-11.1-55.8-18-85.7-20l-29.7-54.8c-1-1.9-3.2-3-5.3-2.6l-73.8,12.2
						c-2.2,0.4-3.8,2-4.2,4.2l-10.4,61.5c-27.7,11.5-52.8,27.4-74.7,46.6l-59.8-17.8c-2.1-0.6-4.4,0.2-5.6,1.9l-43.5,60.8
						c-1.3,1.8-1.3,4.2,0,5.9l36.1,50.9c-11.1,26.9-18,55.8-20,85.7l-54.8,29.7c-1.9,1-3,3.2-2.6,5.3l12.2,73.8
						c0.4,2.2,2,3.8,4.2,4.2l61.5,10.4c11.5,27.7,27.4,52.8,46.6,74.7l-17.8,59.8c-0.6,2.1,0.2,4.4,1.9,5.6l60.8,43.5
						c1.8,1.3,4.2,1.3,5.9,0l50.8-36.1c26.9,11.1,55.8,18,85.7,20l29.7,54.8c1,1.9,3.2,3,5.3,2.6l73.8-12.2c2.2-0.4,3.8-2,4.2-4.2
						l10.4-61.5c27.7-11.5,52.8-27.4,74.7-46.6l59.8,17.8c2.1,0.6,4.4-0.2,5.6-1.9L2340.5,595.4z"/>
					<g>
						<path class="st2" d="M2045.4,509.6c-41.3-3.4-72.2-39.8-68.7-81.2c1.7-20,11-38.2,26.4-51.2c15.3-13,34.8-19.2,54.8-17.5
							c41.3,3.4,72.2,39.8,68.7,81.2c-3.1,37.6-33.5,66.5-70.1,68.8C2052.8,509.9,2049.1,509.9,2045.4,509.6z M2014.4,390.6
							c-11.8,10-18.9,23.9-20.2,39.2c-2.6,31.7,21,59.6,52.7,62.2c31.7,2.6,59.6-21,62.2-52.7c2.6-31.7-21-59.6-52.7-62.2
							c-2.9-0.2-5.7-0.3-8.6-0.1C2035.6,377.9,2023.9,382.6,2014.4,390.6z"/>
					</g>
					<g>
						<path class="st2" d="M2061.8,618.2c6.3-0.4,12.6-1.1,18.9-2.2l0,0c2-0.3,4-0.7,5.9-1.1c9.7-1.9,19.3-4.6,28.5-8.1
							c0.1,0,0.3-0.1,0.4-0.1c0.4-0.1,0.7-0.3,1.1-0.4c0.7-0.3,1.4-0.5,2.1-0.8c1.8-0.7,2.9-2.5,2.8-4.4c0-0.4-0.1-0.9-0.3-1.3
							c-0.9-2.3-3.4-3.3-5.7-2.5c-11.6,4.6-23.8,8-36.2,10c-61.6,10.2-121.1-13-160-56.3c-21.6-24.1-36.9-54.4-42.6-88.7
							c-1-6-1.7-12-2.1-18c-2.6-40.3,8.7-80,32.6-113.3c27.4-38.3,68-63.6,114.4-71.3c95.9-15.9,186.7,49.1,202.6,145
							c1,5.9,1.7,11.8,2,17.8c1.6,25.7-2.4,51.5-11.9,75.5c-0.2,0.6-0.3,1.3-0.3,1.9c0.1,1.6,1.1,3.2,2.8,3.8
							c2.3,0.9,4.8-0.2,5.7-2.5c9.9-25.2,14.2-52.3,12.5-79.3c-0.4-6.2-1.1-12.5-2.1-18.7c-16.7-100.6-112.1-168.9-212.7-152.2
							c-48.7,8.1-91.4,34.7-120.1,74.8c-25,35-36.9,76.6-34.2,118.9c0.4,6.3,1.1,12.6,2.2,18.9c8.1,48.7,34.7,91.4,74.8,120.1
							C1977.8,609,2019.4,620.9,2061.8,618.2z"/>
					</g>
				</g>
			</g>
			<g>
				<g class="st53">
					<path class="st34" d="M2871.2,731.6c2.9-0.2,5.5-2.3,6.2-5.3c1.3-5.6,2.4-11.3,3.3-17c0.6-3.7-1.9-7.2-5.6-7.8
						c-3.7-0.6-7.2,1.9-7.8,5.6c-0.9,5.4-1.9,10.9-3.2,16.2c-0.8,3.6,1.5,7.3,5.1,8.1C2870,731.6,2870.6,731.7,2871.2,731.6z"/>
					<path class="st34" d="M2877.3,680c-3.7-0.1-6.6-3.3-6.5-7c0.4-9.4,0.2-19-0.4-28.4c-0.1-2-0.3-4-0.4-6c-0.3-3.7,2.5-7,6.2-7.3
						c3.5-0.2,7,2.5,7.3,6.2c0.2,2.1,0.3,4.2,0.5,6.3c0.6,9.9,0.8,19.9,0.4,29.8c-0.1,3.5-2.9,6.3-6.3,6.5
						C2877.8,680,2877.5,680,2877.3,680z M2865,604.5c-2.3-11.2-5.4-22.4-9.1-33.2c-1.2-3.5,0.7-7.4,4.2-8.6
						c3.5-1.2,7.4,0.7,8.6,4.2c3.9,11.3,7.1,23,9.5,34.8c0.8,3.7-1.6,7.3-5.2,8c-0.3,0.1-0.6,0.1-1,0.1
						C2868.8,610.1,2865.7,607.9,2865,604.5z M2842.8,539.6c-5-10.3-10.7-20.3-17-29.9c-2-3.1-1.2-7.3,2-9.4c3.1-2,7.3-1.2,9.4,2
						c6.6,10,12.5,20.6,17.8,31.4c1.6,3.4,0.2,7.4-3.1,9.1c-0.8,0.4-1.7,0.6-2.5,0.7C2846.7,543.5,2844,542.1,2842.8,539.6z
						 M2805.3,482.1c-7.4-8.7-15.4-17.1-23.8-24.8c-2.7-2.5-2.9-6.8-0.4-9.6c2.5-2.7,6.8-2.9,9.6-0.4c8.8,8.1,17.2,16.9,24.9,26.1
						c2.4,2.9,2.1,7.1-0.8,9.5c-1.2,1-2.5,1.5-3.9,1.6C2808.8,484.6,2806.7,483.8,2805.3,482.1z M2754.9,435.5
						c-9.3-6.7-19.1-12.8-29.1-18.3c-3.3-1.8-4.5-5.9-2.7-9.2c1.8-3.3,5.9-4.5,9.2-2.7c10.5,5.7,20.8,12.2,30.5,19.2
						c3,2.2,3.7,6.4,1.5,9.5c-1.2,1.7-3.1,2.7-5.1,2.8C2757.8,436.8,2756.2,436.4,2754.9,435.5z M2694.7,402.5
						c-10.6-4.2-21.6-7.8-32.7-10.7c-3.6-0.9-5.8-4.6-4.9-8.3c0.9-3.6,4.6-5.8,8.3-4.9c11.6,3,23.1,6.8,34.2,11.2
						c3.5,1.4,5.2,5.3,3.8,8.8c-1,2.5-3.3,4.1-5.9,4.3C2696.6,403,2695.6,402.9,2694.7,402.5z M2628.3,385.3
						c-11.3-1.5-22.8-2.3-34.3-2.3c-3.7,0-6.8-3.1-6.7-6.8c0-3.7,3.1-6.7,6.8-6.7c12,0.1,24.1,0.9,36,2.4c3.7,0.5,6.3,3.9,5.8,7.6
						c-0.4,3.3-3.1,5.7-6.3,5.9C2629.2,385.3,2628.7,385.3,2628.3,385.3z M2517.6,386c-0.9-3.6,1.3-7.3,5-8.2
						c10.1-2.5,20.4-4.4,30.8-5.8c1.6-0.2,3.1-0.4,4.7-0.6c3.7-0.5,7.1,2.2,7.5,6c0.4,3.7-2.2,7.1-5.9,7.5c-1.5,0.2-2.9,0.4-4.5,0.6
						c-9.9,1.3-19.8,3.2-29.4,5.5c-0.4,0.1-0.8,0.2-1.2,0.2C2521.4,391.3,2518.4,389.2,2517.6,386z"/>
				</g>
				<g class="st53">
					<path class="st34" d="M2606.5,954.1c-11.8,0.6-23.7,0.5-35.5-0.4c-3.7-0.3-6.5-3.5-6.3-7.2c0.3-3.7,3.5-6.5,7.2-6.3
						c11.2,0.8,22.6,0.9,33.8,0.3c3.7-0.2,6.9,2.7,7.1,6.4C2613.1,950.7,2610.3,953.9,2606.5,954.1
						C2606.5,954.1,2606.5,954.1,2606.5,954.1z M2633.9,944.7c-0.6-3.7,1.8-7.2,5.5-7.8c11.1-1.9,22.2-4.5,32.9-7.7
						c3.6-1.1,7.4,1,8.4,4.6c1.1,3.6-1,7.4-4.5,8.4c-11.3,3.4-22.9,6.1-34.5,8.1c-0.2,0-0.5,0.1-0.7,0.1
						C2637.6,950.5,2634.5,948.1,2633.9,944.7z M2535.9,949.1c-11.6-2.3-23.1-5.3-34.3-8.9c-3.6-1.2-5.5-5-4.3-8.5
						c1.2-3.6,5-5.5,8.5-4.3c10.7,3.5,21.7,6.3,32.7,8.5c3.7,0.7,6.1,4.3,5.3,7.9c-0.6,3.1-3.2,5.3-6.2,5.5
						C2537,949.2,2536.4,949.2,2535.9,949.1z M2700.7,926.4c-1.5-3.4,0.1-7.4,3.5-8.9c10.3-4.5,20.4-9.7,30.1-15.4
						c3.2-1.9,7.4-0.8,9.3,2.4c1.9,3.2,0.8,7.4-2.4,9.3c-10.1,6-20.8,11.5-31.6,16.2c-0.7,0.3-1.5,0.5-2.3,0.6
						C2704.5,930.6,2701.8,929,2700.7,926.4z M2468.6,927.1c-10.7-5-21.2-10.7-31.2-16.9c-3.2-2-4.1-6.2-2.2-9.3
						c2-3.2,6.2-4.1,9.3-2.2c9.5,6,19.5,11.4,29.7,16.1c3.4,1.6,4.9,5.6,3.3,9c-1.1,2.3-3.3,3.7-5.7,3.9
						C2470.8,927.8,2469.6,927.6,2468.6,927.1z M2408.5,889.7c-9.2-7.4-18-15.4-26.2-23.9c-2.6-2.7-2.6-7,0.1-9.6
						c2.7-2.6,7-2.6,9.6,0.1c7.8,8,16.2,15.7,25,22.8c2.9,2.3,3.4,6.6,1,9.5c-1.2,1.5-3,2.4-4.8,2.5
						C2411.5,891.3,2409.9,890.8,2408.5,889.7z M2359.1,839c-7.2-9.4-13.8-19.3-19.7-29.5c-1.9-3.2-0.8-7.4,2.4-9.3
						c3.2-1.9,7.4-0.8,9.3,2.4c5.7,9.7,12,19.2,18.8,28.1c2.3,3,1.7,7.2-1.3,9.5c-1.1,0.8-2.4,1.3-3.7,1.4
						C2362.7,841.7,2360.5,840.8,2359.1,839z"/>
					<path class="st34" d="M2767.1,894.9c1.3-0.1,2.6-0.5,3.7-1.4c4.6-3.5,9.1-7.2,13.4-11c2.8-2.5,3.1-6.7,0.7-9.6
						c-2.5-2.8-6.7-3.1-9.6-0.7c-4.1,3.6-8.4,7.1-12.8,10.5c-3,2.3-3.5,6.5-1.2,9.5C2762.7,894.2,2764.9,895.1,2767.1,894.9z"/>
				</g>
				<g>
					<path class="st34" d="M2785,767.3c0.9-1.2,0.9-2.8,0-4l-24.2-34c7.4-18,12-37.4,13.4-57.4l36.7-19.9c1.3-0.7,2-2.1,1.7-3.6
						l-8.2-49.4c-0.2-1.4-1.4-2.6-2.8-2.8l-41.1-7c-7.7-18.5-18.3-35.3-31.2-50l11.9-40c0.4-1.4-0.1-2.9-1.3-3.8l-40.7-29.1
						c-1.2-0.9-2.8-0.9-4,0l-34,24.2c-18-7.4-37.4-12-57.4-13.4l-19.9-36.7c-0.7-1.3-2.1-2-3.6-1.7l-49.4,8.2
						c-1.4,0.2-2.6,1.4-2.8,2.8l-7,41.1c-18.5,7.7-35.3,18.3-50,31.2l-40-11.9c-1.4-0.4-2.9,0.1-3.8,1.3l-29.1,40.7
						c-0.9,1.2-0.9,2.8,0,4l24.2,34c-7.4,18-12,37.4-13.4,57.4l-36.7,19.9c-1.3,0.7-2,2.1-1.7,3.6l8.2,49.4c0.2,1.4,1.4,2.6,2.8,2.8
						l41.1,7c7.7,18.5,18.3,35.3,31.2,50l-11.9,40c-0.4,1.4,0.1,2.9,1.3,3.8l40.7,29.1c1.2,0.9,2.8,0.9,4,0l34-24.2
						c18,7.4,37.4,12,57.4,13.4l19.9,36.7c0.7,1.3,2.1,2,3.6,1.7l49.4-8.2c1.4-0.2,2.6-1.4,2.8-2.8l7-41.1
						c18.5-7.7,35.3-18.3,50-31.2l40,11.9c1.4,0.4,2.9-0.1,3.8-1.3L2785,767.3z"/>
					<g>
						<path class="st2" d="M2587.4,710.8c-13.6-1.1-26-7.5-34.9-18c-8.8-10.4-13.1-23.7-12-37.3c2.3-28.1,27.1-49.1,55.3-46.8
							c28.2,2.3,49.1,27.2,46.8,55.3c-1.1,13.6-7.5,26-18,34.9c-8.5,7.2-18.8,11.3-29.7,12C2592.5,711,2590,711,2587.4,710.8z
							 M2554.1,656.6c-0.8,10,2.3,19.8,8.8,27.5c6.5,7.7,15.6,12.4,25.6,13.2l0,0c10,0.8,19.8-2.3,27.5-8.8
							c7.7-6.5,12.4-15.6,13.2-25.6c1.7-20.7-13.7-39-34.4-40.7c-1.9-0.2-3.7-0.2-5.5-0.1C2570.9,623.3,2555.7,637.7,2554.1,656.6z"
							/>
					</g>
					<g>
						<path class="st2" d="M2598.9,786.3c4.3-0.3,8.6-0.8,12.9-1.5c8.6-1.4,17-3.7,25.1-6.8c0.4-0.1,0.7-0.3,1.1-0.4
							c2.8-1.1,4.4-3.9,4.3-6.7c0-0.7-0.2-1.4-0.5-2.1c-1.4-3.5-5.3-5.2-8.8-3.8c-7.5,3-15.4,5.2-23.4,6.5l0,0
							c-0.4,0.1-0.9,0.1-1.3,0.2c-19,3-38,1.1-55.6-5.2c-9.6-3.4-18.7-8.2-27.3-14.1c-0.1,0-0.1-0.1-0.2-0.1
							c-0.2-0.2-0.4-0.3-0.6-0.5c-24.8-17.7-41.2-44-46.1-74.1c-0.6-3.9-1.1-7.8-1.3-11.7c-1.7-26.1,5.7-51.8,21.1-73.4
							c17.7-24.8,44-41.2,74.1-46.1c30-5,60.2,2,85,19.8c24.8,17.7,41.2,44,46.1,74.1c0.6,3.8,1.1,7.7,1.3,11.5
							c1.1,16.7-1.5,33.4-7.7,48.9c-0.4,1-0.5,1.9-0.5,2.9c0.2,2.5,1.8,4.9,4.3,5.9c3.5,1.4,7.4-0.3,8.8-3.8
							c6.9-17.4,9.8-36.1,8.6-54.7c-0.3-4.3-0.8-8.6-1.5-12.9c-5.6-33.6-23.9-63.1-51.6-82.9c-27.7-19.8-61.5-27.7-95.1-22.1
							c-33.6,5.6-63.1,23.9-82.9,51.6c-17.3,24.1-25.4,52.8-23.6,82.1c0.3,4.3,0.8,8.7,1.5,13C2475.8,745,2534.4,790.4,2598.9,786.3
							z"/>
					</g>
				</g>
			</g>
		</g>
	</g>
</g>
</svg>
