<?xml version="1.0" encoding="utf-8"?>
<!-- Generator: Adobe Illustrator 24.0.0, SVG Export Plug-In . SVG Version: 6.00 Build 0)  -->
<svg version="1.1" xmlns="http://www.w3.org/2000/svg" xmlns:xlink="http://www.w3.org/1999/xlink" x="0px" y="0px"
	 viewBox="0 0 2884.5 3075.3" style="enable-background:new 0 0 2884.5 3075.3;" xml:space="preserve">
<style type="text/css">
	.st0{fill:url(#SVGID_1_);}
	.st1{fill:#D278F2;}
	.st2{opacity:0.62;fill:#FFFFFF;}
	.st3{opacity:0.79;}
	.st4{opacity:0.76;}
	.st5{fill:url(#SVGID_2_);}
	.st6{fill:#EAECED;}
	.st7{fill:#64A1FF;}
	.st8{fill:#FFFFFF;}
	.st9{opacity:0.65;fill:#FFFFFF;}
	.st10{fill:#DDDDDD;}
	.st11{fill:url(#SVGID_3_);}
	.st12{fill:url(#SVGID_4_);}
	.st13{fill:url(#SVGID_5_);}
	.st14{fill:url(#SVGID_6_);}
	.st15{fill:#FCC989;}
	.st16{fill:url(#SVGID_7_);}
	.st17{fill:url(#SVGID_8_);}
	.st18{fill:url(#SVGID_9_);}
	.st19{fill:url(#SVGID_10_);}
	.st20{opacity:0.6;fill:#FFFFFF;}
	.st21{opacity:0.72;fill:#FFFFFF;}
	.st22{fill:#FC9B89;}
	.st23{opacity:0.7;fill:#FFFFFF;}
</style>
<g id="Background">
</g>
<g id="Illustration">
	<g>
		<linearGradient id="SVGID_1_" gradientUnits="userSpaceOnUse" x1="3324.0305" y1="3911.9602" x2="660.5013" y2="604.024">
			<stop  offset="0" style="stop-color:#DAE3FE"/>
			<stop  offset="1" style="stop-color:#E9EFFD"/>
		</linearGradient>
		<path class="st0" d="M2547.6,2637c-58.8,66-114.4,108.6-158.4,142.2c-516.6,395.3-1127.8,280.1-1257.7,252
			c-191.8-41.6-562.6-121.9-830.7-458.2C-104.8,2064.3-41.6,1262.7,273,733.7c57.5-96.8,361.5-633.9,979.3-720.1
			c373.9-52.1,809.7,53,1125.4,335.1C3040.2,940.7,2993,2136.8,2547.6,2637z"/>
		<g>
			<g>
				<path class="st1" d="M1454.8,2949.8c0,0,564.1-1538.6,1402.1-1706.7c14.9-3,28.4,9.9,27.7,26.2
					C2876,1459.1,2768.7,2463.5,1454.8,2949.8z"/>
				<path class="st2" d="M2706.3,1492.7c-42.8,65.9-87.6,130.1-133.1,193.8c-11.3,15.9-22.9,31.7-34.4,47.5
					c-11.6,15.8-22.9,31.7-34.6,47.3l-35.1,46.9c-11.8,15.6-23.3,31.4-35.3,46.7c-23.9,30.8-47.7,61.8-71.8,92.4l-73.1,91.2
					c-49.6,60-99.2,120-150.4,178.5l-38.1,44.2c-12.5,14.9-25.8,29-38.7,43.5l-77.7,86.8l-79.7,84.6c-13.3,14.1-26.5,28.3-40.1,42.1
					l-41.1,40.9c-27.5,27.2-54.6,54.7-82.6,81.4l-84.9,78.6l-21.3,19.5c-7.2,6.4-14.1,13.1-21.5,19.3l-43.9,37.4
					c-14.6,12.5-29.4,24.8-44,37.2c-14.7,12.4-29.4,24.7-44.2,36.9c-1.1,0.9-2.8,0.7-3.6-0.5c-0.8-1.2-0.7-2.8,0.4-3.8l0.1-0.1
					c14.1-13.1,28.3-26.1,42.6-39c14.2-12.9,28.4-26,42.7-38.8l42.9-38.5c14.1-13,27.8-26.6,41.9-39.8l84-79.3l82.3-81.3l41.2-40.6
					c6.9-6.8,13.4-13.9,20.2-20.8l20.2-20.8l80.7-83.2c52.5-56.9,105.9-112.9,156.5-171.8c25.6-29.2,51.5-58,76.2-88
					c24.9-29.8,50.1-59.4,74.9-89.4l73.4-90.8c24.2-30.5,48-61.4,72.1-92.1c12.1-15.3,23.7-31,35.5-46.5l35.3-46.7
					c11.8-15.5,23.2-31.4,34.8-47.2c11.5-15.8,23.2-31.5,34.6-47.3c45.4-63.6,90.2-127.9,132.8-193.6l0,0c0.8-1.3,2.4-1.6,3.6-0.7
					C2706.8,1489.7,2707.1,1491.4,2706.3,1492.7L2706.3,1492.7z"/>
			</g>
			<g class="st3">
				<path class="st1" d="M1318.1,2067.4c0,0,274.2-1358.7,1102-2063c10.8-9.2,26.8-3.4,30.1,11
					C2502.2,243,2773.4,1694.1,1318.1,2067.4z"/>
				<path class="st2" d="M2332.2,396.4c-9.5,39.4-20.6,78.2-32.2,116.9c-11.7,38.6-24,77.1-37,115.2
					c-26.2,76.2-54.7,151.5-85.4,225.8c-7.6,18.6-15.7,37-23.5,55.5c-7.9,18.5-16.3,36.6-24.5,55c-8.1,18.4-16.8,36.4-25.3,54.5
					l-12.8,27.2l-13.3,26.9c-35.4,71.8-72.7,142.6-112.8,211.4c-40.3,68.7-82.2,136.5-127.4,201.6c-5.6,8.2-11.1,16.5-16.8,24.6
					l-17.3,24.1l-17.3,24.1c-5.8,8-11.4,16.2-17.5,23.9l-36,47.1l-9,11.7l-9.4,11.4l-18.7,22.9c-99.4,122.4-210.6,233.5-330.8,331.3
					c-1,0.8-2.4,0.6-3.1-0.5c-0.7-1-0.6-2.5,0.4-3.3l0.1,0l43.7-38.4l21.9-19.2l21.2-20.1l42.3-40.2l40.9-41.8
					c6.8-7,13.7-13.8,20.4-20.9l19.8-21.6c13.1-14.5,26.5-28.7,39.4-43.4c25.4-29.9,51.3-59.1,75.4-90.2l18.4-23l9.2-11.5l8.9-11.8
					l35.6-47c6-7.8,11.6-15.9,17.4-23.9l17.2-24.1l17.2-24.1c5.6-8.1,11.1-16.4,16.6-24.5c44.8-65,86.2-132.6,126.1-201.2
					c40.1-68.5,77.6-138.7,113-210.1l13.3-26.8l12.9-27c8.5-18,17.3-36,25.4-54.2c16.7-36.3,32.7-72.9,48.6-109.7
					c31.4-73.6,60.6-148.4,87.6-224c13.7-37.8,26.6-75.8,38.9-114.1c6.2-19.1,12.1-38.4,17.9-57.7c5.8-19.3,11.4-38.6,16.6-58.1l0,0
					c0.3-1.3,1.6-2,2.8-1.7C2331.8,393.8,2332.5,395.1,2332.2,396.4z"/>
			</g>
		</g>
		<g class="st4">
			<path class="st1" d="M887.9,1994.5c0,0-106.9-1205.2-755.2-1906.6c-8.5-9.1-22.8-5.9-27,6.2
				C38.9,284.9-334.5,1509.2,887.9,1994.5z"/>
			<path class="st2" d="M175.3,435.9c11.1,69.5,25.4,138.5,41.7,206.8c16.1,68.4,34.2,136.2,54.4,203.4
				c10.2,33.5,20.6,67,31.5,100.2c5.3,16.7,11.1,33.2,16.8,49.7l8.6,24.8l9,24.6c23.8,65.7,49.5,130.6,77.6,194.2
				c27.9,63.7,57.2,126.8,89.7,188c4,7.7,7.9,15.4,12,23.1l12.5,22.7l12.5,22.7c4.2,7.6,8.3,15.2,12.7,22.6l26.2,44.6l6.5,11.2
				l6.8,11l13.7,21.9c17.9,29.5,37.5,57.7,56.5,86.4c9.7,14.2,19.9,27.9,29.9,41.9l15,20.9c5.1,6.9,10.4,13.6,15.6,20.4l31.3,40.7
				l32.6,39.5l16.3,19.7l17,19l34,38.2l0,0c0.9,1,0.8,2.5-0.1,3.4c-0.9,0.9-2.2,0.9-3.1,0c-94.8-97.8-180.4-206.3-254.7-323.1
				l-14-21.8l-7-10.9l-6.7-11.1l-26.6-44.7c-4.5-7.4-8.6-15.1-12.9-22.6l-12.7-22.8l-12.7-22.8c-4.1-7.6-8.1-15.4-12.1-23.1
				c-32.8-61.4-62.6-124.6-90.9-188.6c-28.1-64-53.6-129.4-77.3-195.5l-8.9-24.8l-8.5-24.9c-5.6-16.6-11.4-33.2-16.7-50
				c-5.3-16.8-10.9-33.4-15.9-50.3c-5-16.9-10.1-33.7-14.9-50.6c-38.5-135.4-70.6-273.1-89.4-413.3c-0.2-1.3,0.7-2.6,1.9-2.7
				C174,433.7,175.1,434.5,175.3,435.9L175.3,435.9z"/>
		</g>
		<g>
			<linearGradient id="SVGID_2_" gradientUnits="userSpaceOnUse" x1="1973.572" y1="26.3124" x2="-1235.8696" y2="5849.1621">
				<stop  offset="0" style="stop-color:#09005D"/>
				<stop  offset="1" style="stop-color:#1A0F91"/>
			</linearGradient>
			<path class="st5" d="M313.1,159.6c-9.3,473-39.4,2104.4-25,2682.5c1.5,61.2,40.4,110.4,88.9,112.4c239.8,9.9,1119,35,1511.2,14.3
				c81.7-4.3,146.7-87.9,148.4-191.2c8.2-496.4,26.1-1892.7-16.6-2532.4c-5.1-76.6-52.7-137.7-113.3-145.3
				C1645.4,66.9,762.5-13.8,423.6,14C362.5,19,314.6,82.2,313.1,159.6z"/>
			<path class="st6" d="M420.1,304.7c-12.9,381.8-53.6,1651.7-40.7,2121.4c1.9,68.6,44.7,124.1,99,128.2
				c223.5,16.5,986,52.9,1313.8,19.8c59-6,105.3-66.3,108.5-141c16.6-389.5,64.3-1572,51.9-2036.4c-2-74.1-47.4-134.6-105.9-141.2
				C1605,228,794.8,162.8,516.2,182C463.9,185.6,422.3,238.6,420.1,304.7z"/>
			<path class="st7" d="M1019.6,107.8L1019.6,107.8c0,14.5,9,26.5,20.4,27.2c56.6,3.7,216.2,14.3,287.5,19.6
				c14.1,1,25.1-14.9,22.4-32.4l-0.5-3c-1.8-11.9-9.6-20.9-19.2-22c-48.2-5.6-193.7-21-290-16.7C1028.7,81,1019.6,93.2,1019.6,107.8
				z"/>
			<g>
				<g>
					<ellipse class="st7" cx="1131" cy="744.2" rx="334.5" ry="361.2"/>
					<path class="st8" d="M1233.4,607.7c0,61.2-45.9,127.2-102.6,127.2c-56.6,0-102.6-66-102.6-127.2c0-61.2,45.9-104.5,102.6-104.5
						C1187.5,503.1,1233.4,546.5,1233.4,607.7z"/>
					<path class="st8" d="M1003.6,970.3H1254c26.4,0,49.7-18.4,57.7-45.5l13.5-45.5c9.9-33.3-6.2-69.3-36.6-81.3
						c-101.9-40.2-207.2-35.1-315.2,3.7c-30.2,10.9-47,45.8-38.7,79l10.4,41.3C952.3,950.5,976.3,970.3,1003.6,970.3z"/>
				</g>
				<g>
					<path class="st9" d="M1772.3,1682.1H552.1c-3.9,0-7-3.1-7-7v-191c0-3.9,3.1-7,7-7h1220.3c3.9,0,7,3.1,7,7v191
						C1779.4,1679,1776.2,1682.1,1772.3,1682.1z"/>
					<path class="st9" d="M1765.7,2016.7H545.4c-3.9,0-7-3.1-7-7v-191c0-3.9,3.1-7,7-7h1220.3c3.9,0,7,3.1,7,7v191
						C1772.7,2013.5,1769.6,2016.7,1765.7,2016.7z"/>
					<path class="st9" d="M1527.3,2415.7H747.2c-4.8,0-8.7-3.9-8.7-8.7v-244.1c0-4.8,3.9-8.7,8.7-8.7h780.1c4.8,0,8.7,3.9,8.7,8.7
						V2407C1535.9,2411.8,1532,2415.7,1527.3,2415.7z"/>
				</g>
				<path class="st10" d="M1322.4,1637.4H612.2c-6.9,0-12.5-5.6-12.5-12.5v-89c0-6.9,5.6-12.5,12.5-12.5h710.3
					c6.9,0,12.5,5.6,12.5,12.5v89C1334.9,1631.9,1329.3,1637.4,1322.4,1637.4z"/>
				<g>
					<ellipse class="st10" cx="625.3" cy="1908.4" rx="43.3" ry="46.8"/>
					<ellipse class="st10" cx="744.1" cy="1910.8" rx="43.3" ry="46.8"/>
					<ellipse class="st10" cx="858.5" cy="1916.8" rx="43.3" ry="46.8"/>
					<ellipse class="st10" cx="977.3" cy="1919.2" rx="43.3" ry="46.8"/>
					<ellipse class="st10" cx="1096.1" cy="1918" rx="43.3" ry="46.8"/>
					<ellipse class="st10" cx="1215" cy="1920.4" rx="43.3" ry="46.8"/>
				</g>
			</g>
		</g>
		<g>
			
				<linearGradient id="SVGID_3_" gradientUnits="userSpaceOnUse" x1="-6291.0967" y1="3022.0247" x2="-5888.3447" y2="1985.1981" gradientTransform="matrix(-1 0 0 1 -4271.7715 0)">
				<stop  offset="0" style="stop-color:#FEBBBA"/>
				<stop  offset="1" style="stop-color:#FF928E"/>
			</linearGradient>
			<path class="st11" d="M1709.6,2073.1l132.7,35.8l-33.2,268.6c0,0,49.8,53.7,66.3,125.4c16.6,71.6,31.9,372.4,31.9,372.4
				l31.5,20.6l3.8,17.2l-91.6,133l15.2-105.8c2.4-16.8-1.8-50.9-0.5-51.6c-49.8-143.3-156.2-546.8-156.2-546.8V2073.1z"/>
			
				<linearGradient id="SVGID_4_" gradientUnits="userSpaceOnUse" x1="-6308.6201" y1="6373.2329" x2="-4971.3857" y2="-9255.6992" gradientTransform="matrix(-1 0 0 1 -4271.7715 0)">
				<stop  offset="0" style="stop-color:#FEBBBA"/>
				<stop  offset="1" style="stop-color:#FF928E"/>
			</linearGradient>
			<path class="st12" d="M1670.8,2914.8c1.4,0,2.8,0.1,4.3,0c-6.4-86.4-35.7-466.5-65-609c-33.2-161.2,49.8-483.5,49.8-483.5
				l149.3,161.2l-82.9,304.4c56.8,92-9.3,631.1-7.8,630.8l-0.1,1.2l21.6,32.1l-2.6,17.4l-132.2,84.2l52-91.2
				C1665.3,2948.1,1669.9,2931.7,1670.8,2914.8z"/>
			
				<linearGradient id="SVGID_5_" gradientUnits="userSpaceOnUse" x1="-6239.6294" y1="1375.0526" x2="-6080.8428" y2="1375.0526" gradientTransform="matrix(-1 0 0 1 -4271.7715 0)">
				<stop  offset="0" style="stop-color:#FEBBBA"/>
				<stop  offset="1" style="stop-color:#FF928E"/>
			</linearGradient>
			<path class="st13" d="M1838.7,1107.5c0,0,290.6,353.7,0,535l-29.6-23.2c0,0,144.3-149.2,0-331.8L1838.7,1107.5z"/>
			<path class="st7" d="M1596.3,3067h42.2c7.9,0,15.3-3.9,20.2-10.7c13.2-18.4,40.4-54.4,53.4-55.4c17.5-1.3,15.3,66.1,15.3,66.1
				h9.8l12.5-83.7c3.1-21-6.6-41.9-24.1-51.8l0,0c0,0-4,32-25.7,46.2c-21.7,14.2-88.5,64.9-88.5,64.9s-8.2-1.3-17.1,0.5
				C1580.9,3045.7,1582.8,3067,1596.3,3067z"/>
			<path class="st7" d="M1847.7,3061.8l38.9-17.7c7.3-3.3,12.7-10,14.7-18.3c5.5-22.5,17.7-67.1,29.4-73.4
				c15.7-8.5,37.8,54.5,37.8,54.5l9.1-4.1l-18.6-82.3c-4.7-20.7-21.1-35.9-40.8-37.6l0,0c0,0,7.8,31.2-7.2,53.3
				c-15,22.2-58.2,96.8-58.2,96.8s-8,2.3-15.6,7.6C1825.9,3048.6,1835.3,3067.5,1847.7,3061.8z"/>
			<path class="st7" d="M1621.8,1549.8c0,0,4.9,32.3-2.3,121c-7.1,88.7-41.3,297.1-34.4,496.4c0,0,97.1,24.4,265.9,12.9
				c0,0,71.2-311.2,53.9-429.6c-17.3-118.3-111.4-203.2-111.4-203.2L1621.8,1549.8z"/>
			
				<linearGradient id="SVGID_6_" gradientUnits="userSpaceOnUse" x1="-6066.2178" y1="992.5233" x2="-5953.4434" y2="992.5233" gradientTransform="matrix(-1 0 0 1 -4271.7715 0)">
				<stop  offset="0" style="stop-color:#FEBBBA"/>
				<stop  offset="1" style="stop-color:#FF928E"/>
			</linearGradient>
			<polygon class="st14" points="1693.5,956.8 1681.7,1107.5 1794.4,1107.5 1766.4,877.5 			"/>
			<path class="st15" d="M1827.9,1086.7c-38.9-2.3-125.9-6.6-187.6-3c-32.5,1.9-59.6,27.1-66.3,61.4l-15,77.8
				c-5.6,29-4.8,59,2.4,87.5l60.4,239.4c0,0,53.7,34.9,171.6-2.4c0,0,103.6-266.6,61.2-437.2
				C1851.3,1096.9,1840.5,1087.5,1827.9,1086.7z"/>
			
				<linearGradient id="SVGID_7_" gradientUnits="userSpaceOnUse" x1="-5405.9072" y1="1078.6698" x2="-6387.708" y2="1641.1255" gradientTransform="matrix(-1 0 0 1 -4271.7715 0)">
				<stop  offset="0" style="stop-color:#FEBBBA"/>
				<stop  offset="1" style="stop-color:#FF928E"/>
			</linearGradient>
			<path class="st16" d="M1576.9,1131.2c-16.6,47.2-31.6,96.8-47.7,143.2c-8.2,23.2-16.5,46-25.4,66.9c-4.5,10.4-9.4,20-14,28.7
				c-4.5,8.6-9.7,15.7-12.3,19c-0.5,0.5,1.2,0.9,1.8,0.9c0.4,0-11.2,2.1-14.8,2.7l-13.9-0.1c-19.9-1.1-42.4-4.9-65-9.6
				c-45.6-9.2-93-22.1-141.7-31.8l-0.4-0.1c-9.3-1.9-18.3,4.8-20,14.8c-1.1,6.6,1.2,13.1,5.5,17.3c19.6,18.7,40.4,34,62,48.9
				c10.9,7.2,21.9,14.2,33.1,20.9c11.5,6.3,22.9,12.7,34.9,18.5c24,11.3,48.8,21.7,77.4,28.4c7.5,1.4,14.9,2.8,22.7,3.9
				c8.7,0.3,16.5,1.2,26,0.6c5-0.5,10.1-1.2,15.1-2c2.7-0.5,4.7-0.6,7.9-1.5c3.5-1.1,6.9-2.4,10.3-3.7c7.1-2.8,11.7-6.1,17.5-9.5
				c4.8-3.4,9.2-7,13.4-10.6c15.6-14.4,25.3-28.6,33.9-42.3c8.5-13.7,15.3-27.4,21.4-40.8c12.2-26.8,21.7-53.4,29.4-80.2
				c15.6-53.7,26.2-106.4,30.7-162.4c2.1-26.8-16.3-50.5-41.1-52.8c-20.6-1.9-39.1,11.4-46.1,31.2L1576.9,1131.2z"/>
			
				<linearGradient id="SVGID_8_" gradientUnits="userSpaceOnUse" x1="-5303.8423" y1="1250.2397" x2="-6300.4087" y2="1821.1544" gradientTransform="matrix(-1 0 0 1 -4271.7715 0)">
				<stop  offset="0" style="stop-color:#FEBBBA"/>
				<stop  offset="1" style="stop-color:#FF928E"/>
			</linearGradient>
			<path class="st17" d="M1259.3,1375.1l-20.1-51.6l-105.9-28.5c0,0-8.5,19.8,36,28.5c0,0-15.9,19-7.4,41.3
				C1170.3,1387,1260.3,1409.4,1259.3,1375.1z"/>
			
				<linearGradient id="SVGID_9_" gradientUnits="userSpaceOnUse" x1="-5872.9492" y1="989.9962" x2="-6105.0088" y2="650.6646" gradientTransform="matrix(-1 0 0 1 -4271.7715 0)">
				<stop  offset="0" style="stop-color:#FEBBBA"/>
				<stop  offset="1" style="stop-color:#FF928E"/>
			</linearGradient>
			<path class="st18" d="M1645.8,782.8c-4,2.6-35.8,123.4-9.2,174c26.6,50.7,107.8-6.1,129.8-79.3
				C1788.4,804.3,1753.1,714.5,1645.8,782.8z"/>
			
				<linearGradient id="SVGID_10_" gradientUnits="userSpaceOnUse" x1="-5745.3755" y1="757.5689" x2="-6070.6328" y2="1180.4032" gradientTransform="matrix(-1 0 0 1 -4036.6108 0)">
				<stop  offset="0" style="stop-color:#09005D"/>
				<stop  offset="1" style="stop-color:#1A0F91"/>
			</linearGradient>
			<path class="st19" d="M1856.2,877.5c18.2,96.3,78.5,70,121.3,112.8c69.3,69.5,168.4-2.1,264.7,63.7
				c69.5,47.5,103,169.1,69.7,267.3c-46.2,136-204.2,191.9-286,150.5c-78.2-39.6-67.1-158.1-172.4-203.9
				c-44.7-19.4-66.7-6.8-93.5-35.6c-46.9-50.5-34.2-148.4-29.3-186.1c10.6-81.9,36-96.7,23.8-132.6c-23.6-70-133.8-55.5-143-104.9
				c-8.4-45,71.5-130.2,146.7-116.8C1874.4,712.5,1848.1,834.6,1856.2,877.5z"/>
			<path class="st20" d="M2277.1,1298.3c1.4,0,2.6-1,3-2.5c14.9-66.7,8.1-121.5-20.1-162.7c-46.8-68.4-137.9-75.2-138.8-75.2
				c-1.4-0.3-3.1,1.3-3.2,3.1c-0.1,1.8,1.2,3.4,2.9,3.5c0.9,0.1,89.2,6.7,134.3,72.6c27.1,39.6,33.5,92.5,19,157.2
				c-0.4,1.8,0.6,3.5,2.2,4C2276.7,1298.2,2276.9,1298.3,2277.1,1298.3z"/>
			<path class="st21" d="M1979,1359.4c0.1,0,0.3,0,0.4-0.1c0.8-0.2,1.3-1.1,1.1-2c-14.5-60.1-40-101.8-75.6-124
				c-26-16.2-50.3-17.7-71.7-19c-20.7-1.3-38.5-2.4-52.9-16.2c-29.7-28.5-28-97.1,5.1-203.9c0.3-0.9-0.2-1.8-1-2.1
				c-0.8-0.3-1.7,0.2-1.9,1c-33.5,108.1-35,177.9-4.2,207.4c15.2,14.6,33.5,15.7,54.8,17c21.1,1.3,45,2.8,70.4,18.6
				c35,21.8,59.9,62.8,74.2,122C1977.7,1358.9,1978.3,1359.4,1979,1359.4z"/>
			<path class="st21" d="M1813.1,853.6c0.2,0,0.3,0,0.5-0.1c0.8-0.3,1.2-1.2,1-2.1c-11.5-37-44.8-31.5-80-25.7
				c-22.3,3.7-45.3,7.5-64.8,1.3c-14.6-4.7-23.2-11.9-25.7-21.5c-4.3-16.3,10.7-34.6,10.8-34.8c0.6-0.7,0.5-1.7-0.1-2.3
				c-0.6-0.6-1.6-0.6-2.1,0.1c-0.7,0.8-16.2,19.7-11.5,37.8c2.8,10.8,12.2,18.7,27.8,23.8c20.2,6.5,43.6,2.6,66.2-1.2
				c35.3-5.9,65.9-10.9,76.6,23.5C1811.9,853.2,1812.5,853.6,1813.1,853.6z"/>
		</g>
		<g>
			<g>
				<path class="st22" d="M2148.8,479.5c0-169.5,133-307,292.6-307c154.9,0,277.2,130.2,277.2,290.8
					c0,160.6-122.3,297.7-277.2,306.5C2281.8,778.9,2148.8,649,2148.8,479.5z"/>
			</g>
			<g>
				<path class="st15" d="M2175.5,478.7c0-153.7,120.5-278.2,265.2-278.2c140.4,0,251.2,118,251.2,263.5
					c0,145.5-110.8,269.8-251.2,277.8C2296.1,750.1,2175.5,632.4,2175.5,478.7z"/>
			</g>
			<g>
				<path class="st8" d="M2354.8,461.3H2331V359c0-40.2,27.8-74.1,64.8-79l48.6-6.4c20.9-2.7,42,4.3,57.7,19.4
					c15.8,15.1,24.8,36.8,24.8,59.5v89.3h-23.8v-89.3c0-15.4-6.1-30.1-16.8-40.3c-10.7-10.2-24.9-15-39.1-13.2l-48.6,6.4
					c-25,3.3-43.9,26.3-43.9,53.5V461.3z"/>
				<path class="st8" d="M2324,438.3l208.4-12.5c8.5-0.5,15.6,6.8,15.6,15.9V620c0,8.8-6.6,15.9-14.8,15.9h-203.3
					c-8,0-14.5-6.8-14.8-15.4l-5-165.8C2309.8,446.1,2316,438.8,2324,438.3z"/>
				<path class="st15" d="M2463,584.9l-12.6-39.1c-1.5-4.7-0.5-10,2.8-13.5c6.5-7.1,10.3-16.9,9.9-27.8
					c-0.8-19.1-15.3-34.6-32.9-35.3c-19.6-0.8-35.7,16.1-35.7,37c0,11.6,5,22,12.7,28.8c4,3.5,5.7,9.3,4,14.6l-11.4,35.3
					c-2.8,8.6,3.1,17.5,11.6,17.5h40.2C2459.8,602.4,2465.7,593.5,2463,584.9z"/>
			</g>
		</g>
		<g>
			<g>
				<g>
					<path class="st15" d="M707.8,2737.2c2.5,5.7,0.9,12.8-4,16.3c-10.6,7.6-21.7,14.9-33,21.5c-5.5,3.2-12.2,0.8-15.1-5.4
						c0-0.1-0.1-0.1-0.1-0.2c-2.7-6.2-0.6-13.7,4.8-16.9c10.7-6.3,21.2-13.2,31.3-20.4c5.2-3.7,12.1-2,15.4,3.9
						C707.4,2736.4,707.6,2736.8,707.8,2737.2z M620.4,2785.4c0.2,0.4,0.4,0.9,0.5,1.4c2.1,6.6-0.9,13.8-6.7,16.2
						c-11.9,4.8-24.2,9.1-36.3,12.7c-6,1.8-12.1-2.2-13.7-9c-1.6-6.8,2-13.7,7.9-15.5c11.6-3.5,23.2-7.5,34.5-12.1
						C612,2776.9,617.9,2779.7,620.4,2785.4z M525.7,2810.6c0.6,1.3,0.9,2.7,1.1,4.1c0.7,6.9-3.6,13.2-9.8,14.1
						c-12.6,1.7-25.3,2.8-38,3.2c-6.2,0.2-11.3-5.3-11.5-12.3c-0.2-7,4.6-12.8,10.8-13.1c12-0.4,24.1-1.4,36.1-3
						C519.2,2803,523.7,2805.9,525.7,2810.6z M428.4,2811.1c0.9,2.1,1.3,4.5,1.1,7c-0.7,7-6.2,12-12.3,11.2
						c-12.6-1.6-25.3-3.7-37.7-6.5c-6-1.4-10-8-8.8-14.9c1.2-6.9,7-11.3,13.1-10c11.8,2.6,23.8,4.7,35.8,6.2
						C423.5,2804.6,426.8,2807.3,428.4,2811.1z M333.4,2786.9c1.3,2.9,1.6,6.4,0.6,9.7c-2,6.6-8.3,10.1-14.2,7.8
						c-11.9-4.7-23.9-10-35.5-15.8c-5.6-2.8-8.2-10.3-5.7-16.7c2.5-6.4,9.1-9.3,14.7-6.5c11,5.5,22.4,10.6,33.7,15
						C329.9,2781.7,332.1,2784.1,333.4,2786.9z M245.4,2739.6c1.7,3.8,1.6,8.4-0.5,12.3c-3.2,5.9-10.1,7.8-15.4,4.1
						c-10.8-7.6-21.4-15.7-31.5-24.3c-5-4.2-6-12.1-2.3-17.7c3.7-5.6,10.7-6.8,15.6-2.6c9.7,8.1,19.7,15.9,30,23.1
						C243.1,2735.8,244.5,2737.5,245.4,2739.6z M39.2,2337c0.7,1.6,1.1,3.3,1.2,5.2c0.4,13.6,1.4,27.4,2.8,40.9
						c0.7,6.9-3.6,13.2-9.7,14.1c-6.1,0.8-11.7-4.1-12.4-11.1c-1.5-14.3-2.5-28.8-3-43.1c-0.2-7,4.6-12.8,10.8-13.1
						C33.4,2329.8,37.4,2332.7,39.2,2337z M168.9,2671.4c2.1,4.7,1.4,10.6-2,14.5c-4.3,5-11.4,5-15.8,0.1c-9-10.1-17.8-20.7-26-31.6
						c-4-5.3-3.5-13.3,1.2-17.9c4.7-4.5,11.7-3.9,15.7,1.4c7.8,10.4,16.1,20.5,24.7,30C167.6,2669,168.3,2670.2,168.9,2671.4z
						 M53.6,2446.1c0.3,0.7,0.6,1.5,0.8,2.4c3.1,13.2,6.7,26.3,10.8,39.2c2.1,6.6-0.9,13.8-6.7,16.2c-5.8,2.4-12.2-1.1-14.3-7.7
						c-4.3-13.5-8.1-27.4-11.4-41.2c-1.6-6.8,1.9-13.7,7.9-15.5C46,2438,51.3,2440.9,53.6,2446.1z M107.6,2585.5
						c2.5,5.7,0.9,12.8-4,16.3c-5.2,3.8-12.1,2-15.4-3.9c-6.8-12.1-13.2-24.7-19.1-37.4c0-0.1-0.1-0.2-0.1-0.2
						c-2.7-6.2-0.6-13.7,4.8-16.8c5.5-3.2,12.2-0.8,15.1,5.4c5.6,12.1,11.7,24,18.1,35.5C107.3,2584.7,107.5,2585.1,107.6,2585.5z"
						/>
					<path class="st15" d="M43.6,2248.2c1,2.2,1.4,4.8,1,7.5c-0.8,6.5-1.6,13-2.2,19.6c-0.6,7-6.1,12-12.3,11.2
						c-6.1-0.7-10.6-7-9.9-14c0.6-6.9,1.4-13.8,2.3-20.6c0.9-6.9,6.6-11.7,12.7-10.7C39,2241.9,42,2244.6,43.6,2248.2z"/>
				</g>
				<g>
					<path class="st15" d="M220.7,1918.9c2.4,5.5,1,12.3-3.5,15.9c-4.7,3.8-9.4,7.7-13.9,11.8c-4.9,4.3-11.9,3.3-15.7-2.2
						c-3.8-5.6-2.9-13.5,1.9-17.8c4.8-4.2,9.8-8.4,14.7-12.4c5-4.1,12-2.7,15.6,3C220.1,1917.7,220.4,1918.3,220.7,1918.9z"/>
					<path class="st15" d="M863.2,2101.4c2.3,5.2,4.5,10.5,6.7,15.9c2.6,6.4,0.1,13.9-5.5,16.8c-5.6,2.9-12.3,0-14.8-6.3
						c-5-12.3-10.4-24.4-16.1-36.1c-3-6.1-1.1-13.8,4.3-17.2c5.4-3.4,12.2-1.2,15.2,4.9C856.4,2086.6,859.9,2094,863.2,2101.4z
						 M890.6,2179.9c0.3,0.6,0.5,1.3,0.7,2c3.6,13.5,6.7,27.4,9.3,41.2c1.3,6.8-2.6,13.6-8.6,15c-6,1.4-12-3-13.2-9.8
						c-2.4-13.1-5.4-26.3-8.8-39.1c-1.8-6.7,1.6-13.8,7.5-15.8C882.7,2171.6,888.2,2174.5,890.6,2179.9z M820.7,2023.5
						c2.3,5.4,1.1,12-3.3,15.7c-4.9,4.2-11.9,3.1-15.6-2.5c-7.1-10.7-14.7-21.2-22.7-31.2c-4.1-5.2-3.8-13.2,0.8-17.9
						c4.6-4.7,11.7-4.2,15.8,1c8.3,10.5,16.4,21.6,23.9,32.8C820,2022.2,820.4,2022.8,820.7,2023.5z M907.9,2286.8
						c0.6,1.4,1,3,1.1,4.7c0.9,14.1,1.2,28.4,1.1,42.5c-0.1,7-5.1,12.6-11.3,12.5c-6.2-0.1-11.1-5.9-11-12.9c0.2-13.4-0.2-27-1-40.3
						c-0.4-7,4.2-13,10.3-13.5C901.8,2279.4,906,2282.3,907.9,2286.8z M754.8,1944.6c1.9,4.4,1.5,9.8-1.5,13.8c-4,5.3-11,6-15.7,1.5
						c-9-8.7-18.5-17-28.1-24.8c-5-4.1-6.2-12-2.6-17.7c3.6-5.7,10.5-7,15.6-3c10.2,8.2,20.1,17,29.6,26.1
						C753.2,1941.7,754.2,1943.1,754.8,1944.6z M675.3,1883.9c1.5,3.5,1.6,7.8-0.1,11.5c-2.9,6.2-9.6,8.6-15.1,5.3
						c-10.5-6.2-21.3-12-32.2-17.2c-5.7-2.7-8.4-10.1-6-16.6c2.4-6.4,8.9-9.5,14.6-6.7c11.5,5.5,22.9,11.6,33.9,18.1
						C672.7,1879.6,674.3,1881.6,675.3,1883.9z M586.1,1844.3c1.2,2.7,1.5,5.8,0.8,8.9c-1.6,6.8-7.7,10.7-13.7,8.9
						c-11.4-3.5-23.1-6.5-34.8-8.9c-6.1-1.3-10.1-7.8-9-14.7c1.1-6.9,6.9-11.4,13-10.2c12.2,2.5,24.5,5.7,36.6,9.4
						C582.2,1838.7,584.7,1841.2,586.1,1844.3z M491.5,1827.7c0.8,1.8,1.2,3.9,1.2,6.2c-0.3,7-5.4,12.4-11.6,12.1
						c-11.8-0.6-23.8-0.6-35.6,0c-6.2,0.3-11.4-5.1-11.6-12.1c-0.3-7,4.5-12.9,10.7-13.2c12.4-0.6,25-0.6,37.5,0
						C486.1,1820.9,489.7,1823.7,491.5,1827.7z M395.9,1835.1c0.5,1,0.8,2.2,1,3.4c1.1,6.9-2.9,13.5-9,14.7
						c-11.6,2.4-23.3,5.4-34.7,8.9c-6,1.8-12.1-2.2-13.7-8.9c-1.6-6.8,1.9-13.7,7.8-15.5c12-3.7,24.3-6.8,36.5-9.3
						C388.9,1827.2,393.7,1830.2,395.9,1835.1z M304.2,1866c0.1,0.2,0.2,0.5,0.3,0.7c2.4,6.4-0.2,13.9-5.9,16.6
						c-8,3.8-16,8-23.8,12.4c-2.8,1.6-5.6,3.2-8.4,4.8c-5.5,3.2-12.2,0.8-15.1-5.4c-3-6.2-0.8-13.8,4.7-17.1
						c2.9-1.7,5.9-3.4,8.8-5.1c8.2-4.6,16.6-9,25-13C295.3,1857.4,301.6,1860.1,304.2,1866z"/>
					<path class="st15" d="M904.1,2395.6c1,2.3,1.4,4.9,1,7.5c-0.9,6.8-2,13.7-3.1,20.5c-1.2,6.9-7,11.3-13.1,10
						c-6.1-1.4-10-8-8.8-14.9c1.1-6.5,2.1-13,3-19.4c0.9-6.9,6.6-11.7,12.7-10.6C899.5,2389.3,902.5,2392,904.1,2395.6z"/>
				</g>
				<g>
					<path class="st15" d="M781.4,2445.4c0.9-2.3,0.4-5-1.2-6.7l-46.2-49.6c5.7-33,6.9-67.3,2.9-101.6l48.8-45.9
						c1.7-1.6,2.3-4.3,1.5-6.6l-26.9-80.9c-0.8-2.4-2.8-3.9-5-3.8l-63.5,1.9c-17-28.8-37.8-53.7-61.4-74.3l5.9-71.7
						c0.2-2.5-1-4.9-3-5.9l-69.4-35.8c-2-1-4.4-0.5-5.9,1.3l-43.6,52.3c-29.1-6.6-59.3-7.9-89.6-3.5l-40.6-55.5
						c-1.4-1.9-3.8-2.7-5.9-1.8l-71.3,30.3c-2.1,0.9-3.4,3.2-3.4,5.7l1.8,72c-25.4,19.2-47.3,42.8-65.4,69.4l-63.3-6.8
						c-2.2-0.2-4.3,1.1-5.2,3.4l-31.4,78.7c-0.9,2.3-0.4,5,1.2,6.7l46.2,49.6c-5.7,33-6.9,67.3-2.9,101.6l-48.8,45.9
						c-1.7,1.6-2.3,4.3-1.5,6.6l26.9,80.9c0.8,2.4,2.8,3.9,5,3.8l63.5-1.9c17,28.8,37.8,53.7,61.4,74.3l-5.9,71.7
						c-0.2,2.5,1,4.9,3,5.9l69.4,35.8c2,1,4.4,0.5,5.9-1.3l43.6-52.3c29.1,6.6,59.3,7.9,89.6,3.5l40.6,55.5c1.4,1.9,3.8,2.7,5.9,1.8
						l71.3-30.3c2.1-0.9,3.4-3.2,3.4-5.7l-1.8-72c25.4-19.2,47.3-42.8,65.4-69.4l63.3,6.8c2.2,0.2,4.3-1.1,5.2-3.4L781.4,2445.4z"/>
					<path class="st23" d="M529.4,2289.2c16.6,38,6.7,85.1-24.8,109.9c-34.7,27.3-82.5,17.4-106.6-21.9
						c-11.7-19.1-16.1-42.2-12.5-65c3.6-22.8,14.8-42.7,31.6-55.9c34.7-27.3,82.5-17.4,106.6,21.9
						C525.8,2281.7,527.7,2285.4,529.4,2289.2z M408.2,2357.1c1.3,2.9,2.8,5.8,4.4,8.5c18.5,30.2,55.2,37.7,81.8,16.8
						c26.6-20.9,33.2-62.5,14.6-92.7c-18.5-30.2-55.2-37.7-81.8-16.8c-12.9,10.1-21.5,25.3-24.3,42.9
						C400.7,2330,402.6,2344.3,408.2,2357.1z"/>
					<path class="st23" d="M627.7,2231.9c2.9,6.5,5.4,13.2,7.7,20.1l0,0c0.7,2.2,1.4,4.4,2.1,6.6c3.3,10.8,5.7,22,7.4,33.2
						c0,0.2,0,0.3,0.1,0.5c0.1,0.4,0.1,0.9,0.2,1.3c0.1,0.8,0.2,1.7,0.3,2.5c0.3,2.2-0.7,4.3-2.4,5.3c-0.4,0.2-0.9,0.4-1.3,0.5
						c-2.4,0.4-4.7-1.5-5.1-4.3c-1.9-14.2-5.1-28.4-9.6-41.9c-22.4-67.5-73.3-113.7-131.3-127.7c-32.3-7.8-66.8-5.6-99.9,8.5
						c-5.8,2.5-11.5,5.2-16.9,8.3c-36.9,20.7-66,54.9-83.2,98c-19.7,49.5-21.3,104.7-4.4,155.6c35,105.1,138.7,158.5,231.2,119.1
						c5.7-2.4,11.3-5.2,16.7-8.2c23.5-13.2,44.2-32.1,60.5-55.4c0.4-0.6,0.9-1.1,1.5-1.4c1.5-0.8,3.4-0.7,4.8,0.6
						c1.9,1.8,2.3,4.9,0.7,7.1c-17.1,24.5-38.8,44.3-63.5,58.2c-5.7,3.2-11.5,6.1-17.5,8.6c-97.2,41.3-206.1-14.8-242.7-125.1
						c-17.8-53.4-16.1-111.4,4.6-163.4c18-45.2,48.7-81.1,87.4-102.8c5.7-3.2,11.7-6.1,17.8-8.7c47.1-20,98.2-18,144.1,5.6
						C576.8,2153.2,608.5,2188,627.7,2231.9z"/>
				</g>
			</g>
			<g>
				<g>
					<path class="st15" d="M1141.1,2976.6c1.3,3,0.8,6.8-1.5,9.2c-4.3,4.5-8.8,8.9-13.3,13.1c-2.9,2.7-7.3,2.2-9.7-1.1
						c-2.4-3.3-2-8.3,1-11c4.3-4,8.6-8.2,12.7-12.5c2.8-2.9,7.2-2.7,9.7,0.4C1140.4,2975.3,1140.8,2975.9,1141.1,2976.6z"/>
					<path class="st15" d="M1099,3013.2c1.6,3.6,0.5,7.9-2.5,10.1c-8.5,6.1-17.4,11.7-26.4,16.8c-1.9,1.1-3.8,2.1-5.7,3.1
						c-3.5,1.8-7.5-0.1-9.2-3.8c-1.6-3.9-0.1-8.6,3.3-10.4c1.8-1,3.7-2,5.5-3c8.6-4.8,17.1-10.2,25.2-16c3.2-2.3,7.5-1.2,9.5,2.5
						C1098.8,3012.7,1098.9,3012.9,1099,3013.2z M1034.3,3047.6c0.1,0.3,0.3,0.7,0.4,1c1.2,4.1-0.8,8.5-4.4,9.9
						c-11.6,4.3-23.6,7.9-35.5,10.5c-3.7,0.8-7.4-2-8.1-6.2c-0.7-4.2,1.7-8.3,5.4-9.2c11.4-2.5,22.8-5.9,33.9-10
						C1029.2,3042.5,1032.7,3044.2,1034.3,3047.6z M964,3063.2c0.4,0.9,0.6,1.9,0.7,2.9c0.3,4.3-2.6,8-6.4,8.3
						c-12.2,1-24.5,1.1-36.7,0.3c-3.8-0.2-6.7-3.9-6.5-8.2c0.2-4.3,3.4-7.6,7.2-7.4c11.6,0.7,23.4,0.6,35-0.3
						C960.2,3058.7,962.8,3060.5,964,3063.2z M892.5,3058.8c0.6,1.5,0.9,3.1,0.6,4.9c-0.7,4.3-4.3,7.1-8,6.3
						c-12-2.5-24-5.8-35.7-9.9c-3.6-1.3-5.7-5.7-4.5-9.8c1.1-4.1,5-6.4,8.6-5.1c11.1,3.9,22.6,7.1,34,9.5
						C889.7,3055,891.5,3056.6,892.5,3058.8z M824,3034.6c0.9,2,1,4.5,0.1,6.7c-1.6,3.9-5.6,5.7-9.1,3.9
						c-11.1-5.7-22.1-12.2-32.5-19.4c-3.3-2.2-4.3-7.1-2.3-10.7c2-3.7,6.2-4.9,9.5-2.6c10,6.9,20.4,13.1,31,18.5
						C822.2,3031.7,823.3,3033.1,824,3034.6z M762.8,2992.4c1.2,2.6,0.9,5.9-0.8,8.3c-2.4,3.4-6.7,4-9.7,1.3
						c-9.6-8.6-18.8-18-27.4-27.8c-2.7-3.1-2.6-8,0.1-11.1c2.7-3,7.1-3,9.8,0.1c8.2,9.4,16.9,18.3,26.1,26.5
						C761.7,2990.5,762.4,2991.4,762.8,2992.4z M712.5,2934.5c1.4,3.3,0.7,7.4-2,9.7c-3,2.6-7.4,2-9.7-1.5
						c-7.4-11-14.3-22.6-20.5-34.6c-1.9-3.8-0.8-8.5,2.5-10.7c3.3-2.2,7.5-0.9,9.4,2.8c5.9,11.4,12.5,22.5,19.6,33
						C712.1,2933.6,712.3,2934.1,712.5,2934.5z M664,2826.1c0.2,0.4,0.3,0.8,0.4,1.3c2.8,10.9,6.3,21.9,10.2,32.6
						c0.6,1.6,1.2,3.2,1.8,4.8c1.5,4-0.1,8.6-3.6,10.3c-3.5,1.7-7.7-0.1-9.1-4.1c-0.6-1.7-1.3-3.4-1.9-5.1
						c-4.1-11.2-7.7-22.7-10.6-34.1c-1.1-4.1,1-8.5,4.7-9.7C659.1,2821,662.5,2822.8,664,2826.1z"/>
				</g>
				<g>
					<path class="st15" d="M1202,2583.4c1.7,3.8,0.3,8.5-3,10.4c-3.4,2-7.5,0.4-9.3-3.4c-5.2-11.6-11.2-22.9-17.6-33.6
						c-2.1-3.6-1.3-8.4,1.8-10.9c3.2-2.4,7.4-1.5,9.6,2.1C1190.2,2559.3,1196.4,2571.2,1202,2583.4
						C1201.9,2583.3,1202,2583.4,1202,2583.4z M1216.2,2620.1c0.1,0.3,0.2,0.5,0.3,0.8c4.2,12.8,7.7,26,10.5,39.2
						c0.9,4.2-1.4,8.4-5.1,9.4c-3.7,1-7.4-1.6-8.3-5.8c-2.7-12.6-6-25.2-10-37.4c-1.3-4.1,0.5-8.5,4.1-10
						C1211,2614.8,1214.6,2616.6,1216.2,2620.1z M1162.4,2517.2c1.4,3.1,0.8,7-1.6,9.4c-2.9,2.8-7.2,2.5-9.7-0.8
						c-7.6-9.8-15.7-19.2-24.2-27.9c-2.8-2.9-3.1-7.8-0.5-11c2.5-3.2,6.9-3.5,9.7-0.6c8.9,9.1,17.5,18.9,25.4,29.2
						C1161.8,2516.1,1162.2,2516.6,1162.4,2517.2z M1232.5,2697.9c0.3,0.8,0.6,1.7,0.7,2.6c1.3,13.5,2,27.3,1.8,40.9
						c0,4.3-3.2,7.8-7,7.7c-3.8-0.1-6.9-3.6-6.8-7.9c0.1-13-0.5-26.1-1.8-39c-0.4-4.3,2.3-8.2,6.1-8.6
						C1228.6,2693.2,1231.3,2695,1232.5,2697.9z M1110,2463.8c1.1,2.5,1,5.5-0.5,8c-2.2,3.5-6.5,4.4-9.6,1.9
						c-9.4-7.5-19.3-14.3-29.4-20.4c-3.4-2-4.6-6.8-2.9-10.6c1.8-3.8,6-5.3,9.3-3.2c10.6,6.4,21,13.6,30.8,21.4
						C1108.7,2461.6,1109.5,2462.7,1110,2463.8z M1047.8,2426.2c0.8,1.9,1,4.2,0.3,6.3c-1.4,4-5.4,6-8.9,4.5
						c-10.7-4.7-21.8-8.7-32.8-11.9c-3.7-1.1-5.9-5.3-5-9.5c0.9-4.2,4.7-6.7,8.4-5.6c11.6,3.4,23.2,7.5,34.4,12.5
						C1045.7,2423.1,1047,2424.5,1047.8,2426.2z M979.4,2406.5c0.6,1.3,0.8,2.9,0.7,4.5c-0.5,4.3-3.9,7.3-7.7,6.8
						c-11.4-1.7-23-2.5-34.4-2.6c-3.8,0-6.9-3.6-6.9-7.9c0-4.3,3.1-7.8,6.9-7.8c12,0.1,24.1,1,36.1,2.7
						C976.5,2402.5,978.4,2404.2,979.4,2406.5z"/>
					<path class="st15" d="M1231.8,2778.2c0.6,1.4,0.8,2.9,0.7,4.5c-0.8,6.6-1.7,13.3-2.8,19.7c-0.7,4.2-4.3,7-8.1,6.2
						c-3.7-0.8-6.2-4.9-5.5-9.2c1.1-6.2,2-12.5,2.7-18.8c0.5-4.3,4-7.3,7.8-6.7C1228.9,2774.2,1230.8,2775.9,1231.8,2778.2z"/>
				</g>
				<g>
					<path class="st15" d="M1149.5,2817.1c0.6-1.5,0.3-3.4-0.8-4.5l-30.9-33.2c3.8-22.1,4.6-45,1.9-68l32.7-30.7
						c1.1-1.1,1.6-2.9,1-4.4l-18-54.2c-0.5-1.6-1.9-2.6-3.4-2.6l-42.5,1.3c-11.4-19.3-25.3-36-41.1-49.7l3.9-48c0.1-1.7-0.7-3.3-2-4
						l-46.5-23.9c-1.4-0.7-3-0.3-4,0.9l-29.2,35c-19.5-4.4-39.7-5.3-60-2.4l-27.1-37.1c-1-1.3-2.5-1.8-3.9-1.2l-47.7,20.3
						c-1.4,0.6-2.3,2.1-2.3,3.8l1.2,48.2c-17,12.9-31.7,28.6-43.7,46.5l-42.3-4.6c-1.5-0.2-2.9,0.8-3.5,2.3l-21,52.6
						c-0.6,1.5-0.3,3.4,0.8,4.5l30.9,33.2c-3.8,22.1-4.6,45-1.9,68l-32.7,30.7c-1.1,1.1-1.6,2.9-1,4.4l18,54.2
						c0.5,1.6,1.9,2.6,3.4,2.6l42.5-1.3c11.4,19.3,25.3,36,41.1,49.7l-3.9,48c-0.1,1.7,0.7,3.3,2,4l46.5,23.9c1.4,0.7,3,0.3,4-0.9
						l29.2-35c19.5,4.4,39.7,5.3,60,2.3l27.1,37.1c1,1.3,2.5,1.8,3.9,1.2l47.7-20.3c1.4-0.6,2.3-2.1,2.3-3.8l-1.2-48.2
						c17-12.9,31.7-28.6,43.7-46.5l42.3,4.6c1.5,0.2,2.9-0.8,3.5-2.3L1149.5,2817.1z"/>
					<path class="st23" d="M981.7,2712.2c5,11.3,6.6,24.1,4.6,36.7c-2.5,15.6-10.1,29.1-21.6,38.1c-23.6,18.6-56.2,11.9-72.6-14.9
						c-16.4-26.9-10.6-63.8,13-82.3c11.4-9,25.3-12.4,39-9.6c13.7,2.8,25.7,11.5,33.6,24.5C979.3,2707.1,980.6,2709.6,981.7,2712.2z
						 M900.6,2757.6c0.8,1.9,1.8,3.7,2.9,5.5c12.1,19.7,36.1,24.7,53.4,11c8.4-6.6,14-16.6,15.8-28c1.8-11.4-0.4-23-6.3-32.6l0,0
						c-5.9-9.6-14.6-16-24.7-18c-10.1-2.1-20.3,0.4-28.7,7C897.2,2715,892.2,2738.6,900.6,2757.6z"/>
					<path class="st23" d="M1050.2,2672.5c1.9,4.4,3.7,9,5.3,13.7c3.1,9.4,5.4,19.2,6.8,29c0.1,0.4,0.1,0.9,0.2,1.3
						c0.5,3.4-1.1,6.7-3.7,8.2c-0.6,0.4-1.3,0.6-2.1,0.7c-3.8,0.6-7.3-2.3-7.8-6.6c-1.2-9.2-3.3-18.4-6.2-27.2l0,0
						c-0.2-0.5-0.3-1-0.5-1.4c-7.1-20.7-18.4-38.6-33-52.6c-7.9-7.6-16.8-14-26.4-19.1c-0.1,0-0.2-0.1-0.2-0.1
						c-0.2-0.1-0.5-0.3-0.7-0.4c-28.3-14.6-59.8-15.8-88.9-3.4c-3.8,1.6-7.4,3.4-11,5.4c-23.9,13.4-42.7,35.5-53.9,63.4
						c-12.8,32-13.8,67.8-2.8,100.7c11,32.9,32.6,59.1,60.8,73.7c28.3,14.6,59.8,15.8,88.9,3.4c3.7-1.6,7.3-3.3,10.8-5.3
						c15.2-8.6,28.6-20.8,39.2-35.9c0.7-0.9,1.4-1.6,2.3-2.1c2.3-1.3,5.2-1.1,7.4,0.9c3,2.7,3.5,7.6,1.1,11
						c-11.8,16.9-26.8,30.6-43.8,40.2c-3.9,2.2-8,4.2-12.1,6c-32.5,13.8-67.8,12.4-99.4-3.9c-31.6-16.3-55.8-45.5-68-82.4
						c-12.3-36.9-11.1-76.9,3.2-112.7c12.4-31.2,33.6-55.9,60.3-70.9c4-2.2,8.1-4.2,12.3-6
						C950.9,2573.2,1020.9,2605.6,1050.2,2672.5z"/>
				</g>
			</g>
		</g>
	</g>
</g>
</svg>
